<?xml version="1.0" standalone="no"?>
<!DOCTYPE svg PUBLIC "-//W3C//DTD SVG 1.1//EN" "http://www.w3.org/Graphics/SVG/1.1/DTD/svg11.dtd" >
<svg xmlns="http://www.w3.org/2000/svg">
<metadata>
This is a custom SVG webfont generated by Font Squirrel.
Copyright   : Copyright c 2010 by Anatoletype  fRED Published  by Anatoletype All rights reserved
Designer    : Elena Albertoni and fRED Bordfeld
Foundry     : Anatoletype  fRED
Foundry URL : httpanatoletypenet
</metadata>
<defs>
<font id="webfontLQ5v0P1l" horiz-adv-x="1161" >
<font-face units-per-em="2048" ascent="1556" descent="-492" />
<missing-glyph horiz-adv-x="468" />
<glyph unicode=" "  horiz-adv-x="468" />
<glyph unicode="&#x09;" horiz-adv-x="468" />
<glyph unicode="&#xa0;" horiz-adv-x="468" />
<glyph unicode="!" horiz-adv-x="659" d="M225 76q0 78 31 121t102 43q49 0 74 -25t25 -72q0 -45 -8 -71q-10 -35 -25 -49q-20 -20 -43 -29q-27 -10 -64 -10q-47 0 -69.5 22.5t-22.5 69.5zM322 422q3 25 6 61q2 16 5 37t5 47q4 47 10 101l12 106q2 16 7.5 53t7.5 54q4 35 12 96l80 516h174l-78 -516 q-2 -14 -16 -96l-21 -107l-20 -106l-19 -101q-4 -27 -10 -49t-8 -35q-10 -47 -12 -61h-135z" />
<glyph unicode="&#x22;" horiz-adv-x="827" d="M344 1018l59 475h172l-94 -475h-137zM672 1018l57 475h170l-92 -475h-135z" />
<glyph unicode="#" horiz-adv-x="1570" d="M201 412l24 157h326l129 328h-297l25 162h333l156 411h154l-158 -411h266l162 411h149l-157 -411h286l-24 -162h-326l-125 -328h293l-24 -157h-330l-160 -412h-149l157 412h-270l-158 -412h-151l160 412h-291zM702 569h271l125 328h-269z" />
<glyph unicode="$" d="M137 166l129 135q27 -25 64 -47q41 -27 73 -39q51 -20 89 -27q6 0 21 -3t24 -5l84 545l-95 63q-57 41 -94 80q-41 45 -65 97q-25 52 -25 116q0 94 43 168q41 72 117 127q74 55 164 82q55 18 112 25l33 209h154l-33 -209q6 0 16 -1t17 -3q45 -8 98 -25q43 -12 94 -41 q47 -25 88 -57l-127 -142q-59 51 -133 74q-37 12 -80 19l-78 -490q59 -35 107 -69q47 -33 92 -82q47 -51 68 -95q25 -51 24 -118q0 -63 -22 -125q-20 -57 -60 -109q-33 -45 -90 -88q-52 -40 -116.5 -67.5t-135.5 -43.5l-28 -6l-41 -264h-154l39 256q-61 4 -90 10 q-59 12 -111 33q-57 25 -96 51q-45 33 -76 66zM535 1128q0 -51 24 -94q20 -37 66 -78q31 -27 63 -51l64 406q-41 -4 -56 -8q-49 -12 -86 -33q-29 -16 -55 -60q-20 -33 -20 -82zM692 188q4 0 13.5 2.5t13.5 4.5q66 16 104 43q46 31 74 73q27 41 27 97q0 53 -25 96 q-20 37 -65 78q-61 49 -72 57z" />
<glyph unicode="%" horiz-adv-x="1875" d="M268 975q0 72 8 129q10 72 29 125q25 70 53 114q31 47 80 91q45 39 108.5 61.5t143.5 22.5q71 0 123 -25q43 -20 84 -72q31 -39 47 -102q14 -55 14 -123q0 -74 -8 -131q-8 -63 -30 -125q-23 -63 -52 -113q-27 -47 -80 -92q-45 -39 -108.5 -61.5t-142.5 -22.5 q-66 0 -123 27q-51 25 -84 70t-47 102q-15 55 -15 125zM330 8l1308 1534l121 -82l-1308 -1534zM444 989q0 -33 6.5 -69.5t20.5 -65.5t41 -49q25 -18 63 -19q51 0 88 25t60 66q23 43 35 86q6 27 16 92q6 43 6 78q0 12 1 28.5t1 18.5q0 35 -6 71.5t-20 65.5q-16 33 -39 49 q-25 18 -64 18q-31 0 -57 -12q-23 -10 -51 -35q-23 -20 -43 -57q-18 -33 -31 -78q-12 -43 -18 -96q-9 -70 -9 -117zM1155 295q0 72 8 129q10 66 31 127q23 63 51 113q27 47 80 92q41 37 109 59q63 23 143 23q66 0 123 -27q47 -23 84 -70q31 -39 47 -102q14 -55 14 -123 q0 -59 -10 -131t-29 -125q-25 -74 -51 -113q-34 -52 -80 -92q-43 -39 -110 -61q-63 -23 -142 -23q-66 0 -123 27q-47 23 -83 70q-31 39 -48 102q-14 55 -14 125zM1331 309q0 -33 6 -69.5t20.5 -65.5t41.5 -49q25 -18 61 -19q51 0 88 25t60 66q23 43 35 86t18 92q6 43 6 78 v47q0 47 -4 71q-6 37 -21 66q-12 27 -40 47q-27 20 -64 21q-31 0 -57.5 -12.5t-48.5 -35.5q-27 -27 -43 -57q-18 -33 -31 -78q-12 -43 -19 -96q-8 -70 -8 -117z" />
<glyph unicode="&#x26;" horiz-adv-x="1556" d="M172 336q0 82 29 158q25 66 80 135q45 55 118 106q68 46 148 68q-51 14 -94 45q-43 29 -70 65q-27 35 -43 82q-14 41 -14 86q0 104 45 187q47 86 125 139q82 57 182 84q104 29 215 29q61 0 96 -4q52 -6 105 -19q47 -10 96 -31q49 -18 80 -45q33 -27 51 -61q14 -29 8 -78 l-24 -162h352l-23 -145h-352l-94 -623q-8 -51 -6 -94q2 -41 18 -70q16 -31 47 -45q33 -16 78 -16q4 0 14.5 1t16.5 1q10 0 39 4q14 2 38.5 6t34.5 8l5 -133q-29 -10 -39 -14q-2 0 -20.5 -6t-29.5 -8l-53 -11q-37 -4 -51 -4q-72 0 -137 21q-55 18 -90 61t-43 105q-8 63 6 155 l141 928q4 25 -10 41q-18 23 -41 33q-33 14 -62 22q-45 12 -69.5 16.5t-69.5 8.5t-57 4q-59 0 -125 -16q-63 -16 -110.5 -45t-75.5 -78q-29 -47 -29 -113q0 -55 22 -94q29 -49 68 -78q41 -29 107 -49q61 -18 141 -19h37l-25 -153h-57q-76 0 -160 -23q-76 -20 -143 -65 q-61 -41 -103 -105q-39 -59 -39 -141q0 -55 25 -111q20 -45 63 -81q39 -33 99 -52q51 -16 129 -16q70 0 98 4q61 8 90 16l10 -133q-43 -20 -104 -32q-49 -10 -139 -11q-109 0 -185 23q-88 27 -143 69q-59 47 -92 113q-35 70 -35 160z" />
<glyph unicode="'" horiz-adv-x="479" d="M340 1049l53 444h164l-84 -444h-133z" />
<glyph unicode="(" horiz-adv-x="710" d="M231 432q0 174 33 324q35 162 90 291q58 138 142 264q82 125 182 243l119 -67q-61 -82 -119 -168q-51 -76 -96 -164t-74 -164q-37 -98 -53 -166q-23 -86 -31 -174q-10 -98 -10 -182q0 -94 8 -170q9 -86 24 -172q14 -82 37 -168q18 -68 52 -154l-148 -77q-31 61 -68 168 q-31 90 -49 180q-20 102 -28 182q-11 98 -11 174z" />
<glyph unicode=")" horiz-adv-x="669" d="M598.014 848.026q0 -173.989 -32.998 -323.98q-34.9971 -161.99 -89.9941 -290.982q-57.9961 -137.991 -141.991 -263.983q-81.9951 -124.992 -181.989 -242.985l-118.992 66.9961q60.9961 81.9951 118.992 167.989q50.9971 75.9961 95.9941 163.99 q44.998 87.9951 73.9961 163.99q36.9971 97.9941 52.9961 165.99q22.999 85.9941 30.998 173.989q10 97.9941 10 181.988q0 93.9941 -8 169.99q-8.99902 85.9941 -23.998 171.989q-13.999 81.9951 -36.998 167.989q-17.999 67.9961 -51.9971 153.991l147.991 76.9951 q30.998 -60.9961 67.9961 -167.989q30.998 -89.9951 48.9971 -179.989q19.999 -101.994 27.998 -181.989q10.999 -97.9941 10.999 -173.989z" />
<glyph unicode="*" horiz-adv-x="976" d="M209 858l360 195l-301 194l68 99l280 -203l60 377h102l-57 -377l342 203l39 -99l-365 -194l303 -195l-69 -98l-279 203l-57 -377h-105l60 377l-344 -203z" />
<glyph unicode="+" horiz-adv-x="1536" d="M348 565l25 154h432l69 448h154l-70 -448h435l-25 -154h-432l-78 -491h-153l75 491h-432z" />
<glyph unicode="," horiz-adv-x="579" d="M129 -254l31 51q2 4 35 66q10 16 28 65q12 31 13 45q0 10 -7 21q-2 2 -5 6t-6 9t-5 9q-8 12 -14 33q-8 25 -9 47q0 37 13 66q10 23 30 43q14 14 43 24q23 8 50 9q43 0 69 -25q29 -25 29 -82q0 -41 -21 -106q-20 -63 -47 -115q-37 -68 -65 -113q-43 -63 -70 -98z" />
<glyph unicode="-" horiz-adv-x="825" d="M244 498l22 145h498l-25 -145h-495z" />
<glyph unicode="." horiz-adv-x="573" d="M190 76q0 78 31 121t101 43q49 0 73.5 -25t24.5 -72q0 -45 -8 -71q-10 -33 -27 -49q-20 -20 -43 -29q-27 -10 -61 -10q-45 0 -68 22.5t-23 69.5z" />
<glyph unicode="/" horiz-adv-x="696" d="M0 -190l741 1683h156l-741 -1683h-156z" />
<glyph unicode="0" horiz-adv-x="1251" d="M205 509.5q0 106.5 16 231.5q14 113 49 220q31 94 88 192q55 94 125 156q72 63 168 100q100 39 213 39q74 0 129 -21q57 -20 103 -57q41 -33 78 -86q31 -45 55 -110q25 -68 33 -127q10 -76 10 -138q0 -109 -17 -233q-14 -113 -49 -219q-33 -102 -86 -192.5t-125 -153.5 q-76 -68 -168 -103q-94 -37 -211 -37q-104 0 -184 45q-82 45 -129 117q-49 74 -73.5 172t-24.5 204.5zM399 561q0 -76 13 -149q12 -76 42.5 -133.5t80 -94.5t127 -37t139 31t108.5 84q47 55 78 123q35 78 53 150q18 68 29 161q8 74 8 160q0 70 -4 102q-6 51 -18 97t-30.5 86 t-49.5 67q-39 35 -70 47q-43 16 -90 17q-70 0 -135 -33q-57 -29 -107 -84q-43 -49 -79 -125q-31 -61 -54 -149q-23 -80 -30 -162q-11 -92 -11 -158z" />
<glyph unicode="1" horiz-adv-x="1003" d="M178 0l25 152h284l170 1099l-309 -116l-24 137l358 145h178l-196 -1265h262l-25 -152h-723z" />
<glyph unicode="2" horiz-adv-x="1101" d="M145 0l25 152l375 360l162 162q72 76 120 139q53 70 76 127q27 68 27 125q0 53 -19 92q-20 45 -49 68q-31 25 -78 37q-53 14 -98 14q-72 0 -156 -19q-96 -20 -172 -51l-30 148q35 18 92 39q33 12 102 28q53 12 107 19q74 8 104 8q80 0 154 -23q76 -23 123 -61 q51 -41 82 -104q31 -61 30 -144q0 -90 -22 -170q-20 -72 -70 -147q-46 -71 -117 -148l-165 -172l-334 -327h600l-25 -152h-844z" />
<glyph unicode="3" horiz-adv-x="1075" d="M106 59l64 156q78 -35 166 -53q86 -18 166 -19q57 0 118.5 22.5t106.5 61.5q51 45 76 90q29 53 28 115q0 68 -32 109q-35 45 -86 71q-49 27 -117 39q-53 10 -131 11h-109l25 151h119q68 0 135 21q66 20 125 59q55 37 94 92q37 51 37 119q0 41 -21 78q-18 33 -53 55 q-31 18 -74 29q-47 10 -90 10q-27 0 -71 -4q-23 -2 -68 -10q-29 -6 -70 -17l-38.5 -13l-32.5 -11l-31 149q43 18 86 33q46 15 92 24l90 15q45 6 90 6q70 0 148 -21q70 -18 121 -57q55 -43 84 -96q31 -57 30 -133q0 -80 -22.5 -137.5t-65.5 -106.5q-43 -51 -92 -82 q-53 -35 -106 -55q49 -18 84 -39q45 -27 73 -59q33 -35 52 -87q20 -55 20 -110q0 -113 -47 -207q-45 -88 -125 -154q-82 -66 -182 -98q-109 -35 -217 -35q-46 0 -92.5 6.5t-92.5 18.5q-53 14 -88 27q-41 13 -76 36z" />
<glyph unicode="4" horiz-adv-x="1208" d="M131 342l31 188l723 887h241l-143 -923h215l-22 -152h-218l-53 -342h-174l53 342h-653zM332 494h477l111 735z" />
<glyph unicode="5" horiz-adv-x="1128" d="M166 66l61 161q25 -12 78 -32q41 -16 82 -25q61 -12 86 -16q47 -6 94 -7q76 0 138 25q66 27 106 70q45 47 68 108q25 63 24 139q0 57 -18 101q-16 39 -54 72q-29 27 -83 45q-49 16 -103 16q-20 0 -78 -4q-66 -4 -92 -8q-68 -8 -94 -15q-41 -8 -82 -18l117 739h731 l-25 -151h-557l-59 -385q6 0 22.5 4t22.5 4q14 2 47 6q16 2 47 2h47q86 0 160 -25q68 -23 127 -71q55 -47 86 -113q33 -72 33 -151q0 -129 -43 -234q-45 -109 -117 -178q-82 -78 -180 -115q-104 -39 -236 -39q-51 0 -104 6q-39 4 -99 21q-41 10 -83 31q-50 23 -70 37z" />
<glyph unicode="6" horiz-adv-x="1163" d="M186 442q0 115 18.5 236t55.5 231q35 106 96 209q59 100 138 172q76 70 182 115q102 43 225 43q43 0 86 -6q37 -6 80 -19q61 -18 74 -24q45 -20 63 -33l-69 -152q-16 8 -58 25q-20 8 -65 21q-23 6 -72 14q-25 4 -70 4q-82 0 -149 -29q-66 -29 -117 -75q-49 -47 -88 -111 q-33 -55 -63 -129q-4 -8 -21 -53l-16 -45l-17 -41q-2 -8 -8 -22.5t-8 -20.5l8 -4q23 35 53 59q33 27 66 47q29 16 47 24.5t59 20.5q4 0 66 12q35 6 70 7q84 0 157.5 -29t124.5 -80t82 -123t31 -156q0 -121 -41 -225t-114.5 -178t-176.5 -115q-104 -41 -225 -41 q-100 0 -174 37q-78 39 -127 101q-51 63 -76 149q-27 94 -27 184zM367 410q0 -68 20 -115q23 -53 57 -84q35 -33 86 -51q49 -18 109 -19q70 0 129 27q57 27 104 76q43 46 68 110.5t25 134.5q0 59 -19 109q-16 43 -53 80q-31 31 -84 51q-49 18 -109 19q-70 0 -133 -29 q-57 -27 -104 -76q-47 -51 -70 -106q-26 -66 -26 -127z" />
<glyph unicode="7" horiz-adv-x="1038" d="M299 1266l25 151h835l-22 -135l-117 -168l-125 -201q-78 -129 -127 -223q-31 -59 -115 -235q-55 -117 -98 -234q-47 -127 -72 -221h-176q28 114 74 233q51 133 100 240q43 94 117 234q33 63 125 219q41 70 123 190q59 88 106 150h-653z" />
<glyph unicode="8" horiz-adv-x="1179" d="M186 301q0 100 35 168q37 70 94 125q55 51 131 96q66 37 99 53l-29 17q-49 31 -96 74q-41 37 -68 92q-27 53 -26 112q0 95 43 172q45 80 110 129q71 52 160 80q86 27 186 27q72 0 136 -19q59 -16 116 -57q51 -35 82 -92q33 -59 33 -123q0 -94 -37 -163.5t-94 -125.5 q-59 -57 -131 -98l-53 -27q10 -6 20 -13t21 -13q57 -35 98 -76q43 -43 67 -94q27 -57 27 -119q0 -104 -43 -190q-41 -82 -117 -141.5t-170 -90.5q-102 -33 -202 -33q-68 0 -148 25q-68 20 -125 65q-51 41 -86 103q-33 59 -33 137zM362 348q0 -51 23 -92q20 -37 57 -66 q33 -25 82 -40q43 -14 101 -15q63 0 112 17q55 18 99 49q41 29 69 78q27 45 27 102q0 55 -27 102q-23 39 -69 80q-53 45 -97 70q-2 2 -39 22q-39 -16 -75 -34q-78 -35 -133 -74q-47 -33 -93 -88q-37 -46 -37 -111zM506 1087q0 -53 24 -96q20 -35 70 -78q47 -41 96 -67 q4 -2 14.5 -8.5t14.5 -10.5l25 13q78 35 133 73q51 35 92 86q37 46 37 111q0 41 -21 78q-16 31 -49 53q-31 22 -74 31q-47 10 -88 10q-49 0 -98 -12q-53 -12 -88 -35q-39 -23 -64 -61q-24 -38 -24 -87z" />
<glyph unicode="9" horiz-adv-x="1163" d="M1200.01 975.027q0 -114.993 -18.499 -235.986q-18.499 -120.992 -55.4971 -230.985q-34.998 -105.994 -95.9941 -208.987q-58.9961 -99.9941 -137.991 -171.989q-75.9951 -69.9961 -181.989 -114.993q-101.993 -42.998 -224.986 -42.998q-42.9971 0 -85.9941 6 q-36.998 6 -79.9951 18.999q-60.9971 17.999 -73.9961 23.998q-44.9971 19.999 -62.9961 32.998l68.9961 151.991q15.999 -8 57.9961 -24.999q19.999 -7.99902 64.9961 -20.998q22.999 -6 71.9961 -13.999q24.998 -4 69.9951 -4q81.9951 0 148.991 28.998 q65.9961 28.998 116.993 74.9951q48.9971 46.9971 87.9941 110.993q32.998 54.9971 62.9961 128.992q4 8 20.999 52.9971l15.999 44.9971l16.999 40.998q2 7.99902 7.99902 22.498q6 14.499 8 20.499l-8 4q-22.998 -34.998 -52.9961 -58.9971 q-32.998 -26.998 -65.9961 -46.9971q-28.998 -15.999 -46.9971 -24.498q-17.999 -8.5 -58.9971 -20.499q-3.99902 0 -65.9951 -11.999q-34.998 -6 -69.9961 -7q-83.9951 0 -157.49 28.999q-73.4961 28.998 -124.492 79.9951q-50.9971 50.9961 -81.9951 122.992 q-30.998 71.9951 -30.998 155.99q0 120.993 40.9971 224.986q40.998 103.994 114.493 177.989t176.489 114.993q103.993 40.9971 224.986 40.9971q99.9941 0 173.989 -36.998q77.9951 -38.9971 126.992 -100.993q50.9971 -62.9961 75.9951 -148.991 q26.999 -93.9941 26.999 -183.988zM1019.02 1007.03q0 67.9951 -19.999 114.992q-22.998 52.9971 -56.9961 83.9951q-34.998 32.998 -85.9951 50.9971q-48.9971 17.999 -108.993 18.999q-69.9961 0 -128.992 -26.999q-56.9961 -26.998 -103.994 -75.9951 q-42.9971 -45.9971 -67.9951 -110.493q-24.999 -64.4961 -24.999 -134.491q0 -58.9971 18.999 -108.994q15.999 -42.9971 52.9971 -79.9951q30.998 -30.998 83.9951 -50.9961q48.9971 -17.999 108.993 -18.999q69.9951 0 132.991 28.998q56.9971 26.998 103.994 75.9951 q46.9971 50.9971 69.9961 105.994q25.998 65.9951 25.998 126.992z" />
<glyph unicode=":" horiz-adv-x="573" d="M190 76q0 78 31 121t101 43q49 0 73.5 -25t24.5 -72q0 -45 -8 -71q-10 -33 -27 -49q-20 -20 -43 -29q-27 -10 -61 -10q-45 0 -68 22.5t-23 69.5zM317 897q0 78 31 121t101 43q49 0 73.5 -24.5t24.5 -73.5q0 -82 -33 -121q-31 -37 -104 -37q-49 0 -70 20q-23 23 -23 72z " />
<glyph unicode=";" horiz-adv-x="579" d="M129 -254l31 51q2 4 35 66q10 16 28 65q12 31 13 45q0 10 -7 21q-2 2 -5 6t-6 9t-5 9q-8 12 -14 33q-8 25 -9 47q0 37 13 66q10 23 30 43q14 14 43 24q23 8 50 9q43 0 69 -25q29 -25 29 -82q0 -41 -21 -106q-20 -63 -47 -115q-37 -68 -65 -113q-43 -63 -70 -98zM317 897 q0 78 31 121t103 43q47 0 71.5 -24.5t24.5 -73.5q0 -43 -8 -70q-10 -35 -27 -51q-20 -20 -41 -29q-23 -8 -61 -8q-49 0 -70 20q-23 23 -23 72z" />
<glyph unicode="&#x3c;" horiz-adv-x="1433" d="M262 553l27 168l1077 436l51 -149l-911 -367l799 -365l-101 -157z" />
<glyph unicode="=" horiz-adv-x="1536" d="M1426 920l-25 -154h-1020l25 154h1020zM1360 502l-25 -154h-1020l25 154h1020z" />
<glyph unicode="&#x3e;" horiz-adv-x="1536" d="M213 276l928 371l-799 367l88 143l942 -434l-26 -168l-1078 -436z" />
<glyph unicode="?" horiz-adv-x="989" d="M346 76q0 78 31 121t102 43q49 0 74 -25t25 -72q0 -82 -33 -120.5t-107 -38.5q-47 0 -69.5 22.5t-22.5 69.5zM367 1438q23 12 88 35q51 18 90 26q53 12 88 17q29 4 84 4q78 0 141 -19q68 -18 107 -53q47 -41 69.5 -88t22.5 -119q0 -84 -29 -141q-29 -59 -74 -113 q-29 -35 -98 -96l-102 -92q-47 -45 -86 -103q-35 -51 -47 -123q-2 -6 -3.5 -17t-1.5 -17q-2 -18 -6 -39q0 -8 -4 -22.5t-4 -20.5t-1 -17.5t-3 -17.5h-176q2 20 4 35q2 10 6 26q2 4 2 13.5t2 13.5t3 15.5t1 17.5q14 92 54 166q31 59 84 122q46 55 98 99q35 29 92 82 q43 39 70 82q27 41 26 94q0 80 -53 121t-141 41q-18 0 -60 -4q-16 -2 -63 -11q-37 -6 -72 -18q-14 -4 -44 -15.5t-36 -13.5z" />
<glyph unicode="@" horiz-adv-x="1996" d="M182 381q0 152 31 293q29 135 94 268q61 126 154 234q88 102 209 182q115 76 258 119q141 43 307 43q126 0 233 -25q102 -23 193 -72q76 -41 147 -112q61 -61 107 -148q43 -82 63 -176q20 -90 21 -201q0 -102 -17 -206q-14 -96 -47 -183q-31 -86 -73 -151 q-49 -78 -97 -117q-63 -53 -118 -74q-66 -25 -134 -24q-98 0 -155 39q-59 41 -78 120q-20 -31 -55 -63.5t-78 -52.5q-55 -29 -92 -37q-49 -12 -94 -12q-74 0 -130 26q-53 25 -100 82q-41 49 -63.5 127t-22.5 170q0 131 35 258q33 121 102 215q66 90 166 144q104 55 226 55 q47 0 104 -10q43 -8 100 -27q37 -12 90 -39q41 -20 76 -49l-88 -574q-8 -63 -6 -106q2 -41 16 -68q12 -25 35 -34q25 -10 55 -11q46 0 86 25q39 25 66 65q35 53 51 97q23 59 35 121q12 66 18 133q8 94 9 139q0 143 -41 260q-39 109 -121 188q-76 72 -199 115 q-115 39 -268 39q-135 0 -248 -37q-109 -35 -205 -102q-90 -63 -161.5 -153.5t-116.5 -192.5q-49 -111 -72 -219q-25 -117 -24 -234q0 -143 38 -260q41 -121 117 -207q78 -88 189 -135q115 -49 262 -49q45 0 88 6q61 8 88 16q57 16 86 26.5t82 35.5l55 -121 q-53 -31 -102 -49q-45 -18 -111 -35q-61 -16 -115 -25q-51 -8 -116 -8q-174 0 -318 58q-138 55 -233 153q-92 94 -144 240q-49 138 -49 307zM823 467q0 -139 54 -215q53 -74 139 -74q39 0 76 12q35 12 71 35q29 18 64 53t55 66l80 528q-45 35 -96 56q-53 20 -133 20 q-77 0 -136 -37q-55 -35 -96 -100q-39 -63 -57 -152q-21 -98 -21 -192z" />
<glyph unicode="A" horiz-adv-x="1320" d="M41 0l747 1493h209l283 -1493h-190l-66 391h-604l-187 -391h-192zM500 543h489l-131 751z" />
<glyph unicode="B" horiz-adv-x="1249" d="M166 0l231 1493h437q84 0 170 -16q74 -14 135 -54q57 -37 92 -96t35 -141q0 -70 -19 -131q-16 -55 -53 -109q-33 -49 -82 -82q-51 -35 -111 -53q41 -10 84 -41q41 -29 70 -65q23 -31 45 -89q18 -49 19 -108q0 -131 -52 -229q-49 -94 -135 -156t-202.5 -92.5t-247.5 -30.5 h-416zM365 152h262q82 0 159 16q82 16 127 49q53 37 82 96q31 61 31 152q0 66 -26.5 111t-73.5 75q-45 31 -105 45q-66 16 -129 17h-241zM475 864h262q57 0 123 17q59 14 108.5 51t75.5 86q29 53 29 121q0 53 -22 94q-18 35 -60 61q-31 20 -90 35q-53 12 -110 12h-242z" />
<glyph unicode="C" horiz-adv-x="1318" d="M217 588q0 115 27 241q23 109 71 220q43 96 117 190q70 88 156 150q90 66 188 96q109 35 221 35q63 0 133 -17q59 -14 121 -45q57 -29 103 -67q43 -37 80 -84l-111 -127q-47 51 -76 71q-49 35 -88 54q-51 25 -98 34q-43 10 -107 11q-84 0 -155 -27q-63 -23 -133 -80 q-59 -47 -107 -117q-43 -63 -80 -149q-33 -76 -51 -168q-16 -80 -16 -180q0 -113 28.5 -209t77.5 -154q55 -63 121 -94q68 -31 149 -31q53 0 109 13q53 12 111 39q61 29 100 53q45 29 86 65l86 -121q-43 -41 -106 -84q-53 -37 -123 -69q-55 -27 -142 -47q-78 -18 -161 -19 q-135 0 -234 49q-102 51 -165.5 133.5t-98.5 194.5q-33 107 -33 240z" />
<glyph unicode="D" horiz-adv-x="1413" d="M166 0l231 1493h410q164 0 289 -45q121 -43 194 -123q76 -84 109 -184q35 -111 35 -232q0 -229 -64 -399q-63 -172 -180 -285q-119 -117 -279 -170q-163 -55 -356 -55h-389zM365 152h233q168 0 289 51q123 51 200 145q80 96 117 225q37 131 37 291q0 98 -24 185 q-25 84 -82 151q-57 66 -148 103q-98 39 -225 38h-213z" />
<glyph unicode="E" horiz-adv-x="1138" d="M166 0l231 1493h850l-24 -152h-674l-78 -497h649l-24 -154h-650l-81 -538h692l-25 -152h-866z" />
<glyph unicode="F" horiz-adv-x="1073" d="M166 0l231 1493h811l-24 -152h-635l-82 -528h608l-24 -151h-609l-102 -662h-174z" />
<glyph unicode="G" horiz-adv-x="1452" d="M215 598q0 131 33 262q31 125 86 225q61 111 131 185q78 82 168 135q94 55 192 86q94 29 211 29q76 0 152 -17q70 -14 131 -43q51 -23 108 -69q43 -35 84 -86l-110 -125q-37 41 -84 71.5t-100 53.5q-59 25 -107 34q-45 10 -111 11q-94 0 -172 -27q-80 -27 -145 -78 q-72 -55 -117 -117q-57 -78 -86 -147q-35 -84 -53 -170q-18 -90 -18 -180q0 -115 32 -213q31 -94 88 -154q59 -61 138 -92q80 -31 178 -31q31 0 92 9q49 6 88 20q41 14 86 39q33 18 76 53l55 367h-309l24 151h486l-94 -598q-61 -57 -123 -96q-70 -43 -131 -66 q-66 -25 -142 -36q-72 -12 -145 -13q-143 0 -248 45q-111 47 -184 127q-80 88 -119 199q-41 119 -41 256z" />
<glyph unicode="H" horiz-adv-x="1388" d="M166 0l231 1493h174l-102 -657h711l100 657h176l-231 -1493h-176l106 684h-709l-106 -684h-174z" />
<glyph unicode="I" horiz-adv-x="505" d="M166 0l231 1493h174l-231 -1493h-174z" />
<glyph unicode="J" horiz-adv-x="593" d="M-94 -410l26 168l25 2q65 3 117 19q45 12 88 49q37 31 61 76q23 43 33 106l229 1483h174l-225 -1452q-18 -119 -59 -199q-45 -88 -109 -141q-70 -57 -157 -84q-86 -27 -199 -27h-4z" />
<glyph unicode="K" horiz-adv-x="1222" d="M166 0l231 1493h174l-98 -639l684 639h223l-755 -700l581 -793h-219l-534 719l-113 -719h-174z" />
<glyph unicode="L" horiz-adv-x="1052" d="M166 0l231 1493h174l-206 -1341h661l-25 -152h-835z" />
<glyph unicode="M" horiz-adv-x="1701" d="M150 0q2 14 10 59l20 103l12.5 64.5t12.5 68.5l31 158l14 77.5t18 94.5l12.5 62.5t9.5 53l11 62.5l135 690h226l143 -795l26 -143l10.5 -70t8.5 -55q4 -27 14 -113q4 -29 8 -100h13q4 12 47 119q8 23 53 121l32.5 65.5l29.5 59.5q14 31 63 125l393 786h236l-84 -690 q-4 -45 -10.5 -90l-12.5 -88q-6 -47 -12 -89t-10 -81l-8.5 -76t-10.5 -82l-18 -135l-7 -55.5t-5 -45.5q-2 -14 -5.5 -34.5t-3.5 -26.5h-176q8 49 10 66l15 116l18 156q8 70 23 174l24 182l11.5 95.5l9.5 78.5q2 16 7 60.5t9 67t7 57t6 47.5q4 35 12 92l-12 2l-154 -317 l-424 -877h-182l-148 856l-57 336h-10q-4 -25 -9.5 -51.5l-11.5 -57.5l-22 -118l-27 -146l-31 -168l-32 -172l-31 -166q-8 -45 -16.5 -82.5t-12.5 -60.5q-6 -35 -10 -63.5t-8 -45.5l-11 -61h-169z" />
<glyph unicode="N" horiz-adv-x="1394" d="M166 0l231 1493h193l373 -856l47 -107l41 -96l16 -41t18 -45l25 -72l4 3q4 47 8 71q4 47 13 101q6 58 18 135l29 180l110 727h170l-231 -1493h-195l-374 854l-48 107l-22 55l-16.5 42.5t-16.5 39t-18 45.5q-15 40 -25 74l-6 -3q0 -8 -2 -20l-4 -25q-2 -16 -6 -53l-6 -61 q-2 -14 -5.5 -30.5t-5.5 -35.5q-4 -35 -10 -71.5t-12 -77.5l-127 -840h-166z" />
<glyph unicode="O" horiz-adv-x="1499" d="M213 586q0 113 23 235q20 113 67 219q41 94 113 193q59 82 151 151q82 61 195 101q102 35 231 35q135 0 236 -54q102 -53 166 -139q66 -88 96 -197q31 -111 31 -225q0 -129 -27 -262q-25 -119 -74 -225q-49 -104 -118 -187q-72 -84 -156 -141q-80 -55 -191 -88 q-100 -31 -216.5 -31t-215.5 47q-102 49 -166 127q-74 90 -106 193q-39 121 -39 248zM406 629q0 -117 24 -205q25 -86 72 -154q43 -61 116 -96q68 -33 160 -33q82 0 166 27q68 23 137 74q57 43 107 114q51 74 78 146q33 84 47 172q16 98 16 188q0 94 -22 189q-20 88 -68 155 q-43 63 -117 105q-70 39 -170 39q-94 0 -166 -29q-78 -31 -137 -82q-61 -53 -106 -120.5t-76 -149.5q-29 -74 -45 -168q-16 -92 -16 -172z" />
<glyph unicode="P" horiz-adv-x="1148" d="M166 0l231 1493h396q129 0 211 -27q88 -29 139 -73q53 -47 78 -111q25 -66 24 -137q0 -133 -49 -237.5t-131 -174t-197 -108.5q-104 -35 -237 -35h-201l-90 -590h-174zM455 741h219q92 0 157 23q72 25 119 70q49 45 76 112q27 66 27 156q0 51 -17 96q-16 47 -51 76 q-37 31 -94 49q-59 18 -143 18h-199z" />
<glyph unicode="Q" horiz-adv-x="1499" d="M215 582q0 143 29 274q29 127 80 231q52 104 122 185q72 80 160 137q82 53 187 82q102 29 206 29q123 0 213 -41q100 -45 164 -121q76 -88 109 -193q37 -113 37 -254q0 -150 -29 -276q-28 -123 -74 -215q-51 -102 -102 -162q-57 -68 -113 -113q-63 -53 -104 -75 q-43 -25 -80 -39l211 -215l-168 -117l-238 276q-5 0 -9 -1t-9 -1h-21q-2 0 -10 -1t-12 -1h-27q-121 0 -211 41q-102 47 -166 121q-72 84 -106 193q-39 121 -39 256zM414 631q0 -63 8 -115q12 -78 24 -115q16 -51 48 -104q29 -49 69.5 -88t95.5 -59q53 -20 123 -21 q106 0 203 51q90 47 172 150q72 88 121 233q45 133 45 303q0 121 -26.5 209t-77.5 156q-49 65 -117 98q-66 33 -148 33q-74 0 -135 -23q-63 -23 -127 -67q-53 -37 -110 -109q-53 -66 -90 -145q-35 -76 -58 -178q-20 -94 -20 -209z" />
<glyph unicode="R" horiz-adv-x="1232" d="M166 0l231 1493h387q114 0 197 -25q82 -25 139 -71q51 -43 80 -107q27 -59 27 -135q0 -86 -26.5 -159.5t-76.5 -135.5q-47 -59 -114 -104q-59 -39 -146 -64l-2 -6q45 -12 80 -47q39 -39 64 -80q20 -35 47 -102q14 -37 34 -111l101 -346h-197l-90 295q-25 74 -49 131 q-27 59 -70 109q-43 51 -94 75q-57 29 -127 29h-123l-98 -639h-174zM463 791h213q76 0 147 22q63 20 112.5 65.5t72.5 100.5q27 63 26 127q0 55 -20 96q-23 45 -58 74q-33 27 -92 47q-55 18 -125 18h-190z" />
<glyph unicode="S" horiz-adv-x="1132" d="M125 150l104 137q25 -27 68 -60q37 -28 80 -49q33 -16 90 -31q49 -12 100 -12q58 0 117 19q66 20 104 49q49 37 76 80q29 47 29 106q0 57 -25 100q-29 49 -63 82q-41 39 -90 72l-103 70l-102 73q-49 37 -90 84q-39 45 -64 101q-23 51 -22 125q0 106 41 182q41 74 112 131 q74 57 160 84t187 27q47 0 104 -11q53 -10 96 -26q31 -12 84 -45q47 -29 74 -56l-102 -141q-14 10 -66 41q-49 29 -76 39q-39 14 -84 25q-47 10 -78 10q-49 0 -98 -12.5t-86 -36.5q-35 -25 -61 -66q-23 -37 -23 -96q0 -55 25 -98q27 -47 63 -84q35 -35 88 -72l103 -70 l102 -73q49 -37 90 -84q39 -45 63.5 -100.5t24.5 -125.5q0 -106 -47 -194q-46 -86 -123 -147.5t-178 -92.5q-109 -33 -207 -33q-57 0 -112 13q-47 10 -107 34q-52 22 -98 56q-41 29 -80 76z" />
<glyph unicode="T" horiz-adv-x="1118" d="M242 1341l22 152h1063l-24 -152h-445l-213 -1341h-174l213 1341h-442z" />
<glyph unicode="U" horiz-adv-x="1376" d="M248 348q-4 41 -4 85q0 82 14 181l137 879h174l-133 -862q-15 -100 -15 -171q0 -12 1 -24q2 -88 35 -155q31 -66 96 -103t172 -37q96 0 174 39q76 37 123 101q49 66 80 149q29 82 45 184l135 879h168l-133 -862q-23 -147 -70 -281q-43 -125 -117 -207q-76 -86 -180 -127 q-113 -45 -260 -45q-141 0 -231 45q-94 47 -146 129q-53 84 -65 203z" />
<glyph unicode="V" horiz-adv-x="1312" d="M279 1493h184l117 -629l43 -231q10 -61 21 -112.5t18 -88.5l24 -141l10 -55h2l13 24l34 70l52 102l63 129l74 148l78 155l311 629h186l-745 -1493h-201z" />
<glyph unicode="W" horiz-adv-x="1861" d="M322 1493h172l63 -922l6 -100l6 -106q2 -35 2 -95v-57h4q0 4 21 59l33 99l39 108l37 94l344 920h235l66 -920q2 -8 3 -28.5t1 -30.5q2 -23 2 -72q0 -12 2 -36.5t2 -37t1 -35t1 -32.5v-55q0 -10 1 -20.5t1 -12.5h2l3 12q3 12 7 23q2 8 7.5 23.5l11.5 33.5l26 72l12.5 36.5 l14.5 39.5l27 71l20 56l344 913h176l-557 -1493h-250l-41 612q-2 39 -5 76t-5 76q-4 76 -8 143q-4 82 -8 127l-5 57.5t-3 43.5q0 12 -1.5 35.5t-3.5 31.5v25h-2l-10 -25q-8 -25 -24 -67l-15.5 -42l-22 -59l-46.5 -127l-54 -143l-57 -152l-229 -612h-250z" />
<glyph unicode="X" horiz-adv-x="1292" d="M47 0l621 795l-328 698h203l262 -547l430 547h190l-551 -707l373 -786h-205l-305 635l-497 -635h-193z" />
<glyph unicode="Y" horiz-adv-x="1243" d="M279 1493h196l281 -684l485 684h201l-623 -852l-98 -641h-184l100 641z" />
<glyph unicode="Z" horiz-adv-x="1116" d="M102 0l25 152l877 1189h-674l24 152h873l-25 -152l-878 -1189h716l-24 -152h-914z" />
<glyph unicode="[" horiz-adv-x="700" d="M106 -270l283 1826h387l-20 -143h-221l-240 -1540h221l-22 -143h-388z" />
<glyph unicode="\" horiz-adv-x="698" d="M268 1493h156l219 -1683h-156z" />
<glyph unicode="]" horiz-adv-x="700" d="M123 -270l22 143h222l237 1540h-219l21 143h389l-285 -1826h-387z" />
<glyph unicode="^" horiz-adv-x="1536" d="M326 936l589 557h181l415 -557h-184l-348 395l-469 -395h-184z" />
<glyph unicode="_" horiz-adv-x="1107" d="M35 -170l22 141h987l-22 -141h-987z" />
<glyph unicode="`" horiz-adv-x="839" d="M467 1606l151 92l201 -340l-110 -70z" />
<glyph unicode="a" horiz-adv-x="1181" d="M178 406q0 90 17 192q14 86 47 176q31 82 77 152q51 74 107 118q59 47 137 76q80 29 166 29q29 0 86 -8q37 -6 82 -23q43 -16 74 -39q29 -20 53 -59l33 100h129l-115 -616l-20 -504h-140l-4 225q-8 -12 -25.5 -35.5t-19.5 -27.5q-43 -57 -94 -101q-47 -39 -115 -65 q-61 -25 -135 -25q-90 0 -156 35q-65 34 -104 92q-41 61 -59 138q-21 88 -21 170zM362 451q0 -51 11 -117q10 -61 33 -105q25 -46 61 -73q39 -29 94 -29q37 0 76 18q45 20 78 52q37 35 71 77q35 45 62 95q31 57 49 108q2 6 5 19.5t5 19.5l70 318q-16 35 -51 69 q-29 31 -70 51q-33 18 -84 29q-47 10 -90 10q-49 0 -98 -22q-39 -18 -80 -60q-29 -29 -62 -90q-27 -51 -45 -110q-16 -53 -26 -127q-9 -57 -9 -133z" />
<glyph unicode="b" horiz-adv-x="1153" d="M178 111l223 1445h166l-88 -557q28 34 68 62q45 31 82 47q45 20 88 29q57 12 82 12q94 0 157 -31q66 -31 109 -86q41 -53 63.5 -133t22.5 -174q0 -156 -41 -297q-41 -139 -115 -238q-77 -101 -190 -159q-115 -59 -260 -60q-55 0 -99 9q-59 10 -98 26q-49 20 -90 43 q-35 21 -80 62zM358 213q18 -20 48 -37q25 -12 57 -26q23 -8 63 -17q35 -6 64 -6q94 0 164 43q70 41 118 117q45 68 72 176q25 102 25 217q0 82 -15 137q-15 58 -43 98q-27 39 -69 58q-47 20 -94 20q-49 0 -93 -20q-51 -25 -86 -53q-39 -33 -71 -72q-29 -33 -54 -80z" />
<glyph unicode="c" horiz-adv-x="987" d="M182 432q0 172 51 309q51 139 134 224q90 92 196 137q113 47 240 47q37 0 78 -6q27 -4 75 -17q25 -6 70 -26q34 -15 61 -37l-71 -135q-41 27 -119 47q-68 18 -139 18t-142 -30q-74 -33 -127 -95q-57 -68 -90 -161q-35 -100 -34 -232q0 -74 18 -139q18 -68 51 -111 q35 -47 88 -71q57 -27 121 -27q43 0 68 4q49 8 73.5 14.5t69.5 22.5t64 27l30 -132q-20 -14 -76 -36q-33 -14 -88 -29q-47 -12 -94 -18q-66 -8 -92 -9q-106 0 -190 39q-78 37 -129 103q-51 68 -72 145q-25 94 -25 174z" />
<glyph unicode="d" horiz-adv-x="1181" d="M178 406q0 90 17 192q14 86 47 176q31 82 77 152q51 74 107 118q59 47 137 76q80 29 166 29q23 0 76 -8q33 -6 72 -23q53 -25 65 -33q29 -20 47 -45l78 516h168l-164 -1052l-20 -504h-140l-6 233q-29 -49 -45 -71q-43 -57 -94 -101q-49 -39 -113 -65q-61 -25 -135 -25 q-90 0 -156 35q-65 34 -104 92q-41 61 -59 138q-21 88 -21 170zM362 451q0 -51 11 -117q10 -61 33 -105q25 -46 61 -73q39 -29 94 -29q37 0 76 18q41 18 76 52q31 29 69 77q35 45 62 95q33 59 47 108q16 49 27 103l2 12l36 242q-16 35 -47 69q-27 31 -63 51q-33 18 -78 29 q-47 10 -86 10q-49 0 -98 -22q-39 -18 -80 -60q-29 -29 -62 -90q-27 -51 -45 -110q-16 -53 -26 -127q-9 -57 -9 -133z" />
<glyph unicode="e" horiz-adv-x="1058" d="M180 426q0 115 20.5 209t59.5 178q37 82 90 143q52 61 117 105q70 47 135 65q78 23 152 23q76 0 139 -23q61 -20 106 -63t68 -92q23 -51 23 -117q0 -76 -21 -129q-23 -55 -57 -94q-33 -37 -88 -64q-53 -27 -109 -41q-53 -14 -123 -20q-66 -6 -131 -6q-47 0 -72 2 q-33 2 -63 6q-12 2 -32.5 5t-28.5 3q-6 -56 -6 -98q0 -34 3 -64q9 -74 37 -123q29 -51 76 -77.5t121 -26.5q57 0 86 4t86 16q41 8 82 25q53 20 80 33l39 -127q-41 -23 -88 -41q-31 -12 -101 -33q-52 -15 -110 -24q-51 -8 -117 -9q-98 0 -172 35q-76 37 -115 92 q-45 63 -65.5 143.5t-20.5 184.5zM391 659l74 -8q10 -2 34.5 -3t37.5 -1q53 -4 73 -4q57 0 119 10.5t98 28.5q39 20 66 55q25 33 25 82q0 39 -17 76q-14 31 -43 53q-27 20 -65 33q-33 10 -84 10q-66 0 -111 -22q-51 -25 -90 -68q-43 -45 -70 -106q-31 -66 -47 -136z" />
<glyph unicode="f" horiz-adv-x="702" d="M193 975l22 145h195l14 84q16 102 47 168q37 76 84 115q51 43 121 63q68 20 160 21q33 0 65 -6q37 -6 70 -19l-47 -129q-20 4 -62 8q-45 4 -74 5q-39 0 -73.5 -12.5t-57.5 -33.5q-20 -18 -39 -61q-16 -37 -24 -88l-19 -115h283l-22 -145h-283l-156 -975h-166l156 975 h-194z" />
<glyph unicode="g" horiz-adv-x="1150" d="M145 -381l60 154q20 -14 51 -27q37 -14 66 -22q39 -10 75 -17q41 -6 82 -6q88 0 162 25q76 25 129 69q49 41 84 117q33 72 33 158v41q0 8 -1 27.5t-1 29.5v45q-12 -18 -37 -51q-39 -53 -96 -101q-47 -39 -115 -65q-61 -25 -135 -25q-90 0 -156 35q-68 35 -106 92 q-41 61 -60 138q-18 80 -18 170t16 192q14 86 47 176q31 82 78 152q51 74 107 118q59 47 137 76q80 29 166 29q27 0 84 -8q41 -6 84 -22.5t73 -39.5q29 -20 54 -59l30 100h131l-125 -622q0 -29 1.5 -85.5t3.5 -82.5v-68q0 -12 1 -33.5t1 -31.5v-54q0 -8 1 -21t1 -18 q0 -90 -23 -170q-23 -82 -61 -141q-41 -61 -97 -108q-49 -41 -124 -76q-72 -33 -148 -47q-86 -16 -164 -17q-47 0 -90 6q-29 4 -78 17q-31 8 -67 22q-27 11 -56 29zM344 451q0 -51 10 -117q8 -55 35 -105q25 -46 62 -73q39 -29 94 -29q37 0 76 18q45 20 77 52q37 35 72 77 q41 53 64 95q31 57 49 108l2 4l73 353q-18 39 -49 69q-27 27 -71 51q-33 18 -84 29q-47 10 -88 10q-49 0 -99 -22q-39 -18 -80 -60q-33 -33 -63 -90q-23 -43 -43 -110q-16 -53 -27 -127q-10 -72 -10 -133z" />
<glyph unicode="h" horiz-adv-x="1171" d="M162 0l239 1556h166l-88 -567q37 37 82 72q40 31 80 49q43 20 84 29q47 10 88 10q102 0 168 -35t100 -90q37 -58 43 -141q2 -27 2 -55q0 -63 -10 -128l-108 -700h-164l100 664q10 57 10 127q0 61 -18 106q-18 43 -59 70q-43 27 -109 26q-53 0 -100 -20q-55 -25 -93 -53 q-45 -35 -75 -72q-34 -40 -56 -80l-118 -768h-164z" />
<glyph unicode="i" horiz-adv-x="483" d="M160 0l174 1120h166l-174 -1120h-166zM367 1407q0 68 26 109q25 37 88 36q43 0 64 -20q18 -18 18 -64q0 -72 -26 -106q-29 -37 -91 -37q-41 0 -61 21q-18 18 -18 61z" />
<glyph unicode="j" horiz-adv-x="483" d="M-104 -426l4 143q53 4 90 17q41 14 76 43q31 25 55 73q22 43 31 105l180 1165h166l-176 -1140q-14 -88 -51.5 -168t-88.5 -129q-55 -51 -127 -80q-73 -29 -159 -29zM367 1407q0 72 24.5 108.5t89.5 36.5q41 0 61.5 -20.5t20.5 -63.5q0 -72 -26 -106q-29 -37 -91 -37 q-41 0 -61 21q-18 18 -18 61z" />
<glyph unicode="k" horiz-adv-x="1024" d="M162 0l239 1556h166l-139 -909l170 158l74 67q20 18 80 78q27 27 75 84q41 47 66 86h197q-49 -74 -74 -104q-37 -45 -78 -90l-84 -86q-23 -23 -47.5 -44.5t-44.5 -41.5l-170 -158l432 -596h-219l-395 547l-84 -547h-164z" />
<glyph unicode="l" horiz-adv-x="485" d="M162 0l239 1556h166l-241 -1556h-164z" />
<glyph unicode="m" horiz-adv-x="1769" d="M162 0l172 1120h129l4 -137q72 84 147 123q86 43 181 43q49 0 102 -14q46 -12 80 -37q39 -29 57 -58q18 -31 33 -77q35 43 78 79q37 31 86 58q47 25 94 37q49 12 109 12q90 0 153 -29q61 -27 96 -82q33 -51 43 -131q3 -29 4 -61q0 -54 -10 -115l-112 -731h-166l108 700 q4 27 9 80q1 10 0 21q0 17 -3 49q-4 35 -14 59q-12 27 -33 45q-25 20 -49 29q-35 10 -71 10q-49 0 -93 -20q-51 -25 -86 -53q-47 -41 -71 -72q-35 -45 -54 -80l-118 -768h-166l108 700q4 25 9 78q1 10 0 21q0 17 -3 49q-2 29 -16 59.5t-31 44.5q-29 25 -49 31q-35 10 -71 10 q-45 0 -89 -20q-55 -27 -88 -53q-45 -39 -73.5 -72t-53.5 -80l-118 -768h-164z" />
<glyph unicode="n" horiz-adv-x="1185" d="M162 0l172 1120h131l2 -137q23 29 65 64q35 29 82 51q59 29 99 37q61 14 108 14q100 0 170 -35t105 -92q37 -61 43 -143q2 -21 1 -44q0 -62 -12 -141l-106 -694h-166l102 664q10 76 11 127q0 57 -21 104q-20 49 -61 72q-43 25 -113 24q-51 0 -100 -18q-53 -20 -94 -49 q-47 -35 -78 -70q-39 -45 -58 -86l-118 -768h-164z" />
<glyph unicode="o" d="M182 424q0 172 43 307q43 133 123 230q74 88 187 139q109 49 237 49q84 0 156 -31q76 -33 123 -86q51 -57 77 -141q29 -90 29 -195q0 -174 -43 -309q-41 -129 -123 -227q-74 -88 -184 -140q-106 -49 -238 -49q-86 0 -157.5 31t-120.5 86q-52 58 -80 141q-29 86 -29 195z M362 446q0 -82 18.5 -143t47.5 -98q31 -39 80 -60q45 -18 106 -18q76 0 141.5 33t114.5 100q51 70 78 170q29 104 29 244q0 164 -65.5 241.5t-184.5 77.5q-78 0 -141 -32q-72 -37 -117 -101q-51 -72 -78 -170q-29 -109 -29 -244z" />
<glyph unicode="p" horiz-adv-x="1150" d="M92 -426l240 1546h131l4 -137q35 45 65 70q33 27 89 51q41 18 92 33q45 12 84 12q92 0 157.5 -31t108.5 -86q41 -53 63.5 -133t22.5 -174q0 -156 -41 -297q-41 -139 -115 -238q-77 -101 -190 -159q-115 -59 -260 -60q-49 0 -111 11q-53 8 -106 30l-68 -438h-166zM352 190 q45 -29 113 -47q61 -16 123 -16q92 0 164 43q70 41 118 117q45 68 72 176q25 102 25 217q0 82 -15 137q-15 58 -43 98q-27 39 -69 58q-47 20 -95 20q-49 0 -92 -20q-51 -25 -86 -53q-39 -33 -71 -72q-29 -33 -54 -80z" />
<glyph unicode="q" horiz-adv-x="1150" d="M180 406q0 90 17 192q14 86 47 176q31 82 78 152q51 74 106 118q59 47 137 76q80 29 166 29q29 0 82 -8q35 -6 76 -23q39 -16 67 -39q27 -23 52 -59l30 100h129l-237 -1546h-166l82 537q-33 -33 -70 -58q-45 -31 -80 -45q-39 -16 -88 -26q-51 -10 -90 -11q-88 0 -153 35 q-65 34 -105 92q-41 61 -59 138q-21 88 -21 170zM365 453q0 -51 10 -117q10 -61 33 -105q27 -49 61 -75q39 -29 94 -29q39 0 90 14q45 12 84 37q37 23 76 55q35 29 64 68l81 533q-16 35 -47 69q-27 31 -63 51q-33 18 -78 29q-47 10 -86 10q-53 0 -98 -22q-41 -20 -80 -60 q-31 -31 -62 -88q-20 -41 -43 -112q-16 -55 -26 -125q-10 -72 -10 -133z" />
<glyph unicode="r" horiz-adv-x="727" d="M162 0l172 1120h131l2 -147q39 45 78 76q41 33 90 55q39 18 94 33q45 12 90 12q2 0 7 -1t10 -1h18q2 0 8 -1t10.5 -1t8.5 -1t6 -1l-51 -199l-31 6q-10 2 -31 2q-57 0 -98 -8q-51 -10 -86 -29q-47 -27 -78 -53q-37 -34 -68 -80l-118 -782h-164z" />
<glyph unicode="s" horiz-adv-x="927" d="M104 88l82 137q41 -29 64 -41q37 -20 65 -30q43 -16 70 -21q33 -6 72 -6q47 0 90 12q37 10 76 39q31 23 51 59.5t20 79.5q0 47 -32 82q-33 37 -82 70l-105 66q-55 34 -104 73q-45 37 -82 90q-33 47 -33 115q0 74 33 139q31 61 86 104.5t131 67.5q77 25 166 25q47 0 86 -8 q35 -8 84 -23q40 -12 73 -31q45 -25 62 -36l-74 -133q-61 35 -121 55q-61 20 -141 20q-33 0 -74 -10q-33 -8 -63 -29q-23 -14 -45 -49q-18 -29 -19 -65q0 -49 33 -84q33 -37 82 -70l104 -65q66 -41 105 -72q45 -37 82 -90q33 -47 33 -117q0 -86 -37 -154q-39 -70 -97 -116 q-61 -49 -145 -74q-90 -27 -174 -27q-33 0 -90 9q-41 6 -84 22t-78 37q-43 24 -70 49z" />
<glyph unicode="t" horiz-adv-x="772" d="M201 975l18 112l189 33l69 318h146l-50 -318h330l-22 -145h-330l-96 -623q-8 -47 -9 -94q0 -41 13 -70q14 -31 37 -45q27 -16 71 -16q23 0 35 2q25 4 39 6q8 2 21.5 5t19.5 3q20 4 33 9l26 -127q-16 -12 -49 -23q-37 -12 -55 -16q-37 -8 -55 -11q-37 -4 -52 -4 q-80 0 -133 25q-55 27 -82 70q-29 47 -34 116q-2 22 -2 46q0 53 10 114l96 633h-184z" />
<glyph unicode="u" horiz-adv-x="1175" d="M213 207q-9 40 -9 86t9 98l113 729h163l-104 -698q-8 -48 -8 -86q0 -26 4 -47q10 -57 33 -92q23 -33 65 -54q35 -16 94 -16q41 0 95 14q47 12 90 37q31 16 76 55q35 29 63 68l127 819h166l-174 -1120h-154l12 121q-27 -33 -61 -60q-29 -20 -84 -47q-35 -16 -96 -30 q-51 -12 -103 -13q-76 0 -145 27q-68 27 -111 78q-43 53 -61 131z" />
<glyph unicode="v" horiz-adv-x="1060" d="M246 1120h180l111 -651l8 -44.5t6 -37.5q2 -12 5 -37.5t5 -38.5l10 -67q4 -41 4 -62h5l143 305q45 94 76 168q33 76 71 179q31 76 58 161q27 80 37 125h165q-18 -80 -43 -159q-23 -76 -55 -156q-20 -51 -65 -154q-34 -77 -74 -153l-252 -498h-203z" />
<glyph unicode="w" horiz-adv-x="1544" d="M252 1120h170l47 -557q0 -8 3 -41t5 -53q2 -18 2 -55t2 -56q2 -37 2 -104q0 -39 -4 -68h6q4 25 11 39l18 60l25 69l28 74l27 70q12 33 22 57l226 565h235l47 -557q2 -33 4 -59q4 -45 5 -72q2 -18 2 -36.5v-39.5q0 -12 1 -35.5t1 -33.5v-60q0 -31 -2 -41h6l155 408 q23 57 50 139q27 78 43 144q12 47 32 133q12 55 21 110h162q-20 -113 -29 -141q-31 -125 -41 -158q-12 -43 -57 -168q-39 -109 -68 -178l-201 -475h-209l-59 668q-2 10 -3 32.5t-1 34.5l-6 80q-2 27 -2 78q0 47 2 65h-6q-8 -33 -21 -69l-31 -84l-30 -78l-21 -53l-268 -674 h-207z" />
<glyph unicode="x" horiz-adv-x="1097" d="M53 0l479 578l-282 542h201l208 -403l334 403h201l-449 -545l295 -575h-200l-226 436l-360 -436h-201z" />
<glyph unicode="y" horiz-adv-x="1064" d="M35 -426l59 141q23 -8 41 -10q29 -4 39 -4q37 0 80 31q35 25 86 90q41 51 94 135q2 2 5 8t5 8l-198 1147h172l110 -674q2 -20 6.5 -42.5t8.5 -45.5q2 -8 6 -38.5t6 -47.5q4 -53 4 -71q0 -4 1 -12.5t1 -10.5l72 139l98 207q4 8 72 160q55 129 63 154l52 145q10 29 40 137 h175l-50 -159q-10 -31 -30.5 -86.5t-24.5 -65.5q-20 -55 -61 -150l-70 -155l-123 -242q-68 -131 -125 -227q-84 -141 -125 -197q-76 -104 -127 -155q-66 -66 -127 -101q-66 -37 -125 -37q-20 0 -30 2q-4 2 -14.5 4.5t-14.5 2.5q-16 4 -27 8z" />
<glyph unicode="z" horiz-adv-x="937" d="M90 0l25 145l678 830h-529l25 145h729l-23 -145l-682 -830h570l-25 -145h-768z" />
<glyph unicode="{" horiz-adv-x="1130" d="M289 541l20 143h58q76 0 127 23q49 20 81 61q29 35 50 88q12 33 24 107q6 43 15 114q10 100 12 111q16 102 39 166q25 66 65 110q35 39 99 62q55 20 145 26q29 4 43 4h49h58l-23 -143h-61q-72 0 -115 -12q-49 -14 -70 -37q-27 -31 -39 -72q-14 -49 -22 -108 q-8 -39 -15 -103q0 -6 -4 -49t-8 -65q-10 -66 -24 -117q-14 -47 -45 -105q-25 -43 -72 -83q-37 -33 -109 -50q45 -12 74 -39q25 -23 45 -59q18 -34 25 -74q8 -53 8 -78q0 -61 -10 -118q-8 -41 -23 -99q-6 -25 -20 -94q-10 -51 -11 -102q0 -41 9 -64q9 -25 30 -43 q23 -18 58 -24q49 -8 90 -8h61l-22 -144h-58h-49q-29 0 -43 2q-70 6 -113 21q-45 14 -77 45q-29 27 -43 73q-14 49 -15 107q0 39 9 100q8 57 14 86l18 80q12 53 17 80q6 37 6 107q0 45 -21 90q-18 40 -61 61q-45 23 -121 23h-55z" />
<glyph unicode="|" horiz-adv-x="565" d="M127 -483l319 2048h156l-317 -2048h-158z" />
<glyph unicode="}" horiz-adv-x="1132" d="M150 -334l22 144h64q72 0 114 12q49 14 70 37q25 27 37 71q14 49 22 109q6 35 15 104q8 74 14 113q9 58 24 117q14 53 43 104q25 43 72 84q41 35 109 51q-53 14 -82 39q-33 31 -47 64q-18 43 -21 80q-4 49 2 94q2 45 13 96l20 96l18 95q8 43 9 98q0 39 -9 63 q-8 27 -28 43q-23 18 -58 25q-49 8 -88 8h-65l22 143h58h49q14 0 43 -4q70 -6 113 -20q47 -16 77 -43q29 -27 43 -74q12 -43 13 -108q0 -53 -7 -101q-8 -57 -14 -86l-18 -80q-12 -57 -17 -77q-8 -49 -8 -107q0 -43 21 -88q18 -39 63 -61.5t121 -22.5h55l-20 -143h-58 q-76 0 -127 -23q-53 -23 -81 -61q-33 -43 -48 -90q-20 -70 -26 -107q-6 -43 -15 -115q-10 -100 -12 -110q-18 -100 -33 -150q-16 -57 -51 -104q-29 -39 -74 -66q-41 -25 -106 -37q-47 -8 -82 -10q-29 -2 -94 -2h-57z" />
<glyph unicode="~" horiz-adv-x="1538" d="M250 467l29 178l86 57q23 14 92 48q41 18 96 32q41 10 100 11q41 0 86 -11q40 -9 80 -24q53 -20 78 -33q31 -16 76 -33q40 -15 80 -24q45 -10 82 -11q49 0 96 13q31 8 92 37q23 10 86 51q29 18 82 59l-29 -178q-39 -29 -88 -59q-16 -10 -90 -45q-31 -14 -96 -31 q-49 -12 -101 -12q-39 0 -86 10q-37 8 -79 24q-45 16 -76 32.5t-76 33.5q-40 15 -80 24q-45 10 -84 11q-49 0 -96 -13q-31 -8 -92 -36q-23 -10 -86 -52q-29 -18 -82 -59z" />
<glyph unicode="&#xa1;" horiz-adv-x="616" d="M566.014 1401q0 -77.9951 -30.998 -120.993q-30.998 -42.9971 -101.994 -42.9971q-48.9971 0 -73.9951 24.998q-24.998 24.999 -24.998 71.9961q0 44.9971 7.99902 70.9951q9.99902 34.998 24.998 48.9971q19.999 19.999 42.998 28.999q26.998 9.99902 63.9961 9.99902 q46.9971 0 69.4951 -22.499q22.499 -22.498 22.499 -69.4951zM469.02 1055.03q-3 -24.998 -6 -60.9961q-1.99902 -15.999 -4.99902 -36.998q-3 -20.998 -5 -46.9971q-4 -46.9971 -9.99902 -100.993l-12 -105.994q-1.99902 -15.999 -7.49902 -52.9961 q-5.5 -36.998 -7.5 -53.9971q-3.99902 -34.998 -11.999 -95.9941l-79.9951 -515.969h-173.989l77.9951 515.969q2 13.999 15.999 95.9941l20.999 106.993l19.999 105.994l18.998 100.993q4 26.999 10 48.9971q5.99902 21.999 7.99902 34.998q10 46.9971 12 60.9961h134.991z " />
<glyph unicode="&#xa2;" horiz-adv-x="1024" d="M164 436q0 180 53 307q57 139 145 224q92 90 211 135q63 25 134 37l34 221h160l-33 -213q8 0 23.5 -1t23.5 -3q35 -4 84 -17q31 -8 78 -26q37 -15 68 -37l-72 -135q-47 27 -135 47q-41 10 -94 14l-137 -862q12 0 36 4q59 8 82 14q18 4 78 23q41 12 72 27l31 -132 q-18 -10 -84 -36q-37 -14 -97 -29q-55 -12 -102 -18l-41 -5l-35 -223h-162l37 228q-66 10 -112 30q-88 41 -142 103q-55 63 -80 149q-24 82 -24 174zM346 483q0 -80 21 -141q23 -68 61 -113q43 -49 98 -75q4 -2 23 -9l133 836q-10 -2 -29.5 -9t-23.5 -9q-78 -31 -140 -93 q-63 -63 -102 -157q-41 -99 -41 -230z" />
<glyph unicode="&#xa3;" horiz-adv-x="1220" d="M139 0l25 152q78 6 133 55q49 45 82 121q31 74 49 168q25 127 35 194h-225l24 154h225l23 149q18 119 55 217q37 100 94 166q63 72 140 107q83 37 190 37q45 0 88 -7q33 -4 84 -20q27 -8 76 -29q31 -12 63 -34l-104 -148l-51 25q-8 4 -58 18q-23 6 -67 14q-25 4 -82 4 q-53 0 -94 -18q-43 -20 -72 -57q-27 -35 -49 -99q-25 -68 -35 -145l-26 -180h434l-27 -154h-432q-16 -111 -41 -213q-23 -96 -45 -153q-27 -68 -51 -105q-33 -49 -58 -67h650l-25 -152h-928z" />
<glyph unicode="&#xa4;" horiz-adv-x="1218" d="M127 197l223 206q-16 39 -26 93q-10 55 -11 96q0 74 29 147q27 66 84 138l-160 206l123 115l160 -207q47 31 113 56q55 20 116 20q66 0 115 -20q55 -23 94 -54l223 209l88 -115l-223 -206q12 -29 17 -43q8 -29 10 -45q0 -8 4 -23.5t4 -24.5q2 -16 2 -47q0 -90 -29 -155 q-31 -68 -86 -137l162 -207l-123 -113l-159 207q-68 -41 -111 -57q-55 -20 -118.5 -20.5t-112.5 20.5q-55 23 -99 53l-223 -207zM459 606q0 -47 14 -88q14 -43 41 -74q27 -33 68 -51q45 -20 90 -20q61 0 114 26q55 27 95 70q43 47 63 98q23 57 23 113q0 45 -15 86 q-16 47 -41 74q-31 35 -67 51q-41 18 -90 18q-57 0 -115 -26q-52 -25 -92 -68q-39 -43 -64 -96q-24 -56 -24 -113z" />
<glyph unicode="&#xa5;" horiz-adv-x="1220" d="M211 455l18 123h383l9 51l-56 155h-305l21 123h241l-200 586h170l245 -700l457 700h172l-383 -586h242l-19 -123h-303l-102 -155l-8 -51h381l-19 -123h-381l-69 -455h-183l72 455h-383z" />
<glyph unicode="&#xa6;" horiz-adv-x="565" d="M150 -350l116 758h158l-119 -758h-155zM297 674l119 758h155l-118 -758h-156z" />
<glyph unicode="&#xa7;" horiz-adv-x="958" d="M147 -137l25 164q10 -6 31.5 -15.5t27.5 -13.5q10 -6 64 -25q37 -12 65 -18q33 -6 70 -6q41 0 86 10q41 10 72 31q35 25 51 55q18 33 18 82q0 35 -20 70q-16 29 -51 59q-37 33 -72 57l-84 58l-82 61q-43 33 -74 70q-33 39 -51 82t-18 100q0 109 55 186.5t160 135.5 q-41 41 -58 84q-20 55 -20 102q0 82 33 141q35 61 86 103q53 41 125 63q68 20 143 21q78 0 141 -15q66 -14 131 -43l-26 -164l-57 29q-8 4 -60 25q-31 12 -63 18q-34 6 -68 6q-37 0 -82 -10q-39 -8 -67.5 -28.5t-49.5 -53.5q-16 -27 -16 -74q0 -35 18 -65q14 -25 52 -58 q31 -27 73 -57l45.5 -30.5l38.5 -24.5q39 -25 82 -62q47 -41 74 -71q35 -43 51 -82q20 -51 21 -101q0 -102 -60 -184q-57 -80 -157 -135q35 -35 57 -86q20 -47 20 -102q0 -78 -32.5 -148t-83.5 -108q-63 -49 -127 -68q-78 -23 -158 -23q-68 0 -143 17q-64 14 -136 41z M358 733q0 -53 33 -100q35 -49 84 -90q53 -43 100 -74l93 -59q4 2 23.5 16t29.5 23q16 14 45 47q18 20 33 53q12 29 12 61q0 37 -14 68q-12 27 -43 65q-25 31 -60 60l-67 51q-23 16 -68 45l-57 37q-31 -23 -51 -41q-33 -29 -48 -45q-16 -18 -32 -55q-13 -28 -13 -62z" />
<glyph unicode="&#xa8;" horiz-adv-x="839" d="M362 1458q0 70 25 107t90 37q37 0 60 -23q18 -18 18 -61q0 -72 -27 -105q-29 -35 -88 -35q-41 0 -59.5 18.5t-18.5 61.5zM756 1458q0 66 26 107q25 37 88 37q39 0 59.5 -20.5t20.5 -63.5q0 -70 -28.5 -105t-85.5 -35q-43 0 -61.5 18.5t-18.5 61.5z" />
<glyph unicode="&#xa9;" horiz-adv-x="1810" d="M287 612q0 115 28 234q27 109 82 213q53 100 129 182q84 90 170 143q94 57 207 93q106 33 238 32q96 0 176 -20q78 -20 151 -64q70 -41 121 -98q55 -61 90 -129q37 -72 56 -156q20 -96 20 -178q0 -113 -29 -231q-27 -109 -84 -211q-55 -98 -131 -180q-77 -83 -172 -142 q-94 -57 -206 -92q-106 -33 -236 -33q-147 0 -256 48q-113 49 -192 135q-76 82 -121 202q-41 111 -41 252zM418 637q0 -119 37 -217t102 -170q59 -66 160 -109q90 -39 205 -39q150 0 274 54q127 55 223 153q94 96 150 234q55 135 55 301q0 123 -35 215q-37 98 -102 170 q-68 74 -160 112q-98 41 -211 41q-109 0 -207 -28q-95 -28 -172 -80q-82 -55 -137 -123q-66 -80 -100 -152q-39 -82 -62 -176q-20 -88 -20 -186zM590 655q0 131 43 235.5t112 174.5q68 68 170 106q98 37 209 37q14 0 60 -4q34 -3 67 -12q29 -8 66 -23q20 -8 57 -28l-69 -127 q-43 25 -103 37q-68 14 -119 14q-59 0 -116 -25q-63 -27 -103 -71q-45 -51 -71.5 -119t-26.5 -166q0 -72 16 -115q18 -49 49 -80q35 -35 74 -49q41 -14 99 -14q35 0 53 2t59 10q6 2 64 19q35 10 57 20l29 -121q-41 -23 -66 -30q-45 -14 -78 -23q-53 -12 -81.5 -16t-79.5 -4 q-82 0 -150 24.5t-117 73.5t-76 117q-28 73 -28 157z" />
<glyph unicode="&#xaa;" horiz-adv-x="882" d="M199 461l20 131h631l-23 -131h-628zM240 891q0 80 34 143q33 59 98.5 100.5t155.5 59.5t201 18h55q6 49 2 76q-6 31 -28 53q-20 20 -56 29q-41 10 -88 10q-16 0 -53 -4q-41 -4 -59 -8q-41 -8 -62 -14q-35 -10 -57 -21l-14 125q25 10 73 27q14 4 43 11t33 7q37 9 74 13 q4 0 29.5 3t40.5 3q72 0 137 -21q57 -18 94 -61q35 -39 47 -109q12 -68 -2 -160l-72 -454h-157l2 14q2 10 6 35q0 6 3 21.5l5 25.5q-20 -25 -57 -49q-33 -25 -66 -37q-43 -18 -72 -22q-49 -8 -69 -9q-55 0 -92 15q-41 16 -70 41q-31 27 -45 61.5t-14 77.5zM410 934 q0 -39 26 -70q25 -27 74 -26q39 0 84 16q37 12 76 45q35 29 59.5 65.5t30.5 82.5l6 30h-82q-135 0 -203 -33q-71 -34 -71 -110z" />
<glyph unicode="&#xab;" horiz-adv-x="1222" d="M174 584l545 481l86 -104l-383 -373l262 -385l-119 -82zM731 582l504 452l88 -102l-344 -346l235 -357l-120 -82z" />
<glyph unicode="&#xac;" horiz-adv-x="1538" d="M287 692l26 170h1186l-90 -575h-154l64 405h-1032z" />
<glyph unicode="&#xad;" horiz-adv-x="690" d="M174 479l27 164h495l-24 -164h-498z" />
<glyph unicode="&#xae;" horiz-adv-x="1712" d="M424 1010q0 100 25 194q25 98 65 176q41 80 107 152q59 66 143 117t172 77.5t199 26.5q80 0 147.5 -18.5t124.5 -53.5q61 -37 100 -82q45 -51 74 -106q31 -59 47 -129q14 -63 14 -143q0 -109 -22 -193q-25 -94 -70 -174q-51 -90 -108 -152q-66 -70 -144 -116 q-70 -43 -172 -74q-96 -29 -194 -29q-115 0 -213 41t-160 109q-68 74 -100 168q-35 98 -35 209zM549 1030q0 -92 29 -174q25 -74 81 -133q53 -57 129 -88q74 -31 166 -31q119 0 224 43q100 41 178 123q76 80 119 188q45 117 45 240q0 92 -29 174q-27 78 -80 137 q-49 55 -129 90q-74 33 -172 33q-131 0 -240 -51q-104 -49 -175.5 -133t-108.5 -190.5t-37 -227.5zM733 799l105 676h245q109 0 174 -39q59 -35 60 -123q0 -33 -10 -68q-9 -31 -31 -55q-25 -29 -49 -43q-33 -18 -70 -31l-4 -2h-2q25 -8 37 -16q16 -10 30.5 -28.5t26.5 -41.5 q16 -33 23 -53l55 -176h-147l-58 170q-8 27 -22 47q-12 18 -29 28q-20 12 -37 15q-43 6 -49 6h-72l-41 -266h-135zM926 1169h110q25 0 51 11q29 10 43 22q20 18 29 35q10 25 10 43q0 45 -28.5 65.5t-85.5 20.5h-99z" />
<glyph unicode="&#xaf;" horiz-adv-x="839" d="M401 1386l21 130h571l-20 -130h-572z" />
<glyph unicode="&#xb0;" horiz-adv-x="907" d="M264 1159q0 76 35 146q37 74 88 118q61 55 129 80q76 29 152 29q63 0 120 -23q59 -23 97 -59q40 -40 61 -92q23 -55 23 -115q0 -80 -33 -145.5t-92 -118.5q-61 -55 -129 -80q-76 -29 -150 -29q-63 0 -121 23q-53 20 -94 61q-43 43 -63 93q-23 55 -23 112zM418 1178 q0 -35 12 -66q10 -27 35 -51q27 -27 53 -37q31 -12 68 -12q51 0 86 16q39 18 71 47q35 31 52 68q18 41 18 82q0 33 -12.5 63.5t-35 53t-52.5 34.5q-37 14 -70 15q-45 0 -84 -19q-45 -20 -72 -45q-35 -31 -51 -67q-18 -39 -18 -82z" />
<glyph unicode="&#xb1;" horiz-adv-x="1536" d="M373 725l24 154h430l64 399h153l-61 -399h432l-22 -154h-435l-67 -440h-156l70 440h-432z" />
<glyph unicode="&#xb2;" horiz-adv-x="681" d="M180 668l23 141l200 176l103 94q37 37 61 72q23 31 31 57q8 25 8 62q0 49 -26.5 75.5t-79.5 26.5q-41 0 -99 -10q-45 -8 -98 -33l-14 135q33 14 59 23q37 12 66 16q47 8 65 10q45 4 60 5q68 0 110 -15q51 -16 78 -41q31 -27 45 -63q16 -39 16 -84t-10 -90q-8 -37 -39 -84 q-27 -41 -77 -92q-47 -49 -125 -113l-148 -127h350l-20 -141h-539z" />
<glyph unicode="&#xb3;" horiz-adv-x="647" d="M174 686l64 148q43 -16 86 -25q55 -10 96 -10q72 0 110.5 32.5t38.5 90.5q0 29 -10 45q-12 18 -35 30q-27 14 -55 21q-34 6 -80 6h-57l22 139h70q43 0 78 13q37 14 57 28q23 16 35 41t12 51q0 35 -24 58q-23 20 -76 20q-43 0 -90 -10q-53 -12 -80 -23l-17 129l50 21 q20 8 57 14q41 8 61 11q41 4 58 4q119 0 180 -43t61 -127q0 -35 -14 -78q-12 -37 -34.5 -65.5t-55.5 -51t-68 -35.5q41 -12 57.5 -22.5t41.5 -38.5q16 -18 26 -47q10 -27 11 -56q0 -66 -27 -125q-25 -57 -74 -96q-51 -41 -114.5 -61.5t-153.5 -20.5q-43 0 -105 9 q-47 6 -102 24z" />
<glyph unicode="&#xb4;" horiz-adv-x="839" d="M428 1368l307 342l135 -100l-342 -322z" />
<glyph unicode="&#xb5;" d="M60 -426l246 1546h163l-104 -651q-8 -47 -8 -98q0 -47 6 -84q6 -35 23 -66q16 -29 38 -49q25 -22 62 -31q41 -10 84 -10q80 0 135 29q58 31 98 80q43 53 63.5 112.5t33.5 130.5l102 637h166l-137 -862q-6 -37 -6.5 -63.5t4.5 -36.5q6 -12 16 -21q9 -6 25 -6t36 4l25 12 l4 -127q-6 -4 -17.5 -10t-17.5 -8q-23 -10 -41 -16q-31 -8 -41 -11q-29 -4 -39 -4q-37 0 -61 13q-23 10 -39 34q-14 18 -20 50q-6 27 -7 61q-29 -39 -67 -68q-37 -28 -80 -49q-43 -23 -88 -30q-51 -10 -92 -11q-49 0 -80 9q-41 10 -62 22q-29 16 -45 35q-25 29 -32 43 l-80 -506h-166z" />
<glyph unicode="&#xb6;" horiz-adv-x="1169" d="M299 1001q0 111 41 203q41 90 106 154q68 66 164 100q94 35 201 35h412l-260 -1690h-129l241 1567h-176l-242 -1567h-131l131 846q-84 6 -149.5 33t-112.5 74q-49 49 -71 106q-25 61 -25 139z" />
<glyph unicode="&#xb7;" horiz-adv-x="505" d="M260 678q0 29 8 65q6 31 21 48q18 23 37 28q27 10 57 10q45 0 65.5 -20.5t20.5 -67.5q0 -74 -29 -112q-27 -37 -94 -37q-45 0 -65.5 20.5t-20.5 65.5z" />
<glyph unicode="&#xb8;" horiz-adv-x="837" d="M154 -485l55 69q33 49 47 76q20 39 37 84q16 43 24 94h172q-10 -63 -32 -112q-25 -53 -58 -101q-29 -41 -73 -90q-53 -57 -82 -84z" />
<glyph unicode="&#xb9;" horiz-adv-x="677" d="M229 668l23 141h174l84 545l-195 -74l-2 135l224 88h163l-106 -694h158l-23 -141h-500z" />
<glyph unicode="&#xba;" horiz-adv-x="841" d="M188 461l23 131h627l-21 -131h-629zM231 1022q0 115 31 207t90 157q61 68 137 101q82 35 179 35q66 0 121 -22.5t90 -63.5q39 -47 59 -103q20 -59 20 -135q0 -111 -32 -209q-33 -96 -88 -158q-59 -66 -138 -98q-82 -35 -178 -35q-66 0 -121 23q-57 25 -92 63 q-37 43 -57.5 102.5t-20.5 135.5zM397 1044q0 -109 43 -157.5t121 -48.5q47 0 88 20q47 23 74 62q33 45 49 104q20 72 21 152q0 106 -45 157q-43 49 -121 49q-45 0 -86 -20q-47 -23 -74 -62q-31 -43 -49 -106q-21 -72 -21 -150z" />
<glyph unicode="&#xbb;" horiz-adv-x="1222" d="M1243.01 602.035l-544.967 -480.97l-85.9951 103.993l382.977 372.978l-261.983 384.977l118.992 81.9951zM686.045 604.035l-503.97 -451.972l-87.9941 101.993l343.979 345.979l-234.985 356.978l119.992 81.9951z" />
<glyph unicode="&#xbc;" horiz-adv-x="1837" d="M229 668l23 141h174l84 545l-195 -74l-2 135l224 88h163l-106 -694h158l-23 -141h-500zM274 8l1305 1534l121 -82l-1305 -1534zM1104 178l26 170l412 488h201l-80 -517h129l-23 -141h-129l-26 -178h-168l27 178h-369zM1280 319h215l49 322z" />
<glyph unicode="&#xbd;" horiz-adv-x="1826" d="M229 668l23 141h174l84 545l-195 -74l-2 135l224 88h163l-106 -694h158l-23 -141h-500zM274 8l1305 1534l121 -82l-1305 -1534zM1128 0l23 139l203 178q57 49 102 95q43 43 62 69q20 31 30 60q8 25 8 59q0 51 -26.5 78t-79.5 27q-43 0 -100 -11q-45 -8 -99 -32l-14 135 q25 10 59 20q4 2 29 9.5t37 9.5q45 8 68 10q45 4 59 4q66 0 108 -14q51 -16 78 -41q29 -25 45 -66q16 -39 16.5 -84t-10.5 -90q-8 -33 -38 -82q-23 -35 -78 -90q-72 -72 -123 -115l-150 -129h351l-23 -139h-537z" />
<glyph unicode="&#xbe;" horiz-adv-x="1851" d="M209 686l61 148q41 -16 88 -25q55 -10 97 -10q70 0 108.5 32.5t38.5 90.5q0 51 -45 75.5t-135 26.5h-57l22 139h70q43 0 78 13q41 14 57 28q25 20 35 41q12 25 12 51q0 35 -25 58q-23 20 -75 20q-41 0 -88 -10q-53 -12 -82 -23l-17 129q37 16 51 21q23 8 58 14l59 11 q41 4 58 4q121 0 182 -43q59 -41 59 -127q0 -41 -12 -78q-8 -25 -37 -66q-16 -25 -55 -51q-33 -23 -68 -35q41 -12 58 -22q20 -12 43 -39q12 -14 24 -47q10 -27 10 -56q0 -66 -26 -125q-25 -57 -74 -96q-51 -41 -114.5 -61.5t-153.5 -20.5q-43 0 -105 9q-45 6 -100 24z M274 8l1305 1534l121 -82l-1305 -1534zM1104 178l26 170l412 488h201l-80 -517h129l-23 -141h-129l-26 -178h-168l27 178h-369zM1280 319h215l49 322z" />
<glyph unicode="&#xbf;" horiz-adv-x="946" d="M817.021 1427q0 -77.9951 -30.998 -120.993q-30.998 -42.9971 -101.994 -42.9971q-48.9971 0 -73.9951 24.998q-24.999 24.999 -24.999 71.9961q0 81.9951 32.998 120.492q32.998 38.498 106.993 38.498q46.9971 0 69.4961 -22.499q22.499 -22.498 22.499 -69.4951z M796.022 65.0879q-22.999 -11.999 -87.9951 -34.998q-50.9961 -17.999 -89.9941 -25.998q-52.9971 -12 -87.9941 -16.999q-28.999 -4 -83.9951 -4q-77.9951 0 -140.991 18.999q-67.9961 17.999 -106.994 52.9961q-46.9971 40.998 -69.4951 87.9951 q-22.499 46.9971 -22.499 118.993q0 83.9941 28.998 140.991q28.998 58.9961 73.9961 112.993q28.998 34.998 97.9941 95.9941l101.993 91.9941q46.9971 44.9971 85.9951 102.994q34.998 50.9961 46.9971 122.992q2 5.99902 3.5 16.999q1.49902 10.999 1.49902 16.999 q2 17.999 6 38.9971q0 8 4 22.499t4 20.499q0 5.99902 1 17.498q1 11.5 2.99902 17.499h175.989q-2 -19.998 -3.99902 -34.9971q-2 -10 -6 -25.999q-2 -4 -2 -13.499t-2 -13.499t-3 -15.499q-0.999023 -11.499 -0.999023 -17.499q-14 -91.9941 -53.9971 -165.99 q-30.998 -58.9961 -83.9951 -121.992q-45.9971 -54.9971 -97.9941 -98.9941q-34.998 -28.998 -91.9941 -81.9951q-42.9971 -38.9971 -69.9961 -81.9951q-26.998 -40.9971 -25.998 -93.9941q0 -79.9951 52.9971 -120.992q52.9961 -40.998 140.991 -40.998q17.999 0 59.9961 4 q15.999 2 62.9961 10.999q36.998 6 71.9961 17.999q13.999 4 43.9971 15.499q29.998 11.5 35.998 13.499z" />
<glyph unicode="&#xc0;" horiz-adv-x="1320" d="M41 0l747 1493h209l283 -1493h-190l-66 391h-604l-187 -391h-192zM500 543h489l-131 751zM969 1612l-393 170l125 127l352 -209z" />
<glyph unicode="&#xc1;" horiz-adv-x="1320" d="M41 0l747 1493h209l283 -1493h-190l-66 391h-604l-187 -391h-192zM500 543h489l-131 751zM876 1608l-80 92l418 209l109 -131z" />
<glyph unicode="&#xc2;" horiz-adv-x="1320" d="M41 0l747 1493h209l283 -1493h-190l-66 391h-604l-187 -391h-192zM500 543h489l-131 751zM967 1905l260 -207l-78 -90l-203 127l-233 -127l-72 84z" />
<glyph unicode="&#xc3;" horiz-adv-x="1320" d="M41 0l747 1493h209l283 -1493h-190l-66 391h-604l-187 -391h-192zM500 543h489l-131 751zM1049 1645q-57 0 -88 14q-47 20 -60 31q-25 18 -47 32q-20 14 -51 15q-23 0 -37 -8q-18 -10 -33 -23q-18 -14 -28 -31q-14 -16 -27 -35l-82 64q18 31 43 61q20 27 57 56 q23 18 68 37q39 16 78 16q43 0 80 -16q47 -20 59 -31q16 -12 49 -33q23 -14 58 -14q18 0 36 6q8 2 31 20q12 10 27 31l24 37l84 -59q-20 -39 -49 -78q-18 -25 -55 -51q-31 -20 -66 -31q-36 -10 -71 -10z" />
<glyph unicode="&#xc4;" horiz-adv-x="1320" d="M629 1700q0 68 24.5 104.5t90.5 36.5q43 0 63.5 -20.5t20.5 -63.5q0 -68 -29 -102q-27 -33 -88 -33q-41 0 -64 18q-18 17 -18 60zM1051 1700q0 68 24.5 104.5t90.5 36.5q41 0 61.5 -20.5t20.5 -63.5q0 -68 -29 -102q-27 -33 -86 -33q-41 0 -64 18q-18 17 -18 60zM41 0 l747 1493h209l283 -1493h-190l-66 391h-604l-187 -391h-192zM500 543h489l-131 751z" />
<glyph unicode="&#xc5;" horiz-adv-x="1320" d="M41 0l747 1493h5q-16 12 -25 20q-23 27 -35 56q-12 31 -12 69q0 47 18 91q20 47 52 77q29 29 77 54q41 20 97 20q47 0 77 -14q33 -14 54 -39q22 -25 30 -55q10 -35 11 -62q0 -51 -19 -98q-18 -45 -51 -78q-27 -29 -70 -49l283 -1485h-190l-66 391h-604l-187 -391h-192z M500 543h489l-131 751zM834 1661q0 -43 24 -64q27 -23 60 -22q43 0 75 29q31 28 31 79q0 20 -4 31q-6 14 -16 29q-9 12 -25 18q-20 8 -35 8q-49 0 -79.5 -30.5t-30.5 -77.5z" />
<glyph unicode="&#xc6;" horiz-adv-x="1912" d="M41 0l1075 1493h907l-24 -152h-676l-76 -497h647l-24 -154h-647l-82 -538h692l-25 -152h-868l61 391h-499l-273 -391h-188zM612 543h412l117 751z" />
<glyph unicode="&#xc7;" horiz-adv-x="1318" d="M506 -485l55 69q33 49 47 76q20 39 37 84q16 43 24 94h172q-10 -63 -32 -112q-25 -53 -58 -101q-29 -41 -73 -90q-53 -57 -82 -84zM217 588q0 115 27 241q23 109 71 220q43 96 117 190q70 88 156 150q90 66 188 96q109 35 221 35q63 0 133 -17q59 -14 121 -45 q57 -29 103 -67q43 -37 80 -84l-111 -127q-47 51 -76 71q-49 35 -88 54q-51 25 -98 34q-43 10 -107 11q-84 0 -155 -27q-63 -23 -133 -80q-59 -47 -107 -117q-43 -63 -80 -149q-33 -76 -51 -168q-16 -80 -16 -180q0 -113 28.5 -209t77.5 -154q55 -63 121 -94q68 -31 149 -31 q53 0 109 13q53 12 111 39q61 29 100 53q45 29 86 65l86 -121q-43 -41 -106 -84q-53 -37 -123 -69q-55 -27 -142 -47q-78 -18 -161 -19q-135 0 -234 49q-102 51 -165.5 133.5t-98.5 194.5q-33 107 -33 240z" />
<glyph unicode="&#xc8;" horiz-adv-x="1138" d="M948 1612l-393 170l125 127l352 -209zM166 0l231 1493h850l-24 -152h-674l-78 -497h649l-24 -154h-650l-81 -538h692l-25 -152h-866z" />
<glyph unicode="&#xc9;" horiz-adv-x="1138" d="M809 1608l-80 92l418 209l109 -131zM166 0l231 1493h850l-24 -152h-674l-78 -497h649l-24 -154h-650l-81 -538h692l-25 -152h-866z" />
<glyph unicode="&#xca;" horiz-adv-x="1138" d="M889 1905l260 -207l-78 -90l-203 127l-233 -127l-72 84zM166 0l231 1493h850l-24 -152h-674l-78 -497h649l-24 -154h-650l-81 -538h692l-25 -152h-866z" />
<glyph unicode="&#xcb;" horiz-adv-x="1138" d="M563 1700q0 68 24.5 104.5t90.5 36.5q43 0 63.5 -20.5t20.5 -63.5q0 -68 -29 -102q-27 -33 -88 -33q-41 0 -64 18q-18 17 -18 60zM985 1700q0 68 24.5 104.5t90.5 36.5q41 0 61.5 -20.5t20.5 -63.5q0 -68 -29 -102q-27 -33 -86 -33q-41 0 -64 18q-18 17 -18 60zM166 0 l231 1493h850l-24 -152h-674l-78 -497h649l-24 -154h-650l-81 -538h692l-25 -152h-866z" />
<glyph unicode="&#xcc;" horiz-adv-x="505" d="M172 0l231 1493h174l-231 -1493h-174zM569 1612l-393 170l125 127l352 -209z" />
<glyph unicode="&#xcd;" horiz-adv-x="505" d="M166 0l231 1493h174l-231 -1493h-174zM459 1608l-80 92l418 209l109 -131z" />
<glyph unicode="&#xce;" horiz-adv-x="505" d="M166 0l231 1493h174l-231 -1493h-174zM553 1905l260 -207l-78 -90l-203 127l-233 -127l-72 84z" />
<glyph unicode="&#xcf;" horiz-adv-x="505" d="M166 0l231 1493h174l-231 -1493h-174zM215 1700q0 68 24.5 104.5t90.5 36.5q43 0 63.5 -20.5t20.5 -63.5q0 -68 -29 -102q-27 -33 -88 -33q-41 0 -64 18q-18 17 -18 60zM637 1700q0 68 24.5 104.5t90.5 36.5q41 0 61.5 -20.5t20.5 -63.5q0 -68 -29 -102q-27 -33 -86 -33 q-41 0 -64 18q-18 17 -18 60z" />
<glyph unicode="&#xd0;" horiz-adv-x="1425" d="M123 707l20 131h162l103 655h409q164 0 289 -45q121 -43 194 -123q80 -86 111 -184q35 -111 35 -232q0 -225 -66 -399q-63 -172 -180 -285q-119 -117 -278 -170q-163 -55 -357 -55h-389l111 707h-164zM375 152h233q170 0 291 51q119 51 199 145q80 96 116 225 q37 131 37 291q0 98 -24 185q-25 88 -80 151q-57 66 -148 103q-98 39 -227 38h-213l-78 -503h293l-18 -131h-295z" />
<glyph unicode="&#xd1;" horiz-adv-x="1394" d="M1084 1645q-57 0 -88 14q-47 20 -60 31q-25 18 -47 32q-20 14 -51 15q-23 0 -37 -8q-18 -10 -33 -23q-18 -14 -28 -31q-14 -16 -27 -35l-82 64q18 31 43 61q20 27 57 56q23 18 68 37q39 16 78 16q43 0 80 -16q47 -20 59 -31q16 -12 49 -33q23 -14 58 -14q18 0 36 6 q8 2 31 20q12 10 27 31l24 37l84 -59q-20 -39 -49 -78q-18 -25 -55 -51q-31 -20 -66 -31q-36 -10 -71 -10zM166 0l231 1493h193l373 -856l47 -107l41 -96l16 -41t18 -45l25 -72l4 3q4 47 8 71q4 47 13 101q6 58 18 135l29 180l110 727h170l-231 -1493h-195l-374 854l-48 107 l-22 55l-16.5 42.5t-16.5 39t-18 45.5q-15 40 -25 74l-6 -3q0 -8 -2 -20l-4 -25q-2 -16 -6 -53l-6 -61q-2 -14 -5.5 -30.5t-5.5 -35.5q-4 -35 -10 -71.5t-12 -77.5l-127 -840h-166z" />
<glyph unicode="&#xd2;" horiz-adv-x="1499" d="M1135 1612l-393 170l125 127l352 -209zM213 586q0 113 23 235q20 113 67 219q41 94 113 193q59 82 151 151q82 61 195 101q102 35 231 35q135 0 236 -54q102 -53 166 -139q66 -88 96 -197q31 -111 31 -225q0 -129 -27 -262q-25 -119 -74 -225q-49 -104 -118 -187 q-72 -84 -156 -141q-80 -55 -191 -88q-100 -31 -216.5 -31t-215.5 47q-102 49 -166 127q-74 90 -106 193q-39 121 -39 248zM406 629q0 -117 24 -205q25 -86 72 -154q43 -61 116 -96q68 -33 160 -33q82 0 166 27q68 23 137 74q57 43 107 114q51 74 78 146q33 84 47 172 q16 98 16 188q0 94 -22 189q-20 88 -68 155q-43 63 -117 105q-70 39 -170 39q-94 0 -166 -29q-78 -31 -137 -82q-61 -53 -106 -120.5t-76 -149.5q-29 -74 -45 -168q-16 -92 -16 -172z" />
<glyph unicode="&#xd3;" horiz-adv-x="1499" d="M921 1608l-80 92l418 209l109 -131zM213 586q0 113 23 235q20 113 67 219q41 94 113 193q59 82 151 151q82 61 195 101q102 35 231 35q135 0 236 -54q102 -53 166 -139q66 -88 96 -197q31 -111 31 -225q0 -129 -27 -262q-25 -119 -74 -225q-49 -104 -118 -187 q-72 -84 -156 -141q-80 -55 -191 -88q-100 -31 -216.5 -31t-215.5 47q-102 49 -166 127q-74 90 -106 193q-39 121 -39 248zM406 629q0 -117 24 -205q25 -86 72 -154q43 -61 116 -96q68 -33 160 -33q82 0 166 27q68 23 137 74q57 43 107 114q51 74 78 146q33 84 47 172 q16 98 16 188q0 94 -22 189q-20 88 -68 155q-43 63 -117 105q-70 39 -170 39q-94 0 -166 -29q-78 -31 -137 -82q-61 -53 -106 -120.5t-76 -149.5q-29 -74 -45 -168q-16 -92 -16 -172z" />
<glyph unicode="&#xd4;" horiz-adv-x="1499" d="M1059 1905l260 -207l-78 -90l-203 127l-233 -127l-72 84zM213 586q0 113 23 235q20 113 67 219q41 94 113 193q59 82 151 151q82 61 195 101q102 35 231 35q135 0 236 -54q102 -53 166 -139q66 -88 96 -197q31 -111 31 -225q0 -129 -27 -262q-25 -119 -74 -225 q-49 -104 -118 -187q-72 -84 -156 -141q-80 -55 -191 -88q-100 -31 -216.5 -31t-215.5 47q-102 49 -166 127q-74 90 -106 193q-39 121 -39 248zM406 629q0 -117 24 -205q25 -86 72 -154q43 -61 116 -96q68 -33 160 -33q82 0 166 27q68 23 137 74q57 43 107 114q51 74 78 146 q33 84 47 172q16 98 16 188q0 94 -22 189q-20 88 -68 155q-43 63 -117 105q-70 39 -170 39q-94 0 -166 -29q-78 -31 -137 -82q-61 -53 -106 -120.5t-76 -149.5q-29 -74 -45 -168q-16 -92 -16 -172z" />
<glyph unicode="&#xd5;" horiz-adv-x="1499" d="M1139 1645q-57 0 -88 14q-47 20 -60 31q-25 18 -47 32q-20 14 -51 15q-23 0 -37 -8q-18 -10 -33 -23q-18 -14 -28 -31q-14 -16 -27 -35l-82 64q18 31 43 61q20 27 57 56q23 18 68 37q39 16 78 16q43 0 80 -16q47 -20 59 -31q16 -12 49 -33q23 -14 58 -14q18 0 36 6 q8 2 31 20q12 10 27 31l24 37l84 -59q-20 -39 -49 -78q-18 -25 -55 -51q-31 -20 -66 -31q-36 -10 -71 -10zM213 586q0 113 23 235q20 113 67 219q41 94 113 193q59 82 151 151q82 61 195 101q102 35 231 35q135 0 236 -54q102 -53 166 -139q66 -88 96 -197q31 -111 31 -225 q0 -129 -27 -262q-25 -119 -74 -225q-49 -104 -118 -187q-72 -84 -156 -141q-80 -55 -191 -88q-100 -31 -216.5 -31t-215.5 47q-102 49 -166 127q-74 90 -106 193q-39 121 -39 248zM406 629q0 -117 24 -205q25 -86 72 -154q43 -61 116 -96q68 -33 160 -33q82 0 166 27 q68 23 137 74q57 43 107 114q51 74 78 146q33 84 47 172q16 98 16 188q0 94 -22 189q-20 88 -68 155q-43 63 -117 105q-70 39 -170 39q-94 0 -166 -29q-78 -31 -137 -82q-61 -53 -106 -120.5t-76 -149.5q-29 -74 -45 -168q-16 -92 -16 -172z" />
<glyph unicode="&#xd6;" horiz-adv-x="1499" d="M721 1700q0 68 24.5 104.5t90.5 36.5q43 0 63.5 -20.5t20.5 -63.5q0 -68 -29 -102q-27 -33 -88 -33q-41 0 -64 18q-18 17 -18 60zM1143 1700q0 68 24.5 104.5t90.5 36.5q41 0 61.5 -20.5t20.5 -63.5q0 -68 -29 -102q-27 -33 -86 -33q-41 0 -64 18q-18 17 -18 60zM213 586 q0 113 23 235q20 113 67 219q41 94 113 193q59 82 151 151q82 61 195 101q102 35 231 35q135 0 236 -54q102 -53 166 -139q66 -88 96 -197q31 -111 31 -225q0 -129 -27 -262q-25 -119 -74 -225q-49 -104 -118 -187q-72 -84 -156 -141q-80 -55 -191 -88q-100 -31 -216.5 -31 t-215.5 47q-102 49 -166 127q-74 90 -106 193q-39 121 -39 248zM406 629q0 -117 24 -205q25 -86 72 -154q43 -61 116 -96q68 -33 160 -33q82 0 166 27q68 23 137 74q57 43 107 114q51 74 78 146q33 84 47 172q16 98 16 188q0 94 -22 189q-20 88 -68 155q-43 63 -117 105 q-70 39 -170 39q-94 0 -166 -29q-78 -31 -137 -82q-61 -53 -106 -120.5t-76 -149.5q-29 -74 -45 -168q-16 -92 -16 -172z" />
<glyph unicode="&#xd7;" horiz-adv-x="1445" d="M244 215l471 420l-316 389l127 109l314 -388l434 385l90 -108l-434 -385l340 -420l-127 -108l-340 415l-469 -418z" />
<glyph unicode="&#xd8;" horiz-adv-x="1499" d="M80 -45l225 252q-33 55 -53 117q-39 121 -39 254q0 143 29 276q27 125 80 231q55 111 124 187q74 80 160 135q88 57 189 84q104 29 206 29q123 0 213 -41q78 -33 142 -97l192 215l109 -90l-215 -239q25 -47 43 -101q39 -117 39 -254q0 -143 -29 -276q-27 -125 -80 -231 q-51 -104 -125 -187q-68 -76 -160 -135q-90 -57 -186 -84q-104 -29 -209 -29q-113 0 -211 41q-70 29 -131 84l-207 -229zM408 625q0 -121 26 -207q6 -16 19 -45l766 856q-49 59 -115 90q-68 31 -150 31q-102 0 -200 -50q-102 -51 -176 -143q-78 -96 -123 -229 q-47 -137 -47 -303zM528 250q47 -49 107 -78q68 -31 149 -31q63 0 136 23q66 20 129 65q55 39 112 107q47 57 88 143q39 86 60 176q20 94 20 211q0 115 -29 207q-4 16 -8 27z" />
<glyph unicode="&#xd9;" horiz-adv-x="1376" d="M1016 1618l-393 170l125 127l352 -209zM248 348q-4 41 -4 85q0 82 14 181l137 879h174l-133 -862q-15 -100 -15 -171q0 -12 1 -24q2 -88 35 -155q31 -66 96 -103t172 -37q96 0 174 39q76 37 123 101q49 66 80 149q29 82 45 184l135 879h168l-133 -862q-23 -147 -70 -281 q-43 -125 -117 -207q-76 -86 -180 -127q-113 -45 -260 -45q-141 0 -231 45q-94 47 -146 129q-53 84 -65 203z" />
<glyph unicode="&#xda;" horiz-adv-x="1376" d="M878 1608l-80 92l418 209l109 -131zM248 348q-4 41 -4 85q0 82 14 181l137 879h174l-133 -862q-15 -100 -15 -171q0 -12 1 -24q2 -88 35 -155q31 -66 96 -103t172 -37q96 0 174 39q76 37 123 101q49 66 80 149q29 82 45 184l135 879h168l-133 -862q-23 -147 -70 -281 q-43 -125 -117 -207q-76 -86 -180 -127q-113 -45 -260 -45q-141 0 -231 45q-94 47 -146 129q-53 84 -65 203z" />
<glyph unicode="&#xdb;" horiz-adv-x="1376" d="M995 1905l260 -207l-78 -90l-203 127l-233 -127l-72 84zM248 348q-4 41 -4 85q0 82 14 181l137 879h174l-133 -862q-15 -100 -15 -171q0 -12 1 -24q2 -88 35 -155q31 -66 96 -103t172 -37q96 0 174 39q76 37 123 101q49 66 80 149q29 82 45 184l135 879h168l-133 -862 q-23 -147 -70 -281q-43 -125 -117 -207q-76 -86 -180 -127q-113 -45 -260 -45q-141 0 -231 45q-94 47 -146 129q-53 84 -65 203z" />
<glyph unicode="&#xdc;" horiz-adv-x="1376" d="M657 1700q0 68 24.5 104.5t90.5 36.5q43 0 63.5 -20.5t20.5 -63.5q0 -68 -29 -102q-27 -33 -88 -33q-41 0 -64 18q-18 17 -18 60zM1079 1700q0 68 24.5 104.5t90.5 36.5q41 0 61.5 -20.5t20.5 -63.5q0 -68 -29 -102q-27 -33 -86 -33q-41 0 -64 18q-18 17 -18 60zM248 348 q-4 41 -4 85q0 82 14 181l137 879h174l-133 -862q-15 -100 -15 -171q0 -12 1 -24q2 -88 35 -155q31 -66 96 -103t172 -37q96 0 174 39q76 37 123 101q49 66 80 149q29 82 45 184l135 879h168l-133 -862q-23 -147 -70 -281q-43 -125 -117 -207q-76 -86 -180 -127 q-113 -45 -260 -45q-141 0 -231 45q-94 47 -146 129q-53 84 -65 203z" />
<glyph unicode="&#xdd;" horiz-adv-x="1243" d="M848 1608l-80 92l418 209l109 -131zM279 1493h196l281 -684l485 684h201l-623 -852l-98 -641h-184l100 641z" />
<glyph unicode="&#xde;" horiz-adv-x="1148" d="M166 0l231 1493h174l-41 -260h222q129 0 211 -27q90 -29 141 -73q53 -47 78 -111q23 -59 22 -137q0 -137 -47 -237.5t-133 -174.5t-195 -108q-106 -35 -239 -35h-199l-51 -330h-174zM416 481h217q92 0 158 23q72 25 118 69q49 45 76 113q27 66 27 156q0 55 -15 96 q-16 45 -53 76q-39 33 -92 49q-57 18 -143 18h-201z" />
<glyph unicode="&#xdf;" horiz-adv-x="1179" d="M162 0l162 1047q20 129 55 213q43 102 102 161q68 68 156 101q94 35 213 34q55 0 117 -20q57 -18 98 -51q37 -29 65 -82q25 -46 25 -105q0 -78 -25 -137q-23 -51 -63 -100q-37 -43 -80 -74q-57 -41 -82 -61q-43 -37 -63 -64q-25 -35 -25 -76q0 -39 25 -69q27 -33 59 -58 q68 -51 78 -57q37 -23 78 -61q29 -27 59 -80q25 -43 25 -105q0 -84 -33 -151q-35 -72 -94 -123q-55 -47 -144 -80q-84 -31 -182 -31q-70 0 -125 21q-63 23 -100 57l82 137q18 -14 37 -22l45 -19q18 -8 51 -14q18 -4 55 -4q49 0 82 10q43 12 74 35q35 25 51 55q18 34 18 80 q0 45 -22.5 74t-61.5 57q-49 37 -77 56q-51 33 -80 59q-31 29 -60 78q-25 43 -24 102q0 74 24 125q23 47 64 92q31 33 82 70q47 33 82 65q45 41 63 72q25 39 25 94q0 39 -15 66q-16 29 -40 47q-27 20 -62 29q-41 10 -78 10q-66 0 -114 -25q-45 -23 -82 -69q-31 -39 -54 -101 q-23 -59 -30 -121l-168 -1087h-168z" />
<glyph unicode="&#xe0;" horiz-adv-x="1181" d="M178 406q0 90 17 192q14 86 47 176q31 82 77 152q51 74 107 118q59 47 137 76q80 29 166 29q29 0 86 -8q37 -6 82 -23q43 -16 74 -39q29 -20 53 -59l33 100h129l-115 -616l-20 -504h-140l-4 225q-8 -12 -25.5 -35.5t-19.5 -27.5q-43 -57 -94 -101q-47 -39 -115 -65 q-61 -25 -135 -25q-90 0 -156 35q-65 34 -104 92q-41 61 -59 138q-21 88 -21 170zM362 451q0 -51 11 -117q10 -61 33 -105q25 -46 61 -73q39 -29 94 -29q37 0 76 18q45 20 78 52q37 35 71 77q35 45 62 95q31 57 49 108q2 6 5 19.5t5 19.5l70 318q-16 35 -51 69 q-29 31 -70 51q-33 18 -84 29q-47 10 -90 10q-49 0 -98 -22q-39 -18 -80 -60q-29 -29 -62 -90q-27 -51 -45 -110q-16 -53 -26 -127q-9 -57 -9 -133zM471 1606l151 92l201 -340l-110 -70z" />
<glyph unicode="&#xe1;" horiz-adv-x="1181" d="M178 406q0 90 17 192q14 86 47 176q31 82 77 152q51 74 107 118q59 47 137 76q80 29 166 29q29 0 86 -8q37 -6 82 -23q43 -16 74 -39q29 -20 53 -59l33 100h129l-115 -616l-20 -504h-140l-4 225q-8 -12 -25.5 -35.5t-19.5 -27.5q-43 -57 -94 -101q-47 -39 -115 -65 q-61 -25 -135 -25q-90 0 -156 35q-65 34 -104 92q-41 61 -59 138q-21 88 -21 170zM362 451q0 -51 11 -117q10 -61 33 -105q25 -46 61 -73q39 -29 94 -29q37 0 76 18q45 20 78 52q37 35 71 77q35 45 62 95q31 57 49 108q2 6 5 19.5t5 19.5l70 318q-16 35 -51 69 q-29 31 -70 51q-33 18 -84 29q-47 10 -90 10q-49 0 -98 -22q-39 -18 -80 -60q-29 -29 -62 -90q-27 -51 -45 -110q-16 -53 -26 -127q-9 -57 -9 -133zM641 1368l307 342l135 -100l-342 -322z" />
<glyph unicode="&#xe2;" horiz-adv-x="1181" d="M178 406q0 90 17 192q14 86 47 176q31 82 77 152q51 74 107 118q59 47 137 76q80 29 166 29q29 0 86 -8q37 -6 82 -23q43 -16 74 -39q29 -20 53 -59l33 100h129l-115 -616l-20 -504h-140l-4 225q-8 -12 -25.5 -35.5t-19.5 -27.5q-43 -57 -94 -101q-47 -39 -115 -65 q-61 -25 -135 -25q-90 0 -156 35q-65 34 -104 92q-41 61 -59 138q-21 88 -21 170zM362 451q0 -51 11 -117q10 -61 33 -105q25 -46 61 -73q39 -29 94 -29q37 0 76 18q45 20 78 52q37 35 71 77q35 45 62 95q31 57 49 108q2 6 5 19.5t5 19.5l70 318q-16 35 -51 69 q-29 31 -70 51q-33 18 -84 29q-47 10 -90 10q-49 0 -98 -22q-39 -18 -80 -60q-29 -29 -62 -90q-27 -51 -45 -110q-16 -53 -26 -127q-9 -57 -9 -133zM419 1389l369 294l275 -292l-107 -95l-199 185l-243 -185z" />
<glyph unicode="&#xe3;" horiz-adv-x="1181" d="M178 406q0 90 17 192q14 86 47 176q31 82 77 152q51 74 107 118q59 47 137 76q80 29 166 29q29 0 86 -8q37 -6 82 -23q43 -16 74 -39q29 -20 53 -59l33 100h129l-115 -616l-20 -504h-140l-4 225q-8 -12 -25.5 -35.5t-19.5 -27.5q-43 -57 -94 -101q-47 -39 -115 -65 q-61 -25 -135 -25q-90 0 -156 35q-65 34 -104 92q-41 61 -59 138q-21 88 -21 170zM362 451q0 -51 11 -117q10 -61 33 -105q25 -46 61 -73q39 -29 94 -29q37 0 76 18q45 20 78 52q37 35 71 77q35 45 62 95q31 57 49 108q2 6 5 19.5t5 19.5l70 318q-16 35 -51 69 q-29 31 -70 51q-33 18 -84 29q-47 10 -90 10q-49 0 -98 -22q-39 -18 -80 -60q-29 -29 -62 -90q-27 -51 -45 -110q-16 -53 -26 -127q-9 -57 -9 -133zM428 1434q18 31 43 61q31 37 57 59q33 27 68 41q39 16 78 17q31 0 57 -10q25 -9 43 -25q25 -20 35 -33q6 -6 17.5 -16 t15.5 -15q16 -16 33 -24q20 -10 40 -10q23 0 37 10q12 8 31 27q14 14 29 38l12 19.5l12 19.5l86 -59q-51 -94 -108 -141q-61 -49 -137 -50q-31 0 -62 11q-25 8 -47.5 24.5t-34.5 30.5q-10 12 -31 33q-15 15 -30 24q-16 10 -34.5 10.5t-39.5 -10.5q-12 -6 -31 -24 q-4 -4 -9 -10.5l-10 -13.5t-9 -11q-14 -18 -27 -37z" />
<glyph unicode="&#xe4;" horiz-adv-x="1181" d="M178 406q0 90 17 192q14 86 47 176q31 82 77 152q51 74 107 118q59 47 137 76q80 29 166 29q29 0 86 -8q37 -6 82 -23q43 -16 74 -39q29 -20 53 -59l33 100h129l-115 -616l-20 -504h-140l-4 225q-8 -12 -25.5 -35.5t-19.5 -27.5q-43 -57 -94 -101q-47 -39 -115 -65 q-61 -25 -135 -25q-90 0 -156 35q-65 34 -104 92q-41 61 -59 138q-21 88 -21 170zM362 451q0 -51 11 -117q10 -61 33 -105q25 -46 61 -73q39 -29 94 -29q37 0 76 18q45 20 78 52q37 35 71 77q35 45 62 95q31 57 49 108q2 6 5 19.5t5 19.5l70 318q-16 35 -51 69 q-29 31 -70 51q-33 18 -84 29q-47 10 -90 10q-49 0 -98 -22q-39 -18 -80 -60q-29 -29 -62 -90q-27 -51 -45 -110q-16 -53 -26 -127q-9 -57 -9 -133zM477 1458q0 70 25 107t90 37q37 0 60 -23q18 -18 18 -61q0 -72 -27 -105q-29 -35 -88 -35q-41 0 -59.5 18.5t-18.5 61.5z M871 1458q0 66 26 107q25 37 88 37q39 0 59.5 -20.5t20.5 -63.5q0 -70 -28.5 -105t-85.5 -35q-43 0 -61.5 18.5t-18.5 61.5z" />
<glyph unicode="&#xe5;" horiz-adv-x="1181" d="M178 406q0 90 17 192q14 86 47 176q31 82 77 152q51 74 107 118q59 47 137 76q80 29 166 29q29 0 86 -8q37 -6 82 -23q43 -16 74 -39q29 -20 53 -59l33 100h129l-115 -616l-20 -504h-140l-4 225q-8 -12 -25.5 -35.5t-19.5 -27.5q-43 -57 -94 -101q-47 -39 -115 -65 q-61 -25 -135 -25q-90 0 -156 35q-65 34 -104 92q-41 61 -59 138q-21 88 -21 170zM362 451q0 -51 11 -117q10 -61 33 -105q25 -46 61 -73q39 -29 94 -29q37 0 76 18q45 20 78 52q37 35 71 77q35 45 62 95q31 57 49 108q2 6 5 19.5t5 19.5l70 318q-16 35 -51 69 q-29 31 -70 51q-33 18 -84 29q-47 10 -90 10q-49 0 -98 -22q-39 -18 -80 -60q-29 -29 -62 -90q-27 -51 -45 -110q-16 -53 -26 -127q-9 -57 -9 -133zM678 1460q0 -43 25 -63q27 -23 61 -23q41 0 76 31q31 28 31 80q0 15 -7 31q-6 16 -14 26q-9 12 -24 19q-20 8 -35 8 q-49 0 -80 -31q-33 -33 -33 -78zM565 1440q0 47 18.5 90t51.5 75.5t78 55.5q37 18 98 18q47 0 78 -14q33 -14 53 -39q22 -25 31 -55q10 -35 10 -62q0 -51 -18 -98q-18 -45 -51 -78t-76 -51t-96 -18q-39 0 -72 12q-34 12 -55 37q-27 31 -37 55q-13 31 -13 72z" />
<glyph unicode="&#xe6;" horiz-adv-x="1726" d="M139 242q0 127 49 213q51 90 140 141q86 51 204 76q106 23 256 22h89q10 59 2 129q-6 55 -35 95q-27 37 -78 55q-55 20 -123 20q-18 0 -68 -4q-20 -2 -79 -14q-20 -4 -84 -23q-29 -8 -82 -28l-11 139q76 31 101 39q66 20 96.5 26.5t87.5 14.5q43 6 84 6q55 0 113 -10 q59 -10 96 -29q43 -22 74 -55q37 -39 51 -80q77 86 172 129q100 45 205 45q76 0 139 -23q61 -20 106.5 -63t67.5 -92q23 -51 23 -117q0 -76 -21 -129q-23 -55 -57 -94q-33 -37 -88 -64q-53 -27 -109 -41q-53 -14 -123 -20q-63 -6 -131 -6q-49 0 -73 2q-33 2 -64 6 q-12 2 -31.5 5t-27.5 3q-10 -98 -2 -162q9 -74 36 -123q29 -51 76 -77.5t121 -26.5q57 0 86 4t86 16q41 8 82 25q53 20 80 33l39 -127q-41 -23 -88 -41q-31 -12 -101 -33q-52 -15 -110 -24q-51 -8 -119 -9q-65 0 -117 19q-61 23 -94 47q-37 29 -67.5 76t-45.5 96 q-35 -53 -90 -98q-53 -45 -112 -74q-55 -29 -123 -47q-63 -18 -121 -19q-72 0 -121 21q-59 25 -90 55.5t-55 85.5q-21 48 -21 109zM319 286.5q0 -73.5 43.5 -116.5t112.5 -43q53 0 121 27q59 25 113 73q49 45 86 115q37 68 49 147l10 62h-104q-106 0 -181 -14 q-82 -16 -135 -45q-51 -29 -84 -82q-31 -50 -31 -123.5zM1036 659l74 -8q10 -2 34.5 -3t37.5 -1q53 -4 73 -4q57 0 119 10.5t99 28.5q39 20 65 55q25 33 25 82q0 39 -17 76q-14 31 -43 53q-27 20 -65 33q-33 10 -84 10q-68 0 -113 -22q-47 -25 -88 -68q-43 -45 -70 -106 q-31 -66 -47 -136z" />
<glyph unicode="&#xe7;" horiz-adv-x="987" d="M182 432q0 172 51 309q51 139 134 224q90 92 196 137q113 47 240 47q37 0 78 -6q27 -4 75 -17q25 -6 70 -26q34 -15 61 -37l-71 -135q-41 27 -119 47q-68 18 -139 18t-142 -30q-74 -33 -127 -95q-57 -68 -90 -161q-35 -100 -34 -232q0 -74 18 -139q18 -68 51 -111 q35 -47 88 -71q57 -27 121 -27q43 0 68 4q49 8 73.5 14.5t69.5 22.5t64 27l30 -132q-20 -14 -76 -36q-33 -14 -88 -29q-47 -12 -94 -18q-66 -8 -92 -9q-106 0 -190 39q-78 37 -129 103q-51 68 -72 145q-25 94 -25 174zM310 -485l55 69q33 49 47 76q20 39 37 84q16 43 24 94 h172q-10 -63 -32 -112q-25 -53 -58 -101q-29 -41 -73 -90q-53 -57 -82 -84z" />
<glyph unicode="&#xe8;" horiz-adv-x="1081" d="M180 426q0 115 20.5 209t59.5 178q37 82 90 143q52 61 117 105q70 47 135 65q78 23 152 23q76 0 139 -23q61 -20 106 -63t68 -92q23 -51 23 -117q0 -76 -21 -129q-23 -55 -57 -94q-33 -37 -88 -64q-53 -27 -109 -41q-53 -14 -123 -20q-66 -6 -131 -6q-47 0 -72 2 q-33 2 -63 6q-12 2 -32.5 5t-28.5 3q-6 -56 -6 -98q0 -34 3 -64q9 -74 37 -123q29 -51 76 -77.5t121 -26.5q57 0 86 4t86 16q41 8 82 25q53 20 80 33l39 -127q-41 -23 -88 -41q-31 -12 -101 -33q-52 -15 -110 -24q-51 -8 -117 -9q-98 0 -172 35q-76 37 -115 92 q-45 63 -65.5 143.5t-20.5 184.5zM391 659l74 -8q10 -2 34.5 -3t37.5 -1q53 -4 73 -4q57 0 119 10.5t98 28.5q39 20 66 55q25 33 25 82q0 39 -17 76q-14 31 -43 53q-27 20 -65 33q-33 10 -84 10q-66 0 -111 -22q-51 -25 -90 -68q-43 -45 -70 -106q-31 -66 -47 -136z M522 1606l151 92l201 -340l-110 -70z" />
<glyph unicode="&#xe9;" horiz-adv-x="1081" d="M180 426q0 115 20.5 209t59.5 178q37 82 90 143q52 61 117 105q70 47 135 65q78 23 152 23q76 0 139 -23q61 -20 106 -63t68 -92q23 -51 23 -117q0 -76 -21 -129q-23 -55 -57 -94q-33 -37 -88 -64q-53 -27 -109 -41q-53 -14 -123 -20q-66 -6 -131 -6q-47 0 -72 2 q-33 2 -63 6q-12 2 -32.5 5t-28.5 3q-6 -56 -6 -98q0 -34 3 -64q9 -74 37 -123q29 -51 76 -77.5t121 -26.5q57 0 86 4t86 16q41 8 82 25q53 20 80 33l39 -127q-41 -23 -88 -41q-31 -12 -101 -33q-52 -15 -110 -24q-51 -8 -117 -9q-98 0 -172 35q-76 37 -115 92 q-45 63 -65.5 143.5t-20.5 184.5zM391 659l74 -8q10 -2 34.5 -3t37.5 -1q53 -4 73 -4q57 0 119 10.5t98 28.5q39 20 66 55q25 33 25 82q0 39 -17 76q-14 31 -43 53q-27 20 -65 33q-33 10 -84 10q-66 0 -111 -22q-51 -25 -90 -68q-43 -45 -70 -106q-31 -66 -47 -136z M719 1368l307 342l135 -100l-342 -322z" />
<glyph unicode="&#xea;" horiz-adv-x="1081" d="M180 426q0 115 20.5 209t59.5 178q37 82 90 143q52 61 117 105q70 47 135 65q78 23 152 23q76 0 139 -23q61 -20 106 -63t68 -92q23 -51 23 -117q0 -76 -21 -129q-23 -55 -57 -94q-33 -37 -88 -64q-53 -27 -109 -41q-53 -14 -123 -20q-66 -6 -131 -6q-47 0 -72 2 q-33 2 -63 6q-12 2 -32.5 5t-28.5 3q-6 -56 -6 -98q0 -34 3 -64q9 -74 37 -123q29 -51 76 -77.5t121 -26.5q57 0 86 4t86 16q41 8 82 25q53 20 80 33l39 -127q-41 -23 -88 -41q-31 -12 -101 -33q-52 -15 -110 -24q-51 -8 -117 -9q-98 0 -172 35q-76 37 -115 92 q-45 63 -65.5 143.5t-20.5 184.5zM391 659l74 -8q10 -2 34.5 -3t37.5 -1q53 -4 73 -4q57 0 119 10.5t98 28.5q39 20 66 55q25 33 25 82q0 39 -17 76q-14 31 -43 53q-27 20 -65 33q-33 10 -84 10q-66 0 -111 -22q-51 -25 -90 -68q-43 -45 -70 -106q-31 -66 -47 -136z M520 1389l369 294l275 -292l-107 -95l-199 185l-243 -185z" />
<glyph unicode="&#xeb;" horiz-adv-x="1081" d="M180 426q0 115 20.5 209t59.5 178q37 82 90 143q52 61 117 105q70 47 135 65q78 23 152 23q76 0 139 -23q61 -20 106 -63t68 -92q23 -51 23 -117q0 -76 -21 -129q-23 -55 -57 -94q-33 -37 -88 -64q-53 -27 -109 -41q-53 -14 -123 -20q-66 -6 -131 -6q-47 0 -72 2 q-33 2 -63 6q-12 2 -32.5 5t-28.5 3q-6 -56 -6 -98q0 -34 3 -64q9 -74 37 -123q29 -51 76 -77.5t121 -26.5q57 0 86 4t86 16q41 8 82 25q53 20 80 33l39 -127q-41 -23 -88 -41q-31 -12 -101 -33q-52 -15 -110 -24q-51 -8 -117 -9q-98 0 -172 35q-76 37 -115 92 q-45 63 -65.5 143.5t-20.5 184.5zM391 659l74 -8q10 -2 34.5 -3t37.5 -1q53 -4 73 -4q57 0 119 10.5t98 28.5q39 20 66 55q25 33 25 82q0 39 -17 76q-14 31 -43 53q-27 20 -65 33q-33 10 -84 10q-66 0 -111 -22q-51 -25 -90 -68q-43 -45 -70 -106q-31 -66 -47 -136z M567 1458q0 70 25 107t90 37q37 0 60 -23q18 -18 18 -61q0 -72 -27 -105q-29 -35 -88 -35q-41 0 -59.5 18.5t-18.5 61.5zM961 1458q0 66 26 107q25 37 88 37q39 0 59.5 -20.5t20.5 -63.5q0 -70 -28.5 -105t-85.5 -35q-43 0 -61.5 18.5t-18.5 61.5z" />
<glyph unicode="&#xec;" horiz-adv-x="485" d="M182 1606l151 92l201 -340l-110 -70zM334 1120h166l-174 -1120h-164z" />
<glyph unicode="&#xed;" horiz-adv-x="485" d="M358 1368l307 342l135 -100l-342 -322zM334 1120h166l-174 -1120h-164z" />
<glyph unicode="&#xee;" horiz-adv-x="485" d="M344 1120h166l-174 -1120h-164zM147 1389l369 294l275 -292l-107 -95l-199 185l-243 -185z" />
<glyph unicode="&#xef;" horiz-adv-x="485" d="M184 1458q0 70 25 107t90 37q37 0 60 -23q18 -18 18 -61q0 -72 -27 -105q-29 -35 -88 -35q-41 0 -59.5 18.5t-18.5 61.5zM578 1458q0 66 26 107q25 37 88 37q39 0 59.5 -20.5t20.5 -63.5q0 -70 -28.5 -105t-85.5 -35q-43 0 -61.5 18.5t-18.5 61.5zM334 1120h166 l-174 -1120h-164z" />
<glyph unicode="&#xf0;" d="M182 424q0 86 15 160q18 92 43 155q33 80 75 142q47 66 108.5 114.5t143.5 77.5t178 29q4 0 14.5 -1t16.5 -1q25 0 37 -2l37 -6q6 0 16.5 -1t14.5 -4q-12 31 -27 52l-31 49q-6 10 -18 26.5t-14.5 18.5t-34.5 41l-189 -86l-59 96l168 82q-14 14 -25 23q-6 4 -10 8t-6 5 t-7 5t-12 8q-12 10 -36 27q-10 6 -16.5 11t-12.5 9l113 105q29 -16 38 -25q41 -29 46 -33q12 -10 24 -22t19 -17q20 -18 32 -32l224 100l59 -102l-199 -93q63 -76 111 -163q43 -80 75.5 -172.5t47 -172t14.5 -159.5q0 -94 -14 -174q-16 -90 -45 -166q-27 -68 -78 -143 q-43 -63 -113 -117q-61 -47 -149 -76q-86 -29 -186.5 -29t-178.5 39q-72 37 -119 99q-49 66 -69.5 145.5t-20.5 169.5zM362 449q0 -78 15 -134q16 -61 45 -102t78 -63.5t112 -22.5q76 0 131.5 24.5t96.5 65.5q35 35 65 96q29 57 43 115q14 55 21 123q8 82 8 121q0 18 -4 63 q-4 41 -8 66q-8 39 -15 63q-8 25 -22 51q-4 2 -18.5 7.5t-22.5 7.5q-31 8 -41 10l-45 6q-14 2 -41 2q-115 0 -193 -41q-76 -39 -123 -108q-45 -66 -63 -160q-19 -92 -19 -190z" />
<glyph unicode="&#xf1;" horiz-adv-x="1185" d="M162 0l172 1120h131l2 -137q23 29 65 64q35 29 82 51q59 29 99 37q61 14 108 14q100 0 170 -35t105 -92q37 -61 43 -143q2 -21 1 -44q0 -62 -12 -141l-106 -694h-166l102 664q10 76 11 127q0 57 -21 104q-20 49 -61 72q-43 25 -113 24q-51 0 -100 -18q-53 -20 -94 -49 q-47 -35 -78 -70q-39 -45 -58 -86l-118 -768h-164zM473 1434q18 31 43 61q31 37 57 59q33 27 68 41q39 16 78 17q31 0 57 -10q25 -9 43 -25q25 -20 35 -33q6 -6 17.5 -16t15.5 -15q16 -16 33 -24q20 -10 40 -10q23 0 37 10q12 8 31 27q14 14 29 38l12 19.5l12 19.5l86 -59 q-51 -94 -108 -141q-61 -49 -137 -50q-31 0 -62 11q-25 8 -47.5 24.5t-34.5 30.5q-10 12 -31 33q-15 15 -30 24q-16 10 -34.5 10.5t-39.5 -10.5q-12 -6 -31 -24q-4 -4 -9 -10.5l-10 -13.5t-9 -11q-14 -18 -27 -37z" />
<glyph unicode="&#xf2;" d="M182 424q0 172 43 307q43 133 123 230q74 88 187 139q109 49 237 49q84 0 156 -31q76 -33 123 -86q51 -57 77 -141q29 -90 29 -195q0 -174 -43 -309q-41 -129 -123 -227q-74 -88 -184 -140q-106 -49 -238 -49q-86 0 -157.5 31t-120.5 86q-52 58 -80 141q-29 86 -29 195z M362 446q0 -82 18.5 -143t47.5 -98q31 -39 80 -60q45 -18 106 -18q76 0 141.5 33t114.5 100q51 70 78 170q29 104 29 244q0 164 -65.5 241.5t-184.5 77.5q-78 0 -141 -32q-72 -37 -117 -101q-51 -72 -78 -170q-29 -109 -29 -244zM506 1606l151 92l201 -340l-110 -70z" />
<glyph unicode="&#xf3;" d="M182 424q0 172 43 307q43 133 123 230q74 88 187 139q109 49 237 49q84 0 156 -31q76 -33 123 -86q51 -57 77 -141q29 -90 29 -195q0 -174 -43 -309q-41 -129 -123 -227q-74 -88 -184 -140q-106 -49 -238 -49q-86 0 -157.5 31t-120.5 86q-52 58 -80 141q-29 86 -29 195z M362 446q0 -82 18.5 -143t47.5 -98q31 -39 80 -60q45 -18 106 -18q76 0 141.5 33t114.5 100q51 70 78 170q29 104 29 244q0 164 -65.5 241.5t-184.5 77.5q-78 0 -141 -32q-72 -37 -117 -101q-51 -72 -78 -170q-29 -109 -29 -244zM715 1368l307 342l135 -100l-342 -322z" />
<glyph unicode="&#xf4;" d="M182 424q0 172 43 307q43 133 123 230q74 88 187 139q109 49 237 49q84 0 156 -31q76 -33 123 -86q51 -57 77 -141q29 -90 29 -195q0 -174 -43 -309q-41 -129 -123 -227q-74 -88 -184 -140q-106 -49 -238 -49q-86 0 -157.5 31t-120.5 86q-52 58 -80 141q-29 86 -29 195z M362 446q0 -82 18.5 -143t47.5 -98q31 -39 80 -60q45 -18 106 -18q76 0 141.5 33t114.5 100q51 70 78 170q29 104 29 244q0 164 -65.5 241.5t-184.5 77.5q-78 0 -141 -32q-72 -37 -117 -101q-51 -72 -78 -170q-29 -109 -29 -244zM481 1389l369 294l275 -292l-107 -95 l-199 185l-243 -185z" />
<glyph unicode="&#xf5;" d="M182 424q0 172 43 307q43 133 123 230q74 88 187 139q109 49 237 49q84 0 156 -31q76 -33 123 -86q51 -57 77 -141q29 -90 29 -195q0 -174 -43 -309q-41 -129 -123 -227q-74 -88 -184 -140q-106 -49 -238 -49q-86 0 -157.5 31t-120.5 86q-52 58 -80 141q-29 86 -29 195z M362 446q0 -82 18.5 -143t47.5 -98q31 -39 80 -60q45 -18 106 -18q76 0 141.5 33t114.5 100q51 70 78 170q29 104 29 244q0 164 -65.5 241.5t-184.5 77.5q-78 0 -141 -32q-72 -37 -117 -101q-51 -72 -78 -170q-29 -109 -29 -244zM469 1434q18 31 43 61q31 37 57 59 q33 27 68 41q39 16 78 17q31 0 57 -10q25 -9 43 -25q25 -20 35 -33q6 -6 17.5 -16t15.5 -15q16 -16 33 -24q20 -10 40 -10q23 0 37 10q12 8 31 27q14 14 29 38l12 19.5l12 19.5l86 -59q-51 -94 -108 -141q-61 -49 -137 -50q-31 0 -62 11q-25 8 -47.5 24.5t-34.5 30.5 q-10 12 -31 33q-15 15 -30 24q-16 10 -34.5 10.5t-39.5 -10.5q-12 -6 -31 -24q-4 -4 -9 -10.5l-10 -13.5t-9 -11q-14 -18 -27 -37z" />
<glyph unicode="&#xf6;" d="M182 424q0 172 43 307q43 133 123 230q74 88 187 139q109 49 237 49q84 0 156 -31q76 -33 123 -86q51 -57 77 -141q29 -90 29 -195q0 -174 -43 -309q-41 -129 -123 -227q-74 -88 -184 -140q-106 -49 -238 -49q-86 0 -157.5 31t-120.5 86q-52 58 -80 141q-29 86 -29 195z M362 446q0 -82 18.5 -143t47.5 -98q31 -39 80 -60q45 -18 106 -18q76 0 141.5 33t114.5 100q51 70 78 170q29 104 29 244q0 164 -65.5 241.5t-184.5 77.5q-78 0 -141 -32q-72 -37 -117 -101q-51 -72 -78 -170q-29 -109 -29 -244zM524 1458q0 70 25 107t90 37q37 0 60 -23 q18 -18 18 -61q0 -72 -27 -105q-29 -35 -88 -35q-41 0 -59.5 18.5t-18.5 61.5zM918 1458q0 66 26 107q25 37 88 37q39 0 59.5 -20.5t20.5 -63.5q0 -70 -28.5 -105t-85.5 -35q-43 0 -61.5 18.5t-18.5 61.5z" />
<glyph unicode="&#xf7;" horiz-adv-x="1536" d="M348 565l25 154h1020l-25 -154h-1020zM698 156q0 70 31 106.5t88 36.5q43 0 65.5 -22.5t22.5 -65.5q0 -72 -31 -107q-31 -33 -92 -32q-43 0 -63.5 20.5t-20.5 63.5zM834 1055q0 72 30 108q29 35 90 35q43 0 64 -20q23 -23 22 -68q0 -71 -30 -104q-31 -35 -90 -35 q-43 0 -64 20q-22 23 -22 64z" />
<glyph unicode="&#xf8;" d="M125 -90l143 203q-35 45 -57 114q-29 86 -29 195q0 174 43 309t123 227.5t187 141.5q109 49 237 49q80 0 158 -31q20 -8 41 -20l145 205l121 -86l-158 -222q31 -45 51 -102q27 -80 27 -195q0 -174 -43 -309t-123 -227t-186 -142q-109 -49 -238 -49q-84 0 -157 29 q-8 4 -14.5 8t-14.5 6l-135 -188zM362 444q0 -100 25 -168l481 678q-57 39 -139 39q-78 0 -143 -32q-70 -35 -117 -101q-51 -70 -78 -172q-29 -109 -29 -244zM483 158q55 -31 129 -31q78 0 144 33q70 35 116 100q51 70 78 172q29 109 29 244q0 88 -21 149z" />
<glyph unicode="&#xf9;" horiz-adv-x="1175" d="M213 207q-9 40 -9 86t9 98l113 729h163l-104 -698q-8 -48 -8 -86q0 -26 4 -47q10 -57 33 -92q23 -33 65 -54q35 -16 94 -16q41 0 95 14q47 12 90 37q31 16 76 55q35 29 63 68l127 819h166l-174 -1120h-154l12 121q-27 -33 -61 -60q-29 -20 -84 -47q-35 -16 -96 -30 q-51 -12 -103 -13q-76 0 -145 27q-68 27 -111 78q-43 53 -61 131zM530 1606l151 92l201 -340l-110 -70z" />
<glyph unicode="&#xfa;" horiz-adv-x="1175" d="M213 207q-9 40 -9 86t9 98l113 729h163l-104 -698q-8 -48 -8 -86q0 -26 4 -47q10 -57 33 -92q23 -33 65 -54q35 -16 94 -16q41 0 95 14q47 12 90 37q31 16 76 55q35 29 63 68l127 819h166l-174 -1120h-154l12 121q-27 -33 -61 -60q-29 -20 -84 -47q-35 -16 -96 -30 q-51 -12 -103 -13q-76 0 -145 27q-68 27 -111 78q-43 53 -61 131zM707 1368l307 342l135 -100l-342 -322z" />
<glyph unicode="&#xfb;" horiz-adv-x="1175" d="M213 207q-9 40 -9 86t9 98l113 729h163l-104 -698q-8 -48 -8 -86q0 -26 4 -47q10 -57 33 -92q23 -33 65 -54q35 -16 94 -16q41 0 95 14q47 12 90 37q31 16 76 55q35 29 63 68l127 819h166l-174 -1120h-154l12 121q-27 -33 -61 -60q-29 -20 -84 -47q-35 -16 -96 -30 q-51 -12 -103 -13q-76 0 -145 27q-68 27 -111 78q-43 53 -61 131zM487 1389l369 294l275 -292l-107 -95l-199 185l-243 -185z" />
<glyph unicode="&#xfc;" horiz-adv-x="1175" d="M213 207q-9 40 -9 86t9 98l113 729h163l-104 -698q-8 -48 -8 -86q0 -26 4 -47q10 -57 33 -92q23 -33 65 -54q35 -16 94 -16q41 0 95 14q47 12 90 37q31 16 76 55q35 29 63 68l127 819h166l-174 -1120h-154l12 121q-27 -33 -61 -60q-29 -20 -84 -47q-35 -16 -96 -30 q-51 -12 -103 -13q-76 0 -145 27q-68 27 -111 78q-43 53 -61 131zM532 1458q0 70 25 107t90 37q37 0 60 -23q18 -18 18 -61q0 -72 -27 -105q-29 -35 -88 -35q-41 0 -59.5 18.5t-18.5 61.5zM926 1458q0 66 26 107q25 37 88 37q39 0 59.5 -20.5t20.5 -63.5q0 -70 -28.5 -105 t-85.5 -35q-43 0 -61.5 18.5t-18.5 61.5z" />
<glyph unicode="&#xfd;" horiz-adv-x="1064" d="M35 -426l59 141q23 -8 41 -10q29 -4 39 -4q37 0 80 31q35 25 86 90q41 51 94 135q2 2 5 8t5 8l-198 1147h172l110 -674q2 -20 6.5 -42.5t8.5 -45.5q2 -8 6 -38.5t6 -47.5q4 -53 4 -71q0 -4 1 -12.5t1 -10.5l72 139l98 207q4 8 72 160q55 129 63 154l52 145q10 29 40 137 h175l-50 -159q-10 -31 -30.5 -86.5t-24.5 -65.5q-20 -55 -61 -150l-70 -155l-123 -242q-68 -131 -125 -227q-84 -141 -125 -197q-76 -104 -127 -155q-66 -66 -127 -101q-66 -37 -125 -37q-20 0 -30 2q-4 2 -14.5 4.5t-14.5 2.5q-16 4 -27 8zM678 1368l307 342l135 -100 l-342 -322z" />
<glyph unicode="&#xfe;" horiz-adv-x="1150" d="M92 -426l309 1985h164l-59 -390q-6 -43 -19 -92q-14 -59 -26 -92l4 -2q25 37 67 70q37 29 86 51q39 18 95 33q45 12 84 12q92 0 157.5 -31t108.5 -86q41 -53 63.5 -133t22.5 -174q0 -156 -41 -297q-41 -139 -115 -238q-77 -101 -190 -159q-115 -59 -260 -60 q-49 0 -111 11q-53 8 -106 30l-68 -438h-166zM356 213q18 -20 47 -37q25 -12 58 -26q23 -8 63 -17q33 -6 64 -6q92 0 164 43q70 41 118 117q45 68 72 176q25 102 25 217q0 82 -15 137q-15 58 -43 98q-27 39 -69 58q-47 20 -95 20q-49 0 -92 -20q-51 -25 -86 -53 q-39 -33 -71 -72q-29 -33 -54 -80z" />
<glyph unicode="&#xff;" horiz-adv-x="1064" d="M35 -426l59 141q23 -8 41 -10q29 -4 39 -4q37 0 80 31q35 25 86 90q41 51 94 135q2 2 5 8t5 8l-198 1147h172l110 -674q2 -20 6.5 -42.5t8.5 -45.5q2 -8 6 -38.5t6 -47.5q4 -53 4 -71q0 -4 1 -12.5t1 -10.5l72 139l98 207q4 8 72 160q55 129 63 154l52 145q10 29 40 137 h175l-50 -159q-10 -31 -30.5 -86.5t-24.5 -65.5q-20 -55 -61 -150l-70 -155l-123 -242q-68 -131 -125 -227q-84 -141 -125 -197q-76 -104 -127 -155q-66 -66 -127 -101q-66 -37 -125 -37q-20 0 -30 2q-4 2 -14.5 4.5t-14.5 2.5q-16 4 -27 8zM509 1458q0 70 25 107t90 37 q37 0 60 -23q18 -18 18 -61q0 -72 -27 -105q-29 -35 -88 -35q-41 0 -59.5 18.5t-18.5 61.5zM903 1458q0 66 26 107q25 37 88 37q39 0 59.5 -20.5t20.5 -63.5q0 -70 -28.5 -105t-85.5 -35q-43 0 -61.5 18.5t-18.5 61.5z" />
<glyph unicode="&#x131;" horiz-adv-x="485" d="M334 1120h166l-174 -1120h-164z" />
<glyph unicode="&#x152;" horiz-adv-x="1894" d="M215 590q0 147 31 272q33 131 84 230q59 111 129 184q76 80 166 133q94 57 196 84q100 27 219 27q53 0 101 -7q51 -6 92 -20h772l-25 -152h-624l-31 -196q-6 -43 -10 -76t-8 -55l-15 -92q-2 -14 -4 -26.5t-4 -23t-4 -28.5h596l-25 -154h-596l-84 -538h644l-25 -152h-817 q-45 -14 -96 -20q-66 -8 -97 -9q-125 0 -229 43q-109 45 -180 123q-76 82 -115 193q-41 117 -41 260zM410 639q0 -121 30 -213q27 -82 90 -156q53 -61 132 -96q74 -33 163 -33q45 0 88 13q57 16 88 28l175 1121q-45 23 -88.5 35t-94.5 12q-68 0 -145 -23q-74 -23 -137 -63 q-72 -47 -121 -103q-59 -68 -96 -139q-39 -80 -62 -176q-22 -101 -22 -207z" />
<glyph unicode="&#x153;" horiz-adv-x="1855" d="M182 424q0 172 43 307q43 133 123 230q74 88 187 139q109 49 237 49q125 0 209 -51q88 -53 133 -154q80 102 186 154q104 51 240 51q72 0 133 -23q53 -20 101 -63q45 -43 67 -92q23 -51 23 -117q0 -76 -21 -129q-23 -55 -57 -94q-33 -37 -88 -64q-53 -27 -109 -41 q-53 -14 -123 -20q-66 -6 -131 -6q-49 0 -71 2q-45 4 -64 6q-12 2 -32.5 5t-28.5 3q-8 -88 0 -162q10 -78 35 -123q29 -49 77 -77q47 -27 119 -27q57 0 86 4t86 16q41 8 82 25q53 20 80 33l39 -127q-41 -23 -88 -41q-31 -12 -101 -33q-52 -15 -110 -24q-51 -8 -119 -8.5 t-123 18.5q-49 16 -94 51q-43 33 -68 72q-31 49 -47 88q-37 -49 -86 -95q-37 -35 -100 -71q-53 -31 -113 -47q-61 -16 -125 -17q-86 0 -157.5 31t-120.5 86q-52 58 -80 141q-29 86 -29 195zM362 446q0 -82 18.5 -143t47.5 -98q31 -39 80 -60q45 -18 106 -18q76 0 141.5 33 t114.5 100q51 70 78 170q29 104 29 244q0 164 -65.5 241.5t-184.5 77.5q-78 0 -141 -32q-72 -37 -117 -101q-51 -72 -78 -170q-29 -109 -29 -244zM1165 659l74 -8q10 -2 34.5 -3t37.5 -1q53 -4 73 -4q57 0 119 10.5t99 28.5q39 20 65 55q25 33 25 82q0 45 -14.5 76t-43.5 53 q-27 20 -63 33q-31 10 -76 10q-72 0 -119 -22q-52 -25 -92 -68q-35 -39 -70 -106q-31 -62 -49 -136z" />
<glyph unicode="&#x178;" horiz-adv-x="1243" d="M279 1493h196l281 -684l485 684h201l-623 -852l-98 -641h-184l100 641zM586 1700q0 68 24.5 104.5t90.5 36.5q43 0 63.5 -20.5t20.5 -63.5q0 -68 -29 -102q-27 -33 -88 -33q-41 0 -64 18q-18 17 -18 60zM1008 1700q0 68 24.5 104.5t90.5 36.5q41 0 61.5 -20.5t20.5 -63.5 q0 -68 -29 -102q-27 -33 -86 -33q-41 0 -64 18q-18 17 -18 60z" />
<glyph unicode="&#x2c6;" horiz-adv-x="839" d="M317 1389l369 294l275 -292l-107 -95l-199 185l-243 -185z" />
<glyph unicode="&#x2da;" horiz-adv-x="841" d="M557 1460q0 -43 25 -63q27 -23 61 -23q41 0 76 31q31 28 31 80q0 15 -7 31q-6 16 -14 26q-9 12 -24 19q-20 8 -35 8q-49 0 -80 -31q-33 -33 -33 -78zM444 1440q0 47 18.5 90t51.5 75.5t78 55.5q37 18 98 18q47 0 78 -14q33 -14 53 -39q22 -25 31 -55q10 -35 10 -62 q0 -51 -18 -98q-18 -45 -51 -78t-76 -51t-96 -18q-39 0 -72 12q-34 12 -55 37q-27 31 -37 55q-13 31 -13 72z" />
<glyph unicode="&#x2dc;" horiz-adv-x="806" d="M301 1434q18 31 43 61q31 37 57 59q33 27 68 41q39 16 78 17q31 0 57 -10q25 -9 43 -25q25 -20 35 -33q6 -6 17.5 -16t15.5 -15q16 -16 33 -24q20 -10 40 -10q23 0 37 10q12 8 31 27q14 14 29 38l12 19.5l12 19.5l86 -59q-51 -94 -108 -141q-61 -49 -137 -50 q-31 0 -62 11q-25 8 -47.5 24.5t-34.5 30.5q-10 12 -31 33q-15 15 -30 24q-16 10 -34.5 10.5t-39.5 -10.5q-12 -6 -31 -24q-4 -4 -9 -10.5l-10 -13.5t-9 -11q-14 -18 -27 -37z" />
<glyph unicode="&#x3bc;" horiz-adv-x="1204" d="M80 -426l246 1546h163l-104 -651q-8 -47 -8 -98q0 -47 6 -84q6 -35 23 -66q16 -29 38 -49q25 -22 62 -31q41 -10 84 -10q80 0 135 29q58 31 98 80q43 53 63.5 112.5t33.5 130.5l102 637h166l-137 -862q-6 -37 -6.5 -63.5t4.5 -36.5q6 -12 16 -21q9 -6 25 -6t36 4l25 12 l4 -127q-6 -4 -17.5 -10t-17.5 -8q-23 -10 -41 -16q-31 -8 -41 -11q-29 -4 -39 -4q-37 0 -61 13q-23 10 -39 34q-14 18 -20 50q-6 27 -7 61q-29 -39 -67 -68q-37 -28 -80 -49q-43 -23 -88 -30q-51 -10 -92 -11q-49 0 -80 9q-41 10 -62 22q-29 16 -45 35q-25 29 -32 43 l-80 -506h-166z" />
<glyph unicode="&#x2000;" horiz-adv-x="956" />
<glyph unicode="&#x2001;" horiz-adv-x="1914" />
<glyph unicode="&#x2002;" horiz-adv-x="956" />
<glyph unicode="&#x2003;" horiz-adv-x="1914" />
<glyph unicode="&#x2004;" horiz-adv-x="636" />
<glyph unicode="&#x2005;" horiz-adv-x="477" />
<glyph unicode="&#x2006;" horiz-adv-x="317" />
<glyph unicode="&#x2007;" horiz-adv-x="317" />
<glyph unicode="&#x2008;" horiz-adv-x="237" />
<glyph unicode="&#x2009;" horiz-adv-x="382" />
<glyph unicode="&#x200a;" horiz-adv-x="104" />
<glyph unicode="&#x2010;" horiz-adv-x="825" d="M244 498l22 145h498l-25 -145h-495z" />
<glyph unicode="&#x2011;" horiz-adv-x="825" d="M244 498l22 145h498l-25 -145h-495z" />
<glyph unicode="&#x2012;" horiz-adv-x="825" d="M244 498l22 145h498l-25 -145h-495z" />
<glyph unicode="&#x2013;" horiz-adv-x="958" d="M176 489l23 144h764l-23 -144h-764z" />
<glyph unicode="&#x2014;" horiz-adv-x="1904" d="M176 489l23 144h1710l-23 -144h-1710z" />
<glyph unicode="&#x2018;" horiz-adv-x="573" d="M670.018 1474.06q-5.99902 -6 -15.999 -22.999q-9.99902 -16.999 -14.999 -23.998q-11.999 -17.999 -35.998 -58.9971q-11.999 -19.998 -32.9971 -65.9951q-22.999 -48.9971 -26.999 -62.9971q12 -21.998 24.999 -48.9971q9.99902 -22.998 9.99902 -69.9951 q0 -48.9971 -11.999 -79.9951q-11.999 -32.998 -34.998 -50.9971q-21.999 -17.999 -48.9971 -23.998q-26.998 -6 -61.9961 -7q-40.998 0 -65.4961 26.998q-24.498 26.999 -24.498 71.9961q0 30.998 11.999 66.9961q17.999 58.9961 28.998 79.9951 q24.998 56.9961 40.9971 85.9941q32.998 56.9971 50.9971 83.9951l23.499 34.998t30.498 42.9971q26.998 36.998 52.9971 64.9961z" />
<glyph unicode="&#x2019;" horiz-adv-x="573" d="M293 1004q6 6 16 23t15 24q12 18 36 59q12 20 33 66q23 49 27 63q-12 22 -25 49q-10 23 -10 70q0 49 12 80q12 33 35 51q22 18 49 24t62 7q41 0 65.5 -27t24.5 -72q0 -31 -12 -67q-18 -59 -29 -80q-25 -57 -41 -86q-33 -57 -51 -84l-23.5 -35t-30.5 -43q-27 -37 -53 -65z " />
<glyph unicode="&#x201a;" horiz-adv-x="536" d="M57 -262q6 6 16 23t15 24q12 18 36 59q12 20 33 66q23 49 27 63q-12 22 -25 49q-10 23 -10 70q0 49 12 80q12 33 35 51q22 18 49 24t62 7q41 0 65.5 -27t24.5 -72q0 -31 -12 -67q-18 -59 -29 -80q-25 -57 -41 -86q-33 -57 -51 -84l-23.5 -35t-30.5 -43q-27 -37 -53 -65z " />
<glyph unicode="&#x201c;" horiz-adv-x="980" d="M1077.02 1474.06q-5.99902 -6 -15.999 -22.999q-9.99902 -16.999 -14.999 -23.998q-11.999 -17.999 -35.998 -58.9971q-11.999 -19.998 -32.9971 -65.9951q-22.999 -48.9971 -26.999 -62.9971q12 -21.998 24.999 -48.9971q9.99902 -22.998 9.99902 -69.9951 q0 -48.9971 -11.999 -79.9951q-11.999 -32.998 -34.998 -50.9971q-21.999 -17.999 -48.9971 -23.998q-26.998 -6 -61.9961 -7q-40.998 0 -65.4961 26.998q-24.498 26.999 -24.498 71.9961q0 30.998 11.999 66.9961q17.999 58.9961 28.998 79.9951 q24.998 56.9961 40.9971 85.9941q32.998 56.9971 50.9971 83.9951l23.499 34.998t30.498 42.9971q26.998 36.998 52.9971 64.9961zM672.043 1474.06q-6 -8 -32.998 -46.9971q-12 -17.999 -36.998 -58.9971q-11.999 -19.998 -32.998 -65.9951 q-22.998 -48.9971 -25.998 -62.9971q11.999 -21.998 23.998 -48.9971q10 -22.998 10 -69.9951q0 -48.9971 -12 -79.9951q-13.999 -34.998 -32.998 -50.9971q-21.998 -17.999 -48.9971 -24.498q-26.998 -6.5 -60.9961 -6.5q-42.9971 0 -67.9951 26.998 q-22.999 24.999 -21.999 71.9961q0 36.9971 9.99902 66.9961q19.999 58.9961 28.998 79.9951q17.999 42.9971 42.998 85.9941l48.9971 83.9951l23.498 34.998l29.498 42.9971q26.999 36.998 52.9971 64.9961z" />
<glyph unicode="&#x201d;" horiz-adv-x="980" d="M293 1004q6 6 16 23t15 24q12 18 36 59q12 20 33 66q23 49 27 63q-12 22 -25 49q-10 23 -10 70q0 49 12 80q12 33 35 51q22 18 49 24t62 7q41 0 65.5 -27t24.5 -72q0 -31 -12 -67q-18 -59 -29 -80q-25 -57 -41 -86q-33 -57 -51 -84l-23.5 -35t-30.5 -43q-27 -37 -53 -65z M698 1004q6 8 33 47q12 18 37 59q12 20 33 66q23 49 26 63q-12 22 -24 49q-10 23 -10 70q0 49 12 80q14 35 33 51q22 18 49 24.5t61 6.5q43 0 68 -27q23 -25 22 -72q0 -37 -10 -67q-20 -59 -29 -80q-18 -43 -43 -86l-49 -84l-23.5 -35l-29.5 -43q-27 -37 -53 -65z" />
<glyph unicode="&#x201e;" horiz-adv-x="942" d="M57 -262q6 6 16 23t15 24q12 18 36 59q12 20 33 66q23 49 27 63q-12 22 -25 49q-10 23 -10 70q0 49 12 80q12 33 35 51q22 18 49 24t62 7q41 0 65.5 -27t24.5 -72q0 -31 -12 -67q-18 -59 -29 -80q-25 -57 -41 -86q-33 -57 -51 -84l-23.5 -35t-30.5 -43q-27 -37 -53 -65z M462 -262q6 8 33 47q12 18 37 59q12 20 33 66q23 49 26 63q-12 22 -24 49q-10 23 -10 70q0 49 12 80q14 35 33 51q22 18 49 24.5t61 6.5q43 0 68 -27q23 -25 22 -72q0 -37 -10 -67q-20 -59 -29 -80q-18 -43 -43 -86l-49 -84l-23.5 -35l-29.5 -43q-27 -37 -53 -65z" />
<glyph unicode="&#x2022;" horiz-adv-x="962" d="M338 608q0 80 16 131q20 63 52 101q37 43 92 67.5t133 24.5q53 0 96 -17q41 -16 65.5 -42.5t36.5 -65.5q10 -31 11 -82q0 -82 -21 -141q-23 -63 -61 -103q-41 -41 -92 -61q-57 -23 -119 -23q-104 0 -158 56q-51 53 -51 155z" />
<glyph unicode="&#x2026;" horiz-adv-x="1517" d="M190 76q0 78 31 121t101 43q49 0 73.5 -25t24.5 -72q0 -45 -8 -71q-10 -33 -27 -49q-20 -20 -43 -29q-27 -10 -61 -10q-45 0 -68 22.5t-23 69.5zM662 78q0 78 30 121q29 41 103 41q47 0 71.5 -25t24.5 -72q0 -82 -33 -120.5t-104 -38.5q-47 0 -69.5 22.5t-22.5 71.5z M1135 76q0 78 30.5 121t100.5 43q49 0 73.5 -25t24.5 -72q0 -45 -8 -71q-9 -31 -25 -49q-14 -18 -43 -29q-27 -10 -61 -10q-47 0 -69.5 22.5t-22.5 69.5z" />
<glyph unicode="&#x202f;" horiz-adv-x="382" />
<glyph unicode="&#x2039;" horiz-adv-x="727" d="M174 584l569 475l91 -96l-410 -379l274 -353l-102 -92z" />
<glyph unicode="&#x203a;" horiz-adv-x="727" d="M748.011 622.035l-568.966 -474.971l-90.9941 95.9941l409.975 378.977l-273.982 352.979l101.993 91.9951z" />
<glyph unicode="&#x205f;" horiz-adv-x="477" />
<glyph unicode="&#x20ac;" horiz-adv-x="1462" d="M115 487l22 152h207q0 2 1 9t1 11q0 6 1 11.5t1 11.5l2 27q0 4 1 10t3 10q2 14 7.5 40t7.5 34l16 67h-211l25 154h237q18 47 58 115q33 55 79 112q51 61 103 105q59 51 125 86q61 33 149 57q76 20 174 21q72 0 133.5 -12.5t116.5 -37.5q53 -23 105 -65q53 -45 92 -90 l-131 -135q-39 49 -74 75q-45 35 -84 52q-45 20 -94 28q-43 8 -111 8q-90 0 -162 -32q-70 -31 -131 -84q-53 -45 -96 -105q-33 -45 -59 -98h628l-22 -154h-666q-10 -35 -22 -100q-10 -55 -10 -108h-2v-9v-14h663l-22 -152h-635q6 -35 18 -75q14 -45 33 -78q29 -49 49 -72 q35 -37 70 -59q45 -27 88 -41q45 -14 112 -15q53 0 97 9q53 10 100 30q66 29 100 52q57 37 109 79l84 -114q-59 -53 -135 -105q-70 -45 -129 -71q-76 -33 -133 -43q-68 -12 -140 -13q-92 0 -162 21q-76 23 -129 57q-59 39 -98 84q-41 47 -69 107q-29 61 -44 120 q-18 76 -20 127h-227z" />
<glyph unicode="&#x2122;" horiz-adv-x="1622" d="M250 1380l16 113h629l-16 -113h-244l-98 -635h-142l99 635h-244zM870 745l115 748h201l65 -285q12 -53 17 -90q8 -63 10 -88q4 -57 6 -82q4 -39 0 -63h6q6 20 27 69l33 80l20 44.5t21 41.5l41 90l155 283h185l-115 -748h-139l38 250q23 145 37 195l37 133l-8 4 q-14 -39 -53 -119l-62 -125l-178 -338h-141l-66 338l-12 66q-2 10 -5 32.5t-5 32.5q-2 14 -8 62l-5.5 26.5t-3.5 24.5l-6 -2q-2 -16 -5 -61t-7 -76q-12 -104 -27 -195l-37 -248h-131z" />
<glyph unicode="&#x2212;" horiz-adv-x="1536" d="M1393 719l-25 -154h-1020l25 154h1020z" />
<glyph unicode="&#xe000;" horiz-adv-x="1120" d="M0 1120h1120v-1120h-1120v1120z" />
<glyph unicode="&#xfb01;" horiz-adv-x="1191" d="M193 975l22 145h195l14 84q16 102 47 168q37 76 84 115q51 43 121 63q68 20 160 21q33 0 65 -6q34 -6 68 -19l-47 -129q-4 0 -14.5 2t-14.5 2q-20 4 -31 4q-4 0 -16 1t-18.5 1t-19.5 1.5t-20 1.5q-39 0 -73.5 -12.5t-57.5 -33.5q-25 -20 -41 -61q-12 -29 -22 -88 l-19 -115h635l-172 -1120h-166l152 975h-471l-152 -975h-165l151 975h-194zM1079 1407q0 68 27 109q25 37 88 36q41 0 61.5 -20.5t20.5 -63.5q0 -72 -27 -106q-29 -37 -90 -37q-39 0 -59.5 20.5t-20.5 61.5z" />
<glyph unicode="&#xfb02;" horiz-adv-x="1193" d="M193 975l22 145h195l14 84q16 98 47 164q33 70 88 115q55 46 129 67q70 20 168 21q46 0 98 -6q49 -6 106.5 -18.5t108.5 -30.5q61 -23 99 -39l-230 -1477h-166l213 1376q-37 16 -57 23q-39 12 -67 16q-51 8 -74 10q-53 4 -78 5q-49 0 -86 -13q-39 -12 -64 -35 q-28 -25 -43 -61q-12 -29 -22 -86l-19 -115h281l-22 -145h-281l-152 -975h-165l151 975h-194z" />
<glyph unicode="&#xfb03;" horiz-adv-x="1828" d="M193 975l22 145h195l14 84q16 102 47 168q37 76 84 115q51 43 121 63q68 20 160 21q33 0 65 -6q34 -6 68 -19l-47 -129q-20 4 -60 8q-45 4 -74 5q-39 0 -73.5 -12.5t-57.5 -33.5q-25 -20 -41 -61q-12 -29 -22 -88l-19 -115h472l14 84q16 102 47 168q37 76 84 115 q53 43 119 63q68 20 159 21q33 0 68 -6q39 -8 68 -19l-47 -129q-16 4 -61.5 8.5t-72.5 4.5q-41 0 -73 -13q-35 -12 -58 -33q-25 -20 -41 -61q-16 -37 -24 -88l-19 -115h637l-174 -1120h-166l152 975h-471l-150 -975h-166l152 975h-471l-152 -975h-165l151 975h-194z M1714 1407q0 68 27 109q25 37 90 36q41 0 61.5 -20.5t20.5 -63.5q0 -68 -29 -106q-29 -37 -90 -37q-39 0 -59.5 20.5t-20.5 61.5z" />
<glyph unicode="&#xfb04;" horiz-adv-x="1830" d="M193 975l22 145h195l14 84q16 102 47 168q37 76 84 115q51 43 121 63q68 20 160 21q33 0 65 -6q34 -6 68 -19l-47 -129q-20 4 -60 8q-45 4 -74 5q-39 0 -73.5 -12.5t-57.5 -33.5q-25 -20 -41 -61q-12 -29 -22 -88l-19 -115h472l14 84q14 92 49 164t86 115q55 46 129 67 q70 20 168 21q46 0 98 -6q49 -6 106.5 -18.5t108.5 -30.5q61 -23 99 -39l-230 -1477h-166l213 1376q-37 16 -57 23q-39 12 -68 16q-51 8 -73 10q-53 4 -78 5q-49 0 -86 -13q-39 -12 -64 -35q-28 -25 -43 -61q-12 -29 -22 -86l-19 -115h281l-23 -145h-280l-152 -975h-166 l152 975h-471l-152 -975h-165l151 975h-194z" />
<glyph horiz-adv-x="839" d="M852 1612l-393 170l125 127l352 -209z" />
<glyph horiz-adv-x="839" d="M518 1608l-80 92l418 209l109 -131z" />
<glyph horiz-adv-x="839" d="M721 1905l260 -207l-78 -90l-203 127l-233 -127l-72 84z" />
<glyph horiz-adv-x="839" d="M797 1645q-57 0 -88 14q-47 20 -60 31q-25 18 -47 32q-20 14 -51 15q-23 0 -37 -8q-18 -10 -33 -23q-18 -14 -28 -31q-14 -16 -27 -35l-82 64q18 31 43 61q20 27 57 56q23 18 68 37q39 16 78 16q43 0 80 -16q47 -20 59 -31q16 -12 49 -33q23 -14 58 -14q18 0 36 6 q8 2 31 20q12 10 27 31l24 37l84 -59q-20 -39 -49 -78q-18 -25 -55 -51q-31 -20 -66 -31q-36 -10 -71 -10z" />
<glyph horiz-adv-x="905" d="M385 1700q0 68 24.5 104.5t90.5 36.5q43 0 63.5 -20.5t20.5 -63.5q0 -68 -29 -102q-27 -33 -88 -33q-41 0 -64 18q-18 17 -18 60zM807 1700q0 68 24.5 104.5t90.5 36.5q41 0 61.5 -20.5t20.5 -63.5q0 -68 -29 -102q-27 -33 -86 -33q-41 0 -64 18q-18 17 -18 60z" />
</font>
</defs>
</svg>
