<?xml version="1.0" standalone="no"?>
<!DOCTYPE svg PUBLIC "-//W3C//DTD SVG 1.1//EN" "http://www.w3.org/Graphics/SVG/1.1/DTD/svg11.dtd" >
<svg xmlns="http://www.w3.org/2000/svg">
<metadata>
This is a custom SVG webfont generated by Font Squirrel.
Copyright   :  2000 Daniel Midgley fontormaccom
</metadata>
<defs>
<font id="webfont9AEEkhwU" horiz-adv-x="1478" >
<font-face units-per-em="2048" ascent="1638" descent="-410" />
<missing-glyph horiz-adv-x="552" />
<glyph unicode=" "  horiz-adv-x="552" />
<glyph unicode="&#x09;" horiz-adv-x="552" />
<glyph unicode="&#xa0;" horiz-adv-x="552" />
<glyph unicode="!" horiz-adv-x="622" d="M43 113q0 68 59 123q61 55 134 55q59 0 100 -37q39 -37 39 -92q0 -68 -60 -121q-59 -57 -135 -57q-58 0 -98 36q-39 38 -39 93zM137 365l62 438l110 629l258 20l-114 -649l-91 -418z" />
<glyph unicode="&#x22;" horiz-adv-x="665" d="M59 1380v4q0 68 50 105q45 35 106 35t94 -33q23 -23 23 -51q0 -20 -8 -39q0 -2 -6.5 -16.5t-12.5 -24.5l-121 -232l-121 2zM367 1380v4q0 68 49 105q45 35 106.5 35t93.5 -33q23 -23 23 -51q0 -20 -8 -39q-4 -14 -19 -41l-120 -232l-121 2z" />
<glyph unicode="#" horiz-adv-x="1251" d="M94 268l37 211h172l33 191h-172l37 211h172l47 264l229 20l-51 -284h162l51 284l221 -20l-47 -264h172l-37 -211h-172l-33 -191h172l-36 -211h-172l-45 -252l-230 -20l49 272h-161l-50 -272l-221 20l45 252h-172zM528 479h162l33 191h-162z" />
<glyph unicode="$" horiz-adv-x="1054" d="M10 131l131 178q25 -14 74 -35q92 -37 154 -38l39 213q-133 6 -205 73q-74 68 -74 166q0 115 96 217q104 111 289 152l21 119h223l-19 -119q160 -27 226 -99l-123 -174q-31 16 -142 52l-30 -177q268 -23 268 -227q0 -47 -14 -96q-61 -212 -363 -289l-12 -78h-227l10 54 q-88 2 -193 38q-96 33 -129 70zM371 727q0 -49 75 -61l25 157q-86 -39 -96 -67q-4 -25 -4 -29zM604 287l62 41q33 23 34 39q2 6 2 14q0 55 -69 68z" />
<glyph unicode="%" horiz-adv-x="1519" d="M139 821q0 61 31 117q100 186 315 186q117 0 195 -71q63 -63 63 -154q0 -18 -2 -31q-12 -117 -116 -202q-102 -86 -230 -91h-4q-106 0 -178 72q-74 74 -74 174zM166 96l999 1028l172 -102l-1028 -1061zM360 838q0 -72 64 -72h4q39 4 66 35q29 33 28 69q0 35 -20 56 q-22 18 -49 18h-4q-41 -4 -64 -35q-25 -30 -25 -71zM786 236q0 61 29 122q104 203 318 203q123 0 194 -78q61 -68 62 -161q0 -23 -3 -33q-16 -123 -116 -211q-102 -92 -232 -94h-4q-109 0 -176 73q-72 79 -72 179zM1006 256q0 -80 61 -80h4q43 4 70 41q27 41 26 82 q0 82 -63 82h-6q-43 -4 -66 -41q-26 -43 -26 -84z" />
<glyph unicode="&#x26;" horiz-adv-x="1503" d="M35 348q0 18 4 60q20 115 131 219q59 53 219 151q-111 147 -110 269q0 35 12 69q57 143 174 223q106 72 225 72q137 0 225 -86q82 -80 82 -205q0 -25 -2 -39q-8 -131 -243 -307l200 -248l224 185l147 -160l-240 -189l236 -245l-215 -174l-205 250q-231 -199 -448 -199 h-21q-180 10 -287 110q-108 103 -108 244zM295 401q0 -82 47 -135q47 -55 147 -59h5q98 0 258 153l-209 261q-246 -127 -248 -207v-13zM512 1061q0 -51 88 -127q157 80 160 135v16q0 43 -27 76q-31 37 -78 37h-4q-47 -2 -94 -43q-45 -39 -45 -94z" />
<glyph unicode="'" horiz-adv-x="356" d="M59 1380v4q0 68 50 105q45 35 106 35t94 -33q23 -23 23 -51q0 -20 -8 -39q0 -2 -6.5 -16.5t-12.5 -24.5l-121 -232l-121 2z" />
<glyph unicode="(" horiz-adv-x="743" d="M55 182q0 147 33 318q55 322 186 553q133 238 398 489l215 -98q-252 -240 -375 -451q-119 -205 -168 -493q-29 -162 -29 -283q0 -319 226 -649l-238 -111q-248 365 -248 725z" />
<glyph unicode=")" horiz-adv-x="743" d="M-127 -432q252 246 365 446q114 206 165 486q27 147 27 276q0 322 -237 668l245 98q250 -367 250 -729q0 -131 -29 -313q-55 -315 -184 -549q-131 -231 -399 -494z" />
<glyph unicode="*" horiz-adv-x="876" d="M76 1165l170 74l-146 74l140 176l131 -90l16 141h217l-33 -139l158 88l74 -176l-164 -74l139 -74l-137 -174l-127 88l-18 -153h-217l34 153l-161 -90z" />
<glyph unicode="+" horiz-adv-x="1024" d="M131 332l35 196h235l35 189h252l-33 -189h238l-35 -196l-237 2l-31 -191h-256l33 189h-236z" />
<glyph unicode="," horiz-adv-x="520" d="M49 -227l121 336q49 137 168 137q57 0 94 -39q27 -29 27 -76q0 -16 -2 -27q-10 -45 -70 -110l-237 -262z" />
<glyph unicode="-" horiz-adv-x="833" d="M129 424l39 225h537l-39 -225h-537z" />
<glyph unicode="." horiz-adv-x="499" d="M84 117q0 68 59 131q63 59 133 59q59 0 101 -37q39 -39 39 -96q0 -72 -62 -131q-63 -59 -133 -59q-61 0 -98 39q-39 37 -39 94z" />
<glyph unicode="/" horiz-adv-x="1017" d="M-154 -242l1108 1786l220 -86l-1113 -1794z" />
<glyph unicode="0" horiz-adv-x="1431" d="M78 475q0 43 10 98q43 246 256 418q213 170 475 170q233 0 385 -139q150 -137 150 -350q0 -55 -8 -99q-47 -248 -259 -415q-211 -172 -475 -172q-231 0 -382.5 139t-151.5 350zM336 512q0 -129 88 -215q88 -88 227 -88q170 0 310 133q135 133 135 293q0 129 -88 217 q-90 86 -228 86q-170 0 -307 -133q-137 -131 -137 -293z" />
<glyph unicode="1" horiz-adv-x="700" d="M162 997l272 150h221l-202 -1147h-254l155 881l-118 -70z" />
<glyph unicode="2" horiz-adv-x="1140" d="M25 0l32 190l365 252q205 143 287 228q76 78 77 151v4q0 66 -55 109q-49 37 -108 37q-14 0 -23 -2q-160 -18 -338 -95l-47 203q238 96 426 97q207 0 301 -72q84 -68 94 -219v-21q0 -304 -559 -651h469l-37 -211h-884z" />
<glyph unicode="3" horiz-adv-x="1099" d="M41 82l109 209q175 -104 301 -105q20 0 30 2q170 18 205 134q6 22 6 43q0 53 -39 90t-108 37h-297l37 213q96 -4 215 -5q57 0 65 2q88 18 125 48q49 37 49 114v13q-4 90 -137 90q-96 0 -332 -90l-45 202q289 94 426 95q147 0 242 -80q96 -80 96 -213q0 -174 -131 -279 q80 -65 80 -190q0 -46 -12 -99q-35 -139 -164 -229q-120 -83 -277 -98q-12 -2 -39 -2q-153 0 -405 98z" />
<glyph unicode="4" horiz-adv-x="1107" d="M-6 272l33 187l745 688h232l-117 -664h160l-37 -211h-160l-49 -272l-254 2l49 270h-602zM334 483h299l57 326z" />
<glyph unicode="5" horiz-adv-x="1116" d="M45 90l109 203q193 -106 305 -107q16 0 24 2q106 12 170 74t64 135q0 94 -107 146q-4 2 -20 2q-74 0 -299 -49l-127 112l143 539h692l-14 -211h-491l-58 -209q109 18 182 18q37 0 54 -2q152 -18 225 -112q63 -82 64 -199q0 -25 -3 -39q-16 -158 -157 -270 q-123 -102 -307 -139q-27 -6 -64 -7q-162 0 -385 113z" />
<glyph unicode="6" horiz-adv-x="1144" d="M37 346q0 35 10 80q72 270 326 504q156 143 260 217q145 104 342 186l106 -176q-377 -168 -565 -352q34 6 92 6q182 0 301 -102q109 -92 109 -240q0 -18 -2 -31q-14 -182 -182 -315q-172 -135 -371 -137h-12q-164 0 -287 104q-127 109 -127 256zM281 383q0 -72 53 -125 q59 -59 151 -59h13q127 6 198 82q72 68 72 159q0 71 -49 117q-53 49 -154 53h-8q-95 0 -178 -55q-86 -59 -96 -143q-2 -11 -2 -29z" />
<glyph unicode="7" horiz-adv-x="1046" d="M-12 -74q297 510 743 1010h-538l57 211h805l-13 -184q-186 -186 -444 -525q-262 -344 -418 -604z" />
<glyph unicode="8" horiz-adv-x="1107" d="M37 268q0 27 6 58q39 195 227 290q-96 72 -96 195q0 12 4 45q18 147 178 240q137 78 295 78h8q147 -4 242 -66q111 -72 111 -195q0 -186 -170 -297q139 -78 139 -237q0 -16 -4 -57q-27 -156 -191 -254q-147 -86 -319 -88h-8q-162 0 -285 69q-137 80 -137 219zM272 303 q0 -68 60 -100q53 -35 137 -35q100 0 186 55q84 53 84 131q0 63 -57 107q-59 41 -145 41q-100 0 -181 -60q-80 -57 -84 -135v-4zM412 844q0 -45 39 -78q37 -31 112 -35h8q84 0 146 49q57 45 57 103q0 106 -158 106h-4q-94 -4 -145 -45q-55 -43 -55 -100z" />
<glyph unicode="9" horiz-adv-x="1144" d="M72 16q373 147 557 338q-41 -8 -94 -8q-186 0 -299 100q-111 98 -111 244q0 20 2 31q16 184 186 319q162 129 367 136h12q164 0 287 -105q127 -109 127 -258q0 -35 -10 -80q-76 -281 -330 -516q-156 -143 -256 -209q-147 -100 -330 -170zM358 717q0 -68 54 -113 q59 -53 163 -57h9q102 0 190 57q92 63 100 144q2 10 3 28q0 78 -58 129q-63 57 -164 58h-12q-111 -6 -188 -68q-82 -63 -95 -152q-2 -10 -2 -26z" />
<glyph unicode=":" horiz-adv-x="458" d="M39 100q0 61 53 115q51 51 117 51q53 0 86 -33q35 -31 35 -83q0 -61 -54 -113q-53 -53 -118 -53q-53 0 -84 34q-35 35 -35 82zM131 612q0 63 51 114.5t117 51.5q53 0 86 -33q35 -31 35 -83q0 -59 -53 -113q-57 -53 -119 -53q-49 0 -84 34q-33 33 -33 82z" />
<glyph unicode=";" horiz-adv-x="520" d="M2 -227l121 336q49 137 168 137q57 0 94 -39q27 -29 27 -76q0 -16 -2 -27q-10 -47 -72 -110l-238 -262zM215 612q0 61 53 115q51 51 117 51q53 0 86 -33q33 -31 33 -83q0 -61 -51 -113q-57 -53 -119 -53q-49 0 -84 34.5t-35 81.5z" />
<glyph unicode="&#x3c;" horiz-adv-x="1048" d="M135 426l29 168l713 283l55 -175l-488 -194l420 -205l-119 -172z" />
<glyph unicode="=" horiz-adv-x="956" d="M109 166l32 186h662l-33 -186h-661zM156 436l32 185h662l-33 -185h-661z" />
<glyph unicode="&#x3e;" horiz-adv-x="1048" d="M117 305l487 195l-420 205l117 174l612 -297l-28 -168l-713 -283z" />
<glyph unicode="?" horiz-adv-x="1075" d="M186 113q0 70 60 123q57 55 131 55q61 0 100 -37t39 -90q0 -68 -59 -123q-59 -57 -133 -57q-61 0 -99 36q-39 38 -39 93zM195 1331q297 133 452 133q20 0 31 -2q158 -14 266 -98q115 -90 115 -223q0 -18 -4 -51q-34 -197 -264 -351l-123 -75q-92 -63 -103 -91 q-12 -29 -30 -102l-15 -78l-258 -28l19 110q25 152 147 262q8 10 221 156q121 84 146 176q4 20 4 31q0 55 -49 96q-49 40 -123 49q-12 2 -35 2q-150 0 -367 -123z" />
<glyph unicode="@" horiz-adv-x="1331" d="M80 440q0 80 29 166q68 193 266 312q178 104 397 114h47q168 0 285 -53q168 -78 170 -242v-12q0 -194 -191 -350q-127 -106 -327 -107q-49 0 -111 6q-47 -10 -74 -10q-18 0 -26 2q-70 8 -125 70q-55 57 -55 131t73 162q78 84 152 116q53 25 168 25q129 0 229 -20 q-41 -152 -90 -306q84 6 152 86q61 77 61 154q0 86 -100 147q-100 59 -234 60q-164 0 -311 -92q-164 -104 -215 -279q-10 -37 -10 -67q0 -182 227 -279q45 -18 115 -18q170 0 460 112l-71 -155q-258 -98 -461 -99q-82 0 -139 23q-137 51 -213 162q-78 108 -78 241zM575 475 q0 -47 78 -47q25 0 39 2l56 184h-19q-98 0 -143 -100q-11 -19 -11 -39z" />
<glyph unicode="A" d="M-76 20l807 1414h270l310 -1414l-267 -38l-88 407h-548l-232 -407zM530 606h381l-104 488z" />
<glyph unicode="B" horiz-adv-x="1325" d="M23 2l251 1428q190 25 373 24q215 0 363 -51q223 -76 223 -246q0 -111 -72 -219q-63 -92 -174 -158q88 -49 148 -133q55 -86 55 -186q0 -252 -268 -381q-203 -100 -490 -100q-190 -1 -409 22zM311 203q89 -12 172 -13q172 0 293 56q162 70 162 223q0 184 -406 184 q-86 0 -143 -8zM428 868q47 -8 102 -8q127 0 267 58q178 71 178 178q0 92 -162 125q-90 20 -207 20h-20l-92 -2z" />
<glyph unicode="C" horiz-adv-x="1368" d="M76 590q0 66 12 137q59 307 285 508q240 215 573 215q168 0 416 -86l-82 -229q-201 102 -350 102q-37 0 -68 -6q-211 -47 -348 -182q-138 -138 -172 -332q-8 -43 -8 -96q0 -160 96 -269q94 -106 275 -141q33 -4 55 -4q162 0 420 115l-6 -222q-313 -117 -486 -116 q-27 0 -39 2q-260 25 -416 192q-157 170 -157 412z" />
<glyph unicode="D" horiz-adv-x="1456" d="M23 2l251 1428q209 25 379 24q352 0 547 -156q190 -151 191 -411q0 -74 -15 -137q-66 -317 -280 -525q-240 -230 -578 -239h-57q-137 0 -438 16zM311 205q82 -10 146 -10q207 0 377 92q229 123 286 463q8 41 8 88q0 217 -204 325q-156 82 -367 82q-43 0 -61 -2z" />
<glyph unicode="E" horiz-adv-x="1224" d="M23 0l251 1434h926l-14 -213h-694l-66 -371h616l-36 -213h-617l-76 -424h736l-60 -213h-966z" />
<glyph unicode="F" horiz-adv-x="1183" d="M23 0l251 1434h926l-14 -213h-694l-66 -371h616l-36 -213h-617l-113 -637h-253z" />
<glyph unicode="G" d="M76 586q0 96 28 205q76 272 295 456q229 193 508 201h23q158 0 432 -78l-80 -227q-219 94 -377 94q-25 0 -37 -2q-219 -16 -379 -205q-160 -190 -159 -414q0 -178 98 -297q96 -121 252 -120q145 0 270 100q127 98 160 229h-369l39 213h613q-35 -338 -244 -544 q-211 -211 -512 -211q-256 0 -412 180q-149 168 -149 420z" />
<glyph unicode="H" horiz-adv-x="1452" d="M23 0l251 1432l258 20l-106 -602h649l103 584h254l-252 -1432l-258 -20l116 655h-649l-113 -637h-253z" />
<glyph unicode="I" horiz-adv-x="550" d="M20 0l252 1432l258 20l-256 -1452h-254z" />
<glyph unicode="J" horiz-adv-x="1243" d="M-33 221l166 170q184 -186 318 -186h20q114 9 172 43q47 25 105 102q35 53 55 144l168 958l252 -20l-166 -934q-16 -70 -19 -76q-20 -76 -55 -135q-169 -276 -541 -295h-24q-246 0 -451 229z" />
<glyph unicode="K" horiz-adv-x="1331" d="M23 0l251 1432l258 20l-96 -547l666 545l295 -41l-822 -668l611 -716l-309 -41l-500 589l-101 -573h-253z" />
<glyph unicode="L" horiz-adv-x="1224" d="M20 0l252 1432l258 20l-219 -1239h736l-60 -213h-967z" />
<glyph unicode="M" horiz-adv-x="1765" d="M-35 18l381 1414l264 18l209 -1098l582 1098l258 -18l-100 -1414l-271 -38l86 948l-481 -928h-268l-168 928l-238 -948z" />
<glyph unicode="N" horiz-adv-x="1490" d="M23 2l251 1430l304 18l456 -1036l180 1020h254l-251 -1432l-281 -18l-477 1056l-187 -1058z" />
<glyph unicode="O" horiz-adv-x="1576" d="M76 590q0 96 28 201q78 279 304 464q231 193 516 193h4q261 -3 424 -178q152 -170 151 -420q0 -319 -250 -588q-261 -276 -596 -276q-264 0 -426 180q-155 174 -155 424zM330 623q0 -178 106 -299q104 -125 264 -125q212 3 381 202q164 195 164 420q0 178 -94 291 q-102 121 -268 123h-4q-218 0 -381 -191q-168 -192 -168 -421z" />
<glyph unicode="P" horiz-adv-x="1280" d="M20 0l252 1432q211 20 387 20q596 0 596 -342q0 -49 -8 -92q-41 -199 -209 -311q-162 -111 -389 -115q-23 0 -72 -2l-100 -4t-100 -2l-103 -584h-254zM416 801q170 -6 176 -6q338 0 403 227q6 25 6 47q0 108 -165 148q-96 23 -224 22q-35 0 -120 -4z" />
<glyph unicode="Q" horiz-adv-x="1619" d="M82 598q0 98 27 193q80 281 317 471q231 186 518 186h8q268 -4 432 -170q166 -168 166 -420q0 -63 -8 -115q-57 -358 -319 -512l135 -161l-228 -136l-110 138q-145 -88 -338 -88q-258 0 -434 182q-166 178 -166 432zM334 627q0 -176 115 -303q111 -127 276 -127 q84 4 162 39l-221 278l233 123l188 -236q156 104 195 322q10 57 10 100q0 172 -104 293q-106 117 -281 119q-223 0 -397 -191q-176 -192 -176 -417z" />
<glyph unicode="R" horiz-adv-x="1372" d="M23 0l251 1432q197 20 388 20q596 0 595 -342q0 -164 -100 -291q-96 -121 -250 -178l258 -618l-284 -41l-240 610l-262 -8l-103 -584h-253zM418 801q164 -6 176 -6q163 0 270 55q139 70 140 219q0 170 -386 170q-35 0 -124 -4z" />
<glyph unicode="S" horiz-adv-x="1267" d="M-16 131l161 201q29 -31 148 -78q129 -51 213 -53h29q145 0 247 80q100 80 101 186q0 80 -70 129q-72 47 -188 47q-25 0 -37 -2h-35q-162 0 -266 86q-115 96 -115 250q0 47 8 86q41 176 244 285q169 95 344 98h25q113 0 237 -31q135 -33 174 -78l-135 -190 q-201 86 -321 86h-17q-125 -6 -215 -82q-94 -76 -94 -158q0 -141 262 -141h29h20q188 0 295 -100q106 -98 107 -256q0 -72 -21 -140q-98 -324 -649 -370q-14 -2 -41 -2q-117 0 -256 49q-141 52 -184 98z" />
<glyph unicode="T" horiz-adv-x="1323" d="M176 1221l60 213h1105l-14 -213h-448l-215 -1221h-254l215 1221h-449z" />
<glyph unicode="U" horiz-adv-x="1497" d="M111 424q0 74 16 168l147 840l258 20l-151 -854q0 -27 -6 -82t-6 -84q0 -45 8 -76q23 -78 92 -116q72 -43 170 -43q156 0 281 96q141 108 153 289l150 852h254l-150 -852q-49 -280 -246 -443q-188 -154 -438 -153h-33q-499 22 -499 438z" />
<glyph unicode="V" d="M168 1413l264 39l240 -1112l628 1112l252 -39l-807 -1413h-270z" />
<glyph unicode="W" horiz-adv-x="2002" d="M150 1413l268 39l108 -1067l471 1030h252l107 -1030l485 1067l256 -39l-686 -1413h-248l-108 1032l-471 -1032h-246z" />
<glyph unicode="X" horiz-adv-x="1329" d="M-76 23l604 720l-323 668l291 41l213 -496l389 496l274 -41l-559 -668l350 -720l-293 -41l-235 550l-434 -550z" />
<glyph unicode="Y" horiz-adv-x="1271" d="M127 1413l293 39l237 -612l453 612l276 -41l-645 -807l-106 -604h-254l106 604z" />
<glyph unicode="Z" horiz-adv-x="1351" d="M-18 0l12 186l991 1035h-782l53 213h1081l-6 -177l-1001 -1044h846l-60 -213h-1134z" />
<glyph unicode="[" horiz-adv-x="612" d="M-33 -530l363 2064h440l-37 -217h-186l-289 -1634h186l-36 -213h-441z" />
<glyph unicode="\" horiz-adv-x="1017" d="M145 1458l248 86l481 -1786l-247 -94z" />
<glyph unicode="]" horiz-adv-x="612" d="M-156 -530l37 213h187l288 1634h-186l37 217h440l-362 -2064h-441z" />
<glyph unicode="^" horiz-adv-x="929" d="M78 1274l332 209h172l252 -209l-148 -107l-221 158l-277 -158z" />
<glyph unicode="_" horiz-adv-x="1665" d="M74 -143l26 143h1493l-26 -143h-1493z" />
<glyph unicode="`" horiz-adv-x="673" d="M74 1335l225 131l295 -266l-182 -88z" />
<glyph unicode="a" horiz-adv-x="1124" d="M57 375q0 256 160 446q172 207 440 211h7q190 0 432 -125l-133 -684q0 -43 63 -45h135l-155 -192h-9q-166 0 -235 69q-186 -70 -297 -69q-190 0 -299 104.5t-109 284.5zM303 389q0 -195 180 -194q96 0 226 41l108 550q-96 31 -217 31q-117 0 -209 -145q-88 -138 -88 -283 z" />
<glyph unicode="b" horiz-adv-x="1208" d="M74 119l250 1351l258 21l-95 -510q135 51 234 51q197 0 307.5 -110.5t110.5 -296.5q0 -272 -146 -445q-164 -195 -448 -194q-217 0 -471 133zM350 248q137 -49 242 -49q143 0 227 127q72 113 72 274q0 205 -184 205q-113 0 -263 -53z" />
<glyph unicode="c" horiz-adv-x="1079" d="M74 426q0 240 194 424q195 182 453 182q119 0 379 -98l-144 -197q-129 86 -290 86q-133 0 -240 -125q-109 -127 -109 -260q0 -102 64 -172q61 -72 162 -71q127 0 323 75l66 -190q-264 -96 -410 -96q-193 0 -319 133q-129 133 -129 309z" />
<glyph unicode="d" horiz-adv-x="1193" d="M55 373q0 270 150 452q166 207 452 207q102 0 230 -57l94 514l254 -19l-254 -1357q-293 -129 -506 -129q-193 0 -305 104q-115 105 -115 285zM299 383q0 -84 49 -133q45 -51 131 -51q117 0 271 45l96 512q-123 49 -230 49q-151 0 -239 -135q-78 -121 -78 -287z" />
<glyph unicode="e" horiz-adv-x="1136" d="M96 416q0 227 170 415q182 201 426 201q186 0 297 -133q100 -119 101 -283v-8q0 -92 -136 -149q-111 -49 -256 -56l-344 -14q6 -86 54 -139q49 -61 127 -62q203 0 315 88l70 -188q-68 -51 -207 -80q-113 -23 -199 -22q-195 0 -311 131q-107 119 -107 299zM385 588 q332 4 430 33q10 4 12 14q-2 80 -43 139q-39 55 -122 55q-86 0 -168 -75q-68 -64 -109 -166z" />
<glyph unicode="f" horiz-adv-x="868" d="M-164 -252q78 -6 107 -6q78 0 112 35q31 31 54 139l20 111l141 780h-182l39 203h178q25 195 141 311q127 127 334 127q127 0 330 -84l-168 -184q-123 53 -209 53q-78 0 -129 -70q-45 -57 -57 -153h375l-37 -203h-371l-145 -795q-47 -258 -105 -331q-82 -113 -342 -154z " />
<glyph unicode="g" horiz-adv-x="1177" d="M37 -371l135 189q160 -74 274 -74q131 0 199 82q53 63 84 199q-123 -39 -223 -39q-203 0 -311 94q-121 102 -121 280q0 264 151 457q169 215 449 215q178 0 471 -153l-162 -871q-40 -212 -160 -338q-137 -143 -358 -143q-186 0 -428 102zM319 375q0 -176 205 -176 q115 0 248 45l94 512q-137 49 -248 49q-139 0 -223 -146q-76 -124 -76 -284z" />
<glyph unicode="h" horiz-adv-x="1204" d="M39 0l272 1470l260 21l-96 -524q166 66 268 65q121 0 236 -74q127 -80 127 -206q0 -164 -80 -527q-2 -2 -2 -8q0 -31 49 -37h-2q0 2 158 2l-156 -196q-123 0 -203 39q-102 49 -102 147q0 16 4 45q6 27 17.5 74l20.5 86l17 74q31 131 31 237q0 129 -168 129 q-98 0 -258 -76l-139 -741h-254z" />
<glyph unicode="i" horiz-adv-x="612" d="M111 213l147 799l260 20l-149 -803q0 -45 63 -47h135l-155 -196h-4q-297 0 -297 227zM311 1382q0 59 51 109q51 47 113 47h4q63 -2 101 -43q29 -35 28 -76q0 -16 -2 -24q-8 -53 -57 -92q-43 -37 -107 -41h-4q-55 0 -90 34q-37 34 -37 86z" />
<glyph unicode="j" horiz-adv-x="616" d="M-451 -406l101 187q46 -18 160 -49q41 -4 57 -4q90 0 143 59q29 35 76 147q20 49 39 152l166 926l260 20l-174 -958q-6 -41 -45 -162q-70 -190 -182 -285q-126 -98 -320 -98h-16q-87 4 -265 65zM344 1378q0 61 51 113q51 47 113 47h4q63 -2 100 -43q29 -35 29 -78 q0 -16 -2 -24q-8 -51 -57 -95q-51 -39 -107 -41h-4q-55 0 -90 35q-37 34 -37 86z" />
<glyph unicode="k" horiz-adv-x="1040" d="M31 -2l272 1472l260 21l-139 -746l428 310l256 -70l-598 -424l481 -534l-260 -62l-373 432l-73 -399h-254z" />
<glyph unicode="l" horiz-adv-x="563" d="M92 213l215 1257l260 21l-217 -1262q0 -45 64 -47h135l-156 -196h-4q-297 0 -297 227z" />
<glyph unicode="m" horiz-adv-x="1863" d="M45 -2l191 1006l258 18l-11 -61q154 72 240 71q174 0 287 -123q211 123 383 123q123 0 237 -69q127 -84 127 -205q0 -111 -31 -271l-53 -266v-4q0 -35 66 -39h139l-156 -192q-133 0 -217 47q-88 49 -88 145q0 20 2 31q14 90 56 252q37 154 36 252q0 113 -155 112 q-92 0 -262 -100q-6 -152 -50 -365l-77 -362h-250l80 354q49 217 49 353q0 121 -162 120q-94 0 -244 -82l-141 -745h-254z" />
<glyph unicode="n" horiz-adv-x="1181" d="M43 -2l193 1006l258 18l-11 -53q158 63 269 63q121 0 235 -71q127 -84 127 -203q0 -162 -84 -539q-2 -2 -2 -8q0 -31 49 -35h-4q0 2 160 2l-156 -192q-120 0 -203 37q-102 49 -102 145q0 14 4 43l58 242q33 154 32 245q0 125 -168 125q-88 0 -258 -75l-143 -750h-254z " />
<glyph unicode="o" horiz-adv-x="1193" d="M74 422q0 236 186 422q188 188 438 188q193 0 312 -131q111 -119 110 -299q0 -229 -178 -420q-188 -197 -438 -196q-193 0 -316 133q-114 127 -114 303zM319 442q0 -100 60 -172q58 -74 153 -73q129 0 240 129q104 125 105 254q0 98 -60 170q-59 74 -151 73 q-131 0 -238 -125q-109 -127 -109 -256z" />
<glyph unicode="p" horiz-adv-x="1236" d="M31 -473l207 1112l-119 -82l-31 162q92 76 188 129l43 242l261 18l-25 -127q141 55 242 55q184 0 299 -90q123 -98 123 -276q0 -266 -158 -465q-176 -219 -461 -219q-104 0 -221 45l-88 -484zM418 240q109 -39 217 -39q156 0 250 141q86 125 86 297q0 72 -49.5 121 t-124.5 49q-123 0 -283 -51z" />
<glyph unicode="q" horiz-adv-x="1179" d="M115 389q0 268 143 445q164 201 442 200q178 0 478 -155l-121 -656l-80 -446v-4q0 -43 63 -45h138l-160 -197h-4q-295 0 -295 223q0 82 43 273q-135 -41 -221 -41q-203 0 -314 110q-112 113 -112 293zM360 399q0 -197 199 -196q111 0 246 45l96 508q-138 49 -252 49 q-145 0 -221 -131q-68 -111 -68 -275z" />
<glyph unicode="r" horiz-adv-x="851" d="M45 0l191 1004l258 18l-7 -31q100 41 181 41q106 0 290 -88l-129 -182q-135 63 -215 63q-76 0 -168 -49l-147 -776h-254z" />
<glyph unicode="s" horiz-adv-x="1013" d="M-14 88l137 180q127 -72 235 -71q305 0 306 182q0 43 -113 43q-43 0 -74 -2q-12 0 -24.5 -1t-18.5 -2t-8 -1q-131 0 -209 57q-90 66 -90 189q0 162 166 272q150 98 321 98q68 0 168 -22q127 -35 179 -88l-121 -168q-168 70 -256 69q-76 0 -146 -47q-68 -47 -67 -106 q0 -39 100 -45h-6q0 2 139 2q303 0 303 -221q0 -206 -178 -320q-152 -100 -371 -100q-177 0 -372 102z" />
<glyph unicode="t" horiz-adv-x="800" d="M104 811l35 199h193l41 239l231 43l-49 -282h268l-32 -199h-269l-61 -289q-31 -160 -31 -276v-17q0 -18 4 -22t25 -4q61 0 159 61l74 -198q-154 -80 -227 -80q-92 0 -168 39q-95 52 -98 147v16q0 119 32 306l66 317h-193z" />
<glyph unicode="u" horiz-adv-x="1165" d="M98 256q0 152 47 375l84 370l254 21l-82 -350q-49 -217 -49 -353q0 -141 160 -141q89 0 240 68l145 764h256l-149 -787q0 -43 61 -45h135l-156 -192h-8q-168 0 -239 75q-233 -76 -322 -75q-129 0 -244 65q-133 78 -133 205z" />
<glyph unicode="v" horiz-adv-x="1138" d="M123 985l266 39l141 -702l410 700l260 -39l-588 -983h-276z" />
<glyph unicode="w" horiz-adv-x="1531" d="M121 985l266 39l47 -682l305 668h242l49 -668l309 680l254 -39l-508 -983h-239l-58 618l-294 -618h-238z" />
<glyph unicode="x" horiz-adv-x="1034" d="M-82 25l455 493l-250 465l266 39l162 -324l283 324l266 -43l-432 -471l262 -488l-268 -38l-173 344l-303 -344z" />
<glyph unicode="y" horiz-adv-x="1159" d="M20 -371l138 189q160 -74 274 -74q127 0 199 84q55 63 86 205q-154 -47 -238 -47q-138 0 -246 55q-135 70 -135 199q0 154 47 383l84 378l256 21l-82 -358q-49 -225 -49 -361q0 -119 162 -119q92 0 240 70l141 756h256l-184 -1004q-39 -209 -160 -336 q-137 -143 -360 -143q-183 0 -429 102z" />
<glyph unicode="z" horiz-adv-x="1048" d="M18 186l650 615h-502l41 209h790l7 -179l-650 -622h561l-61 -209h-831z" />
<glyph unicode="{" horiz-adv-x="907" d="M127 385l41 229q182 61 213 138q29 70 51.5 258t56.5 270q61 139 201 203q111 51 375 51l-96 -231q-61 12 -103 12q-51 0 -71 -19q-78 -72 -107 -209l-39 -251q-34 -151 -129 -252q-29 -31 -94 -88q113 -131 113 -263q0 -74 -31 -204q-33 -131 -33 -193q0 -78 39 -129 q14 -18 66 -18q41 0 108 12l14 -231q-264 0 -358 51q-129 70 -129 231q0 74 41 254q37 154 37 230v14q-3 74 -166 135z" />
<glyph unicode="|" horiz-adv-x="520" d="M12 0l273 1534h225l-272 -1534h-226z" />
<glyph unicode="}" horiz-adv-x="907" d="M-156 -530l99 231q57 -12 100 -12q51 0 72 18q82 76 106 211q18 125 39 248q35 154 131 250q41 41 90 80q-106 133 -106 264q0 70 35 221q27 129 26 180q0 78 -41 135q-14 18 -65 19q-39 0 -107 -12l-16 231q268 0 358 -51q129 -71 129 -234q0 -74 -41 -256 q-37 -154 -37 -229v-14q6 -74 164 -136l-41 -229q-180 -61 -211 -135q-29 -74 -51 -258q-20 -182 -59 -268q-59 -139 -199 -203q-109 -51 -375 -51z" />
<glyph unicode="~" horiz-adv-x="872" d="M35 498l39 225q27 43 94 76q70 35 129 35q70 0 164 -66q90 -66 157 -66q72 0 228 132l-39 -213q-143 -123 -223 -123q-74 0 -164 65q-90 63 -160 64h-4q-55 0 -121 -37q-71 -41 -100 -92z" />
<glyph unicode="&#xa1;" horiz-adv-x="581" d="M35 -444l115 653l90 418l225 20l-62 -438l-110 -633zM229 850q0 68 59.5 123t133.5 55q58 0 98 -37q39 -37 39 -90q0 -68 -59 -123q-61 -57 -133 -57q-59 0 -98.5 37t-39.5 92z" />
<glyph unicode="&#xa2;" horiz-adv-x="1091" d="M78 481q0 172 127 322q137 158 366 211l25 133h225l-22 -127q106 -18 237 -80l-71 -192q-49 29 -199 81l-96 -536q115 23 272 115l-2 -195q-33 -18 -98 -47q-111 -49 -205 -66l-19 -100h-225l19 106q-164 37 -252 144q-82 96 -82 231zM303 524q0 -135 148 -205l86 490 q-109 -45 -172 -125q-62 -77 -62 -160z" />
<glyph unicode="&#xa3;" horiz-adv-x="1058" d="M-14 0l39 213q25 -2 61 -2q29 0 39 2q55 8 84 57l29 172h-175l37 209h174l23 119q25 141 139 248q114 101 271 123q10 2 30 2q121 0 301 -103l-110 -188q-121 84 -189 84q-12 0 -18 -2q-147 -27 -172 -168l-21 -115h359l-37 -209h-358l-31 -176q-6 -27 -19 -55h465 l-37 -211h-884z" />
<glyph unicode="&#xa5;" horiz-adv-x="1263" d="M176 100l37 209h236l12 64h-236l37 209h201l-281 526l279 31l198 -398l345 398l268 -31l-465 -526h199l-37 -209h-234l-12 -64h233l-36 -209h-234l-18 -100h-275l19 100h-236z" />
<glyph unicode="&#xa7;" horiz-adv-x="903" d="M2 94l145 193q61 -53 86 -72q59 -41 101 -41h18q89 0 129 19q41 18 51 71q2 6 3 19q0 25 -17 30q-6 2 -41 2q-18 2 -80 -2h-32q-117 0 -177 52q-72 59 -71 161q0 28 6 62q16 76 90 137q-39 47 -39 127q0 31 6 68q23 109 158 186q121 70 240 72h8q98 0 288 -86l-122 -183 q-127 72 -201 72h-8q-53 -4 -90 -23q-43 -23 -45 -47q-4 -10 -5 -20q0 -45 125 -45h23h22q256 0 256 -180q0 -139 -84 -217q31 -37 31 -97q0 -45 -18 -112q-41 -143 -191 -213q-113 -57 -256 -58h-20q-103 2 -289 125zM344 557q0 -45 102 -45q33 0 52 2q84 6 92 82q2 6 2 18 q0 25 -17 31q-15 6 -61 6q-33 0 -53 -2q-46 -3 -80 -31q-37 -27 -37 -61z" />
<glyph unicode="&#xa8;" horiz-adv-x="835" d="M94 1219q0 57 49 106q45 49 109 49q53 0 86 -39q23 -29 22 -65q0 -16 -2 -27q-10 -57 -53 -92q-45 -39 -100 -39q-47 0 -78 31q-33 31 -33 76zM473 1219q0 59 49 108q47 47 107 47h4q53 -4 84 -39q23 -29 22 -65q0 -16 -2 -27q-10 -55 -51 -92q-45 -35 -100 -39h-4 q-49 0 -76 31q-33 31 -33 76z" />
<glyph unicode="&#xa9;" horiz-adv-x="1124" d="M80 623q0 47 8 82q35 197 199 337q160 139 362 140q174 0 287 -113q111 -115 111 -281q0 -41 -7 -83q-37 -197 -200 -336q-164 -141 -361 -142q-174 0 -286.5 113t-112.5 283zM217 653q0 -117 84 -204q83 -86 203 -87q143 0 276 127q129 125 129 267q0 121 -82 205 q-82 86 -202 86q-145 0 -276.5 -125.5t-131.5 -268.5zM311 659q0 111 82 201q83 89 197 105q6 2 18 2q63 0 158 -43l-39 -146q-80 49 -131 49q-55 0 -88 -45t-33 -104q0 -94 86 -94q53 0 162 65l-14 -145q-123 -57 -195 -58h-12q-84 8 -137 68q-54 55 -54 145z" />
<glyph unicode="&#xaa;" horiz-adv-x="663" d="M70 1040v13q2 135 159 200q55 25 119 25q29 0 64 -6q2 10 2 37q-8 20 -43 20q-43 0 -181 -53l-51 129q166 63 240 63h8q123 -6 172 -61q37 -39 37 -102q0 -27 -6 -66l-10 -57l-60 -303h-168l4 26l-7 -3q-7 -3 -21.5 -8t-28.5 -11q-33 -12 -51 -13h-4q-174 25 -174 170z M238 1069q0 -53 71 -53q33 0 66 8l14 96q-66 16 -86 17q-55 0 -63 -54q-2 -6 -2 -14z" />
<glyph unicode="&#xab;" horiz-adv-x="944" d="M76 434l26 154l420 311l13 -190l-267 -201l197 -211l-82 -191zM434 434l27 154l420 311l12 -190l-266 -201l196 -211l-82 -191z" />
<glyph unicode="&#xac;" horiz-adv-x="1196" d="M129 424l33 184h942l-68 -381h-254l35 197h-688z" />
<glyph unicode="&#xad;" horiz-adv-x="833" d="M129 424l39 225h537l-39 -225h-537z" />
<glyph unicode="&#xae;" horiz-adv-x="1124" d="M80 623q0 47 8 82q35 197 199 337q160 139 362 140q174 0 287 -113q111 -115 111 -281q0 -41 -7 -83q-37 -197 -200 -336q-164 -141 -361 -142q-174 0 -286.5 113t-112.5 283zM217 653q0 -117 84 -204q83 -86 203 -87q143 0 276 127q129 125 129 267q0 121 -82 205 q-82 86 -202 86q-145 0 -276.5 -125.5t-131.5 -268.5zM350 453l88 499q43 4 144 11q23 0 32 -2q164 -12 164 -132q0 -104 -94 -161l72 -197l-152 -29l-65 189h-21l-31 -178h-137zM541 762h18q70 0 78 39v4q0 12 -37 18q-33 4 -47 4z" />
<glyph unicode="&#xaf;" horiz-adv-x="729" d="M115 1124l26 144h475l-26 -144h-475z" />
<glyph unicode="&#xb0;" horiz-adv-x="737" d="M84 1155q0 106 100 195q101 86 228 86q109 0 176 -60q68 -58 67 -147q0 -109 -100 -191q-101 -86 -227 -86q-109 0 -174 60q-70 57 -70 143zM297 1180q0 -25 14 -39q18 -20 45 -21q72 4 84 72q2 6 2 16q0 22 -12 37q-18 23 -47 23q-31 0 -53 -21q-27 -20 -33 -55v-12z " />
<glyph unicode="&#xb1;" horiz-adv-x="980" d="M51 -14l35 202h727l-35 -202h-727zM135 463l35 203h236l34 194h254l-35 -194h238l-35 -205l-237 2l-35 -195h-254l35 195h-236z" />
<glyph unicode="&#xb2;" horiz-adv-x="1140" d="M25 0l32 190l365 252q205 143 287 228q76 78 77 151v4q0 66 -55 109q-49 37 -108 37q-14 0 -23 -2q-160 -18 -338 -95l-47 203q238 96 426 97q207 0 301 -72q84 -68 94 -219v-21q0 -304 -559 -651h469l-37 -211h-884z" />
<glyph unicode="&#xb3;" horiz-adv-x="1099" d="M41 82l109 209q175 -104 301 -105q20 0 30 2q170 18 205 134q6 22 6 43q0 53 -39 90t-108 37h-297l37 213q96 -4 215 -5q57 0 65 2q88 18 125 48q49 37 49 114v13q-4 90 -137 90q-96 0 -332 -90l-45 202q289 94 426 95q147 0 242 -80q96 -80 96 -213q0 -174 -131 -279 q80 -65 80 -190q0 -46 -12 -99q-35 -139 -164 -229q-120 -83 -277 -98q-12 -2 -39 -2q-153 0 -405 98z" />
<glyph unicode="&#xb4;" horiz-adv-x="694" d="M59 1221l392 266l178 -131l-420 -223z" />
<glyph unicode="&#xb5;" horiz-adv-x="1292" d="M12 -287l228 1288l258 21l-142 -803q131 -53 211 -53h13q94 2 157 63q61 61 76 150l109 625h256q-51 -256 -123 -693q-2 -10 -2 -26q0 -117 180 -119l-33 -193h-24q-188 0 -297 93q-147 -96 -320 -97h-12q-90 4 -225 51l-56 -307h-254z" />
<glyph unicode="&#xb6;" horiz-adv-x="1183" d="M123 764q0 18 4 59q33 186 184 277q151 86 443 86q172 0 383 -21l-203 -1142l-227 -21l174 995l-66 4l-176 -999l-223 21l80 448q-168 12 -269 84q-104 77 -104 209z" />
<glyph unicode="&#xb8;" horiz-adv-x="694" d="M121 -225q96 -16 151 -17q14 0 37 19q16 14 17 26v4q-2 10 -43 15l-86 4l79 217h195l-45 -123q143 -25 143 -90q0 -43 -67 -135q-76 -106 -271 -107q-57 0 -98 9z" />
<glyph unicode="&#xb9;" horiz-adv-x="700" d="M162 997l272 150h221l-202 -1147h-254l155 881l-118 -70z" />
<glyph unicode="&#xba;" horiz-adv-x="772" d="M84 1112q0 43 12 82q41 115 140 180q88 59 200 60q115 0 189 -68q66 -61 65 -160q0 -25 -2 -37q-12 -117 -113 -200q-108 -92 -239 -92q-113 0 -182 69q-70 68 -70 166zM287 1133q0 -35 18 -58q23 -29 60 -28q43 0 79 40q37 39 37 95q0 84 -75 88q-37 0 -72 -31 q-37 -33 -45 -84q-2 -8 -2 -22z" />
<glyph unicode="&#xbb;" horiz-adv-x="944" d="M53 301l266 199l-196 211l82 190l307 -328l-27 -153l-419 -311zM412 301l266 199l-197 211l82 190l307 -328l-26 -153l-420 -311z" />
<glyph unicode="&#xbc;" horiz-adv-x="2191" d="M1079 272l33 187l745 688h232l-117 -664h160l-37 -211h-160l-49 -272l-254 2l49 270h-602zM1419 483h299l57 326zM446 -336l-215 94l1108 1786l219 -86zM162 997l272 150h221l-202 -1147h-254l155 881l-118 -70z" />
<glyph unicode="&#xbd;" horiz-adv-x="2224" d="M1110 0l32 190l365 252q205 143 287 228q76 78 77 151v4q0 66 -55 109q-49 37 -108 37q-14 0 -23 -2q-160 -18 -338 -95l-47 203q238 96 426 97q207 0 301 -72q84 -68 94 -219v-21q0 -304 -559 -651h469l-37 -211h-884zM446 -336l-215 94l1108 1786l219 -86zM162 997 l272 150h221l-202 -1147h-254l155 881l-118 -70z" />
<glyph unicode="&#xbe;" horiz-adv-x="2590" d="M1477 272l33 187l745 688h232l-117 -664h160l-37 -211h-160l-49 -272l-254 2l49 270h-602zM1817 483h299l57 326zM844 -336l-215 94l1108 1786l219 -86zM41 82l109 209q175 -104 301 -105q20 0 30 2q170 18 205 134q6 22 6 43q0 53 -39 90t-108 37h-297l37 213 q96 -4 215 -5q57 0 65 2q88 18 125 48q49 37 49 114v13q-4 90 -137 90q-96 0 -332 -90l-45 202q289 94 426 95q147 0 242 -80q96 -80 96 -213q0 -174 -131 -279q80 -65 80 -190q0 -46 -12 -99q-35 -139 -164 -229q-120 -83 -277 -98q-12 -2 -39 -2q-153 0 -405 98z" />
<glyph unicode="&#xbf;" horiz-adv-x="1075" d="M20 -104q0 33 5 51q25 147 141 256q43 41 250 168q82 51 100 75q10 16 27 99l12 76l260 28l-20 -112q-28 -157 -148 -258q-12 -12 -217 -144q-121 -78 -145 -168q-4 -20 -4 -30q0 -55 49 -97q47 -41 121 -51q10 -2 34 -2q150 0 367 125l33 -209q-301 -133 -453 -133 q-20 0 -31 2q-158 14 -266 98q-115 93 -115 226zM559 852q0 68 62 123q59 55 131 55q58 0 98 -37q39 -37 39 -90q0 -68 -58 -123q-61 -57 -133 -57q-58 0 -98 37q-41 37 -41 92z" />
<glyph unicode="&#xc0;" d="M-76 20l807 1414h270l310 -1414l-267 -38l-88 407h-548l-232 -407zM530 606h381l-104 488zM617 1728l225 131l295 -266l-182 -88z" />
<glyph unicode="&#xc1;" d="M-76 20l807 1414h270l310 -1414l-267 -38l-88 407h-548l-232 -407zM530 606h381l-104 488zM571 1590l392 266l178 -131l-420 -223z" />
<glyph unicode="&#xc2;" d="M-76 20l807 1414h270l310 -1414l-267 -38l-88 407h-548l-232 -407zM530 606h381l-104 488zM565 1653l356 172l299 -172l-145 -127l-187 110l-223 -110z" />
<glyph unicode="&#xc3;" d="M-76 20l807 1414h270l310 -1414l-267 -38l-88 407h-548l-232 -407zM530 606h381l-104 488zM473 1513l39 225q27 43 94 76q70 35 129 35q70 0 164 -66q90 -66 157 -65q72 0 228 131l-39 -213q-143 -123 -223 -123q-74 0 -164 66q-90 63 -160 63h-4q-55 0 -121 -37 q-71 -41 -100 -92z" />
<glyph unicode="&#xc4;" d="M-76 20l807 1414h270l310 -1414l-267 -38l-88 407h-548l-232 -407zM530 606h381l-104 488zM561 1637q0 57 49 106q45 49 109 49q53 0 86 -39q23 -29 22 -65q0 -16 -2 -27q-10 -57 -53 -92q-45 -39 -100 -39q-47 0 -78 31q-33 31 -33 76zM940 1637q0 59 49 108 q47 47 107 47h4q53 -4 84 -39q23 -29 22 -65q0 -16 -2 -27q-10 -55 -51 -92q-45 -35 -100 -39h-4q-49 0 -76 31q-33 31 -33 76z" />
<glyph unicode="&#xc5;" d="M-76 20l807 1414h270l310 -1414l-267 -38l-88 407h-548l-232 -407zM530 606h381l-104 488zM850 1378q-100 0 -166 65q-68 65 -68 160q0 123 103 221q101 98 227 99q102 0 168 -64q66 -66 65 -162q0 -121 -102 -219q-104 -100 -227 -100zM915 1747q-39 0 -65 -27 q-29 -27 -39 -70q-2 -6 -2 -16q0 -29 16 -51q23 -29 55.5 -29t65.5 29q31 28 37 67q2 8 2 23q0 27 -14 47q-21 27 -56 27z" />
<glyph unicode="&#xc6;" horiz-adv-x="2183" d="M-74 25l1274 1409h1000l-13 -213h-735l-59 -330h616l-37 -213h-616l-82 -465h737l-57 -213h-977l67 393h-497l-377 -411zM743 606h340l84 484z" />
<glyph unicode="&#xc7;" horiz-adv-x="1368" d="M76 590q0 66 12 137q59 307 285 508q240 215 573 215q168 0 416 -86l-82 -229q-201 102 -350 102q-37 0 -68 -6q-211 -47 -348 -182q-138 -138 -172 -332q-8 -43 -8 -96q0 -160 96 -269q94 -106 275 -141q33 -4 55 -4q162 0 420 115l-6 -222q-313 -117 -486 -116 q-27 0 -39 2q-260 25 -416 192q-157 170 -157 412zM449 -225q96 -16 151 -17q14 0 37 19q16 14 17 26v4q-2 10 -43 15l-86 4l79 217h195l-45 -123q143 -25 143 -90q0 -43 -67 -135q-76 -106 -271 -107q-57 0 -98 9z" />
<glyph unicode="&#xc8;" horiz-adv-x="1224" d="M23 0l251 1434h926l-14 -213h-694l-66 -371h616l-36 -213h-617l-76 -424h736l-60 -213h-966zM514 1728l225 131l295 -266l-182 -88z" />
<glyph unicode="&#xc9;" horiz-adv-x="1224" d="M23 0l251 1434h926l-14 -213h-694l-66 -371h616l-36 -213h-617l-76 -424h736l-60 -213h-966zM530 1590l392 266l178 -131l-420 -223z" />
<glyph unicode="&#xca;" horiz-adv-x="1224" d="M23 0l251 1434h926l-14 -213h-694l-66 -371h616l-36 -213h-617l-76 -424h736l-60 -213h-966zM443 1653l356 172l299 -172l-145 -127l-187 110l-223 -110z" />
<glyph unicode="&#xcb;" horiz-adv-x="1224" d="M23 0l251 1434h926l-14 -213h-694l-66 -371h616l-36 -213h-617l-76 -424h736l-60 -213h-966zM479 1637q0 57 49 106q45 49 109 49q53 0 86 -39q23 -29 22 -65q0 -16 -2 -27q-10 -57 -53 -92q-45 -39 -100 -39q-47 0 -78 31q-33 31 -33 76zM858 1637q0 59 49 108 q47 47 107 47h4q53 -4 84 -39q23 -29 22 -65q0 -16 -2 -27q-10 -55 -51 -92q-45 -35 -100 -39h-4q-49 0 -76 31q-33 31 -33 76z" />
<glyph unicode="&#xcc;" horiz-adv-x="550" d="M20 0l252 1432l258 20l-256 -1452h-254zM166 1728l225 131l295 -266l-182 -88z" />
<glyph unicode="&#xcd;" horiz-adv-x="550" d="M20 0l252 1432l258 20l-256 -1452h-254zM120 1590l392 266l178 -131l-420 -223z" />
<glyph unicode="&#xce;" horiz-adv-x="550" d="M20 0l252 1432l258 20l-256 -1452h-254zM115 1653l356 172l299 -172l-145 -127l-187 110l-223 -110z" />
<glyph unicode="&#xcf;" horiz-adv-x="550" d="M20 0l252 1432l258 20l-256 -1452h-254zM110 1637q0 57 49 106q45 49 109 49q53 0 86 -39q23 -29 22 -65q0 -16 -2 -27q-10 -57 -53 -92q-45 -39 -100 -39q-47 0 -78 31q-33 31 -33 76zM489 1637q0 59 49 108q47 47 107 47h4q53 -4 84 -39q23 -29 22 -65q0 -16 -2 -27 q-10 -55 -51 -92q-45 -35 -100 -39h-4q-49 0 -76 31q-33 31 -33 76z" />
<glyph unicode="&#xd1;" horiz-adv-x="1490" d="M23 2l251 1430l304 18l456 -1036l180 1020h254l-251 -1432l-281 -18l-477 1056l-187 -1058zM473 1513l39 225q27 43 94 76q70 35 129 35q70 0 164 -66q90 -66 157 -65q72 0 228 131l-39 -213q-143 -123 -223 -123q-74 0 -164 66q-90 63 -160 63h-4q-55 0 -121 -37 q-71 -41 -100 -92z" />
<glyph unicode="&#xd2;" horiz-adv-x="1576" d="M76 590q0 96 28 201q78 279 304 464q231 193 516 193h4q261 -3 424 -178q152 -170 151 -420q0 -319 -250 -588q-261 -276 -596 -276q-264 0 -426 180q-155 174 -155 424zM330 623q0 -178 106 -299q104 -125 264 -125q212 3 381 202q164 195 164 420q0 178 -94 291 q-102 121 -268 123h-4q-218 0 -381 -191q-168 -192 -168 -421zM678 1728l225 131l295 -266l-182 -88z" />
<glyph unicode="&#xd3;" horiz-adv-x="1576" d="M76 590q0 96 28 201q78 279 304 464q231 193 516 193h4q261 -3 424 -178q152 -170 151 -420q0 -319 -250 -588q-261 -276 -596 -276q-264 0 -426 180q-155 174 -155 424zM330 623q0 -178 106 -299q104 -125 264 -125q212 3 381 202q164 195 164 420q0 178 -94 291 q-102 121 -268 123h-4q-218 0 -381 -191q-168 -192 -168 -421zM673 1590l392 266l178 -131l-420 -223z" />
<glyph unicode="&#xd4;" horiz-adv-x="1576" d="M76 590q0 96 28 201q78 279 304 464q231 193 516 193h4q261 -3 424 -178q152 -170 151 -420q0 -319 -250 -588q-261 -276 -596 -276q-264 0 -426 180q-155 174 -155 424zM330 623q0 -178 106 -299q104 -125 264 -125q212 3 381 202q164 195 164 420q0 178 -94 291 q-102 121 -268 123h-4q-218 0 -381 -191q-168 -192 -168 -421zM627 1653l356 172l299 -172l-145 -127l-187 110l-223 -110z" />
<glyph unicode="&#xd5;" horiz-adv-x="1576" d="M76 590q0 96 28 201q78 279 304 464q231 193 516 193h4q261 -3 424 -178q152 -170 151 -420q0 -319 -250 -588q-261 -276 -596 -276q-264 0 -426 180q-155 174 -155 424zM330 623q0 -178 106 -299q104 -125 264 -125q212 3 381 202q164 195 164 420q0 178 -94 291 q-102 121 -268 123h-4q-218 0 -381 -191q-168 -192 -168 -421zM555 1513l39 225q27 43 94 76q70 35 129 35q70 0 164 -66q90 -66 157 -65q72 0 228 131l-39 -213q-143 -123 -223 -123q-74 0 -164 66q-90 63 -160 63h-4q-55 0 -121 -37q-71 -41 -100 -92z" />
<glyph unicode="&#xd6;" horiz-adv-x="1576" d="M76 590q0 96 28 201q78 279 304 464q231 193 516 193h4q261 -3 424 -178q152 -170 151 -420q0 -319 -250 -588q-261 -276 -596 -276q-264 0 -426 180q-155 174 -155 424zM330 623q0 -178 106 -299q104 -125 264 -125q212 3 381 202q164 195 164 420q0 178 -94 291 q-102 121 -268 123h-4q-218 0 -381 -191q-168 -192 -168 -421zM633 1637q0 57 49 106q45 49 109 49q53 0 86 -39q23 -29 22 -65q0 -16 -2 -27q-10 -57 -53 -92q-45 -39 -100 -39q-47 0 -78 31q-33 31 -33 76zM1012 1637q0 59 49 108q47 47 107 47h4q53 -4 84 -39 q23 -29 22 -65q0 -16 -2 -27q-10 -55 -51 -92q-45 -35 -100 -39h-4q-49 0 -76 31q-33 31 -33 76z" />
<glyph unicode="&#xd8;" horiz-adv-x="1576" d="M53 31l164 184q-139 199 -139 399q0 76 26 177q66 242 261 423q190 182 426 226q65 12 122 12q174 0 314 -100l116 133l224 -82l-185 -211q119 -193 119 -367q0 -27 -4 -80q-41 -301 -285 -526q-254 -236 -555 -235q-158 0 -282 77l-99 -112zM334 655q0 -101 67 -233 l670 752q-76 61 -188 61h-4q-203 0 -373 -184q-172 -187 -172 -396zM537 244q66 -45 153 -45h8q190 0 350 159.5t187 362.5q4 33 4 51q0 90 -47 207z" />
<glyph unicode="&#xd9;" horiz-adv-x="1497" d="M111 424q0 74 16 168l147 840l258 20l-151 -854q0 -27 -6 -82t-6 -84q0 -45 8 -76q23 -78 92 -116q72 -43 170 -43q156 0 281 96q141 108 153 289l150 852h254l-150 -852q-49 -280 -246 -443q-188 -154 -438 -153h-33q-499 22 -499 438zM617 1728l225 131l295 -266 l-182 -88z" />
<glyph unicode="&#xda;" horiz-adv-x="1497" d="M111 424q0 74 16 168l147 840l258 20l-151 -854q0 -27 -6 -82t-6 -84q0 -45 8 -76q23 -78 92 -116q72 -43 170 -43q156 0 281 96q141 108 153 289l150 852h254l-150 -852q-49 -280 -246 -443q-188 -154 -438 -153h-33q-499 22 -499 438zM632 1590l392 266l178 -131 l-420 -223z" />
<glyph unicode="&#xdb;" horiz-adv-x="1497" d="M111 424q0 74 16 168l147 840l258 20l-151 -854q0 -27 -6 -82t-6 -84q0 -45 8 -76q23 -78 92 -116q72 -43 170 -43q156 0 281 96q141 108 153 289l150 852h254l-150 -852q-49 -280 -246 -443q-188 -154 -438 -153h-33q-499 22 -499 438zM586 1653l356 172l299 -172 l-145 -127l-187 110l-223 -110z" />
<glyph unicode="&#xdc;" horiz-adv-x="1497" d="M111 424q0 74 16 168l147 840l258 20l-151 -854q0 -27 -6 -82t-6 -84q0 -45 8 -76q23 -78 92 -116q72 -43 170 -43q156 0 281 96q141 108 153 289l150 852h254l-150 -852q-49 -280 -246 -443q-188 -154 -438 -153h-33q-499 22 -499 438zM592 1637q0 57 49 106 q45 49 109 49q53 0 86 -39q23 -29 22 -65q0 -16 -2 -27q-10 -57 -53 -92q-45 -39 -100 -39q-47 0 -78 31q-33 31 -33 76zM971 1637q0 59 49 108q47 47 107 47h4q53 -4 84 -39q23 -29 22 -65q0 -16 -2 -27q-10 -55 -51 -92q-45 -35 -100 -39h-4q-49 0 -76 31q-33 31 -33 76z " />
<glyph unicode="&#xdd;" horiz-adv-x="1271" d="M637 1661l392 266l178 -131l-420 -223zM127 1413l293 39l237 -612l453 612l276 -41l-645 -807l-106 -604h-254l106 604z" />
<glyph unicode="&#xdf;" horiz-adv-x="1253" d="M23 8l251 1424q252 16 398 16q72 0 98 -2q162 -8 272 -80q125 -80 125 -213v-25q-10 -109 -102 -206q-72 -82 -188 -142q240 -121 239 -327q0 -18 -4 -56q-70 -393 -567 -411h-15q-76 0 -200 18l73 215q113 -27 183 -26q256 0 276 229v12q0 92 -164 164q-94 39 -211 61 l41 240q115 16 201 47q162 57 174 141q2 8 2 23q0 125 -256 125q-59 0 -157 -10l-216 -1227z" />
<glyph unicode="&#xe0;" horiz-adv-x="1124" d="M57 375q0 256 160 446q172 207 440 211h7q190 0 432 -125l-133 -684q0 -43 63 -45h135l-155 -192h-9q-166 0 -235 69q-186 -70 -297 -69q-190 0 -299 104.5t-109 284.5zM303 389q0 -195 180 -194q96 0 226 41l108 550q-96 31 -217 31q-117 0 -209 -145q-88 -138 -88 -283 zM463 1335l225 131l295 -266l-182 -88z" />
<glyph unicode="&#xe1;" horiz-adv-x="1124" d="M57 375q0 256 160 446q172 207 440 211h7q190 0 432 -125l-133 -684q0 -43 63 -45h135l-155 -192h-9q-166 0 -235 69q-186 -70 -297 -69q-190 0 -299 104.5t-109 284.5zM303 389q0 -195 180 -194q96 0 226 41l108 550q-96 31 -217 31q-117 0 -209 -145q-88 -138 -88 -283 zM489 1221l392 266l178 -131l-420 -223z" />
<glyph unicode="&#xe2;" horiz-adv-x="1124" d="M57 375q0 256 160 446q172 207 440 211h7q190 0 432 -125l-133 -684q0 -43 63 -45h135l-155 -192h-9q-166 0 -235 69q-186 -70 -297 -69q-190 0 -299 104.5t-109 284.5zM303 389q0 -195 180 -194q96 0 226 41l108 550q-96 31 -217 31q-117 0 -209 -145q-88 -138 -88 -283 zM402 1264l356 172l299 -172l-145 -127l-187 110l-223 -110z" />
<glyph unicode="&#xe3;" horiz-adv-x="1124" d="M57 375q0 256 160 446q172 207 440 211h7q190 0 432 -125l-133 -684q0 -43 63 -45h135l-155 -192h-9q-166 0 -235 69q-186 -70 -297 -69q-190 0 -299 104.5t-109 284.5zM303 389q0 -195 180 -194q96 0 226 41l108 550q-96 31 -217 31q-117 0 -209 -145q-88 -138 -88 -283 zM281 1112l39 225q27 43 94 76q70 35 129 35q70 0 164 -66q90 -66 157 -65q72 0 228 131l-39 -213q-143 -123 -223 -123q-74 0 -164 66q-90 63 -160 63h-4q-55 0 -121 -37q-71 -41 -100 -92z" />
<glyph unicode="&#xe4;" horiz-adv-x="1124" d="M57 375q0 256 160 446q172 207 440 211h7q190 0 432 -125l-133 -684q0 -43 63 -45h135l-155 -192h-9q-166 0 -235 69q-186 -70 -297 -69q-190 0 -299 104.5t-109 284.5zM303 389q0 -195 180 -194q96 0 226 41l108 550q-96 31 -217 31q-117 0 -209 -145q-88 -138 -88 -283 zM381 1219q0 57 49 106q45 49 109 49q53 0 86 -39q23 -29 22 -65q0 -16 -2 -27q-10 -57 -53 -92q-45 -39 -100 -39q-47 0 -78 31q-33 31 -33 76zM760 1219q0 59 49 108q47 47 107 47h4q53 -4 84 -39q23 -29 22 -65q0 -16 -2 -27q-10 -55 -51 -92q-45 -35 -100 -39h-4 q-49 0 -76 31q-33 31 -33 76z" />
<glyph unicode="&#xe5;" horiz-adv-x="1124" d="M57 375q0 256 160 446q172 207 440 211h7q190 0 432 -125l-133 -684q0 -43 63 -45h135l-155 -192h-9q-166 0 -235 69q-186 -70 -297 -69q-190 0 -299 104.5t-109 284.5zM303 389q0 -195 180 -194q96 0 226 41l108 550q-96 31 -217 31q-117 0 -209 -145q-88 -138 -88 -283 zM436 1196q0 106 100 195q101 86 228 86q109 0 176 -60q68 -58 67 -147q0 -109 -100 -191q-101 -86 -227 -86q-109 0 -174 60q-70 57 -70 143zM649 1221q0 -25 14 -39q18 -20 45 -21q72 4 84 72q2 6 2 16q0 22 -12 37q-18 23 -47 23q-31 0 -53 -21q-27 -20 -33 -55v-12z" />
<glyph unicode="&#xe6;" horiz-adv-x="1761" d="M43 301v4q0 113 70 184q57 63 184 125q104 51 256 52q100 0 190 -21q16 47 17 86q0 74 -74 86q-43 6 -86 6q-141 0 -330 -73l-67 188q252 94 395 94h27q127 -8 182 -22q96 -25 151 -97q156 119 340.5 119t294.5 -133q100 -119 101 -283v-8q-2 -123 -305 -180 q-190 -35 -428 -41q6 -84 53 -137q45 -51 112 -55h25q197 0 305 88l70 -195q-55 -43 -162 -70q-127 -33 -244 -32h-16q-164 4 -273 100l-139 -49q-156 -55 -266 -55q-27 0 -59 4q-137 31 -224 104q-98 86 -100 211zM291 289q0 -94 155 -94q94 0 213 30l39 211 q-74 14 -151 15q-227 0 -252 -138q-4 -16 -4 -24zM991 594q326 4 430 33q10 4 13 14q-4 182 -166 182q-88 0 -164 -65q-74 -66 -113 -164z" />
<glyph unicode="&#xe7;" horiz-adv-x="1079" d="M74 426q0 240 194 424q195 182 453 182q119 0 379 -98l-144 -197q-129 86 -290 86q-133 0 -240 -125q-109 -127 -109 -260q0 -102 64 -172q61 -72 162 -71q127 0 323 75l66 -190q-264 -96 -410 -96q-193 0 -319 133q-129 133 -129 309zM305 -225q96 -16 151 -17 q14 0 37 19q16 14 17 26v4q-2 10 -43 15l-86 4l79 217h195l-45 -123q143 -25 143 -90q0 -43 -67 -135q-76 -106 -271 -107q-57 0 -98 9z" />
<glyph unicode="&#xe8;" horiz-adv-x="1136" d="M96 416q0 227 170 415q182 201 426 201q186 0 297 -133q100 -119 101 -283v-8q0 -92 -136 -149q-111 -49 -256 -56l-344 -14q6 -86 54 -139q49 -61 127 -62q203 0 315 88l70 -188q-68 -51 -207 -80q-113 -23 -199 -22q-195 0 -311 131q-107 119 -107 299zM385 588 q332 4 430 33q10 4 12 14q-2 80 -43 139q-39 55 -122 55q-86 0 -168 -75q-68 -64 -109 -166zM422 1335l225 131l295 -266l-182 -88z" />
<glyph unicode="&#xe9;" horiz-adv-x="1136" d="M96 416q0 227 170 415q182 201 426 201q186 0 297 -133q100 -119 101 -283v-8q0 -92 -136 -149q-111 -49 -256 -56l-344 -14q6 -86 54 -139q49 -61 127 -62q203 0 315 88l70 -188q-68 -51 -207 -80q-113 -23 -199 -22q-195 0 -311 131q-107 119 -107 299zM385 588 q332 4 430 33q10 4 12 14q-2 80 -43 139q-39 55 -122 55q-86 0 -168 -75q-68 -64 -109 -166zM407 1221l392 266l178 -131l-420 -223z" />
<glyph unicode="&#xea;" horiz-adv-x="1136" d="M96 416q0 227 170 415q182 201 426 201q186 0 297 -133q100 -119 101 -283v-8q0 -92 -136 -149q-111 -49 -256 -56l-344 -14q6 -86 54 -139q49 -61 127 -62q203 0 315 88l70 -188q-68 -51 -207 -80q-113 -23 -199 -22q-195 0 -311 131q-107 119 -107 299zM385 588 q332 4 430 33q10 4 12 14q-2 80 -43 139q-39 55 -122 55q-86 0 -168 -75q-68 -64 -109 -166zM361 1264l356 172l299 -172l-145 -127l-187 110l-223 -110z" />
<glyph unicode="&#xeb;" horiz-adv-x="1136" d="M96 416q0 227 170 415q182 201 426 201q186 0 297 -133q100 -119 101 -283v-8q0 -92 -136 -149q-111 -49 -256 -56l-344 -14q6 -86 54 -139q49 -61 127 -62q203 0 315 88l70 -188q-68 -51 -207 -80q-113 -23 -199 -22q-195 0 -311 131q-107 119 -107 299zM385 588 q332 4 430 33q10 4 12 14q-2 80 -43 139q-39 55 -122 55q-86 0 -168 -75q-68 -64 -109 -166zM401 1219q0 57 49 106q45 49 109 49q53 0 86 -39q23 -29 22 -65q0 -16 -2 -27q-10 -57 -53 -92q-45 -39 -100 -39q-47 0 -78 31q-33 31 -33 76zM780 1219q0 59 49 108 q47 47 107 47h4q53 -4 84 -39q23 -29 22 -65q0 -16 -2 -27q-10 -55 -51 -92q-45 -35 -100 -39h-4q-49 0 -76 31q-33 31 -33 76z" />
<glyph unicode="&#xec;" horiz-adv-x="612" d="M166 1335l225 131l295 -266l-182 -88zM412 -14h-4q-297 0 -297 227l147 788l260 21l-149 -793q0 -45 63 -47h135z" />
<glyph unicode="&#xed;" horiz-adv-x="612" d="M141 1221l392 266l178 -131l-420 -223zM412 -14h-4q-297 0 -297 227l147 788l260 21l-149 -793q0 -45 63 -47h135z" />
<glyph unicode="&#xee;" horiz-adv-x="612" d="M105 1264l356 172l299 -172l-145 -127l-187 110l-223 -110zM412 -14h-4q-297 0 -297 227l147 788l260 21l-149 -793q0 -45 63 -47h135z" />
<glyph unicode="&#xef;" horiz-adv-x="612" d="M84 1219q0 57 49 106q45 49 109 49q53 0 86 -39q23 -29 22 -65q0 -16 -2 -27q-10 -57 -53 -92q-45 -39 -100 -39q-47 0 -78 31q-33 31 -33 76zM463 1219q0 59 49 108q47 47 107 47h4q53 -4 84 -39q23 -29 22 -65q0 -16 -2 -27q-10 -55 -51 -92q-45 -35 -100 -39h-4 q-49 0 -76 31q-33 31 -33 76zM412 -14h-4q-297 0 -297 227l147 788l260 21l-149 -793q0 -45 63 -47h135z" />
<glyph unicode="&#xf1;" horiz-adv-x="1181" d="M43 -2l193 1006l258 18l-11 -53q158 63 269 63q121 0 235 -71q127 -84 127 -203q0 -162 -84 -539q-2 -2 -2 -8q0 -31 49 -35h-4q0 2 160 2l-156 -192q-120 0 -203 37q-102 49 -102 145q0 14 4 43l58 242q33 154 32 245q0 125 -168 125q-88 0 -258 -75l-143 -750h-254z M275 1112l39 225q27 43 94 76q70 35 129 35q70 0 164 -66q90 -66 157 -65q72 0 228 131l-39 -213q-143 -123 -223 -123q-74 0 -164 66q-90 63 -160 63h-4q-55 0 -121 -37q-71 -41 -100 -92z" />
<glyph unicode="&#xf2;" horiz-adv-x="1193" d="M74 422q0 236 186 422q188 188 438 188q193 0 312 -131q111 -119 110 -299q0 -229 -178 -420q-188 -197 -438 -196q-193 0 -316 133q-114 127 -114 303zM319 442q0 -100 60 -172q58 -74 153 -73q129 0 240 129q104 125 105 254q0 98 -60 170q-59 74 -151 73 q-131 0 -238 -125q-109 -127 -109 -256zM484 1335l225 131l295 -266l-182 -88z" />
<glyph unicode="&#xf3;" horiz-adv-x="1193" d="M74 422q0 236 186 422q188 188 438 188q193 0 312 -131q111 -119 110 -299q0 -229 -178 -420q-188 -197 -438 -196q-193 0 -316 133q-114 127 -114 303zM319 442q0 -100 60 -172q58 -74 153 -73q129 0 240 129q104 125 105 254q0 98 -60 170q-59 74 -151 73 q-131 0 -238 -125q-109 -127 -109 -256zM489 1221l392 266l178 -131l-420 -223z" />
<glyph unicode="&#xf4;" horiz-adv-x="1193" d="M74 422q0 236 186 422q188 188 438 188q193 0 312 -131q111 -119 110 -299q0 -229 -178 -420q-188 -197 -438 -196q-193 0 -316 133q-114 127 -114 303zM319 442q0 -100 60 -172q58 -74 153 -73q129 0 240 129q104 125 105 254q0 98 -60 170q-59 74 -151 73 q-131 0 -238 -125q-109 -127 -109 -256zM402 1264l356 172l299 -172l-145 -127l-187 110l-223 -110z" />
<glyph unicode="&#xf5;" horiz-adv-x="1193" d="M74 422q0 236 186 422q188 188 438 188q193 0 312 -131q111 -119 110 -299q0 -229 -178 -420q-188 -197 -438 -196q-193 0 -316 133q-114 127 -114 303zM319 442q0 -100 60 -172q58 -74 153 -73q129 0 240 129q104 125 105 254q0 98 -60 170q-59 74 -151 73 q-131 0 -238 -125q-109 -127 -109 -256zM316 1112l39 225q27 43 94 76q70 35 129 35q70 0 164 -66q90 -66 157 -65q72 0 228 131l-39 -213q-143 -123 -223 -123q-74 0 -164 66q-90 63 -160 63h-4q-55 0 -121 -37q-71 -41 -100 -92z" />
<glyph unicode="&#xf6;" horiz-adv-x="1193" d="M74 422q0 236 186 422q188 188 438 188q193 0 312 -131q111 -119 110 -299q0 -229 -178 -420q-188 -197 -438 -196q-193 0 -316 133q-114 127 -114 303zM319 442q0 -100 60 -172q58 -74 153 -73q129 0 240 129q104 125 105 254q0 98 -60 170q-59 74 -151 73 q-131 0 -238 -125q-109 -127 -109 -256zM401 1219q0 57 49 106q45 49 109 49q53 0 86 -39q23 -29 22 -65q0 -16 -2 -27q-10 -57 -53 -92q-45 -39 -100 -39q-47 0 -78 31q-33 31 -33 76zM780 1219q0 59 49 108q47 47 107 47h4q53 -4 84 -39q23 -29 22 -65q0 -16 -2 -27 q-10 -55 -51 -92q-45 -35 -100 -39h-4q-49 0 -76 31q-33 31 -33 76z" />
<glyph unicode="&#xf7;" horiz-adv-x="980" d="M106 317l41 226h727l-40 -226h-728zM311 133q0 16 2 25q8 51 54 90q43 37 96 37q51 0 82 -37q23 -33 22 -68q0 -14 -2 -22q-8 -49 -53 -88q-43 -37 -94 -37t-82 37q-25 24 -25 63zM408 690q0 12 2 21q8 49 55 90q43 37 94 37q53 0 84 -37q20 -27 21 -64q0 -16 -2 -26 q-8 -51 -51.5 -88t-96.5 -37q-51 0 -82 37q-24 24 -24 67z" />
<glyph unicode="&#xf8;" horiz-adv-x="1245" d="M41 31l133 139q-92 133 -92 268q0 66 22 137q63 197 242 322q174 125 369 125q109 0 207 -47l75 80l222 -80l-136 -148q82 -121 82 -249q0 -218 -196 -406q-201 -188 -439 -188q-108 0 -196 43l-70 -78zM340 471q0 -41 22 -96l394 420q-37 16 -76 16q-133 0 -236 -109 q-104 -110 -104 -231zM502 207q35 -12 73 -12q141 0 248 137q84 106 84 203q0 35 -8 59q-4 16 -8 27z" />
<glyph unicode="&#xf9;" horiz-adv-x="1165" d="M98 256q0 152 47 375l84 370l254 21l-82 -350q-49 -217 -49 -353q0 -141 160 -141q89 0 240 68l145 764h256l-149 -787q0 -43 61 -45h135l-156 -192h-8q-168 0 -239 75q-233 -76 -322 -75q-129 0 -244 65q-133 78 -133 205zM463 1335l225 131l295 -266l-182 -88z" />
<glyph unicode="&#xfa;" horiz-adv-x="1165" d="M98 256q0 152 47 375l84 370l254 21l-82 -350q-49 -217 -49 -353q0 -141 160 -141q89 0 240 68l145 764h256l-149 -787q0 -43 61 -45h135l-156 -192h-8q-168 0 -239 75q-233 -76 -322 -75q-129 0 -244 65q-133 78 -133 205zM448 1221l392 266l178 -131l-420 -223z" />
<glyph unicode="&#xfb;" horiz-adv-x="1165" d="M98 256q0 152 47 375l84 370l254 21l-82 -350q-49 -217 -49 -353q0 -141 160 -141q89 0 240 68l145 764h256l-149 -787q0 -43 61 -45h135l-156 -192h-8q-168 0 -239 75q-233 -76 -322 -75q-129 0 -244 65q-133 78 -133 205zM381 1264l356 172l299 -172l-145 -127 l-187 110l-223 -110z" />
<glyph unicode="&#xfc;" horiz-adv-x="1165" d="M98 256q0 152 47 375l84 370l254 21l-82 -350q-49 -217 -49 -353q0 -141 160 -141q89 0 240 68l145 764h256l-149 -787q0 -43 61 -45h135l-156 -192h-8q-168 0 -239 75q-233 -76 -322 -75q-129 0 -244 65q-133 78 -133 205zM370 1219q0 57 49 106q45 49 109 49 q53 0 86 -39q23 -29 22 -65q0 -16 -2 -27q-10 -57 -53 -92q-45 -39 -100 -39q-47 0 -78 31q-33 31 -33 76zM749 1219q0 59 49 108q47 47 107 47h4q53 -4 84 -39q23 -29 22 -65q0 -16 -2 -27q-10 -55 -51 -92q-45 -35 -100 -39h-4q-49 0 -76 31q-33 31 -33 76z" />
<glyph unicode="&#xfd;" horiz-adv-x="1159" d="M358 1241l392 266l178 -131l-420 -223zM20 -371l138 189q160 -74 274 -74q127 0 199 84q55 63 86 205q-154 -47 -238 -47q-138 0 -246 55q-135 70 -135 199q0 154 47 383l84 378l256 21l-82 -358q-49 -225 -49 -361q0 -119 162 -119q92 0 240 70l141 756h256l-184 -1004 q-39 -209 -160 -336q-137 -143 -360 -143q-183 0 -429 102z" />
<glyph unicode="&#xff;" horiz-adv-x="1159" d="M20 -371l138 189q160 -74 274 -74q127 0 199 84q55 63 86 205q-154 -47 -238 -47q-138 0 -246 55q-135 70 -135 199q0 154 47 383l84 378l256 21l-82 -358q-49 -225 -49 -361q0 -119 162 -119q92 0 240 70l141 756h256l-184 -1004q-39 -209 -160 -336 q-137 -143 -360 -143q-183 0 -429 102zM401 1219q0 57 49 106q45 49 109 49q53 0 86 -39q23 -29 22 -65q0 -16 -2 -27q-10 -57 -53 -92q-45 -39 -100 -39q-47 0 -78 31q-33 31 -33 76zM780 1219q0 59 49 108q47 47 107 47h4q53 -4 84 -39q23 -29 22 -65q0 -16 -2 -27 q-10 -55 -51 -92q-45 -35 -100 -39h-4q-49 0 -76 31q-33 31 -33 76z" />
<glyph unicode="&#x131;" horiz-adv-x="612" d="M412 -14h-4q-297 0 -297 227l147 788l260 21l-149 -793q0 -45 63 -47h135z" />
<glyph unicode="&#x152;" horiz-adv-x="2134" d="M76 598q0 90 28 193q76 270 310 456q231 186 510 187h1228l-14 -213h-735l-60 -330h617l-37 -213h-616l-82 -465h735l-59 -213h-1239q-260 0 -426 178q-160 170 -160 420zM330 627q0 -174 106 -293q109 -121 266 -121h269l178 1008h-268q-213 0 -381 -187 q-170 -188 -170 -407z" />
<glyph unicode="&#x153;" horiz-adv-x="1908" d="M74 422q0 233 186 422q184 188 436 188q223 0 346 -170q176 170 400 170q186 0 297 -135q100 -119 100 -289q0 -120 -289 -178q-197 -41 -442 -45q27 -190 176 -190q199 0 315 86l70 -193q-139 -102 -403 -102q-231 0 -348 174q-182 -174 -416 -174q-190 0 -314 135 q-114 127 -114 301zM328 440q0 -102 57 -172q55 -72 147 -71q123 0 227.5 127t104.5 254q0 98 -53 174q-55 72 -145 71q-129 0 -236 -129q-102 -121 -102 -254zM1135 594q326 4 430 33q10 4 12 14q-4 182 -166 182q-88 0 -164 -65q-73 -66 -112 -164z" />
<glyph unicode="&#x178;" horiz-adv-x="1271" d="M127 1413l293 39l237 -612l453 612l276 -41l-645 -807l-106 -604h-254l106 604zM479 1637q0 57 49 106q45 49 109 49q53 0 86 -39q23 -29 22 -65q0 -16 -2 -27q-10 -57 -53 -92q-45 -39 -100 -39q-47 0 -78 31q-33 31 -33 76zM858 1637q0 59 49 108q47 47 107 47h4 q53 -4 84 -39q23 -29 22 -65q0 -16 -2 -27q-10 -55 -51 -92q-45 -35 -100 -39h-4q-49 0 -76 31q-33 31 -33 76z" />
<glyph unicode="&#x2c6;" horiz-adv-x="724" d="M33 1264l356 172l299 -172l-145 -127l-187 110l-223 -110z" />
<glyph unicode="&#x2da;" horiz-adv-x="665" d="M285 1020q-100 0 -166 65q-68 65 -68 160q0 123 103 221q101 98 227 99q102 0 168 -64q66 -66 65 -162q0 -121 -102 -219q-104 -100 -227 -100zM350 1389q-39 0 -65 -27q-29 -27 -39 -70q-2 -6 -2 -16q0 -29 16 -51q23 -29 55.5 -29t65.5 29q31 28 37 67q2 8 2 23 q0 27 -14 47q-21 27 -56 27z" />
<glyph unicode="&#x2dc;" horiz-adv-x="872" d="M35 1112l39 225q27 43 94 76q70 35 129 35q70 0 164 -66q90 -66 157 -65q72 0 228 131l-39 -213q-143 -123 -223 -123q-74 0 -164 66q-90 63 -160 63h-4q-55 0 -121 -37q-71 -41 -100 -92z" />
<glyph unicode="&#x2000;" horiz-adv-x="962" />
<glyph unicode="&#x2001;" horiz-adv-x="1927" />
<glyph unicode="&#x2002;" horiz-adv-x="962" />
<glyph unicode="&#x2003;" horiz-adv-x="1927" />
<glyph unicode="&#x2004;" horiz-adv-x="641" />
<glyph unicode="&#x2005;" horiz-adv-x="481" />
<glyph unicode="&#x2006;" horiz-adv-x="319" />
<glyph unicode="&#x2007;" horiz-adv-x="319" />
<glyph unicode="&#x2008;" horiz-adv-x="239" />
<glyph unicode="&#x2009;" horiz-adv-x="382" />
<glyph unicode="&#x200a;" horiz-adv-x="106" />
<glyph unicode="&#x2010;" horiz-adv-x="833" d="M129 424l39 225h537l-39 -225h-537z" />
<glyph unicode="&#x2011;" horiz-adv-x="833" d="M129 424l39 225h537l-39 -225h-537z" />
<glyph unicode="&#x2012;" horiz-adv-x="833" d="M129 424l39 225h537l-39 -225h-537z" />
<glyph unicode="&#x2013;" horiz-adv-x="1159" d="M109 424l38 225h906l-39 -225h-905z" />
<glyph unicode="&#x2014;" horiz-adv-x="1734" d="M109 424l38 225h1479l-39 -225h-1478z" />
<glyph unicode="&#x2018;" horiz-adv-x="430" d="M25 1169.5q0 51.5 69 133.5l219 245l109 -47l-115 -311q-49 -133 -164 -133q-49 0 -83.5 30.5t-34.5 82z" />
<glyph unicode="&#x2019;" horiz-adv-x="430" d="M10 1096l115 311q49 133 164 133q53 0 86 -33q33 -31 33 -82q0 -53 -70 -131l-219 -245z" />
<glyph unicode="&#x201a;" horiz-adv-x="430" d="M10 -215l115 311q49 133 164 133q55 0 92 -39q27 -29 27 -73q0 -16 -2 -27q-10 -39 -68 -106l-219 -246z" />
<glyph unicode="&#x201c;" horiz-adv-x="784" d="M25 1169.5q0 51.5 69 133.5l219 245l109 -47l-115 -311q-49 -133 -164 -133q-49 0 -83.5 30.5t-34.5 82zM379 1169q0 55 70 134l219 245l108 -47l-114 -311q-49 -133 -164 -133q-51 0 -84 30q-35 31 -35 82z" />
<glyph unicode="&#x201d;" horiz-adv-x="784" d="M10 1096l115 311q49 133 164 133q55 0 92 -39q27 -29 27 -74q0 -16 -2 -26q-8 -35 -68 -107l-219 -245zM365 1096l114 311q49 133 164 133q53 0 86 -33q33 -31 33 -82q0 -53 -70 -131l-219 -245z" />
<glyph unicode="&#x201e;" horiz-adv-x="784" d="M10 -215l115 311q49 133 164 133q55 0 92 -39q27 -29 27 -73q0 -16 -2 -27q-10 -39 -68 -106l-219 -246zM365 -215l114 311q49 133 164 133q49 0 86 -32q33 -33 33 -82q0 -53 -70 -131l-219 -246z" />
<glyph unicode="&#x2022;" horiz-adv-x="673" d="M84 545q0 106 92 194q88 88 203 88q94 0 151 -57q59 -57 60 -143q0 -104 -90 -195q-94 -90 -205 -90q-92 0 -152 57q-59 60 -59 146z" />
<glyph unicode="&#x2026;" horiz-adv-x="1400" d="M84 117q0 68 59 131q63 59 133 59q59 0 101 -37q39 -39 39 -96q0 -72 -62 -131q-63 -59 -133 -59q-61 0 -98 39q-39 37 -39 94zM535 117q0 72 59 131t133 59q59 0 100 -37q39 -39 39 -96q0 -72 -61 -131q-63 -59 -133 -59q-61 0 -99 39t-38 94zM985 117q0 68 59 131 q63 59 134 59q59 0 100 -37q39 -39 39 -96q0 -72 -62 -131q-63 -59 -133 -59q-61 0 -98 39q-39 37 -39 94z" />
<glyph unicode="&#x202f;" horiz-adv-x="382" />
<glyph unicode="&#x2039;" horiz-adv-x="587" d="M76 434l26 154l420 311l13 -190l-267 -201l197 -211l-82 -191z" />
<glyph unicode="&#x203a;" horiz-adv-x="587" d="M53 301l266 199l-196 211l82 190l307 -328l-27 -153l-419 -311z" />
<glyph unicode="&#x2044;" horiz-adv-x="382" d="M-256 -336l-215 94l1108 1786l219 -86z" />
<glyph unicode="&#x205f;" horiz-adv-x="481" />
<glyph unicode="&#x20ac;" horiz-adv-x="1406" d="M61 414l107 141h113q10 43 12 57h-197l107 142h147q90 170 252 274q162 102 363 113h16q145 0 422 -105l-154 -217q-31 18 -96 47q-119 47 -231 47h-4q-158 0 -275 -159h557l-106 -142h-525q-4 -16 -12 -57h514l-106 -141h-402q46 -203 258 -203q135 0 342 82l72 -203 q-309 -109 -455 -108q-20 0 -30 2q-193 14 -324 139q-127 119 -145 291h-220z" />
<glyph unicode="&#x2122;" horiz-adv-x="1380" d="M156 1311l22 123h481l-22 -123h-168l-76 -426h-145l76 426h-168zM582 897l151 537h129l72 -318l182 318h131l-39 -537l-153 -25l18 218l-119 -205h-123l-47 205l-57 -218z" />
<glyph unicode="&#xe000;" horiz-adv-x="1020" d="M0 1020h1020v-1020h-1020v1020z" />
<glyph unicode="&#xfb01;" horiz-adv-x="1482" d="M981 213l147 799l260 20l-149 -803q0 -45 63 -47h135l-155 -196h-4q-297 0 -297 227zM1181 1382q0 59 51 109q51 47 113 47h4q63 -2 101 -43q29 -35 28 -76q0 -16 -2 -24q-8 -53 -57 -92q-43 -37 -107 -41h-4q-55 0 -90 34q-37 34 -37 86zM-164 -252q78 -6 107 -6 q78 0 112 35q31 31 54 139l20 111l141 780h-182l39 203h178q25 195 141 311q127 127 334 127q127 0 330 -84l-168 -184q-123 53 -209 53q-78 0 -129 -70q-45 -57 -57 -153h375l-37 -203h-371l-145 -795q-47 -258 -105 -331q-82 -113 -342 -154z" />
<glyph unicode="&#xfb02;" horiz-adv-x="1433" d="M962 213l215 1257l260 21l-217 -1262q0 -45 64 -47h135l-156 -196h-4q-297 0 -297 227zM-164 -252q78 -6 107 -6q78 0 112 35q31 31 54 139l20 111l141 780h-182l39 203h178q25 195 141 311q127 127 334 127q127 0 330 -84l-168 -184q-123 53 -209 53q-78 0 -129 -70 q-45 -57 -57 -153h375l-37 -203h-371l-145 -795q-47 -258 -105 -331q-82 -113 -342 -154z" />
<glyph unicode="&#xfb03;" horiz-adv-x="2353" d="M1852 213l147 799l260 20l-149 -803q0 -45 63 -47h135l-155 -196h-4q-297 0 -297 227zM2052 1382q0 59 51 109q51 47 113 47h4q63 -2 101 -43q29 -35 28 -76q0 -16 -2 -24q-8 -53 -57 -92q-43 -37 -107 -41h-4q-55 0 -90 34q-37 34 -37 86zM706 -252q78 -6 107 -6 q78 0 112 35q31 31 54 139l20 111l141 780h-182l39 203h178q25 195 141 311q127 127 334 127q127 0 330 -84l-168 -184q-123 53 -209 53q-78 0 -129 -70q-45 -57 -57 -153h375l-37 -203h-371l-145 -795q-47 -258 -105 -331q-82 -113 -342 -154zM-164 -252q78 -6 107 -6 q78 0 112 35q31 31 54 139l20 111l141 780h-182l39 203h178q25 195 141 311q127 127 334 127q127 0 330 -84l-168 -184q-123 53 -209 53q-78 0 -129 -70q-45 -57 -57 -153h375l-37 -203h-371l-145 -795q-47 -258 -105 -331q-82 -113 -342 -154z" />
<glyph unicode="&#xfb04;" horiz-adv-x="2304" d="M1833 213l215 1257l260 21l-217 -1262q0 -45 64 -47h135l-156 -196h-4q-297 0 -297 227zM706 -252q78 -6 107 -6q78 0 112 35q31 31 54 139l20 111l141 780h-182l39 203h178q25 195 141 311q127 127 334 127q127 0 330 -84l-168 -184q-123 53 -209 53q-78 0 -129 -70 q-45 -57 -57 -153h375l-37 -203h-371l-145 -795q-47 -258 -105 -331q-82 -113 -342 -154zM-164 -252q78 -6 107 -6q78 0 112 35q31 31 54 139l20 111l141 780h-182l39 203h178q25 195 141 311q127 127 334 127q127 0 330 -84l-168 -184q-123 53 -209 53q-78 0 -129 -70 q-45 -57 -57 -153h375l-37 -203h-371l-145 -795q-47 -258 -105 -331q-82 -113 -342 -154z" />
</font>
</defs>
</svg>
