<?xml version="1.0" standalone="no"?>
<!DOCTYPE svg PUBLIC "-//W3C//DTD SVG 1.1//EN" "http://www.w3.org/Graphics/SVG/1.1/DTD/svg11.dtd" >
<svg xmlns="http://www.w3.org/2000/svg">
<metadata>
This is a custom SVG webfont generated by Font Squirrel.
Copyright   :  2000 Daniel Midgley fontormaccom
</metadata>
<defs>
<font id="webfontFDlBbZWs" horiz-adv-x="1355" >
<font-face units-per-em="2048" ascent="1638" descent="-410" />
<missing-glyph horiz-adv-x="552" />
<glyph unicode=" "  horiz-adv-x="552" />
<glyph unicode="&#x09;" horiz-adv-x="552" />
<glyph unicode="&#xa0;" horiz-adv-x="552" />
<glyph unicode="!" horiz-adv-x="673" d="M33 139q0 83 73 148q76 66 164 65q74 0 125 -43q51 -45 51 -110q0 -80 -75.5 -147.5t-163.5 -67.5q-78 0 -125 45q-49 42 -49 110zM133 422l49 375l111 633l340 26l-115 -659l-80 -348z" />
<glyph unicode="&#x22;" horiz-adv-x="714" d="M35 1296q0 244 182 248h8q49 0 88 -24q41 -29 41 -78q0 -31 -28 -88l-129 -246l-152 2q0 14 -6 82q-4 81 -4 104zM383 1296q0 244 182 248h8q49 0 89 -24q41 -29 40 -78q0 -31 -28 -88l-129 -246l-152 2q0 4 -1 14.5t-2 30t-1 35.5q-6 63 -6 106z" />
<glyph unicode="#" horiz-adv-x="1263" d="M74 248l45 252h172l26 149h-172l45 252h172l46 262l270 25l-49 -287h121l49 287l262 -25l-45 -262h172l-45 -252h-172l-27 -149h172l-45 -252h-172l-43 -250l-270 -25l47 275h-121l-47 -275l-262 25l43 250h-172zM557 500h121l27 149h-121z" />
<glyph unicode="$" horiz-adv-x="1110" d="M-6 127l156 209q109 -61 235 -78l31 172q-145 12 -226 92q-70 74 -69 158q0 18 2 29q8 111 119 215q113 111 286 149l23 123h266l-22 -123q176 -33 247 -110l-143 -205q-10 4 -34.5 12l-55.5 18.5l-61 20.5l-23 -131q141 -16 215 -84q70 -63 70 -168q0 -49 -15 -92 q-61 -213 -385 -303l-14 -82h-266l10 55q-104 10 -205 45q-102 33 -141 78zM406 741q0 -33 55 -51l18 101q-29 -8 -43 -11q-27 -10 -28 -26q-2 -5 -2 -13zM664 326l36 12q27 8 31 29v4q0 31 -51 51z" />
<glyph unicode="%" horiz-adv-x="1652" d="M125 817q0 68 33 127q109 201 336 201q125 0 206 -78q70 -68 70 -166q0 -18 -2 -31q-16 -129 -125 -219q-111 -92 -246 -96h-4q-113 0 -188 76q-80 77 -80 186zM205 92l1026 1059l207 -123l-1063 -1096zM385 842q0 -55 47 -56h4q29 4 49.5 27t20.5 53q0 57 -49 58h-4 q-31 -4 -50 -27q-18 -24 -18 -55zM893 231q0 70 33 134q49 98 139 157q86 59 201 60q129 0 207 -84q66 -72 65 -170q0 -25 -2 -37q-16 -129 -125 -228q-109 -96 -248 -100h-4q-117 0 -190 78q-76 77 -76 190zM1155 272q0 -76 43 -75h4q63 4 72 84v16q0 23 -10 43 q-12 20 -37 20h-4q-68 -4 -68 -88z" />
<glyph unicode="&#x26;" horiz-adv-x="1525" d="M18 344q0 29 7 64q20 119 127 221q68 66 213 153q-100 143 -101 260q0 47 15 78q61 152 184 236q106 76 235 76q147 0 238 -91q88 -86 88 -219q0 -25 -2 -39q-10 -137 -236 -311l177 -217l225 184l170 -188l-238 -189l236 -245l-252 -203l-205 250q-230 -190 -448 -191 h-21q-182 10 -297 114.5t-115 256.5zM322 403q0 -74 40 -120q43 -51 138 -56h4q82 0 225 133l-188 234q-215 -113 -219 -178v-13zM537 1061q0 -37 73 -103q131 68 135 109v12q0 35 -22 68q-27 31 -64 31h-4q-43 -4 -80 -35q-38 -35 -38 -82z" />
<glyph unicode="'" horiz-adv-x="370" d="M43 1376v4q0 78 57 123q53 41 123 41q68 0 109 -37q27 -27 26 -61q0 -23 -10 -49q0 -4 -20 -43l-127 -246l-152 2z" />
<glyph unicode="(" horiz-adv-x="821" d="M43 201q0 127 29 299q55 311 188 544q143 246 428 506l289 -127q-283 -260 -404 -460q-119 -197 -163 -463q-25 -141 -25 -250q0 -164 59 -318q61 -156 193 -342l-322 -143q-272 383 -272 754z" />
<glyph unicode=")" horiz-adv-x="821" d="M-135 -410q268 252 389 455q114 190 160 455q25 138 24 245q0 169 -61 326q-61 154 -203 352l332 127q150 -209 211 -381q63 -172 63 -372q0 -129 -28 -297q-55 -313 -190.5 -547t-426.5 -506z" />
<glyph unicode="*" horiz-adv-x="964" d="M63 1190l173 49l-154 49l190 221l119 -104l-4 135h303l-49 -133l150 102l110 -221l-164 -49l148 -51l-191 -219l-112 102l2 -145h-303l51 145l-156 -102z" />
<glyph unicode="+" horiz-adv-x="1032" d="M113 311l41 238h235l37 188h291l-33 -188h238l-41 -238l-238 2l-31 -190h-297l33 188h-235z" />
<glyph unicode="," horiz-adv-x="552" d="M41 -219l127 352q55 152 194 152q61 0 103 -41q33 -35 33 -88q0 -20 -2 -31q-12 -51 -76 -123l-248 -274z" />
<glyph unicode="-" horiz-adv-x="843" d="M111 403l45 267h577l-45 -267h-577z" />
<glyph unicode="." horiz-adv-x="509" d="M70 135q0 80 67 148q66 66 150 65q65 0 110 -43q43 -43 43 -106q0 -80 -67.5 -147.5t-151.5 -67.5q-70 0 -108 43q-43 42 -43 108z" />
<glyph unicode="/" horiz-adv-x="1116" d="M-158 -227l1143 1781l293 -108l-1149 -1794z" />
<glyph unicode="0" horiz-adv-x="1482" d="M63 481q0 51 9 92q43 246 270 418q225 170 504 170q249 0 411 -141t162 -354q0 -49 -8 -93q-43 -246 -268 -415q-227 -172 -506 -172q-248 0 -410 141q-164 141 -164 354zM403 524q0 -106 80 -180t205 -74q152 0 273 111q119 109 118 240q0 109 -79.5 182.5t-204.5 73.5 q-150 0 -271 -109q-121 -111 -121 -244z" />
<glyph unicode="1" horiz-adv-x="768" d="M143 983l318 164h274l-200 -1147h-336l139 791l-90 -50z" />
<glyph unicode="2" horiz-adv-x="1202" d="M20 0l43 236l302 192q172 113 290 207q120 95 123 166v4q0 43 -43 74q-43 27 -86 26h-18q-154 -16 -363 -102l-71 262q295 109 483 109q219 0 324 -74q96 -72 108 -228v-24q0 -274 -461 -574h385l-49 -274h-967z" />
<glyph unicode="3" horiz-adv-x="1161" d="M27 92l139 252q170 -94 315 -94q29 0 43 2q166 14 166 121q0 41 -28 76q-31 31 -84 30h-338l43 236q190 -6 266 -6q39 0 45 2q135 25 135 127v12q-4 53 -102 53q-156 0 -359 -76l-63 242q344 104 481 105q162 0 264 -82q113 -86 113 -230q0 -151 -111 -258 q63 -66 64 -180q0 -47 -12 -96q-37 -147 -181 -242q-131 -84 -297 -100q-12 -2 -37 -2q-161 -1 -462 108z" />
<glyph unicode="4" horiz-adv-x="1157" d="M-27 254l41 227l764 666h291l-108 -619h159l-49 -274h-160l-43 -254l-336 2l43 252h-602zM399 528h226l41 228z" />
<glyph unicode="5" horiz-adv-x="1110" d="M31 100l149 265q233 -115 328 -115h16q82 8 140 53q47 41 47 94q0 72 -88 111q-4 2 -15 2q-57 0 -299 -51l-155 129l151 559h766l-16 -275h-500l-33 -110q92 10 142 10q37 0 53 -2q152 -18 241 -111q82 -84 82 -206q0 -154 -122 -281q-143 -143 -381 -188q-29 -6 -64 -7 q-172 0 -442 123z" />
<glyph unicode="6" horiz-adv-x="1193" d="M23 358q0 43 12 84q74 268 336 498q143 129 266 211q162 104 377 190l149 -227q-358 -152 -516 -272q195 -4 318 -105q123 -102 122 -254q0 -18 -2 -28q-14 -193 -202 -334q-182 -133 -396 -135h-12q-178 0 -311 106q-141 110 -141 266zM348 397q0 -61 55 -98 q51 -35 117 -35h12q84 4 154 58q68 51 68 122q0 59 -49 95q-49 33 -121 36h-13q-77 0 -147 -49q-76 -55 -76 -129z" />
<glyph unicode="7" horiz-adv-x="1110" d="M-25 -61q283 473 703 931h-504l78 277h878l-12 -223q-203 -197 -450 -506q-258 -326 -430 -596z" />
<glyph unicode="8" horiz-adv-x="1157" d="M25 281q0 31 6 61q33 172 194 274q-70 74 -69 175q0 31 2 45q20 160 200 258q150 80 318 80h8q156 -4 262 -68q129 -77 129 -209q0 -166 -137 -276q113 -82 113 -226q0 -20 -4 -57q-27 -166 -211 -268q-154 -86 -342 -90h-9q-172 0 -305 69q-155 85 -155 232zM324 322 q0 -58 55 -86q49 -25 131 -25q88 4 161.5 47t73.5 111q0 59 -57 92q-53 29 -127 28q-86 0 -155 -40q-80 -51 -82 -119v-8zM467 811q0 -72 121 -82h16q51 0 101 25q61 31 67 86v8q0 43 -43 67q-33 18 -88 19h-12q-145 -6 -160 -107q-2 -6 -2 -16z" />
<glyph unicode="9" horiz-adv-x="1193" d="M41 61q360 137 510 256q-194 0 -320 105q-123 100 -125 254q0 18 3 29q16 197 202 333q180 131 396 138h12q180 0 313 -107q139 -115 139 -268q0 -43 -12 -84q-76 -285 -336 -510q-151 -132 -264 -203q-145 -92 -366 -174zM426 715q0 -55 49 -90q51 -39 133 -41h17 q70 0 139 32q80 41 94 115q2 10 2 29q0 66 -59 102q-59 35 -133 35h-9q-84 -4 -147 -43q-76 -47 -84 -117q-2 -8 -2 -22z" />
<glyph unicode=":" horiz-adv-x="468" d="M4 135q0 80 68 148q66 66 149 65q65 0 111 -43q43 -43 43 -106q0 -83 -68 -148q-68 -68 -151 -67q-70 0 -109 43q-43 42 -43 108zM94 647q0 80 68 148q66 66 149 65q65 0 111 -43q43 -43 43 -106q0 -83 -68 -148q-68 -68 -151 -67q-66 0 -109 42.5t-43 108.5z" />
<glyph unicode=";" horiz-adv-x="538" d="M-37 -233l131 370q31 82 94 127q59 41 125 41q71 0 117 -49q35 -39 35 -92q0 -10 -4 -39q-8 -49 -82 -135l-260 -287zM186 627q0 80 68 147q66 66 147 66q66 0 113 -43q43 -43 43 -107q0 -83 -68 -147q-68 -68 -151 -68q-66 0 -109 43t-43 109z" />
<glyph unicode="&#x3c;" horiz-adv-x="1112" d="M117 410l35 200l772 277l82 -223l-435 -158l381 -166l-164 -219z" />
<glyph unicode="=" horiz-adv-x="1009" d="M86 125l39 227h743l-39 -227h-743zM141 436l39 226h744l-39 -226h-744z" />
<glyph unicode="&#x3e;" horiz-adv-x="1112" d="M109 344l434 158l-381 166l162 221l673 -291l-34 -201l-773 -276z" />
<glyph unicode="?" horiz-adv-x="1136" d="M197 1319q344 145 510 145q20 0 30 -2q170 -16 285 -100q129 -96 129 -238q0 -16 -4 -53q-34 -206 -283 -362l-110 -66q-84 -53 -92 -70q-12 -25 -31 -90l-6 -34l-342 -37l14 75q25 143 127 244q63 59 231 166q154 94 154 174q0 39 -39 72q-40 31 -104 37q-10 2 -29 2 q-154 0 -395 -140zM205 139q0 83 74 148q76 66 163 65q74 0 125 -43q51 -45 51 -110q0 -80 -75 -148q-77 -68 -166 -67q-76 0 -123 45q-49 42 -49 110z" />
<glyph unicode="@" horiz-adv-x="1341" d="M66 438q0 80 28 172q70 199 279 324q186 109 407 119h47q180 0 306 -56q184 -80 190 -256v-10q0 -190 -221 -371q-141 -113 -344 -112q-47 0 -109 6q-51 -10 -78 -10q-18 0 -26 2q-74 8 -133 71q-63 63 -64 148q0 80 82 174q74 86 160 125q53 25 174 24q125 0 256 -22 q-45 -170 -88 -297q61 16 125 76q63 57 76 112q6 23 6 39q0 94 -123 144q-74 29 -234 51q-33 4 -51 4q-184 0 -332 -135q-150 -137 -149 -289q0 -90 57 -166q61 -86 174 -133q43 -20 125 -20q193 0 471 110l-88 -164q-272 -102 -475 -102q-86 0 -147 22q-139 55 -222 168 q-79 111 -79 252zM604 479q0 -33 53 -33q14 0 25 3l45 145q-47 -4 -80 -33q-43 -41 -43 -82z" />
<glyph unicode="A" horiz-adv-x="1587" d="M-29 27l828 1407h319l336 -1407l-340 -50l-92 394h-500l-229 -394zM680 643h278l-79 340z" />
<glyph unicode="B" horiz-adv-x="1376" d="M39 4l252 1421q233 29 424 29q229 0 391 -59q223 -82 223 -258q0 -90 -59 -191q-61 -102 -150 -166q170 -117 170 -305q0 -31 -6 -61q-41 -238 -313 -348q-206 -86 -473 -86q-213 -1 -459 24zM422 264q74 -8 156 -8q113 0 217 37q139 49 157 145q2 10 2 29 q0 154 -329 154q-71 0 -142 -7zM532 895q20 -2 62 -2q117 0 219 22q154 33 170 117q2 8 2 23q0 74 -98 98q-10 2 -185 23q-47 0 -120 -2z" />
<glyph unicode="C" horiz-adv-x="1423" d="M63 604q0 72 11 123q51 293 325 512q268 211 568 211q193 0 467 -94l-111 -299q-240 115 -377 114q-188 0 -346 -133q-160 -139 -190 -321q-6 -41 -7 -76q0 -160 113 -264q114 -104 283 -105q154 0 454 129l-6 -292q-336 -125 -538 -125q-276 0 -461 178 q-185 175 -185 442z" />
<glyph unicode="D" horiz-adv-x="1507" d="M6 4l252 1421q242 29 430 29q304 0 522 -135q248 -156 248 -428q0 -57 -8 -107q-66 -367 -324 -581q-260 -217 -626 -217q-185 0 -494 18zM389 266q53 -6 107 -6q522 0 608 488q10 57 10 98q0 338 -469 338q-33 0 -94 -4z" />
<glyph unicode="E" horiz-adv-x="1280" d="M6 0l254 1434h1004l-19 -279h-698l-49 -276h616l-49 -279h-616l-58 -321h739l-79 -279h-1045z" />
<glyph unicode="F" horiz-adv-x="1236" d="M6 0l254 1434h1004l-19 -279h-698l-49 -276h616l-49 -279h-616l-107 -600h-336z" />
<glyph unicode="G" horiz-adv-x="1527" d="M61 594q0 102 27 197q80 270 307 454q240 194 535 203h22q164 0 482 -84l-109 -293q-250 102 -407 103q-23 0 -33 -3q-199 -16 -342 -180q-145 -168 -146 -360q0 -156 92.5 -262.5t225.5 -106.5q119 0 221 70q102 68 145 170h-360l49 276h692q-31 -354 -254 -575 q-219 -217 -544 -217q-274 0 -445 184q-158 174 -158 424z" />
<glyph unicode="H" horiz-adv-x="1503" d="M6 0l252 1430l342 26l-102 -577h567l98 555h336l-252 -1430l-342 -27l111 623h-567l-107 -600h-336z" />
<glyph unicode="I" horiz-adv-x="600" d="M16 0l252 1430l340 26l-256 -1456h-336z" />
<glyph unicode="J" horiz-adv-x="1310" d="M-43 244l223 221q207 -195 326 -195h12q111 12 152 35q43 23 86 84q29 39 47 117l168 950l332 -26l-162 -920q-4 -10 -11.5 -37l-11.5 -41q-23 -82 -57 -137q-180 -285 -578 -303h-24q-266 0 -502 252z" />
<glyph unicode="K" horiz-adv-x="1431" d="M6 0l252 1430l340 26l-82 -471l596 467l399 -51l-852 -662l641 -706l-411 -51l-461 507l-86 -489h-336z" />
<glyph unicode="L" horiz-adv-x="1280" d="M4 0l252 1430l342 26l-209 -1177h739l-79 -279h-1045z" />
<glyph unicode="M" horiz-adv-x="1826" d="M-43 23l385 1407l324 22l202 -983l537 983l315 -20l-92 -1409l-344 -48l66 779l-402 -756h-319l-150 758l-196 -781z" />
<glyph unicode="N" horiz-adv-x="1540" d="M8 4l252 1428l365 18l422 -885l153 871h336l-252 -1432l-346 -20l-438 907l-160 -911z" />
<glyph unicode="O" horiz-adv-x="1628" d="M61 596q0 100 27 195q80 272 315 462q244 195 541 195h8q285 -4 455 -182q162 -168 162 -424q0 -319 -260 -582q-270 -274 -625 -274q-283 0 -457 184q-166 172 -166 426zM397 637q0 -158 98.5 -266.5t239.5 -108.5q186 0 340 174q154 172 154 371q0 154 -90 260 q-92 102 -242 104h-4q-193 0 -342 -165q-154 -169 -154 -369z" />
<glyph unicode="P" horiz-adv-x="1331" d="M6 0l252 1430q266 23 434 22q51 0 113 -4q514 -35 514 -356q0 -47 -8 -91q-41 -205 -228 -323q-176 -115 -413 -117q-8 0 -91 -3l-141 -5l-96 -553h-336zM487 834q114 -6 142 -7q297 0 348 183q6 14 6 32q0 92 -184 119q-80 12 -176 13q-49 0 -76 -3z" />
<glyph unicode="Q" horiz-adv-x="1669" d="M68 604q0 84 26 184q80 279 324 467q250 193 553 193h8q287 -4 465 -176q174 -168 174 -422q0 -59 -8 -109q-55 -332 -301 -485l143 -162l-303 -170l-113 131q-156 -74 -327 -73q-279 0 -463 186q-178 178 -178 436zM403 639q0 -160 107 -268q104 -113 252 -113 q47 0 90 14l-221 260l311 156l180 -213q154 119 154 334q0 154 -98 258q-98 100 -256 104q-199 0 -359 -165.5t-160 -366.5z" />
<glyph unicode="R" horiz-adv-x="1449" d="M6 0l254 1430q266 23 434 22q51 0 113 -4q514 -35 514 -354q0 -49 -8 -93q-53 -258 -324 -374l268 -598l-372 -52l-246 582q-41 0 -199 -6l-98 -553h-336zM489 834q113 -6 144 -7q295 0 346 183q6 14 6 32q0 92 -186 119q-78 12 -174 13q-49 0 -76 -3z" />
<glyph unicode="S" horiz-adv-x="1329" d="M-27 156l217 258q45 -45 162 -95q119 -51 205 -53h25q123 0 213 62q88 63 88 143q0 63 -62 100q-63 35 -166 35h-32h-37q-178 0 -293 90q-127 102 -127 265q0 35 10 86q40 187 264 301q182 96 365 98h26q125 0 248 -33q152 -39 209 -100l-176 -238q-221 92 -338 92h-14 q-102 -2 -180 -61q-80 -57 -80 -119q0 -104 227 -104h27h22q203 0 322 -105q119 -100 119 -270q0 -66 -23 -137q-104 -338 -688 -385q-14 -2 -43 -2q-127 0 -273 51q-156 55 -217 121z" />
<glyph unicode="T" horiz-adv-x="1382" d="M150 1155l79 279h1180l-18 -279h-453l-205 -1155h-336l205 1155h-452z" />
<glyph unicode="U" horiz-adv-x="1548" d="M96 440q0 78 15 158l147 832l340 26l-149 -850q-4 -35 -9 -108q-2 -14 -2 -41q0 -41 8 -66q33 -129 224 -129q141 0 254 82q125 92 135 244l147 846h336l-147 -844q-53 -283 -260 -449q-203 -156 -467 -155h-33q-539 22 -539 454z" />
<glyph unicode="V" horiz-adv-x="1558" d="M150 1407l350 49l233 -989l582 989l332 -49l-832 -1407h-328z" />
<glyph unicode="W" horiz-adv-x="2072" d="M129 1409l354 49l103 -932l415 891h314l100 -891l430 932l338 -49l-708 -1409h-308l-102 893l-416 -893h-309z" />
<glyph unicode="X" horiz-adv-x="1417" d="M-100 29l622 712l-344 664l383 51l203 -438l358 438l363 -51l-580 -664l373 -712l-385 -52l-227 490l-402 -490z" />
<glyph unicode="Y" horiz-adv-x="1411" d="M129 1405l387 49l225 -543l418 543l365 -49l-670 -805l-106 -600h-336l106 600z" />
<glyph unicode="Z" horiz-adv-x="1388" d="M-39 0l14 227l932 928h-743l72 279h1155l-7 -217l-942 -938h807l-80 -279h-1208z" />
<glyph unicode="[" horiz-adv-x="583" d="M-100 -530l364 2064h522l-51 -287h-186l-262 -1493h186l-51 -284h-522z" />
<glyph unicode="\" horiz-adv-x="1116" d="M139 1446l330 108l512 -1781l-328 -121z" />
<glyph unicode="]" horiz-adv-x="665" d="M-172 -530l51 284h187l262 1493h-187l52 287h522l-365 -2064h-522z" />
<glyph unicode="^" horiz-adv-x="966" d="M63 1276l363 227h184l277 -227l-185 -133l-221 157l-280 -157z" />
<glyph unicode="_" horiz-adv-x="1675" d="M55 -184l33 184h1534l-33 -184h-1534z" />
<glyph unicode="`" horiz-adv-x="718" d="M57 1335l271 156l325 -295l-223 -109z" />
<glyph unicode="a" d="M57 385q0 250 168 436q184 209 471 211h9q199 0 477 -133l-133 -635v-6q0 -18 22 -22h213l-217 -250h-12q-176 0 -260 59q-174 -59 -289 -59q-209 0 -330 108q-119 107 -119 291zM393 397q0 -147 131 -147q83 0 191 31l96 462q-63 16 -170 17q-92 0 -168 -117 q-80 -117 -80 -246z" />
<glyph unicode="b" horiz-adv-x="1290" d="M70 129l258 1339l344 27l-97 -491q104 29 181 28q218 0 344 -104q125 -106 125 -295q0 -266 -156 -447q-176 -201 -483 -200q-231 0 -516 143zM438 297q115 -35 195 -35q125 0 190 103q63 94 64 243q0 133 -146 133q-96 0 -225 -41z" />
<glyph unicode="c" horiz-adv-x="1161" d="M74 432q0 238 207 420q201 180 481 180q98 0 225 -37l215 -73l-194 -250q-150 94 -301 94q-111 0 -203 -104q-94 -102 -94 -220q0 -86 49 -137q47 -53 125 -53q127 0 348 82l92 -246q-304 -104 -461 -104q-209 0 -354 139q-135 131 -135 309z" />
<glyph unicode="d" horiz-adv-x="1277" d="M55 391q0 264 154 443q176 199 483 198q88 0 197 -39l100 500l334 -27l-264 -1349q-322 -133 -543 -133q-209 0 -334 110q-127 111 -127 297zM389 399q0 -137 131 -137q92 0 236 35l78 416q-96 31 -183 30q-125 0 -192 -96q-70 -96 -70 -248z" />
<glyph unicode="e" horiz-adv-x="1177" d="M78 424q0 244 194.5 426t440.5 182q154 0 280 -102q137 -106 137 -258q0 -205 -284 -271q-129 -29 -447 -36q18 -74 97 -103q49 -18 147 -18q145 0 258 78l84 -216q-174 -121 -450 -120q-194 0 -326 123q-131 118 -131 315zM446 604q111 0 193 6q186 12 186 41 q0 119 -143 119q-82 0 -147 -45q-77 -49 -89 -121z" />
<glyph unicode="f" horiz-adv-x="1017" d="M-205 -180q106 -8 156 -8q94 0 125 45q23 35 53 194l133 690h-180l51 271h178q29 205 154 317q133 121 348 121h8q139 0 398 -104l-226 -238q-145 61 -225 61q-117 0 -133 -157h377l-51 -271h-373l-139 -716q-49 -240 -121 -326q-113 -131 -410 -176z" />
<glyph unicode="g" horiz-adv-x="1259" d="M16 -354l185 241q180 -80 286 -80q96 0 146 37q47 33 76 117q-84 -20 -166 -20q-209 0 -340 112q-129 115 -129 303q0 266 159 457q182 219 482 219q188 0 516 -164l-166 -854q-39 -211 -170 -338q-150 -150 -389 -149q-197 0 -490 119zM410 371q0 -154 151 -154 q98 0 211 33l90 457q-121 35 -203 34q-109 0 -180 -112q-69 -117 -69 -258z" />
<glyph unicode="h" horiz-adv-x="1433" d="M37 -2l287 1470l344 27l-99 -504q129 41 217 41q135 0 263 -74q152 -90 151 -229q0 -150 -72 -465q-2 -2 -2 -8q0 -18 25 -20h211l-211 -250q-160 0 -262 53q-113 57 -113 164q0 23 6 47l54 209q27 123 26 211q0 86 -129 86q-77 0 -221 -62l-137 -696h-338z" />
<glyph unicode="i" horiz-adv-x="739" d="M92 242l148 757l344 25l-148 -760v-6q0 -18 23 -22h205l-209 -250h-4q-359 0 -359 256zM293 1352q0 70 63 131q61 55 142 55h4q74 -2 121 -45q47 -47 47 -109q0 -72 -62 -127q-63 -53 -143 -57h-8q-68 0 -115 43q-49 48 -49 109z" />
<glyph unicode="j" horiz-adv-x="792" d="M-444 -391l141 248q53 -20 184 -58q37 -4 49 -4q78 0 121 51q27 35 64 125q14 35 35 138l167 888l345 27l-179 -940q-4 -29 -47 -162q-74 -195 -196 -291q-137 -102 -344 -102h-17q-90 4 -323 80zM369 1348q0 72 63 133q59 57 141 57h5q78 -4 120 -47q47 -47 47 -109 q0 -72 -61 -131q-61 -55 -143 -59h-4q-74 0 -119 45q-49 46 -49 111z" />
<glyph unicode="k" horiz-adv-x="1177" d="M23 -2l286 1470l344 27l-139 -719l360 248l355 -92l-629 -404l506 -489l-348 -78l-332 367l-66 -330h-337z" />
<glyph unicode="l" horiz-adv-x="733" d="M92 242q0 -256 359 -256h4l209 250h-205q-23 4 -23 22v6l221 1231l-344 -27z" />
<glyph unicode="m" horiz-adv-x="2091" d="M37 -2l205 1006l344 24l-19 -65l101 43q66 27 96 26q178 0 305 -104q206 104 375 104q135 0 264 -69q152 -86 152 -222q0 -98 -29 -241l-49 -236v-6q0 -18 22 -22h217l-217 -250q-147 0 -245 43q-127 55 -127 172q0 72 47 243q45 166 45 256q0 35 -23 54q-23 14 -94 14 q-78 0 -223 -78q-10 -158 -54 -348l-77 -344h-344l84 346q53 223 53 346q0 78 -121 78q-78 0 -207 -63l-143 -707h-338z" />
<glyph unicode="n" horiz-adv-x="1409" d="M37 -2l205 1006l344 24l-17 -65l105 43q70 27 106 26q138 0 258 -74q141 -86 142 -217q0 -115 -27 -239l-53 -238q-2 -2 -2 -8q0 -18 24 -20h217l-217 -250q-162 0 -264 51q-111 57 -110 160q0 12 4 41l57 225q33 131 33 227q0 76 -117 76q-74 0 -207 -61l-143 -707h-338 z" />
<glyph unicode="o" horiz-adv-x="1275" d="M74 428q0 229 198 418q195 186 467 186q213 0 342 -135q121 -125 121 -301q0 -227 -190 -416q-199 -195 -467 -194q-215 0 -346 137q-125 125 -125 305zM412 446q0 -84 47 -137q45 -55 114 -55q104 0 199 106q92 104 92 215q0 86 -45 138q-47 53 -112 53 q-109 0 -201 -102q-94 -103 -94 -218z" />
<glyph unicode="p" horiz-adv-x="1320" d="M23 -477l196 1018l-88 -60l-45 234q133 98 193 131l47 241l344 25l-23 -113q104 33 189 33q199 0 325 -96q137 -104 137 -293q0 -268 -165 -471q-190 -229 -496 -229q-90 0 -188 28l-82 -422zM502 248q88 -25 170 -25q127 0 211 121q78 115 78 270q0 57 -35 92t-90 35 q-98 0 -246 -41z" />
<glyph unicode="q" horiz-adv-x="1370" d="M115 383q0 285 172 469q172 182 454 182q194 0 523 -166l-203 -1046l22 -31h217l-221 -260h-12q-141 0 -229 49q-119 63 -119 201q0 90 26 180q-82 -20 -167 -20q-203 0 -334 120q-129 119 -129 322zM451 393q0 -86 28 -127q33 -45 117 -45q98 0 211 33l88 455 q-117 35 -205 34q-123 0 -188 -118q-51 -95 -51 -232z" />
<glyph unicode="r" horiz-adv-x="1052" d="M61 0l179 1001l340 25l-13 -63l103 45q74 27 121 26q74 0 147 -33l137 -65l-170 -236q-190 68 -250 68q-55 0 -131 -53l-127 -715h-336z" />
<glyph unicode="s" horiz-adv-x="1095" d="M-29 104l183 213q150 -78 245 -77q72 0 158 26q106 33 106.5 92.5t-57.5 59.5q-22 0 -67 -12q-47 -12 -72 -13q-141 0 -229 58q-109 68 -109 198q0 174 184 285q158 98 342 98q94 0 209 -35q117 -39 187 -100l-156 -190q-181 74 -270 73q-37 0 -103 -32q-68 -37 -67 -72 q0 -47 63 -47q16 0 64 10q35 8 63 8q137 0 227 -47q115 -61 115 -188q0 -209 -199 -328q-162 -98 -389 -98q-180 -1 -428 118z" />
<glyph unicode="t" horiz-adv-x="917" d="M80 752l47 260h192l41 235l336 51l-49 -286h248l-47 -260h-248q-51 -223 -55 -242q-31 -138 -31 -246q47 6 168 78l102 -262q-190 -94 -297 -94q-102 0 -188 43q-117 57 -119 170v16q0 113 29 262l61 275h-190z" />
<glyph unicode="u" d="M57 274q0 152 49 367l89 360l348 23l-86 -346q-53 -207 -54 -346q0 -96 109 -96q68 0 203 53l147 723h340l-153 -748v-6q0 -18 22 -22h213l-219 -250h-12q-184 0 -267 63q-199 -63 -311 -63q-139 0 -266 67q-152 84 -152 221z" />
<glyph unicode="v" horiz-adv-x="1255" d="M76 981l348 47l129 -590l367 588l348 -49l-627 -977h-338z" />
<glyph unicode="w" horiz-adv-x="1638" d="M129 981l330 45l41 -553l260 539h291l45 -539l262 551l321 -45l-532 -979h-291l-49 498l-250 -498h-289z" />
<glyph unicode="x" horiz-adv-x="1275" d="M-31 33l484 489l-263 455l353 49l147 -274l256 272l361 -53l-461 -469l274 -475l-354 -50l-158 295l-276 -292z" />
<glyph unicode="y" horiz-adv-x="1224" d="M-4 -209q145 0 186 14q43 12 76 70q0 2 96 162l-243 942l352 49l125 -608l348 606l330 -53l-715 -1202q-84 -141 -168 -189q-78 -43 -266 -53z" />
<glyph unicode="z" horiz-adv-x="1128" d="M16 221l594 524h-452l55 265h864l8 -215l-593 -531h518l-84 -264h-903z" />
<glyph unicode="{" horiz-adv-x="970" d="M109 362l49 275q162 53 196 96q33 39 52 191q33 248 57 313q61 166 233 244q123 53 447 53l-131 -309q-119 25 -133 24q-25 0 -39 -10q-71 -61 -92 -190l-37 -240q-37 -152 -138 -252q-10 -10 -63 -59q98 -120 98 -246q0 -47 -51 -291q-10 -57 -10 -88q0 -63 35 -109 q10 -10 32 -10q12 0 144 25l20 -309q-324 0 -426 53q-147 77 -147 252q0 72 51 301q25 109 25 143q0 51 -37 82q-34 24 -135 61z" />
<glyph unicode="|" horiz-adv-x="571" d="M-2 0l270 1534h307l-270 -1534h-307z" />
<glyph unicode="}" horiz-adv-x="970" d="M-172 -530l133 309q121 -25 133 -25q23 0 37 10q72 63 94 201q37 240 41 254q51 162 195 279q-92 123 -92 266q0 57 45 264q10 57 10 92q0 72 -35 119q-10 10 -35 10q-10 0 -139 -22l-22 307q324 0 425 -53q147 -76 148 -254q0 -66 -53 -303q-25 -109 -25 -144 q0 -51 39 -82q34 -25 135 -61l-49 -275q-80 -25 -119 -43q-76 -33 -92 -69q-29 -72 -43 -187q-16 -147 -22 -186q-49 -258 -263 -354q-118 -53 -446 -53z" />
<glyph unicode="~" horiz-adv-x="872" d="M29 498l51 286q27 43 94 76q70 35 127 35q70 0 164 -66q90 -66 160 -65q74 0 225 131l-47 -274q-147 -123 -225 -123q-74 0 -164 65q-90 63 -158 64h-4q-58 0 -123 -37q-71 -41 -100 -92z" />
<glyph unicode="&#xa1;" horiz-adv-x="632" d="M18 -449l119 664l84 381l305 27l-55 -410l-111 -635zM207 815q0 84 76 148q78 66 166 65q74 0 122 -43q49 -46 50 -111q0 -84 -74 -147q-74 -68 -164 -68q-74 0 -125 46q-51 42 -51 110z" />
<glyph unicode="&#xa2;" horiz-adv-x="1187" d="M82 483q0 170 129 318q139 156 367 213l22 133h307l-20 -125q109 -23 241 -84l-98 -260q-115 61 -190 84l-70 -402q82 23 262 123v-266l-102 -47q-115 -49 -207 -70l-16 -100h-308l19 106q-164 39 -254 148q-82 96 -82 229zM391 537q0 -80 78 -136l57 326 q-135 -79 -135 -190z" />
<glyph unicode="&#xa3;" horiz-adv-x="1150" d="M-8 0l49 279l39 -5q18 -2 51 -2q68 0 88 27l19 115h-175l50 270h174l12 74q27 150 152 256q123 104 294 127q10 2 31 2q129 0 357 -117l-154 -250q-152 96 -207 96h-8q-115 -23 -129 -118l-12 -70h358l-49 -270h-359l-20 -127l-4 -15h457l-48 -272h-966z" />
<glyph unicode="&#xa5;" horiz-adv-x="1306" d="M166 1106l326 35l194 -371l328 371l315 -35l-459 -506h181l-43 -240h-234l-8 -43h233l-41 -239h-233l-14 -78h-316l15 78h-236l41 239h236l8 43h-236l43 240h183z" />
<glyph unicode="&#xa7;" horiz-adv-x="1011" d="M10 125l166 231q39 -33 109 -65q78 -39 121 -39h40q49 0 70 4q37 10 39 41v4q0 14 -10 14l-4 -1q-4 -1 -12.5 -2t-16.5 -1q-6 0 -17.5 -2t-20.5 -3t-17 -1h-33q-117 0 -199 53q-90 61 -90 179q0 33 6 65q16 70 76 129q-27 47 -27 113q0 33 7 69q25 121 178 205 q133 72 260 74h8q106 0 344 -100l-147 -211q-96 51 -213 51h-33q-84 -4 -90 -29v-6q0 -12 12 -14q6 -2 49 -2h47h25q295 0 295 -203q0 -123 -72 -207q20 -35 21 -88q0 -45 -19 -113q-45 -154 -213 -229q-123 -57 -276 -57h-21q-109 2 -342 141zM444 567q0 -12 17 -14h12 q8 0 86 4q43 3 49 37v6q0 9 -6 12h-8q-8 2 -21 0q-37 -4 -59 -6q-59 -4 -68 -33q-2 -2 -2 -6z" />
<glyph unicode="&#xa8;" horiz-adv-x="845" d="M39 1214q0 68 55 125q55 55 125 56q61 0 98 -45q29 -35 29 -80q0 -16 -2 -27q-8 -61 -63 -106q-53 -45 -115 -45q-55 0 -90 34q-37 33 -37 88zM500 1214q0 68 57 125q53 55 121 56h4q57 -4 90 -37q35 -39 35 -90q0 -68 -55 -119q-53 -53 -123 -57h-4q-57 0 -88 34 q-37 33 -37 88z" />
<glyph unicode="&#xa9;" horiz-adv-x="1155" d="M63 616q0 47 9 89q37 209 213 360q174 147 385 147q182 0 305 -118q119 -119 119 -301q0 -47 -9 -88q-37 -211 -211 -359q-174 -150 -385 -149q-184 0 -305 120.5t-121 298.5zM221 643q0 -123 84 -207t213 -84q157 0 289 129q129 129 129 285q0 127 -82 209t-213 82 q-160 0 -289 -129q-131 -131 -131 -285zM315 657q0 114 86 209q84 92 205 109q6 2 19 2q59 0 170 -47l-47 -168q-92 55 -138 55q-49 0 -78 -41q-31 -43 -30 -96q0 -86 78 -86q51 0 170 74l-17 -170q-139 -61 -207 -62h-12q-92 10 -143 70q-56 61 -56 151z" />
<glyph unicode="&#xaa;" horiz-adv-x="632" d="M53 1042v11q6 137 160 200q55 25 121 25q33 0 63 -6v37q-6 20 -41 20q-45 0 -182 -53l-51 129q166 63 242 63h8q123 -6 172 -61q35 -41 35 -102q0 -27 -7 -66l-10 -57q-10 -68 -59 -303h-168l4 26l-6 -3q-6 -3 -20.5 -8t-28.5 -11q-35 -12 -54 -13h-4q-174 27 -174 172z M223 1069q0 -53 72 -53q33 0 65 8l15 96q-68 16 -86 17q-55 0 -64 -54q-2 -6 -2 -14z" />
<glyph unicode="&#xab;" horiz-adv-x="1144" d="M57 424l31 172l490 334l22 -254l-246 -170l187 -176l-115 -254zM559 424l31 172l489 334l23 -254l-246 -170l186 -176l-114 -254z" />
<glyph unicode="&#xac;" horiz-adv-x="1247" d="M106 389l41 240h1024l-69 -402h-336l29 162h-689z" />
<glyph unicode="&#xad;" horiz-adv-x="843" d="M111 403l45 267h577l-45 -267h-577z" />
<glyph unicode="&#xae;" horiz-adv-x="1155" d="M63 616q0 47 9 89q37 209 213 360q174 147 385 147q182 0 305 -118q119 -119 119 -301q0 -47 -9 -88q-37 -211 -211 -359q-174 -150 -385 -149q-184 0 -305 120.5t-121 298.5zM221 643q0 -123 84 -207t213 -84q157 0 289 129q129 129 129 285q0 127 -82 209t-213 82 q-160 0 -289 -129q-131 -131 -131 -285zM352 442l92 519q117 10 158 10h29q174 -14 174 -140q0 -104 -92 -165l73 -203l-174 -33l-65 191h-4l-33 -179h-158zM569 772h9q20 0 65 31q-10 10 -65 14z" />
<glyph unicode="&#xaf;" horiz-adv-x="739" d="M96 1104l33 184h516l-33 -184h-516z" />
<glyph unicode="&#xb0;" horiz-adv-x="708" d="M68 1155q0 104 102 195q101 86 227 86q109 0 174 -60q68 -58 68 -147q0 -109 -100 -191q-101 -86 -228 -86q-106 0 -174 60q-69 59 -69 143zM281 1178q0 -23 14 -37q18 -20 47 -21q72 4 84 72q2 6 2 16q0 22 -12 37q-18 23 -49 23q-29 0 -52 -21q-27 -25 -32 -55 q-2 -6 -2 -14z" />
<glyph unicode="&#xb1;" horiz-adv-x="1032" d="M31 -14l45 260h809l-45 -260h-809zM119 483l45 260h235l31 179h336l-31 -179h238l-47 -262l-236 2l-33 -178h-335l32 178h-235z" />
<glyph unicode="&#xb2;" horiz-adv-x="1202" d="M20 0l43 236l302 192q172 113 290 207q120 95 123 166v4q0 43 -43 74q-43 27 -86 26h-18q-154 -16 -363 -102l-71 262q295 109 483 109q219 0 324 -74q96 -72 108 -228v-24q0 -274 -461 -574h385l-49 -274h-967z" />
<glyph unicode="&#xb3;" horiz-adv-x="1161" d="M27 92l139 252q170 -94 315 -94q29 0 43 2q166 14 166 121q0 41 -28 76q-31 31 -84 30h-338l43 236q190 -6 266 -6q39 0 45 2q135 25 135 127v12q-4 53 -102 53q-156 0 -359 -76l-63 242q344 104 481 105q162 0 264 -82q113 -86 113 -230q0 -151 -111 -258 q63 -66 64 -180q0 -47 -12 -96q-37 -147 -181 -242q-131 -84 -297 -100q-12 -2 -37 -2q-161 -1 -462 108z" />
<glyph unicode="&#xb4;" horiz-adv-x="739" d="M43 1196l432 295l215 -156l-463 -248z" />
<glyph unicode="&#xb5;" horiz-adv-x="1323" d="M-4 -287l227 1286l342 27l-137 -770q102 -39 174 -39q147 0 176 160l109 629h338q-41 -211 -125 -691v-12q0 -82 188 -86l-45 -258h-33q-217 0 -331 78q-139 -82 -291 -82q-96 0 -207 33l-49 -275h-336z" />
<glyph unicode="&#xb6;" horiz-adv-x="1294" d="M127 756q0 18 4 59q59 334 535 367q61 4 114 4q197 0 463 -21l-201 -1140l-270 -25l170 965l-88 2l-170 -967l-262 25l76 432q-170 16 -267 88q-104 80 -104 211z" />
<glyph unicode="&#xb8;" horiz-adv-x="712" d="M111 -242q23 -4 53 -20q33 -20 57 -21q33 0 64 19q37 22 37 61v4q-3 31 -56 31q-20 0 -38.5 -2t-37.5 -2l68 172h236l-23 -63q135 -27 135 -101q0 -55 -71 -151q-84 -115 -299 -115q-66 0 -107 8z" />
<glyph unicode="&#xb9;" horiz-adv-x="768" d="M143 983l318 164h274l-200 -1147h-336l139 791l-90 -50z" />
<glyph unicode="&#xba;" horiz-adv-x="741" d="M68 1112q0 45 14 82q41 119 139 180q86 59 199 60q117 0 188 -68q68 -63 68 -160q0 -25 -2 -37q-16 -117 -115 -200q-104 -92 -237 -92q-111 0 -185 69q-69 70 -69 166zM272 1128q0 -35 17 -53q23 -29 61.5 -28.5t79.5 40.5q37 39 37 95q0 84 -78 88q-37 0 -72 -31 q-35 -35 -43 -84q-2 -11 -2 -27z" />
<glyph unicode="&#xbb;" horiz-adv-x="1144" d="M43 334l246 168l-187 176l115 254l369 -348l-31 -172l-489 -334zM545 334l246 168l-187 176l115 254l368 -348l-30 -172l-490 -334z" />
<glyph unicode="&#xbc;" horiz-adv-x="2387" d="M1204 254l41 227l764 666h291l-108 -619h159l-49 -274h-160l-43 -254l-336 2l43 252h-602zM1630 528h226l41 228zM569 -348l-286 121l1142 1781l293 -108zM143 983l318 164h274l-200 -1147h-336l139 791l-90 -50z" />
<glyph unicode="&#xbd;" horiz-adv-x="2433" d="M1251 0l43 236l302 192q172 113 290 207q120 95 123 166v4q0 43 -43 74q-43 27 -86 26h-18q-154 -16 -363 -102l-71 262q295 109 483 109q219 0 324 -74q96 -72 108 -228v-24q0 -274 -461 -574h385l-49 -274h-967zM569 -348l-286 121l1142 1781l293 -108zM143 983 l318 164h274l-200 -1147h-336l139 791l-90 -50z" />
<glyph unicode="&#xbe;" horiz-adv-x="2783" d="M1599 254l41 227l764 666h291l-108 -619h159l-49 -274h-160l-43 -254l-336 2l43 252h-602zM2025 528h226l41 228zM964 -348l-286 121l1142 1781l293 -108zM27 92l139 252q170 -94 315 -94q29 0 43 2q166 14 166 121q0 41 -28 76q-31 31 -84 30h-338l43 236q190 -6 266 -6 q39 0 45 2q135 25 135 127v12q-4 53 -102 53q-156 0 -359 -76l-63 242q344 104 481 105q162 0 264 -82q113 -86 113 -230q0 -151 -111 -258q63 -66 64 -180q0 -47 -12 -96q-37 -147 -181 -242q-131 -84 -297 -100q-12 -2 -37 -2q-161 -1 -462 108z" />
<glyph unicode="&#xbf;" horiz-adv-x="1136" d="M8 -88q0 20 4 53q28 157 148 264q61 53 264 170q71 43 80 56q8 8 20 77l11 56l342 35l-19 -99q-25 -150 -127 -241q-53 -51 -231 -156q-150 -86 -150 -162q0 -39 39 -71.5t105 -38.5q8 -2 26 -2q152 0 395 141l48 -279q-344 -145 -510 -145q-20 0 -31 2q-168 14 -287 100 q-127 99 -127 240zM539 817q0 82 75.5 147.5t163.5 65.5q74 0 123 -43q49 -46 49 -110q0 -80 -73.5 -147.5t-163.5 -67.5q-76 0 -123 45q-51 42 -51 110z" />
<glyph unicode="&#xc0;" horiz-adv-x="1587" d="M-29 27l828 1407h319l336 -1407l-340 -50l-92 394h-500l-229 -394zM680 643h278l-79 340zM643 1736l271 156l325 -295l-223 -109z" />
<glyph unicode="&#xc1;" horiz-adv-x="1587" d="M-29 27l828 1407h319l336 -1407l-340 -50l-92 394h-500l-229 -394zM680 643h278l-79 340zM614 1591l432 295l215 -156l-463 -248z" />
<glyph unicode="&#xc2;" horiz-adv-x="1587" d="M-29 27l828 1407h319l336 -1407l-340 -50l-92 394h-500l-229 -394zM680 643h278l-79 340zM626 1641l400 209l325 -209l-180 -158l-186 133l-234 -133z" />
<glyph unicode="&#xc3;" horiz-adv-x="1587" d="M-29 27l828 1407h319l336 -1407l-340 -50l-92 394h-500l-229 -394zM680 643h278l-79 340zM570 1470l51 287q27 43 94 76q70 35 127 34q70 0 164 -65q90 -66 160 -66q74 0 225 131l-47 -274q-147 -123 -225 -123q-74 0 -164 66q-90 63 -158 63h-4q-58 0 -123 -37 q-71 -41 -100 -92z" />
<glyph unicode="&#xc4;" horiz-adv-x="1587" d="M-29 27l828 1407h319l336 -1407l-340 -50l-92 394h-500l-229 -394zM680 643h278l-79 340zM590 1634q0 68 55 125q55 55 125 56q61 0 98 -45q29 -35 29 -80q0 -16 -2 -27q-8 -61 -63 -106q-53 -45 -115 -45q-55 0 -90 34q-37 33 -37 88zM1051 1634q0 68 57 125 q53 55 121 56h4q57 -4 90 -37q35 -39 35 -90q0 -68 -55 -119q-53 -53 -123 -57h-4q-57 0 -88 34q-37 33 -37 88z" />
<glyph unicode="&#xc5;" horiz-adv-x="1587" d="M-29 27l828 1407h319l336 -1407l-340 -50l-92 394h-500l-229 -394zM680 643h278l-79 340zM934 1357q-111 0 -178 70q-72 72 -72 174q0 129 110 236q106 106 242 106q111 0 180.5 -69.5t69.5 -174.5q0 -125 -109 -233q-112 -109 -243 -109zM999 1726q-66 0 -80 -76 q-2 -6 -2 -16q0 -22 13 -37q16 -23 43 -22q23 0 49 22q23 23 28 53q2 6 3 17q0 20 -13 39q-14 20 -41 20z" />
<glyph unicode="&#xc6;" horiz-adv-x="2269" d="M-88 33l1325 1401h1057l-17 -279h-739l-43 -235h616l-49 -279h-616l-64 -362h742l-78 -279h-1055l66 371h-436l-377 -394zM887 651h219l53 295z" />
<glyph unicode="&#xc7;" horiz-adv-x="1423" d="M63 604q0 72 11 123q51 293 325 512q268 211 568 211q193 0 467 -94l-111 -299q-240 115 -377 114q-188 0 -346 -133q-160 -139 -190 -321q-6 -41 -7 -76q0 -160 113 -264q114 -104 283 -105q154 0 454 129l-6 -292q-336 -125 -538 -125q-276 0 -461 178 q-185 175 -185 442zM459 -242q23 -4 53 -20q33 -20 57 -21q33 0 64 19q37 22 37 61v4q-3 31 -56 31q-20 0 -38.5 -2t-37.5 -2l68 172h236l-23 -63q135 -27 135 -101q0 -55 -71 -151q-84 -115 -299 -115q-66 0 -107 8z" />
<glyph unicode="&#xc8;" horiz-adv-x="1280" d="M6 0l254 1434h1004l-19 -279h-698l-49 -276h616l-49 -279h-616l-58 -321h739l-79 -279h-1045zM499 1736l271 156l325 -295l-223 -109z" />
<glyph unicode="&#xc9;" horiz-adv-x="1280" d="M6 0l254 1434h1004l-19 -279h-698l-49 -276h616l-49 -279h-616l-58 -321h739l-79 -279h-1045zM532 1591l432 295l215 -156l-463 -248z" />
<glyph unicode="&#xca;" horiz-adv-x="1280" d="M6 0l254 1434h1004l-19 -279h-698l-49 -276h616l-49 -279h-616l-58 -321h739l-79 -279h-1045zM483 1641l400 209l325 -209l-180 -158l-186 133l-234 -133z" />
<glyph unicode="&#xcb;" horiz-adv-x="1280" d="M6 0l254 1434h1004l-19 -279h-698l-49 -276h616l-49 -279h-616l-58 -321h739l-79 -279h-1045zM426 1634q0 68 55 125q55 55 125 56q61 0 98 -45q29 -35 29 -80q0 -16 -2 -27q-8 -61 -63 -106q-53 -45 -115 -45q-55 0 -90 34q-37 33 -37 88zM887 1634q0 68 57 125 q53 55 121 56h4q57 -4 90 -37q35 -39 35 -90q0 -68 -55 -119q-53 -53 -123 -57h-4q-57 0 -88 34q-37 33 -37 88z" />
<glyph unicode="&#xcc;" horiz-adv-x="600" d="M16 0l252 1430l340 26l-256 -1456h-336zM172 1736l271 156l325 -295l-223 -109z" />
<glyph unicode="&#xcd;" horiz-adv-x="600" d="M16 0l252 1430l340 26l-256 -1456h-336zM143 1591l432 295l215 -156l-463 -248z" />
<glyph unicode="&#xce;" horiz-adv-x="600" d="M16 0l252 1430l340 26l-256 -1456h-336zM94 1641l400 209l325 -209l-180 -158l-186 133l-234 -133z" />
<glyph unicode="&#xcf;" horiz-adv-x="600" d="M16 0l252 1430l340 26l-256 -1456h-336zM98 1634q0 68 55 125q55 55 125 56q61 0 98 -45q29 -35 29 -80q0 -16 -2 -27q-8 -61 -63 -106q-53 -45 -115 -45q-55 0 -90 34q-37 33 -37 88zM559 1634q0 68 57 125q53 55 121 56h4q57 -4 90 -37q35 -39 35 -90q0 -68 -55 -119 q-53 -53 -123 -57h-4q-57 0 -88 34q-37 33 -37 88z" />
<glyph unicode="&#xd1;" horiz-adv-x="1540" d="M8 4l252 1428l365 18l422 -885l153 871h336l-252 -1432l-346 -20l-438 907l-160 -911zM508 1470l51 287q27 43 94 76q70 35 127 34q70 0 164 -65q90 -66 160 -66q74 0 225 131l-47 -274q-147 -123 -225 -123q-74 0 -164 66q-90 63 -158 63h-4q-58 0 -123 -37 q-71 -41 -100 -92z" />
<glyph unicode="&#xd2;" horiz-adv-x="1628" d="M61 596q0 100 27 195q80 272 315 462q244 195 541 195h8q285 -4 455 -182q162 -168 162 -424q0 -319 -260 -582q-270 -274 -625 -274q-283 0 -457 184q-166 172 -166 426zM397 637q0 -158 98.5 -266.5t239.5 -108.5q186 0 340 174q154 172 154 371q0 154 -90 260 q-92 102 -242 104h-4q-193 0 -342 -165q-154 -169 -154 -369zM643 1736l271 156l325 -295l-223 -109z" />
<glyph unicode="&#xd3;" horiz-adv-x="1628" d="M61 596q0 100 27 195q80 272 315 462q244 195 541 195h8q285 -4 455 -182q162 -168 162 -424q0 -319 -260 -582q-270 -274 -625 -274q-283 0 -457 184q-166 172 -166 426zM397 637q0 -158 98.5 -266.5t239.5 -108.5q186 0 340 174q154 172 154 371q0 154 -90 260 q-92 102 -242 104h-4q-193 0 -342 -165q-154 -169 -154 -369zM614 1591l432 295l215 -156l-463 -248z" />
<glyph unicode="&#xd4;" horiz-adv-x="1628" d="M61 596q0 100 27 195q80 272 315 462q244 195 541 195h8q285 -4 455 -182q162 -168 162 -424q0 -319 -260 -582q-270 -274 -625 -274q-283 0 -457 184q-166 172 -166 426zM397 637q0 -158 98.5 -266.5t239.5 -108.5q186 0 340 174q154 172 154 371q0 154 -90 260 q-92 102 -242 104h-4q-193 0 -342 -165q-154 -169 -154 -369zM626 1641l400 209l325 -209l-180 -158l-186 133l-234 -133z" />
<glyph unicode="&#xd5;" horiz-adv-x="1628" d="M61 596q0 100 27 195q80 272 315 462q244 195 541 195h8q285 -4 455 -182q162 -168 162 -424q0 -319 -260 -582q-270 -274 -625 -274q-283 0 -457 184q-166 172 -166 426zM397 637q0 -158 98.5 -266.5t239.5 -108.5q186 0 340 174q154 172 154 371q0 154 -90 260 q-92 102 -242 104h-4q-193 0 -342 -165q-154 -169 -154 -369zM590 1470l51 287q27 43 94 76q70 35 127 34q70 0 164 -65q90 -66 160 -66q74 0 225 131l-47 -274q-147 -123 -225 -123q-74 0 -164 66q-90 63 -158 63h-4q-58 0 -123 -37q-71 -41 -100 -92z" />
<glyph unicode="&#xd6;" horiz-adv-x="1628" d="M61 596q0 100 27 195q80 272 315 462q244 195 541 195h8q285 -4 455 -182q162 -168 162 -424q0 -319 -260 -582q-270 -274 -625 -274q-283 0 -457 184q-166 172 -166 426zM397 637q0 -158 98.5 -266.5t239.5 -108.5q186 0 340 174q154 172 154 371q0 154 -90 260 q-92 102 -242 104h-4q-193 0 -342 -165q-154 -169 -154 -369zM590 1634q0 68 55 125q55 55 125 56q61 0 98 -45q29 -35 29 -80q0 -16 -2 -27q-8 -61 -63 -106q-53 -45 -115 -45q-55 0 -90 34q-37 33 -37 88zM1051 1634q0 68 57 125q53 55 121 56h4q57 -4 90 -37 q35 -39 35 -90q0 -68 -55 -119q-53 -53 -123 -57h-4q-57 0 -88 34q-37 33 -37 88z" />
<glyph unicode="&#xd8;" horiz-adv-x="1568" d="M-25 45l181 195q-119 186 -119 407q0 66 10 144q53 307 305 489q240 172 551 172h8q158 0 293 -80l111 121l301 -104l-203 -222q111 -200 111 -405v-17q-6 -330 -279 -552q-256 -211 -602 -211q-150 0 -274 63l-95 -104zM365 715q0 -47 18 -107l29 -92l577 623 q-55 31 -133 30h-4q-172 0 -324 -129q-163 -139 -163 -325zM590 281q41 -16 106 -17q174 0 330 133q156 135 156 310v16q-4 45 -19 86q-16 49 -18 70z" />
<glyph unicode="&#xd9;" horiz-adv-x="1548" d="M96 440q0 78 15 158l147 832l340 26l-149 -850q-4 -35 -9 -108q-2 -14 -2 -41q0 -41 8 -66q33 -129 224 -129q141 0 254 82q125 92 135 244l147 846h336l-147 -844q-53 -283 -260 -449q-203 -156 -467 -155h-33q-539 22 -539 454zM643 1736l271 156l325 -295l-223 -109z " />
<glyph unicode="&#xda;" horiz-adv-x="1548" d="M96 440q0 78 15 158l147 832l340 26l-149 -850q-4 -35 -9 -108q-2 -14 -2 -41q0 -41 8 -66q33 -129 224 -129q141 0 254 82q125 92 135 244l147 846h336l-147 -844q-53 -283 -260 -449q-203 -156 -467 -155h-33q-539 22 -539 454zM614 1591l432 295l215 -156l-463 -248z " />
<glyph unicode="&#xdb;" horiz-adv-x="1548" d="M96 440q0 78 15 158l147 832l340 26l-149 -850q-4 -35 -9 -108q-2 -14 -2 -41q0 -41 8 -66q33 -129 224 -129q141 0 254 82q125 92 135 244l147 846h336l-147 -844q-53 -283 -260 -449q-203 -156 -467 -155h-33q-539 22 -539 454zM565 1641l400 209l325 -209l-180 -158 l-186 133l-234 -133z" />
<glyph unicode="&#xdc;" horiz-adv-x="1548" d="M96 440q0 78 15 158l147 832l340 26l-149 -850q-4 -35 -9 -108q-2 -14 -2 -41q0 -41 8 -66q33 -129 224 -129q141 0 254 82q125 92 135 244l147 846h336l-147 -844q-53 -283 -260 -449q-203 -156 -467 -155h-33q-539 22 -539 454zM549 1634q0 68 55 125q55 55 125 56 q61 0 98 -45q29 -35 29 -80q0 -16 -2 -27q-8 -61 -63 -106q-53 -45 -115 -45q-55 0 -90 34q-37 33 -37 88zM1010 1634q0 68 57 125q53 55 121 56h4q57 -4 90 -37q35 -39 35 -90q0 -68 -55 -119q-53 -53 -123 -57h-4q-57 0 -88 34q-37 33 -37 88z" />
<glyph unicode="&#xdd;" horiz-adv-x="1411" d="M676 1685l432 295l215 -156l-463 -248zM129 1405l387 49l225 -543l418 543l365 -49l-670 -805l-106 -600h-336l106 600z" />
<glyph unicode="&#xdf;" horiz-adv-x="1347" d="M29 8l250 1422q274 18 446 18q68 0 94 -2q168 -8 291 -82q141 -86 141 -229v-25q-14 -186 -247 -330q203 -125 202 -311q0 -18 -4 -55q-37 -195 -192 -308q-158 -113 -418 -120h-12q-72 0 -168 24l100 283q137 -33 188 -33q156 0 170 174v8q0 127 -342 189l52 293 q123 14 188 34q125 39 137 109q2 6 2 16q0 90 -184 91q-74 0 -156 -11l-205 -1167z" />
<glyph unicode="&#xe0;" d="M57 385q0 250 168 436q184 209 471 211h9q199 0 477 -133l-133 -635v-6q0 -18 22 -22h213l-217 -250h-12q-176 0 -260 59q-174 -59 -289 -59q-209 0 -330 108q-119 107 -119 291zM393 397q0 -147 131 -147q83 0 191 31l96 462q-63 16 -170 17q-92 0 -168 -117 q-80 -117 -80 -246zM487 1335l271 156l325 -295l-223 -109z" />
<glyph unicode="&#xe1;" d="M57 385q0 250 168 436q184 209 471 211h9q199 0 477 -133l-133 -635v-6q0 -18 22 -22h213l-217 -250h-12q-176 0 -260 59q-174 -59 -289 -59q-209 0 -330 108q-119 107 -119 291zM393 397q0 -147 131 -147q83 0 191 31l96 462q-63 16 -170 17q-92 0 -168 -117 q-80 -117 -80 -246zM453 1196l432 295l215 -156l-463 -248z" />
<glyph unicode="&#xe2;" d="M57 385q0 250 168 436q184 209 471 211h9q199 0 477 -133l-133 -635v-6q0 -18 22 -22h213l-217 -250h-12q-176 0 -260 59q-174 -59 -289 -59q-209 0 -330 108q-119 107 -119 291zM393 397q0 -147 131 -147q83 0 191 31l96 462q-63 16 -170 17q-92 0 -168 -117 q-80 -117 -80 -246zM405 1270l400 209l325 -209l-180 -158l-186 133l-234 -133z" />
<glyph unicode="&#xe3;" d="M57 385q0 250 168 436q184 209 471 211h9q199 0 477 -133l-133 -635v-6q0 -18 22 -22h213l-217 -250h-12q-176 0 -260 59q-174 -59 -289 -59q-209 0 -330 108q-119 107 -119 291zM393 397q0 -147 131 -147q83 0 191 31l96 462q-63 16 -170 17q-92 0 -168 -117 q-80 -117 -80 -246zM316 1112l51 287q27 43 94 76q70 35 127 34q70 0 164 -65q90 -66 160 -66q74 0 225 131l-47 -274q-147 -123 -225 -123q-74 0 -164 66q-90 63 -158 63h-4q-58 0 -123 -37q-71 -41 -100 -92z" />
<glyph unicode="&#xe4;" d="M57 385q0 250 168 436q184 209 471 211h9q199 0 477 -133l-133 -635v-6q0 -18 22 -22h213l-217 -250h-12q-176 0 -260 59q-174 -59 -289 -59q-209 0 -330 108q-119 107 -119 291zM393 397q0 -147 131 -147q83 0 191 31l96 462q-63 16 -170 17q-92 0 -168 -117 q-80 -117 -80 -246zM367 1214q0 68 55 125q55 55 125 56q61 0 98 -45q29 -35 29 -80q0 -16 -2 -27q-8 -61 -63 -106q-53 -45 -115 -45q-55 0 -90 34q-37 33 -37 88zM828 1214q0 68 57 125q53 55 121 56h4q57 -4 90 -37q35 -39 35 -90q0 -68 -55 -119q-53 -53 -123 -57h-4 q-57 0 -88 34q-37 33 -37 88z" />
<glyph unicode="&#xe5;" d="M57 385q0 250 168 436q184 209 471 211h9q199 0 477 -133l-133 -635v-6q0 -18 22 -22h213l-217 -250h-12q-176 0 -260 59q-174 -59 -289 -59q-209 0 -330 108q-119 107 -119 291zM393 397q0 -147 131 -147q83 0 191 31l96 462q-63 16 -170 17q-92 0 -168 -117 q-80 -117 -80 -246zM758 999q-111 0 -178 70q-72 72 -72 174q0 129 110 236q106 106 242 106q111 0 180.5 -69.5t69.5 -174.5q0 -125 -109 -233q-112 -109 -243 -109zM823 1368q-66 0 -80 -76q-2 -6 -2 -16q0 -22 13 -37q16 -23 43 -22q23 0 49 22q23 23 28 53q2 6 3 17 q0 20 -13 39q-14 20 -41 20z" />
<glyph unicode="&#xe6;" horiz-adv-x="1802" d="M23 313v4q0 114 79 197q59 63 197 125q111 51 274 51q77 0 160 -12q6 23 6 39q0 39 -37 45l-98 4h-18q-98 0 -320 -80l-92 242q297 104 447 104h26q137 -10 180 -20q96 -23 158 -78q154 98 334 98q205 0 328 -137q109 -125 108 -289v-6q-2 -125 -143 -182 q-104 -40 -301 -49q-31 0 -89.5 -1t-105.5 -2t-88 -4q33 -135 213 -135q164 0 279 84l73 -207q-164 -121 -424 -120q-205 0 -325 90l-115 -37q-164 -55 -285 -55q-37 0 -67 6q-145 27 -242 104q-108 88 -112 221zM352 309q0 -57 119 -57q78 0 172 20l29 140q-55 6 -105 6 q-195 0 -213 -96q-2 -5 -2 -13zM1063 606l215 8q135 6 139 37v6q0 109 -141 109q-68 0 -133 -41q-70 -45 -80 -119z" />
<glyph unicode="&#xe7;" horiz-adv-x="1161" d="M74 432q0 238 207 420q201 180 481 180q98 0 225 -37l215 -73l-194 -250q-150 94 -301 94q-111 0 -203 -104q-94 -102 -94 -220q0 -86 49 -137q47 -53 125 -53q127 0 348 82l92 -246q-304 -104 -461 -104q-209 0 -354 139q-135 131 -135 309zM295 -242q23 -4 53 -20 q33 -20 57 -21q33 0 64 19q37 22 37 61v4q-3 31 -56 31q-20 0 -38.5 -2t-37.5 -2l68 172h236l-23 -63q135 -27 135 -101q0 -55 -71 -151q-84 -115 -299 -115q-66 0 -107 8z" />
<glyph unicode="&#xe8;" horiz-adv-x="1177" d="M78 424q0 244 194.5 426t440.5 182q154 0 280 -102q137 -106 137 -258q0 -205 -284 -271q-129 -29 -447 -36q18 -74 97 -103q49 -18 147 -18q145 0 258 78l84 -216q-174 -121 -450 -120q-194 0 -326 123q-131 118 -131 315zM446 604q111 0 193 6q186 12 186 41 q0 119 -143 119q-82 0 -147 -45q-77 -49 -89 -121zM405 1335l271 156l325 -295l-223 -109z" />
<glyph unicode="&#xe9;" horiz-adv-x="1177" d="M78 424q0 244 194.5 426t440.5 182q154 0 280 -102q137 -106 137 -258q0 -205 -284 -271q-129 -29 -447 -36q18 -74 97 -103q49 -18 147 -18q145 0 258 78l84 -216q-174 -121 -450 -120q-194 0 -326 123q-131 118 -131 315zM446 604q111 0 193 6q186 12 186 41 q0 119 -143 119q-82 0 -147 -45q-77 -49 -89 -121zM350 1196l432 295l215 -156l-463 -248z" />
<glyph unicode="&#xea;" horiz-adv-x="1177" d="M78 424q0 244 194.5 426t440.5 182q154 0 280 -102q137 -106 137 -258q0 -205 -284 -271q-129 -29 -447 -36q18 -74 97 -103q49 -18 147 -18q145 0 258 78l84 -216q-174 -121 -450 -120q-194 0 -326 123q-131 118 -131 315zM446 604q111 0 193 6q186 12 186 41 q0 119 -143 119q-82 0 -147 -45q-77 -49 -89 -121zM323 1270l400 209l325 -209l-180 -158l-186 133l-234 -133z" />
<glyph unicode="&#xeb;" horiz-adv-x="1177" d="M78 424q0 244 194.5 426t440.5 182q154 0 280 -102q137 -106 137 -258q0 -205 -284 -271q-129 -29 -447 -36q18 -74 97 -103q49 -18 147 -18q145 0 258 78l84 -216q-174 -121 -450 -120q-194 0 -326 123q-131 118 -131 315zM446 604q111 0 193 6q186 12 186 41 q0 119 -143 119q-82 0 -147 -45q-77 -49 -89 -121zM367 1214q0 68 55 125q55 55 125 56q61 0 98 -45q29 -35 29 -80q0 -16 -2 -27q-8 -61 -63 -106q-53 -45 -115 -45q-55 0 -90 34q-37 33 -37 88zM828 1214q0 68 57 125q53 55 121 56h4q57 -4 90 -37q35 -39 35 -90 q0 -68 -55 -119q-53 -53 -123 -57h-4q-57 0 -88 34q-37 33 -37 88z" />
<glyph unicode="&#xec;" horiz-adv-x="739" d="M455 -14h-4q-358 0 -359 256l148 757l344 25l-148 -760v-6q0 -18 23 -22h205zM118 1335l271 156l325 -295l-223 -109z" />
<glyph unicode="&#xed;" horiz-adv-x="739" d="M455 -14h-4q-358 0 -359 256l148 757l344 25l-148 -760v-6q0 -18 23 -22h205zM104 1196l432 295l215 -156l-463 -248z" />
<glyph unicode="&#xee;" horiz-adv-x="739" d="M455 -14h-4q-358 0 -359 256l148 757l344 25l-148 -760v-6q0 -18 23 -22h205zM98 1270l400 209l325 -209l-180 -158l-186 133l-234 -133z" />
<glyph unicode="&#xef;" horiz-adv-x="739" d="M455 -14h-4q-358 0 -359 256l148 757l344 25l-148 -760v-6q0 -18 23 -22h205zM59 1214q0 68 55 125q55 55 125 56q61 0 98 -45q29 -35 29 -80q0 -16 -2 -27q-8 -61 -63 -106q-53 -45 -115 -45q-55 0 -90 34q-37 33 -37 88zM520 1214q0 68 57 125q53 55 121 56h4 q57 -4 90 -37q35 -39 35 -90q0 -68 -55 -119q-53 -53 -123 -57h-4q-57 0 -88 34q-37 33 -37 88z" />
<glyph unicode="&#xf1;" horiz-adv-x="1409" d="M37 -2l205 1006l344 24l-17 -65l105 43q70 27 106 26q138 0 258 -74q141 -86 142 -217q0 -115 -27 -239l-53 -238q-2 -2 -2 -8q0 -18 24 -20h217l-217 -250q-162 0 -264 51q-111 57 -110 160q0 12 4 41l57 225q33 131 33 227q0 76 -117 76q-74 0 -207 -61l-143 -707h-338 zM316 1112l51 287q27 43 94 76q70 35 127 34q70 0 164 -65q90 -66 160 -66q74 0 225 131l-47 -274q-147 -123 -225 -123q-74 0 -164 66q-90 63 -158 63h-4q-58 0 -123 -37q-71 -41 -100 -92z" />
<glyph unicode="&#xf2;" horiz-adv-x="1275" d="M74 428q0 229 198 418q195 186 467 186q213 0 342 -135q121 -125 121 -301q0 -227 -190 -416q-199 -195 -467 -194q-215 0 -346 137q-125 125 -125 305zM412 446q0 -84 47 -137q45 -55 114 -55q104 0 199 106q92 104 92 215q0 86 -45 138q-47 53 -112 53 q-109 0 -201 -102q-94 -103 -94 -218zM405 1335l271 156l325 -295l-223 -109z" />
<glyph unicode="&#xf3;" horiz-adv-x="1275" d="M74 428q0 229 198 418q195 186 467 186q213 0 342 -135q121 -125 121 -301q0 -227 -190 -416q-199 -195 -467 -194q-215 0 -346 137q-125 125 -125 305zM412 446q0 -84 47 -137q45 -55 114 -55q104 0 199 106q92 104 92 215q0 86 -45 138q-47 53 -112 53 q-109 0 -201 -102q-94 -103 -94 -218zM453 1196l432 295l215 -156l-463 -248z" />
<glyph unicode="&#xf4;" horiz-adv-x="1275" d="M74 428q0 229 198 418q195 186 467 186q213 0 342 -135q121 -125 121 -301q0 -227 -190 -416q-199 -195 -467 -194q-215 0 -346 137q-125 125 -125 305zM412 446q0 -84 47 -137q45 -55 114 -55q104 0 199 106q92 104 92 215q0 86 -45 138q-47 53 -112 53 q-109 0 -201 -102q-94 -103 -94 -218zM405 1270l400 209l325 -209l-180 -158l-186 133l-234 -133z" />
<glyph unicode="&#xf5;" horiz-adv-x="1275" d="M74 428q0 229 198 418q195 186 467 186q213 0 342 -135q121 -125 121 -301q0 -227 -190 -416q-199 -195 -467 -194q-215 0 -346 137q-125 125 -125 305zM412 446q0 -84 47 -137q45 -55 114 -55q104 0 199 106q92 104 92 215q0 86 -45 138q-47 53 -112 53 q-109 0 -201 -102q-94 -103 -94 -218zM316 1112l51 287q27 43 94 76q70 35 127 34q70 0 164 -65q90 -66 160 -66q74 0 225 131l-47 -274q-147 -123 -225 -123q-74 0 -164 66q-90 63 -158 63h-4q-58 0 -123 -37q-71 -41 -100 -92z" />
<glyph unicode="&#xf6;" horiz-adv-x="1275" d="M74 428q0 229 198 418q195 186 467 186q213 0 342 -135q121 -125 121 -301q0 -227 -190 -416q-199 -195 -467 -194q-215 0 -346 137q-125 125 -125 305zM412 446q0 -84 47 -137q45 -55 114 -55q104 0 199 106q92 104 92 215q0 86 -45 138q-47 53 -112 53 q-109 0 -201 -102q-94 -103 -94 -218zM367 1214q0 68 55 125q55 55 125 56q61 0 98 -45q29 -35 29 -80q0 -16 -2 -27q-8 -61 -63 -106q-53 -45 -115 -45q-55 0 -90 34q-37 33 -37 88zM828 1214q0 68 57 125q53 55 121 56h4q57 -4 90 -37q35 -39 35 -90q0 -68 -55 -119 q-53 -53 -123 -57h-4q-57 0 -88 34q-37 33 -37 88z" />
<glyph unicode="&#xf7;" horiz-adv-x="1032" d="M88 291l49 278h809l-49 -278h-809zM285 78q0 66 61.5 121t134.5 55q63 0 102.5 -37t39.5 -90q0 -70 -60 -121q-58 -55 -135 -55q-63 0 -102 37q-41 35 -41 90zM403 743q0 66 62 121q58 55 135 56q63 0 102 -37t39 -90q0 -68 -59 -121q-61 -55 -135 -56q-63 0 -103 37 q-41 35 -41 90z" />
<glyph unicode="&#xf8;" horiz-adv-x="1282" d="M-8 45l147 150q-66 102 -65 229q0 47 8 82q41 227 235 375q187 141 418 141q100 0 187 -33l73 72l299 -98l-151 -158q55 -96 55 -211q0 -47 -8 -86q-41 -227 -234 -377q-186 -150 -415 -149q-98 0 -183 30l-69 -69zM410 471l278 281h-6q-100 0 -184 -90q-86 -95 -88 -191 zM594 252q98 4 174 90q74 80 88 176z" />
<glyph unicode="&#xf9;" d="M57 274q0 152 49 367l89 360l348 23l-86 -346q-53 -207 -54 -346q0 -96 109 -96q68 0 203 53l147 723h340l-153 -748v-6q0 -18 22 -22h213l-219 -250h-12q-184 0 -267 63q-199 -63 -311 -63q-139 0 -266 67q-152 84 -152 221zM405 1335l271 156l325 -295l-223 -109z" />
<glyph unicode="&#xfa;" d="M57 274q0 152 49 367l89 360l348 23l-86 -346q-53 -207 -54 -346q0 -96 109 -96q68 0 203 53l147 723h340l-153 -748v-6q0 -18 22 -22h213l-219 -250h-12q-184 0 -267 63q-199 -63 -311 -63q-139 0 -266 67q-152 84 -152 221zM412 1196l432 295l215 -156l-463 -248z" />
<glyph unicode="&#xfb;" d="M57 274q0 152 49 367l89 360l348 23l-86 -346q-53 -207 -54 -346q0 -96 109 -96q68 0 203 53l147 723h340l-153 -748v-6q0 -18 22 -22h213l-219 -250h-12q-184 0 -267 63q-199 -63 -311 -63q-139 0 -266 67q-152 84 -152 221zM364 1270l400 209l325 -209l-180 -158 l-186 133l-234 -133z" />
<glyph unicode="&#xfc;" d="M57 274q0 152 49 367l89 360l348 23l-86 -346q-53 -207 -54 -346q0 -96 109 -96q68 0 203 53l147 723h340l-153 -748v-6q0 -18 22 -22h213l-219 -250h-12q-184 0 -267 63q-199 -63 -311 -63q-139 0 -266 67q-152 84 -152 221zM367 1214q0 68 55 125q55 55 125 56 q61 0 98 -45q29 -35 29 -80q0 -16 -2 -27q-8 -61 -63 -106q-53 -45 -115 -45q-55 0 -90 34q-37 33 -37 88zM828 1214q0 68 57 125q53 55 121 56h4q57 -4 90 -37q35 -39 35 -90q0 -68 -55 -119q-53 -53 -123 -57h-4q-57 0 -88 34q-37 33 -37 88z" />
<glyph unicode="&#xfd;" horiz-adv-x="1224" d="M301 1264l432 295l215 -156l-463 -248zM-4 -209q145 0 186 14q43 12 76 70q0 2 96 162l-243 942l352 49l125 -608l348 606l330 -53l-715 -1202q-84 -141 -168 -189q-78 -43 -266 -53z" />
<glyph unicode="&#xff;" horiz-adv-x="1224" d="M-4 -209q145 0 186 14q43 12 76 70q0 2 96 162l-243 942l352 49l125 -608l348 606l330 -53l-715 -1202q-84 -141 -168 -189q-78 -43 -266 -53zM367 1214q0 68 55 125q55 55 125 56q61 0 98 -45q29 -35 29 -80q0 -16 -2 -27q-8 -61 -63 -106q-53 -45 -115 -45 q-55 0 -90 34q-37 33 -37 88zM828 1214q0 68 57 125q53 55 121 56h4q57 -4 90 -37q35 -39 35 -90q0 -68 -55 -119q-53 -53 -123 -57h-4q-57 0 -88 34q-37 33 -37 88z" />
<glyph unicode="&#x131;" horiz-adv-x="739" d="M455 -14h-4q-358 0 -359 256l148 757l344 25l-148 -760v-6q0 -18 23 -22h205z" />
<glyph unicode="&#x152;" horiz-adv-x="2148" d="M59 590q0 313 244 573q258 270 606 271h1266l-18 -279h-740l-41 -235h617l-49 -279h-617l-65 -362h739l-80 -279h-1276q-272 0 -434 178q-152 168 -152 412zM397 629q0 -147 84 -250q82 -100 217 -100h228l155 876h-227q-184 0 -319 -164q-138 -163 -138 -362z" />
<glyph unicode="&#x153;" horiz-adv-x="1949" d="M53 428q0 229 195 414q197 190 469 190q213 0 352 -139q72 61 184 100q109 39 209 39q205 0 328 -137q109 -125 108 -289v-6q-2 -125 -143 -182q-101 -40 -301 -49q-31 0 -89 -1t-105.5 -2t-88.5 -4q33 -135 213 -135q164 0 279 84l74 -207q-168 -121 -430 -120 q-258 0 -379 145q-174 -143 -406 -143q-211 0 -346 137q-123 127 -123 305zM389 444q0 -84 47 -137t117 -53q100 0 197 106q94 102 94 213q0 86 -45 140q-47 53 -113 53q-108 0 -203 -104q-94 -103 -94 -218zM1210 606l215 8q135 6 140 37v6q0 109 -142 109q-68 0 -133 -41 q-70 -45 -80 -119z" />
<glyph unicode="&#x178;" horiz-adv-x="1411" d="M129 1405l387 49l225 -543l418 543l365 -49l-670 -805l-106 -600h-336l106 600zM467 1634q0 68 55 125q55 55 125 56q61 0 98 -45q29 -35 29 -80q0 -16 -2 -27q-8 -61 -63 -106q-53 -45 -115 -45q-55 0 -90 34q-37 33 -37 88zM928 1634q0 68 57 125q53 55 121 56h4 q57 -4 90 -37q35 -39 35 -90q0 -68 -55 -119q-53 -53 -123 -57h-4q-57 0 -88 34q-37 33 -37 88z" />
<glyph unicode="&#x2c6;" horiz-adv-x="765" d="M16 1270l400 209l325 -209l-180 -158l-186 133l-234 -133z" />
<glyph unicode="&#x2da;" horiz-adv-x="675" d="M287 999q-111 0 -178 70q-72 72 -72 174q0 129 110 236q106 106 242 106q111 0 180.5 -69.5t69.5 -174.5q0 -125 -109 -233q-112 -109 -243 -109zM352 1368q-66 0 -80 -76q-2 -6 -2 -16q0 -22 13 -37q16 -23 43 -22q23 0 49 22q23 23 28 53q2 6 3 17q0 20 -13 39 q-14 20 -41 20z" />
<glyph unicode="&#x2dc;" horiz-adv-x="872" d="M29 1112l51 287q27 43 94 76q70 35 127 34q70 0 164 -65q90 -66 160 -66q74 0 225 131l-47 -274q-147 -123 -225 -123q-74 0 -164 66q-90 63 -158 63h-4q-58 0 -123 -37q-71 -41 -100 -92z" />
<glyph unicode="&#x2000;" horiz-adv-x="989" />
<glyph unicode="&#x2001;" horiz-adv-x="1978" />
<glyph unicode="&#x2002;" horiz-adv-x="989" />
<glyph unicode="&#x2003;" horiz-adv-x="1978" />
<glyph unicode="&#x2004;" horiz-adv-x="659" />
<glyph unicode="&#x2005;" horiz-adv-x="493" />
<glyph unicode="&#x2006;" horiz-adv-x="329" />
<glyph unicode="&#x2007;" horiz-adv-x="329" />
<glyph unicode="&#x2008;" horiz-adv-x="245" />
<glyph unicode="&#x2009;" horiz-adv-x="395" />
<glyph unicode="&#x200a;" horiz-adv-x="108" />
<glyph unicode="&#x2010;" horiz-adv-x="843" d="M111 403l45 267h577l-45 -267h-577z" />
<glyph unicode="&#x2011;" horiz-adv-x="843" d="M111 403l45 267h577l-45 -267h-577z" />
<glyph unicode="&#x2012;" horiz-adv-x="843" d="M111 403l45 267h577l-45 -267h-577z" />
<glyph unicode="&#x2013;" horiz-adv-x="1169" d="M90 403l45 267h946l-45 -267h-946z" />
<glyph unicode="&#x2014;" horiz-adv-x="1744" d="M90 403l45 267h1520l-45 -267h-1520z" />
<glyph unicode="&#x2018;" horiz-adv-x="487" d="M8 1163q0 23 2 33q8 51 80 131l242 270l166 -71l-127 -344q-61 -166 -207 -166q-61 0 -108.5 40.5t-47.5 106.5z" />
<glyph unicode="&#x2019;" horiz-adv-x="487" d="M-8 1071l127 344q25 65 74 111q58 55 135 55q63 0 110 -41q43 -43 43 -106q0 -68 -84 -164l-239 -271z" />
<glyph unicode="&#x201a;" horiz-adv-x="442" d="M-6 -227l121 327q55 150 184 150q63 0 107 -45q31 -33 30 -84q0 -20 -2 -31q-8 -41 -74 -119l-229 -258z" />
<glyph unicode="&#x201c;" horiz-adv-x="925" d="M8 1163q0 23 2 33q8 51 80 131l242 270l166 -71l-127 -344q-61 -166 -207 -166q-61 0 -108.5 40.5t-47.5 106.5zM444 1163q0 23 2 33q12 51 80 131l242 270l166 -71l-127 -344q-61 -166 -207 -166q-63 0 -111 41q-45 38 -45 106z" />
<glyph unicode="&#x201d;" horiz-adv-x="925" d="M-8 1071l127 344q61 166 205 166q72 0 120 -51q37 -39 37 -94q0 -10 -4 -35q-8 -51 -80 -131l-239 -271zM428 1071l127 344q25 65 74 111q58 55 135 55q63 0 110 -41q43 -43 44 -106q0 -68 -84 -164l-240 -271z" />
<glyph unicode="&#x201e;" horiz-adv-x="839" d="M-6 -227l121 327q55 150 184 150q63 0 107 -45q31 -33 30 -84q0 -20 -2 -31q-8 -41 -74 -119l-229 -258zM389 -227l121 327q55 150 184 150q59 0 98 -37t39 -94q0 -31 -16 -68q-8 -23 -59 -80l-230 -258z" />
<glyph unicode="&#x2022;" horiz-adv-x="681" d="M92 586q0 100 78 174q78 72 176 71.5t174 -71.5q72 -72 72 -174q0 -100 -76 -174q-77 -74 -178 -74q-104 0 -174 74q-72 72 -72 174z" />
<glyph unicode="&#x2026;" horiz-adv-x="1492" d="M70 135q0 80 67 148q66 66 150 65q65 0 110 -43q43 -43 43 -106q0 -80 -67.5 -147.5t-151.5 -67.5q-70 0 -108 43q-43 42 -43 108zM561 135q0 80 68 148q66 66 149 65q65 0 111 -43q43 -43 43 -106q0 -83 -68 -148q-68 -68 -151 -67q-70 0 -109 43q-43 42 -43 108z M1053 135q0 80 67 148q66 66 150 65q65 0 110 -43q43 -43 43 -106q0 -80 -67.5 -147.5t-151.5 -67.5q-70 0 -108 43q-43 42 -43 108z" />
<glyph unicode="&#x202f;" horiz-adv-x="395" />
<glyph unicode="&#x2039;" horiz-adv-x="641" d="M57 424l31 172l490 334l22 -254l-246 -170l187 -176l-115 -254z" />
<glyph unicode="&#x203a;" horiz-adv-x="641" d="M43 334l246 168l-187 176l115 254l369 -348l-31 -172l-489 -334z" />
<glyph unicode="&#x2044;" horiz-adv-x="462" d="M-199 -348l-286 121l1142 1781l293 -108z" />
<glyph unicode="&#x205f;" horiz-adv-x="493" />
<glyph unicode="&#x20ac;" horiz-adv-x="1439" d="M39 373l135 182h105l10 37h-211l135 182h145q96 172 263 275q164 102 368 112h21q104 0 221 -33q61 -18 223 -79l-180 -238q-55 29 -100 41q-129 41 -236 41q-129 0 -236 -119h555l-135 -182h-516l-10 -37h508l-135 -182h-363q47 -152 217 -152q126 0 375 98l84 -239 q-330 -119 -489 -119q-20 0 -31 2q-199 18 -328 129q-131 106 -155 281h-240z" />
<glyph unicode="&#x2122;" horiz-adv-x="1476" d="M135 1280l27 154h522l-27 -154h-168l-69 -395h-187l70 395h-168zM647 899l154 535h162l67 -265l158 265h164l-33 -535l-195 -29l11 144l-78 -129h-152l-33 129l-38 -146z" />
<glyph unicode="&#xe000;" horiz-adv-x="1025" d="M0 1025h1025v-1025h-1025v1025z" />
<glyph unicode="&#xfb01;" horiz-adv-x="1757" d="M1110 242l148 757l344 25l-148 -760v-6q0 -18 23 -22h205l-209 -250h-4q-359 0 -359 256zM1311 1352q0 70 63 131q61 55 142 55h4q74 -2 121 -45q47 -47 47 -109q0 -72 -62 -127q-63 -53 -143 -57h-8q-68 0 -115 43q-49 48 -49 109zM-205 -180q106 -8 156 -8q94 0 125 45 q23 35 53 194l133 690h-180l51 271h178q29 205 154 317q133 121 348 121h8q139 0 398 -104l-226 -238q-145 61 -225 61q-117 0 -133 -157h377l-51 -271h-373l-139 -716q-49 -240 -121 -326q-113 -131 -410 -176z" />
<glyph unicode="&#xfb02;" horiz-adv-x="1751" d="M1110 242q0 -256 359 -256h4l209 250h-205q-23 4 -23 22v6l221 1231l-344 -27zM-205 -180q106 -8 156 -8q94 0 125 45q23 35 53 194l133 690h-180l51 271h178q29 205 154 317q133 121 348 121h8q139 0 398 -104l-226 -238q-145 61 -225 61q-117 0 -133 -157h377l-51 -271 h-373l-139 -716q-49 -240 -121 -326q-113 -131 -410 -176z" />
<glyph unicode="&#xfb03;" horiz-adv-x="2775" d="M2128 242l148 757l344 25l-148 -760v-6q0 -18 23 -22h205l-209 -250h-4q-359 0 -359 256zM2329 1352q0 70 63 131q61 55 142 55h4q74 -2 121 -45q47 -47 47 -109q0 -72 -62 -127q-63 -53 -143 -57h-8q-68 0 -115 43q-49 48 -49 109zM813 -180q106 -8 156 -8q94 0 125 45 q23 35 53 194l133 690h-180l51 271h178q29 205 154 317q133 121 348 121h8q139 0 398 -104l-226 -238q-145 61 -225 61q-117 0 -133 -157h377l-51 -271h-373l-139 -716q-49 -240 -121 -326q-113 -131 -410 -176zM-205 -180q106 -8 156 -8q94 0 125 45q23 35 53 194l133 690 h-180l51 271h178q29 205 154 317q133 121 348 121h8q139 0 398 -104l-226 -238q-145 61 -225 61q-117 0 -133 -157h377l-51 -271h-373l-139 -716q-49 -240 -121 -326q-113 -131 -410 -176z" />
<glyph unicode="&#xfb04;" horiz-adv-x="2770" d="M2128 242q0 -256 359 -256h4l209 250h-205q-23 4 -23 22v6l221 1231l-344 -27zM813 -180q106 -8 156 -8q94 0 125 45q23 35 53 194l133 690h-180l51 271h178q29 205 154 317q133 121 348 121h8q139 0 398 -104l-226 -238q-145 61 -225 61q-117 0 -133 -157h377l-51 -271 h-373l-139 -716q-49 -240 -121 -326q-113 -131 -410 -176zM-205 -180q106 -8 156 -8q94 0 125 45q23 35 53 194l133 690h-180l51 271h178q29 205 154 317q133 121 348 121h8q139 0 398 -104l-226 -238q-145 61 -225 61q-117 0 -133 -157h377l-51 -271h-373l-139 -716 q-49 -240 -121 -326q-113 -131 -410 -176z" />
</font>
</defs>
</svg>
