<?xml version="1.0" standalone="no"?>
<!DOCTYPE svg PUBLIC "-//W3C//DTD SVG 1.1//EN" "http://www.w3.org/Graphics/SVG/1.1/DTD/svg11.dtd" >
<svg xmlns="http://www.w3.org/2000/svg">
<metadata>
This is a custom SVG webfont generated by Font Squirrel.
Copyright   :  2000 Daniel Midgley fontormaccom
</metadata>
<defs>
<font id="webfontq53Dfp2s" horiz-adv-x="1558" >
<font-face units-per-em="2048" ascent="1638" descent="-410" />
<missing-glyph horiz-adv-x="552" />
<glyph unicode=" "  horiz-adv-x="552" />
<glyph unicode="&#x09;" horiz-adv-x="552" />
<glyph unicode="&#xa0;" horiz-adv-x="552" />
<glyph unicode="!" horiz-adv-x="673" d="M133 168q0 78 59.5 131t143.5 53q80 0 143 -53q61 -53 61.5 -131t-61.5 -131q-63 -53 -143 -53q-86 0 -143 55q-60 51 -60 129zM168 797v633l336 26v-659l-19 -348l-299 -27z" />
<glyph unicode="&#x22;" horiz-adv-x="714" d="M31 1384q0 157 147 160h8q55 0 102.5 -30.5t47.5 -90.5q0 -27 -14 -69l-86 -246l-152 2l-31 123q-22 96 -22 151zM379 1384q0 158 149 160h9q53 0 100 -30.5t47 -90.5q0 -27 -14 -69l-86 -246l-152 2l-31 123q-22 96 -22 151z" />
<glyph unicode="#" horiz-adv-x="1263" d="M133 248v252h172v149h-172v252h172v262l266 25v-287h121v287l266 -25v-262h172v-252h-172v-149h172v-252h-172v-250l-266 -25v275h-121v-275l-266 25v250h-172zM571 500h121v149h-121v-149z" />
<glyph unicode="$" horiz-adv-x="1110" d="M72 127l118 209q123 -63 250 -78v172q-144 12 -239 92q-92 78 -103 187v20q0 102 80 195q96 111 262 149v123h267v-123q182 -33 266 -110l-107 -205l-159 51v-131q160 -14 249 -103q84 -80 84 -202q0 -121 -108 -219q-92 -82 -225 -123v-82h-267v55q-106 10 -213 45 q-106 33 -155 78zM373 745q0 -37 67 -55v101q-25 -8 -39 -13q-25 -10 -26 -24q-2 -3 -2 -9zM707 326l32 12q25 8 29 29v4q0 31 -61 51v-96z" />
<glyph unicode="%" horiz-adv-x="1652" d="M72 862q0 45 14 82q72 201 301 201q125 0 221 -78q94 -76 101 -197v-24q0 -111 -84 -195q-96 -92 -230 -96h-4q-126 0 -221 92q-98 95 -98 215zM283 92l841 1059l228 -123l-871 -1096zM332 856q0 -70 57 -70h4q49 2 56 62v8q0 29 -17 47q-20 20 -43 21h-4q-53 -5 -53 -68 zM942 283q0 45 14 82q35 100 113 157q78 59 188 60q129 0 224 -84q92 -86 98 -207v-21q0 -113 -84 -207q-92 -98 -229 -100h-4q-131 0 -224 96q-96 101 -96 224zM1200 295q0 -39 21 -68q16 -31 39 -30h4q55 3 55 73v11q-4 80 -59 79h-5q-55 -4 -55 -65z" />
<glyph unicode="&#x26;" horiz-adv-x="1525" d="M72 408q0 121 88 221q49 57 186 153q-152 170 -151 299q0 14 4 39q33 150 143 236q94 76 223 76q150 0 254 -91q115 -98 131 -258v-16q0 -129 -180 -295l213 -217l193 184l204 -188l-204 -189l278 -245l-215 -203l-250 250q-197 -190 -414 -191h-20q-207 10 -344 138 q-139 127 -139 297zM367 416q8 -80 65 -133q51 -51 146 -56h4q86 0 202 133l-231 234q-186 -106 -186 -174v-4zM469 1069q0 -40 92 -111q115 66 115 105v4q-3 46 -37 80q-33 31 -70 31h-4q-82 -4 -96 -105v-4z" />
<glyph unicode="'" horiz-adv-x="370" d="M31 1411q0 63 49 100q41 33 106 33q68 0 113 -37q41 -31 41 -82q0 -8 -4 -28q-3 -12 -12 -43l-84 -246l-154 2l-51 266q-4 25 -4 35z" />
<glyph unicode="(" horiz-adv-x="821" d="M72 499.5q0 315.5 92 544.5q96 240 338 506l311 -127q-231 -256 -321 -460q-82 -190 -82 -463q0 -266 79 -457q86 -209 308 -453l-295 -143q-240 270 -336 506q-94 231 -94 546.5z" />
<glyph unicode=")" horiz-adv-x="821" d="M10 1423l309 127q243 -270 338 -503q94 -231 94.5 -547t-94.5 -547q-94 -229 -335 -506l-297 143q227 260 309 455q80 190 80 454.5t-84 467.5q-87 194 -320 456z" />
<glyph unicode="*" horiz-adv-x="964" d="M72 1190l161 49l-161 49l151 221l137 -104l-26 135h303l-27 -133l131 102l150 -221l-156 -49l158 -51l-152 -219l-131 102l27 -145h-303l26 145l-137 -102z" />
<glyph unicode="+" horiz-adv-x="1032" d="M133 311v238h236l2 188h293v-188h237v-238l-237 2l2 -190h-297v188h-236z" />
<glyph unicode="," horiz-adv-x="552" d="M82 -219l65 352q29 152 166 152q63 0 113 -43q47 -43 47 -117q0 -47 -53 -123l-199 -274z" />
<glyph unicode="-" horiz-adv-x="843" d="M133 403v267h578v-267h-578z" />
<glyph unicode="." horiz-adv-x="509" d="M72 166q0 76 53 129t129 53q74 0 131 -53q53 -53 53 -129t-53 -129q-57 -53 -131 -53q-76 0 -129 53t-53 129z" />
<glyph unicode="/" horiz-adv-x="1116" d="M-10 -227l827 1781l311 -108l-831 -1794z" />
<glyph unicode="0" horiz-adv-x="1482" d="M72 573.5q0 245.5 196 417.5q195 170 473 170q276 0 476 -170q195 -172 194.5 -417.5t-194.5 -415.5q-197 -172 -475.5 -172t-473.5 172q-196 170 -196 415.5zM408 573q0 -121 98 -213q96 -90 235 -90q137 0 238 90q96 92 96 213q0 125 -96 215q-96 88 -237.5 88.5 t-235.5 -88.5q-98 -89 -98 -215z" />
<glyph unicode="1" horiz-adv-x="768" d="M72 983l288 164h275v-1147h-336v791l-80 -50z" />
<glyph unicode="2" horiz-adv-x="1202" d="M113 1065q276 109 462 109q221 0 334 -72q111 -70 152 -230q10 -45 10 -81q0 -248 -364 -517h385v-274h-967v236l266 192q162 119 256 207t94 153v13q-6 45 -57 78q-47 27 -92 26h-17q-154 -16 -346 -102z" />
<glyph unicode="3" horiz-adv-x="1161" d="M113 92l94 252q186 -94 332 -94q29 0 43 2q137 16 145 90v12q0 40 -31 80q-37 45 -100 45h-338v236q193 -6 268 -6q39 0 45 2q115 23 115 102q0 8 -4 37q-12 53 -113 53q-154 0 -344 -76l-106 242q324 104 463 105q145 0 260 -66q123 -72 159 -199q16 -49 17 -110 q0 -113 -70 -195q102 -90 103 -244q0 -23 -2 -32q-12 -147 -140 -242q-113 -84 -278 -100q-12 -2 -37 -2q-162 -1 -481 108z" />
<glyph unicode="4" horiz-adv-x="1157" d="M31 254v227l647 666h291v-619h159v-274h-159v-254l-336 2v252h-602zM408 528h225v228z" />
<glyph unicode="5" horiz-adv-x="1110" d="M113 100l102 265q252 -115 350 -115h15q80 10 120 45q41 37 41 84q0 82 -108 129q-2 2 -15 2q-59 0 -290 -51l-178 129l53 559h766l30 -275h-499l-13 -110q88 10 140 10q37 0 53 -2q231 -27 336 -197q53 -90 53 -180q0 -82 -45 -164q-100 -186 -385 -245q-28 -6 -61 -7 q-176 0 -465 123z" />
<glyph unicode="6" horiz-adv-x="1193" d="M72 406q0 25 2 36q25 268 248 498q123 129 229 211q141 104 344 190l188 -227q-332 -152 -467 -272q200 -3 351 -123q158 -127 157 -303q0 -178 -161 -305q-156 -123 -355 -125h-12q-205 0 -371 135q-153 125 -153 285zM393 420q0 -68 62 -113q57 -43 137 -43h12 q74 2 133 47q57 39 58 111q0 70 -58 108q-61 43 -137 45h-14q-72 0 -127 -36q-63 -41 -66 -111v-8z" />
<glyph unicode="7" horiz-adv-x="1110" d="M72 -61q203 475 538 931h-504l29 277h879l26 -223q-166 -190 -360 -506q-203 -326 -326 -596z" />
<glyph unicode="8" horiz-adv-x="1157" d="M72 334v8q6 172 145 274q-98 82 -104 220v16q0 150 153 242q135 80 305 80h9q164 -4 288 -76q143 -84 154 -236v-20q0 -132 -92 -221q156 -102 157 -283v-4q0 -166 -163 -264q-137 -86 -326 -90h-16q-186 0 -334 81q-176 103 -176 273zM367 330q14 -119 198 -119h8 q83 3 142 31q66 33 69 102v8q0 61 -65 103q-63 35 -144 34q-82 0 -147 -40q-61 -43 -61 -105v-14zM424 827q4 -90 137 -98h17q55 0 100 27q47 29 47 75v9q-4 51 -55 75q-40 18 -92 19h-13q-59 -4 -96 -29q-45 -27 -45 -78z" />
<glyph unicode="9" horiz-adv-x="1193" d="M72 743q0 181 159 308q152 119 357 125h12q207 0 371 -138q154 -125 153 -286q0 -23 -2 -35q-29 -287 -248 -510q-126 -132 -227 -203q-131 -92 -336 -174l-192 231q336 135 465 256q-207 4 -355 121q-157 127 -157 305zM387 737q0 -72 66 -112q59 -39 141 -41h16 q74 0 138 34q68 41 69 113v8q0 70 -65 117q-66 41 -146 41h-16q-80 -2 -139 -43q-63 -43 -64 -113v-4z" />
<glyph unicode=":" horiz-adv-x="468" d="M51 166q0 76 53 129q57 53 129 53q74 0 132 -53q53 -53 53 -129t-53 -129q-57 -53 -132 -53q-72 0 -129 53q-53 53 -53 129zM51 678q0 76 53 129q57 53 129 53q74 0 132 -53q53 -53 53 -129t-53 -129q-57 -53 -132 -53q-72 0 -129 53q-53 53 -53 129z" />
<glyph unicode=";" horiz-adv-x="538" d="M51 -233l68 370q14 82 71 127q51 41 117 41q70 0 127 -47q53 -49 53 -133q0 -51 -59 -135l-209 -287zM121 657q0 76 53 129q51 53 129 53.5t131 -53t53 -129.5q0 -72 -53 -129q-57 -53 -131 -53q-76 0 -129 53q-53 57 -53 129z" />
<glyph unicode="&#x3c;" horiz-adv-x="1112" d="M133 410v200l723 277l121 -223l-406 -158l410 -166l-125 -219z" />
<glyph unicode="=" horiz-adv-x="1009" d="M133 125v227h744v-227h-744zM133 436v226h744v-226h-744z" />
<glyph unicode="&#x3e;" horiz-adv-x="1112" d="M133 668l123 221l725 -291v-201l-723 -276l-121 223l406 158z" />
<glyph unicode="?" horiz-adv-x="1136" d="M92 1319q322 145 486 145q18 0 28 -2q190 -14 326 -114q154 -114 153 -277q0 -205 -219 -362l-98 -66q-78 -53 -80 -70q-14 -57 -14 -90v-34l-336 -37v75q0 143 84 244q46 55 203 166q115 84 123 158v8q0 37 -39 70q-51 41 -123 47q-10 2 -29 2q-154 0 -371 -140z M305 168q0 78 59.5 131t143.5 53q80 0 143 -53q61 -53 61.5 -131t-61.5 -131q-63 -53 -143 -53q-86 0 -143 55q-60 51 -60 129z" />
<glyph unicode="@" horiz-adv-x="1341" d="M72 524q0 47 8 86q35 201 221 324q168 109 387 119h47q178 0 314 -56q199 -82 235 -256q8 -31 8 -69q0 -158 -162 -312q-119 -113 -323 -112q-49 0 -111 6q-47 -10 -75 -10q-18 0 -27 2q-84 12 -162 86q-76 74 -76 166q0 76 64 157q55 72 127 109q49 25 170 24.5 t260 -22.5q-18 -193 -35 -297q55 14 110.5 75.5t57.5 112.5v11q0 111 -127 172q-109 49 -266 51h-12q-160 0 -299 -111q-143 -113 -150 -254v-12q0 -95 68 -184q78 -102 219 -158q49 -20 129 -20q193 0 452 110l-59 -164q-254 -102 -459 -102q-82 0 -149 22 q-176 66 -279 201q-106 141 -106 305zM612 487q0 -41 62 -41q14 0 22 3l19 145q-47 -4 -74 -33q-29 -35 -29 -74z" />
<glyph unicode="A" d="M31 27l585 1407h326l586 -1407l-342 -50l-160 392h-494l-159 -392zM647 647h264l-131 320z" />
<glyph unicode="B" horiz-adv-x="1376" d="M133 4v1421q225 29 420 29q250 0 426 -68q250 -96 250 -303q0 -176 -152 -303q100 -59 162 -153q68 -104 68 -213q0 -238 -252 -348q-190 -86 -459 -86q-215 -1 -463 24zM469 264q76 -8 158 -8q113 0 211 37q131 49 131 145q0 182 -359 183q-70 0 -141 -7v-350zM469 895 q20 -2 61 -2q115 0 215 22q150 33 150 117q0 88 -102 119q-34 9 -203 25q-47 0 -121 -2v-279z" />
<glyph unicode="C" horiz-adv-x="1423" d="M72 727q0 293 235 512q231 211 529 211q197 0 485 -94l-57 -299q-260 115 -398 114q-188 0 -321 -133q-135 -135 -135 -321q0 -188 139 -316q139 -129 330 -129q151 0 430 129l45 -292q-313 -125 -516 -125q-307 0 -537 219q-229 217 -229 524z" />
<glyph unicode="D" horiz-adv-x="1507" d="M133 4v1421q240 29 426 29q340 0 588 -162q291 -186 291 -508q0 -367 -221 -581q-219 -217 -588 -217q-187 0 -496 18zM469 266q55 -6 109 -6q522 0 522 488q0 436 -537 436q-33 0 -94 -4v-914z" />
<glyph unicode="E" horiz-adv-x="1280" d="M133 0v1434h1004l30 -279h-698v-276h616v-279h-616v-321h739l-30 -279h-1045z" />
<glyph unicode="F" horiz-adv-x="1236" d="M133 0v1434h1004l30 -279h-698v-276h616v-279h-616v-600h-336z" />
<glyph unicode="G" horiz-adv-x="1527" d="M72 715q0 292 202 504q215 221 527 229h22q166 0 496 -84l-55 -293q-268 102 -428 103q-20 0 -31 -3q-174 -12 -287 -143q-113 -135 -112 -313q0 -182 116.5 -317.5t274.5 -135.5q117 0 207 70q92 70 116 170h-360v276h692q4 -61 4 -94q0 -315 -182 -508 q-180 -190 -481 -190q-311 0 -521 227q-200 219 -200 502z" />
<glyph unicode="H" horiz-adv-x="1503" d="M133 0v1430l336 26v-577h567v555h336v-1430l-336 -27v623h-567v-600h-336z" />
<glyph unicode="I" horiz-adv-x="600" d="M133 0v1430l336 26v-1456h-336z" />
<glyph unicode="J" horiz-adv-x="1310" d="M41 244l184 221q242 -195 361 -195h12q111 12 145 35q37 25 72 84q20 35 27 117v950l336 -26v-920q-6 -76 -7 -78q-12 -84 -34 -137q-131 -285 -525 -303h-24q-264 0 -547 252z" />
<glyph unicode="K" horiz-adv-x="1431" d="M133 0v1430l336 26v-471l514 467l408 -51l-736 -662l766 -706l-403 -51l-549 507v-489h-336z" />
<glyph unicode="L" horiz-adv-x="1280" d="M133 0v1430l336 26v-1177h739l-30 -279h-1045z" />
<glyph unicode="M" horiz-adv-x="1826" d="M78 23l139 1407l318 22l376 -983l365 983l317 -22l156 -1407l-336 -48l-70 779l-268 -756h-321l-283 758l-59 -781z" />
<glyph unicode="N" horiz-adv-x="1540" d="M133 4v1428l363 18l577 -885v871h336v-1432l-342 -20l-598 907v-911z" />
<glyph unicode="O" horiz-adv-x="1628" d="M72 717q0 295 209 510q219 221 538 221h4q309 -2 523 -215q201 -205 213 -488v-32q0 -281 -199 -492q-219 -236 -547 -235q-315 0 -534 225q-207 219 -207 506zM406 715q0 -178 124.5 -315.5t286.5 -137.5q168 0 287 137q117 135 117 314v8q-2 184 -117 317 q-115 129 -289 133h-4q-172 0 -287 -133q-118 -137 -118 -323z" />
<glyph unicode="P" horiz-adv-x="1331" d="M133 0v1430q260 23 430 22q49 0 115 -4q584 -39 584 -434v-13q-6 -205 -170 -323q-154 -114 -394 -117q-6 0 -88 -3l-141 -5v-553h-336zM469 834q113 -6 143 -7q295 0 316 183v12q0 109 -207 139q-80 12 -176 13q-49 0 -76 -3v-337z" />
<glyph unicode="Q" horiz-adv-x="1669" d="M72 717q0 299 223 516q217 215 545 215h4q316 -3 534 -209q218 -209 221 -498v-12q0 -144 -49 -252q-55 -117 -166 -221l172 -162l-272 -170l-137 131q-147 -74 -313 -73q-313 0 -537 223q-225 225 -225 512zM406 713q0 -178 133 -318q131 -137 299 -137q49 0 86 14 l-267 260l285 156l217 -213q98 111 103 246v4q0 180 -121 313q-121 129 -303 133q-182 0 -308 -135q-124 -137 -124 -323z" />
<glyph unicode="R" horiz-adv-x="1449" d="M133 0v1430q260 23 430 22q49 0 115 -4q584 -39 584 -434v-13q-6 -258 -256 -374l372 -598l-364 -52l-348 582q-40 0 -197 -6v-553h-336zM469 834q113 -6 143 -7q295 0 316 183v12q0 109 -207 139q-80 12 -176 13q-49 0 -76 -3v-337z" />
<glyph unicode="S" horiz-adv-x="1329" d="M72 156l172 258q49 -43 180 -95q129 -51 213 -53h25q113 0 190 53q76 55 76 130q0 72 -70 114q-66 45 -180 45q-25 0 -37 -2q-14 -2 -39 -2q-205 0 -342 119q-143 123 -143 303v21q10 188 213 301q162 94 346 98h24q125 0 256 -33q156 -39 228 -100l-135 -238 q-240 92 -355 92h-14q-94 -2 -162 -55q-68 -51 -67 -111q0 -119 241 -118h33h20q229 0 373 -129q141 -129 142 -322q0 -41 -5 -61q-45 -338 -620 -385q-14 -2 -43 -2q-127 0 -281 51q-163 55 -239 121z" />
<glyph unicode="T" horiz-adv-x="1382" d="M72 1155l30 279h1180l31 -279h-453v-1155h-336v1155h-452z" />
<glyph unicode="U" horiz-adv-x="1548" d="M133 598v832l336 26v-850q2 -41 10 -108q6 -68 25 -107q57 -129 248 -129q143 0 237 82q94 80 94 205q0 25 -2 39v846h336v-844q0 -283 -180 -449q-174 -156 -440 -155h-33q-631 22 -631 612z" />
<glyph unicode="V" d="M31 1407l342 49l407 -989l406 989l342 -49l-586 -1407h-326z" />
<glyph unicode="W" horiz-adv-x="2072" d="M10 1409l346 49l265 -932l258 891h315l258 -891l266 932l344 -49l-458 -1409h-310l-258 893l-258 -893h-309z" />
<glyph unicode="X" horiz-adv-x="1417" d="M20 29l498 712l-461 664l373 51l281 -438l280 438l373 -51l-463 -664l498 -712l-375 -52l-313 490l-316 -490z" />
<glyph unicode="Y" horiz-adv-x="1411" d="M10 1405l377 49l322 -543l323 543l371 -49l-526 -805v-600h-336v600z" />
<glyph unicode="Z" horiz-adv-x="1388" d="M61 227l768 928h-743l23 279h1155l32 -217l-776 -938h807l-31 -279h-1208z" />
<glyph unicode="[" horiz-adv-x="583" d="M82 -530v2064h522v-287h-186v-1493h186v-284h-522z" />
<glyph unicode="\" horiz-adv-x="1116" d="M-10 1446l311 108l827 -1781l-307 -121z" />
<glyph unicode="]" horiz-adv-x="665" d="M10 -246h187v1493h-187v287h522v-2064h-522v284z" />
<glyph unicode="^" horiz-adv-x="966" d="M72 1276l321 227h187l315 -227l-162 -133l-250 157l-250 -157z" />
<glyph unicode="_" horiz-adv-x="1675" d="M72 0h1534v-184h-1534v184z" />
<glyph unicode="`" horiz-adv-x="718" d="M49 1335l242 156l379 -295l-203 -109z" />
<glyph unicode="a" horiz-adv-x="1153" d="M51 336q0 172 154 252q119 61 317 61q74 0 166 -10q-9 147 -178 147q-51 0 -150 -36l-147 -60l-139 234q301 109 446 108q502 0 502 -373l-4 -661h-336v51l-107 -39q-65 -25 -110 -24q-166 0 -285 90q-129 98 -129 260zM381 334q0 -96 178 -96q65 0 123 12v160 q-72 10 -121 10q-180 0 -180 -86z" />
<glyph unicode="b" horiz-adv-x="1290" d="M133 -2v1470l336 25v-530l109 43q68 25 112 24q231 0 383 -141q147 -143 148 -373q0 -249 -142 -387q-141 -141 -393 -141q-39 0 -217 51v-41h-336zM469 293q125 -31 217 -31q94 0 150 72q49 63 49 162q0 104 -51 170q-61 78 -160 77q-76 0 -205 -38v-412z" />
<glyph unicode="c" horiz-adv-x="1167" d="M72 516q0 203 139 348q152 160 416 168h20q102 0 221 -33q25 -6 230 -71l-148 -256q-74 33 -108 47q-129 47 -219 47q-86 0 -154 -78q-68 -80 -68 -182q0 -104 68 -178q68 -72 158 -76h12q120 0 319 80l140 -240q-315 -109 -459 -108q-18 0 -27 2q-258 23 -405 182 q-135 147 -135 348z" />
<glyph unicode="d" horiz-adv-x="1290" d="M72 518q0 231 147.5 372.5t380.5 141.5q39 0 113 -26l110 -43v530l336 -25v-1470h-336v41l-106 -33q-65 -18 -111 -18q-252 0 -393 141t-141 389zM408 498q0 -96 47 -162q53 -74 149 -74q86 0 219 33v412q-129 39 -205 38q-100 0 -159 -77q-51 -66 -51 -170z" />
<glyph unicode="e" horiz-adv-x="1236" d="M72 510q0 223 161 373q164 147 390 147q223 0 381 -133q162 -143 161 -362q0 -55 -18 -132l-698 -20q96 -147 256 -147q178 0 276 81l117 -202q-70 -59 -203 -101q-121 -33 -223 -32q-227 0 -408 149q-192 158 -192 379zM430 606l377 10q-25 61 -76 107q-52 43 -110 43 q-114 0 -191 -160z" />
<glyph unicode="f" horiz-adv-x="968" d="M31 745v265h180q6 186 90 293q90 113 287 143q12 2 43 2q139 0 409 -90l-163 -248q-160 63 -250 64q-53 0 -66 -37q-12 -39 -16 -127h362v-265h-358v-745h-336v745h-182z" />
<glyph unicode="g" horiz-adv-x="1316" d="M72 496q0 201 133 350q154 166 413 186h13q37 0 102 -24l115 -45v63l336 -25v-974q-4 -80 -19 -144q-35 -158 -114 -231q-139 -127 -357 -127q-158 0 -526 106l143 256q215 -80 361 -80q125 0 153 72q6 40 19 105l2 6q-119 -29 -217 -29q-258 0 -414 168 q-143 150 -143 367zM408 489q0 -150 129 -231q29 -20 102 -20q86 0 209 30v432q-164 43 -250 43q-45 0 -63 -12q-127 -90 -127 -242z" />
<glyph unicode="h" horiz-adv-x="1253" d="M133 0v1468l336 25v-530l104 43q70 27 103 26h16q150 0 295 -78q166 -88 189 -211q12 -74 12 -346q0 -86 -4 -397h-340l2 602q0 154 -154 154q-98 0 -223 -56v-700h-336z" />
<glyph unicode="i" horiz-adv-x="638" d="M133 1366v4q2 68 55 121q53 47 125 47h9q76 -4 131 -49q53 -49 55 -119v-4q0 -68 -53 -115q-57 -47 -133 -51h-5q-74 0 -129 49q-55 46 -55 117zM154 0v985l335 27v-1012h-335z" />
<glyph unicode="j" horiz-adv-x="649" d="M-332 -395l96 256q178 -66 248 -66q88 0 117 66q35 86 35 235v889l336 25v-914q-6 -111 -27 -190q-45 -205 -149 -281q-137 -96 -299 -96q-138 0 -357 76zM143 1364v4q2 70 58 121q53 49 127 49h6q77 -3 129 -49q51 -49 55 -121v-4q0 -72 -53 -119q-53 -49 -131 -53h-4 q-78 0 -131 51q-56 51 -56 121z" />
<glyph unicode="k" horiz-adv-x="1208" d="M133 -2v1470l336 25v-741l326 258l360 -90l-526 -394l581 -483l-346 -82l-395 297v-260h-336z" />
<glyph unicode="l" horiz-adv-x="600" d="M133 0v1468l336 25v-1493h-336z" />
<glyph unicode="m" horiz-adv-x="1953" d="M133 0v1001l336 25v-63q163 68 227 67q160 0 310 -104q195 106 360 106q246 0 365 -102q96 -88 120 -266q10 -61 11 -289v-74l-4 -301h-340v621q0 150 -129 149q-94 0 -232 -76q10 -133 10 -370v-86v-238h-342v621q0 147 -141 147q-102 0 -215 -57v-711h-336z" />
<glyph unicode="n" horiz-adv-x="1245" d="M133 0v1001l336 25v-63l94 43q68 27 99 26q150 0 290 -67q168 -82 195 -211q12 -66 12 -322v-78l-4 -354h-340l2 621q0 145 -139 145q-92 0 -209 -57v-709h-336z" />
<glyph unicode="o" horiz-adv-x="1253" d="M51 512q0 37 6 72q33 215 205 336q154 111 363 110q223 0 385 -125q178 -137 192 -366q2 -12 2 -33q0 -199 -155 -350q-174 -170 -424 -170q-238 0 -410 161q-164 158 -164 365zM385 508q0 -104 72 -180q71 -74 172 -74q113 0 176 80q59 76 59 176q0 104 -59 176 q-63 80 -176 80q-101 0 -172 -74q-72 -78 -72 -184z" />
<glyph unicode="p" horiz-adv-x="1292" d="M133 -475v1476l336 25v-65l123 47q80 29 127 28q221 0 362.5 -149.5t141.5 -372.5q0 -242 -166 -395q-168 -158 -408 -158q-66 0 -180 29v-441zM469 270q113 -31 193 -30q106 0 167 88q55 74 56 188q0 88 -49 156q-55 74 -140 73q-78 0 -227 -38v-437z" />
<glyph unicode="q" horiz-adv-x="1357" d="M72 504q0 238 139 383q137 141 377 141q47 0 119 -24l116 -41v63l336 -25v-1048q0 -111 15 -137q15 -31 67 -31q4 0 11.5 1t22.5 2t30 1q35 2 94 2l-172 -262q-266 10 -340 111q-63 82 -64 350q-115 -29 -209 -29q-240 0 -391 151.5t-151 391.5zM408 502q0 -104 61 -182 t162 -78q82 0 192 28v435q-139 37 -217 36q-198 1 -198 -239z" />
<glyph unicode="r" horiz-adv-x="1011" d="M133 0v1001l336 25v-63q43 20 76 38q53 23 94 31q37 4 53 4q61 0 148 -35l141 -65l-129 -236q-203 68 -260 68t-123 -53v-715h-336z" />
<glyph unicode="s" horiz-adv-x="1134" d="M72 115l133 215l133 -62q88 -37 137 -37q66 0 150 23q106 31 106 84q0 57 -102 57q-10 0 -68 -4q-12 0 -25.5 -1t-20.5 -2t-9 -1q-166 0 -279 78q-127 86 -127 248q0 158 195 250q160 72 336 71q186 0 397 -119l-119 -208q-106 80 -231 79q-240 0 -240 -106 q0 -47 215 -47q410 0 410 -281q0 -195 -207 -293q-156 -74 -379 -73q-92 0 -213 34q-131 40 -192 95z" />
<glyph unicode="t" horiz-adv-x="866" d="M10 750v260h193v235l336 49v-284h237v-260h-237v-465l10 -11h-2q8 0 12 -2q33 0 72 23l61 43l146 -252q-199 -100 -297 -100q-207 0 -289 125q-61 94 -62 292q0 55 7 177q6 117 6 170h-193z" />
<glyph unicode="u" horiz-adv-x="1247" d="M90 684q0 197 2 315l342 25l-2 -629q0 -162 148 -162q80 0 200 50v729h336v-979l-336 -47v53q-72 -29 -194 -53h-17q-145 0 -286 75q-158 84 -179 199q-14 78 -14 424z" />
<glyph unicode="v" horiz-adv-x="1265" d="M31 979l352 47l250 -590l250 590l352 -47l-463 -979h-278z" />
<glyph unicode="w" horiz-adv-x="1810" d="M31 979l348 47l190 -571l189 557h299l186 -557l193 571l346 -47l-391 -979h-299l-187 530l-186 -530h-297z" />
<glyph unicode="x" horiz-adv-x="1212" d="M31 29l379 483l-363 463l356 49l203 -274l203 274l354 -49l-360 -463l381 -483l-359 -49l-219 292l-217 -292z" />
<glyph unicode="y" horiz-adv-x="1259" d="M31 977l352 49l266 -623l252 625l328 -53l-496 -1196q-45 -150 -131 -201q-78 -43 -262 -49l-172 262q135 0 188 14q47 12 72 64l57 156z" />
<glyph unicode="z" horiz-adv-x="1122" d="M72 213l497 532h-463v265h865l51 -205l-506 -541h537l-31 -264h-901z" />
<glyph unicode="{" horiz-adv-x="970" d="M133 362v275q132 46 166 80q35 35 35 121q0 8 -1 24.5t-2 47t-1 55.5q-6 95 -6 147q0 270 200 369q113 53 437 53l-76 -309q-127 25 -140 24q-25 0 -34 -10q-59 -59 -60 -192v22q3 0 6 -178v-21q0 -90 -14 -147q-23 -96 -80 -166l-53 -59q90 -90 123 -176q27 -76 26 -172 q0 -49 -2 -89q-4 -94 -4 -100v-16q0 -121 58 -181q10 -10 34 -10q12 0 140 25l76 -309q-324 0 -437 53q-201 96 -200 368q0 47 6 144q0 25 1 54.5t2 46t1 24.5q0 90 -35 125q-35 32 -166 77z" />
<glyph unicode="|" horiz-adv-x="571" d="M133 0v1534h307v-1534h-307z" />
<glyph unicode="}" horiz-adv-x="970" d="M10 -530l78 309q125 -25 137 -25q25 0 35 10q59 63 59 181q0 6 -4 92q-4 82 -4 96q0 217 150 365q-147 160 -148 370q0 31 9 140q2 14 2 43q0 51 -9 82q-12 59 -55 106q-10 10 -37 10q-12 0 -135 -22l-78 307q324 0 436 -53q201 -98 201 -371q0 -18 -4 -145 q-6 -96 -6 -127q0 -86 35 -121q34 -34 166 -80v-275q-77 -25 -111 -43q-70 -33 -80 -69q-12 -53 -12 -119q0 -41 6 -125q6 -86 6 -129q-4 -258 -201 -354q-112 -53 -436 -53z" />
<glyph unicode="~" horiz-adv-x="872" d="M63 498v286q20 45 80 76q66 35 123 35q70 0 176.5 -65.5t169.5 -65.5q72 0 203 131v-274q-123 -123 -203 -123q-68 0 -174 65q-102 63 -172 64h-4q-53 0 -115 -37q-64 -41 -84 -92z" />
<glyph unicode="&#xa1;" horiz-adv-x="632" d="M113 844q0 78 61 131q63 53 143 53q84 0 143.5 -53t59.5 -131q0 -76 -59 -129q-61 -55 -144 -56q-84 0 -143 54q-61 53 -61 131zM150 215l18 381l299 27l18 -410v-635l-335 -27v664z" />
<glyph unicode="&#xa2;" horiz-adv-x="1187" d="M92 555q0 156 103 276q109 129 305 183v133h307v-125q115 -23 258 -84l-53 -260q-123 59 -205 84v-402q80 23 242 123l47 -266q-33 -18 -95 -47q-106 -49 -194 -70v-100h-307v106q-201 49 -305 177q-103 116 -103 272zM395 563q0 -96 105 -162v326q-105 -68 -105 -164z " />
<glyph unicode="&#xa3;" horiz-adv-x="1150" d="M92 0v279l39 -5q20 -2 51 -2q70 0 84 27v115h-174v270h174v74q0 150 107 256q104 104 272 127q10 2 31 2q127 0 377 -117l-111 -250q-170 96 -223 96h-8q-109 -23 -109 -118v-70h359v-270h-359v-127v-15h457v-272h-967z" />
<glyph unicode="&#xa5;" horiz-adv-x="1306" d="M72 1106l319 35l260 -371l262 371l322 -35l-371 -506h180v-240h-233v-43h233v-239h-233v-78h-315v78h-236v239h236v43h-236v240h182z" />
<glyph unicode="&#xa7;" horiz-adv-x="1011" d="M92 125l125 231q37 -29 125 -67q83 -37 123 -37h39q49 0 69 4q33 8 33 37v4q0 18 -14 18l-4 -1q-4 -1 -11.5 -2t-13.5 -1q-41 -4 -57 -6q-12 -2 -37 -2q-133 0 -223 68q-106 76 -107 219v12q4 70 54 129q-53 68 -54 174v8q4 123 142 205q117 70 247 74h9q106 0 362 -100 l-111 -211q-104 51 -223 51h-33q-80 -4 -83 -29q0 -6 6 -14q2 -8 75 -8h31h21q143 0 231 -52q106 -63 107 -202q0 -98 -39 -156q41 -57 41 -147q0 -16 -4 -54q-18 -152 -173 -229q-115 -57 -266 -57h-20q-113 4 -367 141zM449 569q0 -12 18 -16h12q8 0 86 4q41 4 41 33v4 q0 15 -6 18q0 -2 -90 -6q-59 -4 -61 -33v-4z" />
<glyph unicode="&#xa8;" horiz-adv-x="845" d="M41 1243q0 61 45 107q43 45 107 45q61 0 106 -45t45 -107q0 -63 -45 -106q-45 -45 -106 -45q-63 0 -107 45q-45 43 -45 106zM502 1243.5q0 63.5 45 108.5q43 43 104 43h4q61 -4 107 -45q43 -47 43 -107q0 -63 -43 -106q-45 -41 -107 -45h-4q-61 0 -104 43 q-45 45 -45 108.5z" />
<glyph unicode="&#xa9;" horiz-adv-x="1155" d="M72 704.5q0 210.5 149 360.5q152 147 358.5 147t358.5 -147q147 -152 147 -360q0 -211 -147 -359q-150 -150 -358.5 -149.5t-358.5 149.5q-149 148 -149 358.5zM227 705q0 -147 105 -248q102 -104 247.5 -104.5t247.5 104.5q102 100 102.5 247.5t-102.5 249.5 q-100 102 -247.5 102.5t-247.5 -102.5q-105 -104 -105 -249zM319 707v4q4 106 70 178q68 74 168 86q6 2 18 2q61 0 179 -47l-17 -168q-102 55 -145 55q-88 0 -88 -112q0 -111 94 -111q49 0 158 74l14 -170q-127 -61 -195 -62h-12q-104 8 -176 90q-68 77 -68 181z" />
<glyph unicode="&#xaa;" horiz-adv-x="632" d="M72 1083q0 111 127 170q52 25 116 25q29 0 64 -6q-3 15 -6 37q-12 20 -45 20q-43 0 -172 -53l-74 129q154 63 229 63h8q125 -6 183 -61q59 -55 59 -168v-57q0 -94 -6 -303h-168v26l-6 -3q-6 -3 -19.5 -8t-27.5 -11q-28 -12 -49 -13h-4q-186 27 -207 183q-2 10 -2 30z M240 1083q2 -68 82 -67q31 0 63 8l-2 96q-68 16 -90 17q-53 0 -53 -50v-4z" />
<glyph unicode="&#xab;" horiz-adv-x="1144" d="M72 424v172l430 334l67 -254l-215 -170l217 -176l-69 -254zM573 424v172l431 334l67 -254l-215 -170l217 -176l-69 -254z" />
<glyph unicode="&#xac;" horiz-adv-x="1247" d="M113 389v240h1024v-402h-336v162h-688z" />
<glyph unicode="&#xad;" horiz-adv-x="843" d="M133 403v267h578v-267h-578z" />
<glyph unicode="&#xae;" horiz-adv-x="1155" d="M72 704.5q0 210.5 149 360.5q152 147 358.5 147t358.5 -147q147 -152 147 -360q0 -211 -147 -359q-150 -150 -358.5 -149.5t-358.5 149.5q-149 148 -149 358.5zM227 705q0 -147 105 -248q102 -104 247.5 -104.5t247.5 104.5q102 100 102.5 247.5t-102.5 249.5 q-100 102 -247.5 102.5t-247.5 -102.5q-105 -104 -105 -249zM399 442v519q117 10 158 10h27q201 -18 200 -170v-6q-4 -82 -65 -129l110 -203l-170 -33l-98 191h-4v-179h-158zM557 772h8q20 0 60 31q-14 10 -68 14v-45z" />
<glyph unicode="&#xaf;" horiz-adv-x="739" d="M113 1104v184h516v-184h-516z" />
<glyph unicode="&#xb0;" horiz-adv-x="708" d="M72 1192q0 100 84 172t198 72q117 0 201 -72q82 -70 82 -172q0 -100 -82 -170t-201 -70q-117 0 -198 70q-84 72 -84 170zM283 1192q0 -29 22 -51q20 -20 49 -21q72 4 72 72q0 33 -20 53q-23 23 -51.5 23t-49.5 -21q-22 -22 -22 -55z" />
<glyph unicode="&#xb1;" horiz-adv-x="1032" d="M113 -14v260h809v-260h-809zM113 483v260h235v179h336v-179h238v-262l-238 2v-178h-336v178h-235z" />
<glyph unicode="&#xb2;" horiz-adv-x="1202" d="M113 1065q276 109 462 109q221 0 334 -72q111 -70 152 -230q10 -45 10 -81q0 -248 -364 -517h385v-274h-967v236l266 192q162 119 256 207t94 153v13q-6 45 -57 78q-47 27 -92 26h-17q-154 -16 -346 -102z" />
<glyph unicode="&#xb3;" horiz-adv-x="1161" d="M113 92l94 252q186 -94 332 -94q29 0 43 2q137 16 145 90v12q0 40 -31 80q-37 45 -100 45h-338v236q193 -6 268 -6q39 0 45 2q115 23 115 102q0 8 -4 37q-12 53 -113 53q-154 0 -344 -76l-106 242q324 104 463 105q145 0 260 -66q123 -72 159 -199q16 -49 17 -110 q0 -113 -70 -195q102 -90 103 -244q0 -23 -2 -32q-12 -147 -140 -242q-113 -84 -278 -100q-12 -2 -37 -2q-162 -1 -481 108z" />
<glyph unicode="&#xb4;" horiz-adv-x="739" d="M59 1196l381 295l242 -156l-420 -248z" />
<glyph unicode="&#xb5;" horiz-adv-x="1323" d="M113 -287v1286l336 27v-770q109 -39 180 -39q147 0 147 160l-2 629h338q-4 -414 -4 -496q0 -147 2 -195q4 -96 205 -98v-258h-33q-217 0 -344 78q-127 -82 -279 -82q-98 0 -210 33v-275h-336z" />
<glyph unicode="&#xb6;" horiz-adv-x="1294" d="M92 815q0 334 469 367q61 4 115 4q195 0 467 -21v-1140l-266 -25v965l-89 2v-967l-266 25v432q-193 16 -305 104q-125 94 -125 254z" />
<glyph unicode="&#xb8;" horiz-adv-x="712" d="M113 -221q131 -20 180 -21q9 0 18 19q8 14 8 20v4q-8 18 -28 21q-29 0 -109 6l37 172h236l-11 -63q156 -31 156 -119q0 -45 -47 -133q-66 -115 -279 -115q-61 0 -108 8z" />
<glyph unicode="&#xb9;" horiz-adv-x="768" d="M72 983l288 164h275v-1147h-336v791l-80 -50z" />
<glyph unicode="&#xba;" horiz-adv-x="741" d="M72 1155q0 125 94 205q88 74 204.5 74t200.5 -68q90 -74 101 -197v-16q0 -104 -80 -184q-89 -92 -221 -92q-129 0 -213 84q-86 83 -86 194zM274 1155q0 -51 29 -79.5t66 -28.5q40 0 67 30q29 29 29 80q0 47 -29 82q-27 31 -65 31q-40 0 -68 -31q-29 -33 -29 -76v-8z" />
<glyph unicode="&#xbb;" horiz-adv-x="1144" d="M72 678l69 254l430 -348v-172l-430 -334l-67 256l215 168zM573 678l70 254l430 -348v-172l-430 -334l-68 256l216 168z" />
<glyph unicode="&#xbc;" horiz-adv-x="2387" d="M1262 254v227l647 666h291v-619h159v-274h-159v-254l-336 2v252h-602zM1639 528h225v228zM737 -348l-307 121l827 1781l312 -108zM72 983l288 164h275v-1147h-336v791l-80 -50z" />
<glyph unicode="&#xbd;" horiz-adv-x="2433" d="M1344 1065q276 109 462 109q221 0 334 -72q111 -70 152 -230q10 -45 10 -81q0 -248 -364 -517h385v-274h-967v236l266 192q162 119 256 207t94 153v13q-6 45 -57 78q-47 27 -92 26h-17q-154 -16 -346 -102zM737 -348l-307 121l827 1781l312 -108zM72 983l288 164h275 v-1147h-336v791l-80 -50z" />
<glyph unicode="&#xbe;" horiz-adv-x="2783" d="M1657 254v227l647 666h291v-619h159v-274h-159v-254l-336 2v252h-602zM2034 528h225v228zM1132 -348l-307 121l827 1781l312 -108zM113 92l94 252q186 -94 332 -94q29 0 43 2q137 16 145 90v12q0 40 -31 80q-37 45 -100 45h-338v236q193 -6 268 -6q39 0 45 2 q115 23 115 102q0 8 -4 37q-12 53 -113 53q-154 0 -344 -76l-106 242q324 104 463 105q145 0 260 -66q123 -72 159 -199q16 -49 17 -110q0 -113 -70 -195q102 -90 103 -244q0 -23 -2 -32q-12 -147 -140 -242q-113 -84 -278 -100q-12 -2 -37 -2q-162 -1 -481 108z" />
<glyph unicode="&#xbf;" horiz-adv-x="1136" d="M72 -35q0 158 100 264q51 51 234 170q66 43 71 56q6 8 6 77v56l336 35v-99q0 -145 -84 -241q-49 -55 -205 -156q-115 -74 -120 -145v-9q0 -39 43 -71q47 -41 118 -47q10 -2 29 -2q151 0 369 141l96 -279q-319 -145 -483 -145q-20 0 -31 2q-193 16 -326 117 q-153 110 -153 276zM444 846q0 80 62 131q63 53 143 53q84 0 143.5 -53t59.5 -131q0 -76 -59 -129q-61 -55 -144 -55q-80 0 -143 53q-62 51 -62 131z" />
<glyph unicode="&#xc0;" d="M31 27l585 1407h326l586 -1407l-342 -50l-160 392h-494l-159 -392zM647 647h264l-131 320zM416 1761l242 156l379 -295l-203 -109z" />
<glyph unicode="&#xc1;" d="M31 27l585 1407h326l586 -1407l-342 -50l-160 392h-494l-159 -392zM647 647h264l-131 320zM448 1606l381 295l242 -156l-420 -248z" />
<glyph unicode="&#xc2;" d="M31 27l585 1407h326l586 -1407l-342 -50l-160 392h-494l-159 -392zM647 647h264l-131 320zM397 1653l363 209l362 -209l-153 -158l-209 133l-209 -133z" />
<glyph unicode="&#xc3;" d="M31 27l585 1407h326l586 -1407l-342 -50l-160 392h-494l-159 -392zM647 647h264l-131 320zM399 1513v287q20 45 80 76q66 35 123 34q70 0 176.5 -65.5t169.5 -65.5q72 0 203 131v-274q-123 -123 -203 -123q-68 0 -174 66q-102 63 -172 63h-4q-53 0 -115 -37 q-64 -41 -84 -92z" />
<glyph unicode="&#xc4;" d="M31 27l585 1407h326l586 -1407l-342 -50l-160 392h-494l-159 -392zM647 647h264l-131 320zM406 1702q0 61 45 107q43 45 107 45q61 0 106 -45t45 -107q0 -63 -45 -106q-45 -45 -106 -45q-63 0 -107 45q-45 43 -45 106zM867 1702.5q0 63.5 45 108.5q43 43 104 43h4 q61 -4 107 -45q43 -47 43 -107q0 -63 -43 -106q-45 -41 -107 -45h-4q-61 0 -104 43q-45 45 -45 108.5z" />
<glyph unicode="&#xc5;" d="M31 27l585 1407h326l586 -1407l-342 -50l-160 392h-494l-159 -392zM647 647h264l-131 320zM780 1357q-120 0 -209 86q-88 86 -88 207t88 207q89 86 209 86t209 -86q88 -86 88 -207t-88 -207q-89 -86 -209 -86zM780 1726q-66 0 -66 -76q0 -33 21 -53q18 -23 45 -22 q25 0 47 22q18 23 18 53q0 34 -18 56q-20 20 -47 20z" />
<glyph unicode="&#xc6;" horiz-adv-x="2269" d="M31 33l1077 1401h1057l33 -279h-740v-235h617v-279h-617v-362h742l-29 -279h-1055v371h-436l-307 -394zM897 651h219v295z" />
<glyph unicode="&#xc7;" horiz-adv-x="1423" d="M72 727q0 293 235 512q231 211 529 211q197 0 485 -94l-57 -299q-260 115 -398 114q-188 0 -321 -133q-135 -135 -135 -321q0 -188 139 -316q139 -129 330 -129q151 0 430 129l45 -292q-313 -125 -516 -125q-307 0 -537 219q-229 217 -229 524zM605 -221q131 -20 180 -21 q9 0 18 19q8 14 8 20v4q-8 18 -28 21q-29 0 -109 6l37 172h236l-11 -63q156 -31 156 -119q0 -45 -47 -133q-66 -115 -279 -115q-61 0 -108 8z" />
<glyph unicode="&#xc8;" horiz-adv-x="1280" d="M133 0v1434h1004l30 -279h-698v-276h616v-279h-616v-321h739l-30 -279h-1045zM354 1761l242 156l379 -295l-203 -109z" />
<glyph unicode="&#xc9;" horiz-adv-x="1280" d="M133 0v1434h1004l30 -279h-698v-276h616v-279h-616v-321h739l-30 -279h-1045zM366 1606l381 295l242 -156l-420 -248z" />
<glyph unicode="&#xca;" horiz-adv-x="1280" d="M133 0v1434h1004l30 -279h-698v-276h616v-279h-616v-321h739l-30 -279h-1045zM294 1653l363 209l362 -209l-153 -158l-209 133l-209 -133z" />
<glyph unicode="&#xcb;" horiz-adv-x="1280" d="M133 0v1434h1004l30 -279h-698v-276h616v-279h-616v-321h739l-30 -279h-1045zM262 1702q0 61 45 107q43 45 107 45q61 0 106 -45t45 -107q0 -63 -45 -106q-45 -45 -106 -45q-63 0 -107 45q-45 43 -45 106zM723 1702.5q0 63.5 45 108.5q43 43 104 43h4q61 -4 107 -45 q43 -47 43 -107q0 -63 -43 -106q-45 -41 -107 -45h-4q-61 0 -104 43q-45 45 -45 108.5z" />
<glyph unicode="&#xcc;" horiz-adv-x="600" d="M-12 1761l242 156l379 -295l-203 -109zM133 0v1430l336 26v-1456h-336z" />
<glyph unicode="&#xcd;" horiz-adv-x="600" d="M8 1606l381 295l242 -156l-420 -248zM133 0v1430l336 26v-1456h-336z" />
<glyph unicode="&#xce;" horiz-adv-x="600" d="M-52 1694l363 209l362 -209l-153 -158l-209 133l-209 -133zM133 0v1430l336 26v-1456h-336z" />
<glyph unicode="&#xcf;" horiz-adv-x="600" d="M-82 1702q0 61 45 107q43 45 107 45q61 0 106 -45t45 -107q0 -63 -45 -106q-45 -45 -106 -45q-63 0 -107 45q-45 43 -45 106zM379 1702.5q0 63.5 45 108.5q43 43 104 43h4q61 -4 107 -45q43 -47 43 -107q0 -63 -43 -106q-45 -41 -107 -45h-4q-61 0 -104 43 q-45 45 -45 108.5zM133 0v1430l336 26v-1456h-336z" />
<glyph unicode="&#xd1;" horiz-adv-x="1540" d="M133 4v1428l363 18l577 -885v871h336v-1432l-342 -20l-598 907v-911zM399 1513v287q20 45 80 76q66 35 123 34q70 0 176.5 -65.5t169.5 -65.5q72 0 203 131v-274q-123 -123 -203 -123q-68 0 -174 66q-102 63 -172 63h-4q-53 0 -115 -37q-64 -41 -84 -92z" />
<glyph unicode="&#xd2;" horiz-adv-x="1628" d="M72 717q0 295 209 510q219 221 538 221h4q309 -2 523 -215q201 -205 213 -488v-32q0 -281 -199 -492q-219 -236 -547 -235q-315 0 -534 225q-207 219 -207 506zM406 715q0 -178 124.5 -315.5t286.5 -137.5q168 0 287 137q117 135 117 314v8q-2 184 -117 317 q-115 129 -289 133h-4q-172 0 -287 -133q-118 -137 -118 -323zM477 1761l242 156l379 -295l-203 -109z" />
<glyph unicode="&#xd3;" horiz-adv-x="1628" d="M72 717q0 295 209 510q219 221 538 221h4q309 -2 523 -215q201 -205 213 -488v-32q0 -281 -199 -492q-219 -236 -547 -235q-315 0 -534 225q-207 219 -207 506zM406 715q0 -178 124.5 -315.5t286.5 -137.5q168 0 287 137q117 135 117 314v8q-2 184 -117 317 q-115 129 -289 133h-4q-172 0 -287 -133q-118 -137 -118 -323zM499 1606l381 295l242 -156l-420 -248z" />
<glyph unicode="&#xd4;" horiz-adv-x="1628" d="M72 717q0 295 209 510q219 221 538 221h4q309 -2 523 -215q201 -205 213 -488v-32q0 -281 -199 -492q-219 -236 -547 -235q-315 0 -534 225q-207 219 -207 506zM406 715q0 -178 124.5 -315.5t286.5 -137.5q168 0 287 137q117 135 117 314v8q-2 184 -117 317 q-115 129 -289 133h-4q-172 0 -287 -133q-118 -137 -118 -323zM438 1694l363 209l362 -209l-153 -158l-209 133l-209 -133z" />
<glyph unicode="&#xd5;" horiz-adv-x="1628" d="M72 717q0 295 209 510q219 221 538 221h4q309 -2 523 -215q201 -205 213 -488v-32q0 -281 -199 -492q-219 -236 -547 -235q-315 0 -534 225q-207 219 -207 506zM406 715q0 -178 124.5 -315.5t286.5 -137.5q168 0 287 137q117 135 117 314v8q-2 184 -117 317 q-115 129 -289 133h-4q-172 0 -287 -133q-118 -137 -118 -323zM419 1513v287q20 45 80 76q66 35 123 34q70 0 176.5 -65.5t169.5 -65.5q72 0 203 131v-274q-123 -123 -203 -123q-68 0 -174 66q-102 63 -172 63h-4q-53 0 -115 -37q-64 -41 -84 -92z" />
<glyph unicode="&#xd6;" horiz-adv-x="1628" d="M72 717q0 295 209 510q219 221 538 221h4q309 -2 523 -215q201 -205 213 -488v-32q0 -281 -199 -492q-219 -236 -547 -235q-315 0 -534 225q-207 219 -207 506zM406 715q0 -178 124.5 -315.5t286.5 -137.5q168 0 287 137q117 135 117 314v8q-2 184 -117 317 q-115 129 -289 133h-4q-172 0 -287 -133q-118 -137 -118 -323zM436 1702q0 61 45 107q43 45 107 45q61 0 106 -45t45 -107q0 -63 -45 -106q-45 -45 -106 -45q-63 0 -107 45q-45 43 -45 106zM897 1702.5q0 63.5 45 108.5q43 43 104 43h4q61 -4 107 -45q43 -47 43 -107 q0 -63 -43 -106q-45 -41 -107 -45h-4q-61 0 -104 43q-45 45 -45 108.5z" />
<glyph unicode="&#xd8;" horiz-adv-x="1568" d="M33 750q0 27 2 41q23 291 231 477q205 184 508 184h8q158 0 305 -80l91 121l319 -104l-164 -222q186 -256 187 -481q0 -292 -215 -498q-219 -207 -533 -206q-150 0 -285 63l-75 -104l-318 104l146 195q-207 256 -207 510zM362 754q0 -59 31 -127l53 -111l469 623 q-61 31 -139 30h-4q-158 0 -280 -122q-130 -125 -130 -293zM666 281q43 -16 110 -17q154 0 283 123q127 123 127 281q0 29 -6 55q-6 35 -31 88q-25 45 -33 68z" />
<glyph unicode="&#xd9;" horiz-adv-x="1548" d="M133 598v832l336 26v-850q2 -41 10 -108q6 -68 25 -107q57 -129 248 -129q143 0 237 82q94 80 94 205q0 25 -2 39v846h336v-844q0 -283 -180 -449q-174 -156 -440 -155h-33q-631 22 -631 612zM457 1761l242 156l379 -295l-203 -109z" />
<glyph unicode="&#xda;" horiz-adv-x="1548" d="M133 598v832l336 26v-850q2 -41 10 -108q6 -68 25 -107q57 -129 248 -129q143 0 237 82q94 80 94 205q0 25 -2 39v846h336v-844q0 -283 -180 -449q-174 -156 -440 -155h-33q-631 22 -631 612zM479 1606l381 295l242 -156l-420 -248z" />
<glyph unicode="&#xdb;" horiz-adv-x="1548" d="M133 598v832l336 26v-850q2 -41 10 -108q6 -68 25 -107q57 -129 248 -129q143 0 237 82q94 80 94 205q0 25 -2 39v846h336v-844q0 -283 -180 -449q-174 -156 -440 -155h-33q-631 22 -631 612zM417 1694l363 209l362 -209l-153 -158l-209 133l-209 -133z" />
<glyph unicode="&#xdc;" horiz-adv-x="1548" d="M133 598v832l336 26v-850q2 -41 10 -108q6 -68 25 -107q57 -129 248 -129q143 0 237 82q94 80 94 205q0 25 -2 39v846h336v-844q0 -283 -180 -449q-174 -156 -440 -155h-33q-631 22 -631 612zM395 1702q0 61 45 107q43 45 107 45q61 0 106 -45t45 -107q0 -63 -45 -106 q-45 -45 -106 -45q-63 0 -107 45q-45 43 -45 106zM856 1702.5q0 63.5 45 108.5q43 43 104 43h4q61 -4 107 -45q43 -47 43 -107q0 -63 -43 -106q-45 -41 -107 -45h-4q-61 0 -104 43q-45 45 -45 108.5z" />
<glyph unicode="&#xdd;" horiz-adv-x="1411" d="M508 1685l381 295l242 -156l-420 -248zM10 1405l377 49l322 -543l323 543l371 -49l-526 -805v-600h-336v600z" />
<glyph unicode="&#xdf;" horiz-adv-x="1347" d="M154 8v1422q270 18 442 18q68 0 94 -2q168 -8 305 -82q168 -92 187 -254q2 -10 2 -29q0 -169 -191 -301q262 -145 262 -362v-4q0 -197 -137 -308q-139 -113 -397 -120h-12q-77 0 -172 24l49 283q143 -33 196 -33q139 0 140 146q0 18 -2 28q-12 135 -377 197v293 q301 39 301 143q0 106 -201 107q-72 0 -154 -11v-1167z" />
<glyph unicode="&#xe0;" horiz-adv-x="1153" d="M51 336q0 172 154 252q119 61 317 61q74 0 166 -10q-9 147 -178 147q-51 0 -150 -36l-147 -60l-139 234q301 109 446 108q502 0 502 -373l-4 -661h-336v51l-107 -39q-65 -25 -110 -24q-166 0 -285 90q-129 98 -129 260zM381 334q0 -96 178 -96q65 0 123 12v160 q-72 10 -121 10q-180 0 -180 -86zM274 1335l242 156l379 -295l-203 -109z" />
<glyph unicode="&#xe1;" horiz-adv-x="1153" d="M51 336q0 172 154 252q119 61 317 61q74 0 166 -10q-9 147 -178 147q-51 0 -150 -36l-147 -60l-139 234q301 109 446 108q502 0 502 -373l-4 -661h-336v51l-107 -39q-65 -25 -110 -24q-166 0 -285 90q-129 98 -129 260zM381 334q0 -96 178 -96q65 0 123 12v160 q-72 10 -121 10q-180 0 -180 -86zM264 1196l381 295l242 -156l-420 -248z" />
<glyph unicode="&#xe2;" horiz-adv-x="1153" d="M51 336q0 172 154 252q119 61 317 61q74 0 166 -10q-9 147 -178 147q-51 0 -150 -36l-147 -60l-139 234q301 109 446 108q502 0 502 -373l-4 -661h-336v51l-107 -39q-65 -25 -110 -24q-166 0 -285 90q-129 98 -129 260zM381 334q0 -96 178 -96q65 0 123 12v160 q-72 10 -121 10q-180 0 -180 -86zM245 1270l363 209l362 -209l-153 -158l-209 133l-209 -133z" />
<glyph unicode="&#xe3;" horiz-adv-x="1153" d="M51 336q0 172 154 252q119 61 317 61q74 0 166 -10q-9 147 -178 147q-51 0 -150 -36l-147 -60l-139 234q301 109 446 108q502 0 502 -373l-4 -661h-336v51l-107 -39q-65 -25 -110 -24q-166 0 -285 90q-129 98 -129 260zM381 334q0 -96 178 -96q65 0 123 12v160 q-72 10 -121 10q-180 0 -180 -86zM186 1112v287q20 45 80 76q66 35 123 34q70 0 176.5 -65.5t169.5 -65.5q72 0 203 131v-274q-123 -123 -203 -123q-68 0 -174 66q-102 63 -172 63h-4q-53 0 -115 -37q-64 -41 -84 -92z" />
<glyph unicode="&#xe4;" horiz-adv-x="1153" d="M51 336q0 172 154 252q119 61 317 61q74 0 166 -10q-9 147 -178 147q-51 0 -150 -36l-147 -60l-139 234q301 109 446 108q502 0 502 -373l-4 -661h-336v51l-107 -39q-65 -25 -110 -24q-166 0 -285 90q-129 98 -129 260zM381 334q0 -96 178 -96q65 0 123 12v160 q-72 10 -121 10q-180 0 -180 -86zM184 1263q0 61 45 107q43 45 107 45q61 0 106 -45t45 -107q0 -63 -45 -106q-45 -45 -106 -45q-63 0 -107 45q-45 43 -45 106zM645 1263.5q0 63.5 45 108.5q43 43 104 43h4q61 -4 107 -45q43 -47 43 -107q0 -63 -43 -106q-45 -41 -107 -45 h-4q-61 0 -104 43q-45 45 -45 108.5z" />
<glyph unicode="&#xe5;" horiz-adv-x="1153" d="M51 336q0 172 154 252q119 61 317 61q74 0 166 -10q-9 147 -178 147q-51 0 -150 -36l-147 -60l-139 234q301 109 446 108q502 0 502 -373l-4 -661h-336v51l-107 -39q-65 -25 -110 -24q-166 0 -285 90q-129 98 -129 260zM381 334q0 -96 178 -96q65 0 123 12v160 q-72 10 -121 10q-180 0 -180 -86zM301 1233q0 100 84 172t198 72q117 0 201 -72q82 -70 82 -172q0 -100 -82 -170t-201 -70q-117 0 -198 70q-84 72 -84 170zM512 1233q0 -29 22 -51q20 -20 49 -21q72 4 72 72q0 33 -20 53q-23 23 -51.5 23t-49.5 -21q-22 -22 -22 -55z" />
<glyph unicode="&#xe6;" horiz-adv-x="1824" d="M72 305v21q0 186 221 309q66 39 164 39q63 0 135 -17q31 -4 115 -22q-10 139 -158 147h-8q-51 0 -152 -41l-158 -69l-137 254q311 106 455 106h16q129 -6 187 -20q98 -23 166 -78q139 98 305 98q190 0 346 -127q154 -125 184 -325q2 -10 2 -33q0 -51 -22 -152l-658 -20 q72 -121 230 -121q141 0 237 84l144 -223q-151 -129 -443 -129h-16q-166 4 -297 90l-109 -41q-172 -53 -286 -53q-18 0 -52 4q-158 20 -266 92q-137 86 -145 227zM401 328q4 -86 121 -86q70 0 180 30v109q-144 25 -184 25q-117 0 -117 -78zM1055 602l338 10 q-61 168 -162 170h-4q-104 0 -172 -180z" />
<glyph unicode="&#xe7;" horiz-adv-x="1167" d="M72 516q0 203 139 348q152 160 416 168h20q102 0 221 -33q25 -6 230 -71l-148 -256q-74 33 -108 47q-129 47 -219 47q-86 0 -154 -78q-68 -80 -68 -182q0 -104 68 -178q68 -72 158 -76h12q120 0 319 80l140 -240q-315 -109 -459 -108q-18 0 -27 2q-258 23 -405 182 q-135 147 -135 348zM420 -221q131 -20 180 -21q9 0 18 19q8 14 8 20v4q-8 18 -28 21q-29 0 -109 6l37 172h236l-11 -63q156 -31 156 -119q0 -45 -47 -133q-66 -115 -279 -115q-61 0 -108 8z" />
<glyph unicode="&#xe8;" horiz-adv-x="1236" d="M72 510q0 223 161 373q164 147 390 147q223 0 381 -133q162 -143 161 -362q0 -55 -18 -132l-698 -20q96 -147 256 -147q178 0 276 81l117 -202q-70 -59 -203 -101q-121 -33 -223 -32q-227 0 -408 149q-192 158 -192 379zM430 606l377 10q-25 61 -76 107q-52 43 -110 43 q-114 0 -191 -160zM295 1335l242 156l379 -295l-203 -109z" />
<glyph unicode="&#xe9;" horiz-adv-x="1236" d="M72 510q0 223 161 373q164 147 390 147q223 0 381 -133q162 -143 161 -362q0 -55 -18 -132l-698 -20q96 -147 256 -147q178 0 276 81l117 -202q-70 -59 -203 -101q-121 -33 -223 -32q-227 0 -408 149q-192 158 -192 379zM430 606l377 10q-25 61 -76 107q-52 43 -110 43 q-114 0 -191 -160zM305 1196l381 295l242 -156l-420 -248z" />
<glyph unicode="&#xea;" horiz-adv-x="1236" d="M72 510q0 223 161 373q164 147 390 147q223 0 381 -133q162 -143 161 -362q0 -55 -18 -132l-698 -20q96 -147 256 -147q178 0 276 81l117 -202q-70 -59 -203 -101q-121 -33 -223 -32q-227 0 -408 149q-192 158 -192 379zM430 606l377 10q-25 61 -76 107q-52 43 -110 43 q-114 0 -191 -160zM245 1270l363 209l362 -209l-153 -158l-209 133l-209 -133z" />
<glyph unicode="&#xeb;" horiz-adv-x="1236" d="M72 510q0 223 161 373q164 147 390 147q223 0 381 -133q162 -143 161 -362q0 -55 -18 -132l-698 -20q96 -147 256 -147q178 0 276 81l117 -202q-70 -59 -203 -101q-121 -33 -223 -32q-227 0 -408 149q-192 158 -192 379zM430 606l377 10q-25 61 -76 107q-52 43 -110 43 q-114 0 -191 -160zM225 1263q0 61 45 107q43 45 107 45q61 0 106 -45t45 -107q0 -63 -45 -106q-45 -45 -106 -45q-63 0 -107 45q-45 43 -45 106zM686 1263.5q0 63.5 45 108.5q43 43 104 43h4q61 -4 107 -45q43 -47 43 -107q0 -63 -43 -106q-45 -41 -107 -45h-4 q-61 0 -104 43q-45 45 -45 108.5z" />
<glyph unicode="&#xec;" horiz-adv-x="638" d="M31 1335l242 156l379 -295l-203 -109zM154 0v991l335 27v-1018h-335z" />
<glyph unicode="&#xed;" horiz-adv-x="638" d="M30 1196l381 295l242 -156l-420 -248zM154 0v991l335 27v-1018h-335z" />
<glyph unicode="&#xee;" horiz-adv-x="638" d="M-41 1270l363 209l362 -209l-153 -158l-209 133l-209 -133zM154 0v991l335 27v-1018h-335z" />
<glyph unicode="&#xef;" horiz-adv-x="638" d="M-59 1263q0 61 45 107q43 45 107 45q61 0 106 -45t45 -107q0 -63 -45 -106q-45 -45 -106 -45q-63 0 -107 45q-45 43 -45 106zM402 1263.5q0 63.5 45 108.5q43 43 104 43h4q61 -4 107 -45q43 -47 43 -107q0 -63 -43 -106q-45 -41 -107 -45h-4q-61 0 -104 43 q-45 45 -45 108.5zM154 0v991l335 27v-1018h-335z" />
<glyph unicode="&#xf1;" horiz-adv-x="1245" d="M143 0v1001l336 25v-63l94 43q68 27 99 26q150 0 290 -67q168 -82 195 -211q12 -66 12 -322v-78l-4 -354h-340l2 621q0 145 -139 145q-92 0 -209 -57v-709h-336zM272 1112v287q20 45 80 76q66 35 123 34q70 0 176.5 -65.5t169.5 -65.5q72 0 203 131v-274 q-123 -123 -203 -123q-68 0 -174 66q-102 63 -172 63h-4q-53 0 -115 -37q-64 -41 -84 -92z" />
<glyph unicode="&#xf2;" horiz-adv-x="1253" d="M51 512q0 37 6 72q33 215 205 336q154 111 363 110q223 0 385 -125q178 -137 192 -366q2 -12 2 -33q0 -199 -155 -350q-174 -170 -424 -170q-238 0 -410 161q-164 158 -164 365zM385 508q0 -104 72 -180q71 -74 172 -74q113 0 176 80q59 76 59 176q0 104 -59 176 q-63 80 -176 80q-101 0 -172 -74q-72 -78 -72 -184zM315 1335l242 156l379 -295l-203 -109z" />
<glyph unicode="&#xf3;" horiz-adv-x="1253" d="M51 512q0 37 6 72q33 215 205 336q154 111 363 110q223 0 385 -125q178 -137 192 -366q2 -12 2 -33q0 -199 -155 -350q-174 -170 -424 -170q-238 0 -410 161q-164 158 -164 365zM385 508q0 -104 72 -180q71 -74 172 -74q113 0 176 80q59 76 59 176q0 104 -59 176 q-63 80 -176 80q-101 0 -172 -74q-72 -78 -72 -184zM325 1196l381 295l242 -156l-420 -248z" />
<glyph unicode="&#xf4;" horiz-adv-x="1253" d="M51 512q0 37 6 72q33 215 205 336q154 111 363 110q223 0 385 -125q178 -137 192 -366q2 -12 2 -33q0 -199 -155 -350q-174 -170 -424 -170q-238 0 -410 161q-164 158 -164 365zM385 508q0 -104 72 -180q71 -74 172 -74q113 0 176 80q59 76 59 176q0 104 -59 176 q-63 80 -176 80q-101 0 -172 -74q-72 -78 -72 -184zM245 1270l363 209l362 -209l-153 -158l-209 133l-209 -133z" />
<glyph unicode="&#xf5;" horiz-adv-x="1253" d="M51 512q0 37 6 72q33 215 205 336q154 111 363 110q223 0 385 -125q178 -137 192 -366q2 -12 2 -33q0 -199 -155 -350q-174 -170 -424 -170q-238 0 -410 161q-164 158 -164 365zM385 508q0 -104 72 -180q71 -74 172 -74q113 0 176 80q59 76 59 176q0 104 -59 176 q-63 80 -176 80q-101 0 -172 -74q-72 -78 -72 -184zM241 1112v287q20 45 80 76q66 35 123 34q70 0 176.5 -65.5t169.5 -65.5q72 0 203 131v-274q-123 -123 -203 -123q-68 0 -174 66q-102 63 -172 63h-4q-53 0 -115 -37q-64 -41 -84 -92z" />
<glyph unicode="&#xf6;" horiz-adv-x="1253" d="M51 512q0 37 6 72q33 215 205 336q154 111 363 110q223 0 385 -125q178 -137 192 -366q2 -12 2 -33q0 -199 -155 -350q-174 -170 -424 -170q-238 0 -410 161q-164 158 -164 365zM385 508q0 -104 72 -180q71 -74 172 -74q113 0 176 80q59 76 59 176q0 104 -59 176 q-63 80 -176 80q-101 0 -172 -74q-72 -78 -72 -184zM246 1263q0 61 45 107q43 45 107 45q61 0 106 -45t45 -107q0 -63 -45 -106q-45 -45 -106 -45q-63 0 -107 45q-45 43 -45 106zM707 1263.5q0 63.5 45 108.5q43 43 104 43h4q61 -4 107 -45q43 -47 43 -107q0 -63 -43 -106 q-45 -41 -107 -45h-4q-61 0 -104 43q-45 45 -45 108.5z" />
<glyph unicode="&#xf7;" horiz-adv-x="1032" d="M113 291v278h809v-278h-809zM346 102q0 61 49 109q49 43 119 43q72 0 119 -45q47 -47 47 -107q0 -63 -47 -106q-47 -45 -119 -45q-70 0 -117 45q-51 43 -51 106zM346 768q0 63 49 109q49 43 119 43q72 0 119 -46q47 -47 47 -106q0 -63 -47 -106q-47 -45 -119 -46 q-70 0 -117 46q-51 43 -51 106z" />
<glyph unicode="&#xf8;" horiz-adv-x="1282" d="M72 45l121 150q-113 137 -113 311q0 227 170 375q163 141 393 141q102 0 193 -33l61 72l315 -98l-122 -158q98 -133 98 -297q0 -223 -164 -374.5t-391 -151.5q-100 0 -189 30l-57 -69zM414 502q0 -20 2 -31l227 281h-6q-92 0 -157.5 -78t-65.5 -172zM639 252q94 2 158 90 q57 76 57 176z" />
<glyph unicode="&#xf9;" horiz-adv-x="1247" d="M90 684q0 197 2 315l342 25l-2 -629q0 -162 148 -162q80 0 200 50v729h336v-979l-336 -47v53q-72 -29 -194 -53h-17q-145 0 -286 75q-158 84 -179 199q-14 78 -14 424zM274 1335l242 156l379 -295l-203 -109z" />
<glyph unicode="&#xfa;" horiz-adv-x="1247" d="M90 684q0 197 2 315l342 25l-2 -629q0 -162 148 -162q80 0 200 50v729h336v-979l-336 -47v53q-72 -29 -194 -53h-17q-145 0 -286 75q-158 84 -179 199q-14 78 -14 424zM284 1196l381 295l242 -156l-420 -248z" />
<glyph unicode="&#xfb;" horiz-adv-x="1247" d="M90 684q0 197 2 315l342 25l-2 -629q0 -162 148 -162q80 0 200 50v729h336v-979l-336 -47v53q-72 -29 -194 -53h-17q-145 0 -286 75q-158 84 -179 199q-14 78 -14 424zM266 1270l363 209l362 -209l-153 -158l-209 133l-209 -133z" />
<glyph unicode="&#xfc;" horiz-adv-x="1247" d="M90 684q0 197 2 315l342 25l-2 -629q0 -162 148 -162q80 0 200 50v729h336v-979l-336 -47v53q-72 -29 -194 -53h-17q-145 0 -286 75q-158 84 -179 199q-14 78 -14 424zM236 1263q0 61 45 107q43 45 107 45q61 0 106 -45t45 -107q0 -63 -45 -106q-45 -45 -106 -45 q-63 0 -107 45q-45 43 -45 106zM697 1263.5q0 63.5 45 108.5q43 43 104 43h4q61 -4 107 -45q43 -47 43 -107q0 -63 -43 -106q-45 -41 -107 -45h-4q-61 0 -104 43q-45 45 -45 108.5z" />
<glyph unicode="&#xfd;" horiz-adv-x="1259" d="M698 1262l381 295l242 -156l-420 -248zM31 977l352 49l266 -623l252 625l328 -53l-496 -1196q-45 -150 -131 -201q-78 -43 -262 -49l-172 262q135 0 188 14q47 12 72 64l57 156z" />
<glyph unicode="&#xff;" horiz-adv-x="1259" d="M11 977l352 49l266 -623l252 625l328 -53l-496 -1196q-45 -150 -131 -201q-78 -43 -262 -49l-172 262q135 0 188 14q47 12 72 64l57 156zM246 1243q0 61 45 107q43 45 107 45q61 0 106 -45t45 -107q0 -63 -45 -106q-45 -45 -106 -45q-63 0 -107 45q-45 43 -45 106z M707 1243.5q0 63.5 45 108.5q43 43 104 43h4q61 -4 107 -45q43 -47 43 -107q0 -63 -43 -106q-45 -41 -107 -45h-4q-61 0 -104 43q-45 45 -45 108.5z" />
<glyph unicode="&#x131;" horiz-adv-x="638" d="M154 0v991l335 27v-1018h-335z" />
<glyph unicode="&#x152;" horiz-adv-x="2148" d="M72 713q0 287 192 497q205 223 518 224h1266l31 -279h-740v-235h617v-279h-617v-362h740l-31 -279h-1276q-307 0 -510 223q-190 209 -190 490zM406 715q0 -176 108 -307q109 -129 262 -129h228v876h-228q-166 0 -266 -129q-104 -129 -104 -311z" />
<glyph unicode="&#x153;" horiz-adv-x="1964" d="M72 510q0 223 180 379q170 147 391 147q213 0 371 -139q150 143 354 143q244 0 404 -182q123 -138 122 -319q0 -63 -16 -142l-657 -20q70 -123 231 -123q137 0 238 84l141 -223q-151 -129 -442 -129h-17q-211 2 -360 143q-158 -143 -385 -143q-233 0 -398 164 q-157 153 -157 360zM408 508q0 -98 69 -174q68 -76 154 -76t153 80q63 76 64 174v4q-2 98 -68 176q-63 74 -149 74q-88 0 -156 -78q-67 -80 -67 -180zM1200 604l338 10q-61 170 -162 172h-4q-100 0 -172 -182z" />
<glyph unicode="&#x178;" horiz-adv-x="1411" d="M10 1405l377 49l322 -543l323 543l371 -49l-526 -805v-600h-336v600zM334 1702q0 61 45 107q43 45 107 45q61 0 106 -45t45 -107q0 -63 -45 -106q-45 -45 -106 -45q-63 0 -107 45q-45 43 -45 106zM795 1702.5q0 63.5 45 108.5q43 43 104 43h4q61 -4 107 -45 q43 -47 43 -107q0 -63 -43 -106q-45 -41 -107 -45h-4q-61 0 -104 43q-45 45 -45 108.5z" />
<glyph unicode="&#x2c6;" horiz-adv-x="765" d="M20 1270l363 209l362 -209l-153 -158l-209 133l-209 -133z" />
<glyph unicode="&#x2da;" horiz-adv-x="675" d="M338 999q-120 0 -209 86q-88 86 -88 207t88 207q89 86 209 86t209 -86q88 -86 88 -207t-88 -207q-89 -86 -209 -86zM338 1368q-66 0 -66 -76q0 -33 21 -53q18 -23 45 -22q25 0 47 22q18 23 18 53q0 34 -18 56q-20 20 -47 20z" />
<glyph unicode="&#x2dc;" horiz-adv-x="872" d="M63 1112v287q20 45 80 76q66 35 123 34q70 0 176.5 -65.5t169.5 -65.5q72 0 203 131v-274q-123 -123 -203 -123q-68 0 -174 66q-102 63 -172 63h-4q-53 0 -115 -37q-64 -41 -84 -92z" />
<glyph unicode="&#x2000;" horiz-adv-x="989" />
<glyph unicode="&#x2001;" horiz-adv-x="1978" />
<glyph unicode="&#x2002;" horiz-adv-x="989" />
<glyph unicode="&#x2003;" horiz-adv-x="1978" />
<glyph unicode="&#x2004;" horiz-adv-x="659" />
<glyph unicode="&#x2005;" horiz-adv-x="493" />
<glyph unicode="&#x2006;" horiz-adv-x="329" />
<glyph unicode="&#x2007;" horiz-adv-x="329" />
<glyph unicode="&#x2008;" horiz-adv-x="245" />
<glyph unicode="&#x2009;" horiz-adv-x="395" />
<glyph unicode="&#x200a;" horiz-adv-x="108" />
<glyph unicode="&#x2010;" horiz-adv-x="843" d="M133 403v267h578v-267h-578z" />
<glyph unicode="&#x2011;" horiz-adv-x="843" d="M133 403v267h578v-267h-578z" />
<glyph unicode="&#x2012;" horiz-adv-x="843" d="M133 403v267h578v-267h-578z" />
<glyph unicode="&#x2013;" horiz-adv-x="1169" d="M113 403v267h946v-267h-946z" />
<glyph unicode="&#x2014;" horiz-adv-x="1744" d="M113 403v267h1519v-267h-1519z" />
<glyph unicode="&#x2018;" horiz-adv-x="487" d="M31 1196q0 49 57 131l193 270l178 -71l-66 -344q-34 -166 -178 -166q-74 0 -127 51q-57 49 -57 129z" />
<glyph unicode="&#x2019;" horiz-adv-x="487" d="M31 1071l65 344q12 63 54 111q51 55 126.5 55t129.5 -51q53 -53 53 -129q0 -49 -58 -131l-192 -271z" />
<glyph unicode="&#x201a;" horiz-adv-x="442" d="M31 -227l63 327q27 150 158 150q66 0 113 -45q49 -45 49 -115q0 -43 -52 -119l-184 -258z" />
<glyph unicode="&#x201c;" horiz-adv-x="925" d="M31 1196q0 49 57 131l193 270l178 -71l-66 -344q-34 -166 -178 -166q-74 0 -127 51q-57 49 -57 129zM467 1196q0 49 57 131l193 270l178 -71l-66 -344q-31 -166 -178 -166q-76 0 -129 51q-55 49 -55 129z" />
<glyph unicode="&#x201d;" horiz-adv-x="925" d="M31 1071l65 344q35 166 174 166q74 0 131.5 -51t57.5 -129q0 -49 -58 -131l-192 -271zM467 1071l65 344q12 63 54 111q53 55 127 55q76 0 129 -51q53 -53 53 -129q0 -49 -57 -131l-193 -271z" />
<glyph unicode="&#x201e;" horiz-adv-x="839" d="M31 -227l63 327q27 150 158 150q66 0 113 -45q49 -45 49 -115q0 -43 -52 -119l-184 -258zM426 -227l63 327q27 150 158 150q70 0 115 -45q47 -47 47 -115q0 -43 -51 -119l-185 -258z" />
<glyph unicode="&#x2022;" horiz-adv-x="681" d="M92 586q0 101 74 172q76 70 176 69.5t176 -69.5q74 -71 74 -172q0 -104 -74 -172q-76 -72 -176 -72t-176 72q-74 68 -74 172z" />
<glyph unicode="&#x2026;" horiz-adv-x="1492" d="M72 166q0 76 53 129t129 53q74 0 131 -53q53 -53 53 -129t-53 -129q-57 -53 -131 -53q-76 0 -129 53t-53 129zM563 166q0 76 53 129q57 53 129 53q74 0 132 -53q53 -53 53 -129t-53 -129q-57 -53 -132 -53q-72 0 -129 53q-53 53 -53 129zM1055 166q0 76 53 129t129 53 q74 0 131 -53q53 -53 53 -129t-53 -129q-57 -53 -131 -53q-76 0 -129 53t-53 129z" />
<glyph unicode="&#x202f;" horiz-adv-x="395" />
<glyph unicode="&#x2039;" horiz-adv-x="641" d="M72 424v172l430 334l67 -254l-215 -170l217 -176l-69 -254z" />
<glyph unicode="&#x203a;" horiz-adv-x="641" d="M72 678l69 254l430 -348v-172l-430 -334l-67 256l215 168z" />
<glyph unicode="&#x2044;" horiz-adv-x="462" d="M-31 -348l-307 121l827 1781l312 -108z" />
<glyph unicode="&#x205f;" horiz-adv-x="493" />
<glyph unicode="&#x20ac;" horiz-adv-x="1439" d="M72 373l104 182h105l2 37h-211l104 182h146q66 172 213 275q145 102 348 112h20q109 0 227 -33q51 -12 238 -79l-137 -238q-66 29 -109 41q-135 41 -243 41q-131 0 -213 -119h555l-105 -182h-516l-2 -37h508l-105 -182h-362q74 -152 244 -152q129 0 358 98l125 -239 q-307 -119 -467 -119q-20 0 -31 2q-201 18 -352 129q-150 106 -205 281h-239z" />
<glyph unicode="&#x2122;" horiz-adv-x="1476" d="M113 1280v154h522v-154h-168v-395h-186v395h-168zM692 899l60 535h161l115 -265l111 265h164l61 -535l-190 -29l-15 144l-55 -129h-152l-57 129l-12 -146z" />
<glyph unicode="&#xe000;" horiz-adv-x="1025" d="M0 1025h1025v-1025h-1025v1025z" />
<glyph unicode="&#xfb01;" horiz-adv-x="1609" d="M1102 1366v4q2 68 55 121q53 47 125 47h9q76 -4 131 -49q53 -49 55 -119v-4q0 -68 -53 -115q-57 -47 -133 -51h-5q-74 0 -129 49q-55 46 -55 117zM1123 0v985l335 27v-1012h-335zM31 745v265h180q6 186 90 293q90 113 287 143q12 2 43 2q139 0 409 -90l-163 -248 q-160 63 -250 64q-53 0 -66 -37q-12 -39 -16 -127h362v-265h-358v-745h-336v745h-182z" />
<glyph unicode="&#xfb02;" horiz-adv-x="1570" d="M1102 0v1468l336 25v-1493h-336zM31 745v265h180q6 186 90 293q90 113 287 143q12 2 43 2q139 0 409 -90l-163 -248q-160 63 -250 64q-53 0 -66 -37q-12 -39 -16 -127h362v-265h-358v-745h-336v745h-182z" />
<glyph unicode="&#xfb03;" horiz-adv-x="2578" d="M2070 1366v4q2 68 55 121q53 47 125 47h9q76 -4 131 -49q53 -49 55 -119v-4q0 -68 -53 -115q-57 -47 -133 -51h-5q-74 0 -129 49q-55 46 -55 117zM2091 0v985l335 27v-1012h-335zM1000 745v265h180q6 186 90 293q90 113 287 143q12 2 43 2q139 0 409 -90l-163 -248 q-160 63 -250 64q-53 0 -66 -37q-12 -39 -16 -127h362v-265h-358v-745h-336v745h-182zM31 745v265h180q6 186 90 293q90 113 287 143q12 2 43 2q139 0 409 -90l-163 -248q-160 63 -250 64q-53 0 -66 -37q-12 -39 -16 -127h362v-265h-358v-745h-336v745h-182z" />
<glyph unicode="&#xfb04;" horiz-adv-x="2539" d="M2070 0v1468l336 25v-1493h-336zM1000 745v265h180q6 186 90 293q90 113 287 143q12 2 43 2q139 0 409 -90l-163 -248q-160 63 -250 64q-53 0 -66 -37q-12 -39 -16 -127h362v-265h-358v-745h-336v745h-182zM31 745v265h180q6 186 90 293q90 113 287 143q12 2 43 2 q139 0 409 -90l-163 -248q-160 63 -250 64q-53 0 -66 -37q-12 -39 -16 -127h362v-265h-358v-745h-336v745h-182z" />
</font>
</defs>
</svg>
